<svg xmlns="http://www.w3.org/2000/svg" xmlns:xlink="http://www.w3.org/1999/xlink" viewBox="0 0 382.46 318.78"><defs><style>.cls-1{fill:url(#鍊踑臇_蜸馯鳺艜_31);}.cls-2{fill:#ba7544;}.cls-3{fill:#ffde91;}.cls-101,.cls-102,.cls-103,.cls-105,.cls-106,.cls-107,.cls-109,.cls-11,.cls-110,.cls-111,.cls-113,.cls-114,.cls-116,.cls-117,.cls-119,.cls-12,.cls-120,.cls-14,.cls-15,.cls-17,.cls-18,.cls-20,.cls-21,.cls-23,.cls-24,.cls-26,.cls-27,.cls-29,.cls-30,.cls-32,.cls-33,.cls-35,.cls-36,.cls-38,.cls-39,.cls-4,.cls-41,.cls-42,.cls-44,.cls-45,.cls-47,.cls-48,.cls-51,.cls-52,.cls-54,.cls-55,.cls-57,.cls-58,.cls-6,.cls-61,.cls-62,.cls-64,.cls-65,.cls-67,.cls-68,.cls-70,.cls-71,.cls-73,.cls-74,.cls-76,.cls-77,.cls-79,.cls-8,.cls-80,.cls-82,.cls-83,.cls-85,.cls-86,.cls-88,.cls-89,.cls-9,.cls-91,.cls-92,.cls-94,.cls-95,.cls-97,.cls-98,.cls-99{fill:none;stroke:#954544;stroke-linecap:round;stroke-miterlimit:10;}.cls-4{stroke-width:0.74px;}.cls-5{fill:url(#鍊踑臇_蜸馯鳺艜_31-2);}.cls-6{stroke-width:0.88px;}.cls-7{fill:url(#鍊踑臇_蜸馯鳺艜_31-3);}.cls-8{stroke-width:0.06px;}.cls-9{stroke-width:0.06px;}.cls-10{fill:url(#鍊踑臇_蜸馯鳺艜_31-4);}.cls-11{stroke-width:0.06px;}.cls-12{stroke-width:0.06px;}.cls-13{fill:url(#鍊踑臇_蜸馯鳺艜_31-5);}.cls-14{stroke-width:0.08px;}.cls-15{stroke-width:0.08px;}.cls-16{fill:url(#鍊踑臇_蜸馯鳺艜_31-6);}.cls-17{stroke-width:0.17px;}.cls-18{stroke-width:0.17px;}.cls-19{fill:url(#鍊踑臇_蜸馯鳺艜_31-7);}.cls-20{stroke-width:0.09px;}.cls-21{stroke-width:0.09px;}.cls-22{fill:url(#鍊踑臇_蜸馯鳺艜_31-8);}.cls-23{stroke-width:0.07px;}.cls-24{stroke-width:0.07px;}.cls-25{fill:url(#鍊踑臇_蜸馯鳺艜_31-9);}.cls-26{stroke-width:0.05px;}.cls-27{stroke-width:0.06px;}.cls-28{fill:url(#鍊踑臇_蜸馯鳺艜_31-10);}.cls-29{stroke-width:0.13px;}.cls-30{stroke-width:0.13px;}.cls-31{fill:url(#鍊踑臇_蜸馯鳺艜_31-11);}.cls-32{stroke-width:0.05px;}.cls-33{stroke-width:0.05px;}.cls-34{fill:url(#鍊踑臇_蜸馯鳺艜_31-12);}.cls-35{stroke-width:0.06px;}.cls-36{stroke-width:0.06px;}.cls-37{fill:url(#鍊踑臇_蜸馯鳺艜_31-13);}.cls-38{stroke-width:0.09px;}.cls-39{stroke-width:0.09px;}.cls-40{fill:url(#鍊踑臇_蜸馯鳺艜_31-14);}.cls-41{stroke-width:0.45px;}.cls-42{stroke-width:0.46px;}.cls-43{fill:url(#鍊踑臇_蜸馯鳺艜_31-15);}.cls-44{stroke-width:0.16px;}.cls-45{stroke-width:0.16px;}.cls-46{fill:url(#鍊踑臇_蜸馯鳺艜_31-16);}.cls-47{stroke-width:0.1px;}.cls-48{stroke-width:0.1px;}.cls-49{fill:url(#鍊踑臇_蜸馯鳺艜_31-17);}.cls-50{fill:url(#鍊踑臇_蜸馯鳺艜_31-18);}.cls-51{stroke-width:0.08px;}.cls-52{stroke-width:0.08px;}.cls-53{fill:url(#鍊踑臇_蜸馯鳺艜_31-19);}.cls-54{stroke-width:0.07px;}.cls-55{stroke-width:0.07px;}.cls-56{fill:url(#鍊踑臇_蜸馯鳺艜_31-20);}.cls-57{stroke-width:0.12px;}.cls-58{stroke-width:0.12px;}.cls-59{fill:url(#鍊踑臇_蜸馯鳺艜_31-21);}.cls-60{fill:url(#鍊踑臇_蜸馯鳺艜_31-22);}.cls-61{stroke-width:0.24px;}.cls-62{stroke-width:0.24px;}.cls-63{fill:url(#鍊踑臇_蜸馯鳺艜_31-23);}.cls-64{stroke-width:0.11px;}.cls-65{stroke-width:0.11px;}.cls-66{fill:url(#鍊踑臇_蜸馯鳺艜_31-24);}.cls-67{stroke-width:0.27px;}.cls-68{stroke-width:0.28px;}.cls-69{fill:url(#鍊踑臇_蜸馯鳺艜_31-25);}.cls-70{stroke-width:0.19px;}.cls-71{stroke-width:0.19px;}.cls-72{fill:url(#鍊踑臇_蜸馯鳺艜_31-26);}.cls-73{stroke-width:0.62px;}.cls-74{stroke-width:0.62px;}.cls-75{fill:url(#鍊踑臇_蜸馯鳺艜_31-27);}.cls-76{stroke-width:0.24px;}.cls-77{stroke-width:0.24px;}.cls-78{fill:url(#鍊踑臇_蜸馯鳺艜_31-28);}.cls-79{stroke-width:0.29px;}.cls-80{stroke-width:0.29px;}.cls-81{fill:url(#鍊踑臇_蜸馯鳺艜_31-29);}.cls-82{stroke-width:0.05px;}.cls-83{stroke-width:0.05px;}.cls-84{fill:url(#鍊踑臇_蜸馯鳺艜_31-30);}.cls-85{stroke-width:0.1px;}.cls-86{stroke-width:0.1px;}.cls-87{fill:url(#鍊踑臇_蜸馯鳺艜_31-31);}.cls-88{stroke-width:0.07px;}.cls-89{stroke-width:0.07px;}.cls-90{fill:url(#鍊踑臇_蜸馯鳺艜_31-32);}.cls-91{stroke-width:0.1px;}.cls-92{stroke-width:0.1px;}.cls-93{fill:url(#鍊踑臇_蜸馯鳺艜_31-33);}.cls-94{stroke-width:1.04px;}.cls-95{stroke-width:1.05px;}.cls-96{fill:url(#鍊踑臇_蜸馯鳺艜_31-34);}.cls-97{stroke-width:0.14px;}.cls-98{stroke-width:0.14px;}.cls-99{stroke-width:0.14px;}.cls-100{fill:url(#鍊踑臇_蜸馯鳺艜_31-35);}.cls-101{stroke-width:0.26px;}.cls-102{stroke-width:0.27px;}.cls-103{stroke-width:0.27px;}.cls-104{fill:url(#鍊踑臇_蜸馯鳺艜_31-36);}.cls-105{stroke-width:0.11px;}.cls-106{stroke-width:0.11px;}.cls-107{stroke-width:0.11px;}.cls-108{fill:url(#鍊踑臇_蜸馯鳺艜_31-37);}.cls-109{stroke-width:0.13px;}.cls-110{stroke-width:0.13px;}.cls-111{stroke-width:0.13px;}.cls-112{fill:url(#鍊踑臇_蜸馯鳺艜_31-38);}.cls-113{stroke-width:0.11px;}.cls-114{stroke-width:0.11px;}.cls-115{fill:url(#鍊踑臇_蜸馯鳺艜_31-39);}.cls-116{stroke-width:0.09px;}.cls-117{stroke-width:0.09px;}.cls-118{fill:url(#鍊踑臇_蜸馯鳺艜_31-40);}.cls-119{stroke-width:0.19px;}.cls-120{stroke-width:0.19px;}</style><radialGradient id="鍊踑臇_蜸馯鳺艜_31" cx="17448.53" cy="-2195.8" r="32.32" gradientTransform="matrix(-0.81, 0.05, 0.05, 0.75, 14585.83, 1100.81)" gradientUnits="userSpaceOnUse"><stop offset="0" stop-color="#ffc25b"/><stop offset="0.71" stop-color="#eb776a"/><stop offset="0.98" stop-color="#f3685e"/></radialGradient><radialGradient id="鍊踑臇_蜸馯鳺艜_31-2" cx="12761.78" cy="810.09" r="22.16" gradientTransform="matrix(-1.4, 0.14, 0.15, 1.3, 17951.4, -2607.53)" xlink:href="#鍊踑臇_蜸馯鳺艜_31"/><radialGradient id="鍊踑臇_蜸馯鳺艜_31-3" cx="46067.09" cy="-18953.42" r="8.57" gradientTransform="matrix(-0.23, 0, 0, 0.22, 10848.85, 4196.94)" xlink:href="#鍊踑臇_蜸馯鳺艜_31"/><radialGradient id="鍊踑臇_蜸馯鳺艜_31-4" cx="41662.62" cy="-16222.4" r="8.57" gradientTransform="matrix(-0.26, 0, 0, 0.24, 11065.59, 4048.62)" xlink:href="#鍊踑臇_蜸馯鳺艜_31"/><radialGradient id="鍊踑臇_蜸馯鳺艜_31-5" cx="30632.5" cy="-15767.39" r="8.56" gradientTransform="matrix(-0.33, 0.05, 0.06, 0.31, 11276.88, 3325.46)" xlink:href="#鍊踑臇_蜸馯鳺艜_31"/><radialGradient id="鍊踑臇_蜸馯鳺艜_31-6" cx="17398.29" cy="-6136.74" r="8.56" gradientTransform="matrix(-0.68, 0.18, 0.2, 0.63, 13040.17, 753.26)" xlink:href="#鍊踑臇_蜸馯鳺艜_31"/><radialGradient id="鍊踑臇_蜸馯鳺艜_31-7" cx="31064.94" cy="-11319.99" r="8.57" gradientTransform="matrix(-0.37, 0.02, 0.02, 0.34, 11710.09, 3402.48)" xlink:href="#鍊踑臇_蜸馯鳺艜_31"/><radialGradient id="鍊踑臇_蜸馯鳺艜_31-8" cx="40044.74" cy="-15172.25" r="8.56" gradientTransform="matrix(-0.28, 0, 0, 0.26, 11120.33, 3941.65)" xlink:href="#鍊踑臇_蜸馯鳺艜_31"/><radialGradient id="鍊踑臇_蜸馯鳺艜_31-9" cx="47283.06" cy="-19713.74" r="8.56" gradientTransform="matrix(-0.23, 0, 0, 0.21, 10744.71, 4165.57)" xlink:href="#鍊踑臇_蜸馯鳺艜_31"/><radialGradient id="鍊踑臇_蜸馯鳺艜_31-10" cx="22245.02" cy="-8036.11" r="8.56" gradientTransform="matrix(-0.53, 0.08, 0.09, 0.49, 12506.7, 2190.75)" xlink:href="#鍊踑臇_蜸馯鳺艜_31"/><radialGradient id="鍊踑臇_蜸馯鳺艜_31-11" cx="43709.66" cy="-27322.92" r="8.57" gradientTransform="matrix(-0.22, 0.03, 0.04, 0.2, 10531.37, 4029.61)" xlink:href="#鍊踑臇_蜸馯鳺艜_31"/><radialGradient id="鍊踑臇_蜸馯鳺艜_31-12" cx="43135.54" cy="-16650.82" r="8.57" gradientTransform="matrix(-0.25, 0, 0, 0.24, 11005.15, 4116.75)" xlink:href="#鍊踑臇_蜸馯鳺艜_31"/><radialGradient id="鍊踑臇_蜸馯鳺艜_31-13" cx="32595.59" cy="-10371.61" r="8.57" gradientTransform="matrix(-0.36, 0, 0, 0.33, 11729.9, 3644.11)" xlink:href="#鍊踑臇_蜸馯鳺艜_31"/><radialGradient id="鍊踑臇_蜸馯鳺艜_31-14" cx="13032.82" cy="-1675.88" r="14.09" gradientTransform="matrix(-1.08, 0.31, 0.34, 1.01, 14760.49, -2176.9)" xlink:href="#鍊踑臇_蜸馯鳺艜_31"/><radialGradient id="鍊踑臇_蜸馯鳺艜_31-15" cx="14945.75" cy="434.23" r="5.01" gradientTransform="matrix(-1.13, 0, 0, 1.05, 16983.29, -280.24)" xlink:href="#鍊踑臇_蜸馯鳺艜_31"/><radialGradient id="鍊踑臇_蜸馯鳺艜_31-16" cx="20269.45" cy="-2956.22" r="5.01" gradientTransform="matrix(-0.68, 0, 0, 0.63, 13885.26, 2004.97)" xlink:href="#鍊踑臇_蜸馯鳺艜_31"/><radialGradient id="鍊踑臇_蜸馯鳺艜_31-17" cx="20243.87" cy="-2958.34" r="5.01" gradientTransform="matrix(-0.68, 0, 0, 0.63, 13885.26, 2004.97)" xlink:href="#鍊踑臇_蜸馯鳺艜_31"/><radialGradient id="鍊踑臇_蜸馯鳺艜_31-18" cx="15143.71" cy="875.17" r="2.55" gradientTransform="matrix(-1.13, -0.07, -0.07, 1.05, 17347.13, 179.97)" xlink:href="#鍊踑臇_蜸馯鳺艜_31"/><radialGradient id="鍊踑臇_蜸馯鳺艜_31-19" cx="16811" cy="-16.8" r="2.55" gradientTransform="matrix(-0.94, -0.06, -0.06, 0.88, 16012.97, 1033.34)" xlink:href="#鍊踑臇_蜸馯鳺艜_31"/><radialGradient id="鍊踑臇_蜸馯鳺艜_31-20" cx="11649.62" cy="930.68" r="2.55" gradientTransform="matrix(-1.61, 0.28, 0.3, 1.5, 18663.39, -4561.21)" xlink:href="#鍊踑臇_蜸馯鳺艜_31"/><radialGradient id="鍊踑臇_蜸馯鳺艜_31-21" cx="14930.64" cy="452.61" r="5.01" gradientTransform="matrix(-1.13, 0, 0, 1.05, 16983.29, -280.24)" xlink:href="#鍊踑臇_蜸馯鳺艜_31"/><radialGradient id="鍊踑臇_蜸馯鳺艜_31-22" cx="14997.03" cy="335.2" r="7.57" gradientTransform="matrix(-1.13, 0, 0, 1.05, 16983.29, -280.24)" xlink:href="#鍊踑臇_蜸馯鳺艜_31"/><radialGradient id="鍊踑臇_蜸馯鳺艜_31-23" cx="23694.25" cy="-6567.93" r="7.57" gradientTransform="matrix(-0.52, 0.03, 0.03, 0.48, 12505.99, 2510.49)" xlink:href="#鍊踑臇_蜸馯鳺艜_31"/><radialGradient id="鍊踑臇_蜸馯鳺艜_31-24" cx="14009.79" cy="-580.49" r="8.57" gradientTransform="matrix(-1.12, 0.15, 0.16, 1.04, 16006.46, -1229.48)" xlink:href="#鍊踑臇_蜸馯鳺艜_31"/><radialGradient id="鍊踑臇_蜸馯鳺艜_31-25" cx="17890.53" cy="-2844.88" r="8.56" gradientTransform="matrix(-0.77, 0.06, 0.07, 0.72, 14150.32, 1158.41)" xlink:href="#鍊踑臇_蜸馯鳺艜_31"/><radialGradient id="鍊踑臇_蜸馯鳺艜_31-26" cx="14424.97" cy="-1138.98" r="20.24" gradientTransform="matrix(-1.07, 0.16, 0.17, 1.02, 15695.55, -1028.81)" xlink:href="#鍊踑臇_蜸馯鳺艜_31"/><radialGradient id="鍊踑臇_蜸馯鳺艜_31-27" cx="33978.32" cy="2124.71" r="20.24" gradientTransform="matrix(-0.39, -0.15, -0.16, 0.37, 13613.01, 4216.66)" xlink:href="#鍊踑臇_蜸馯鳺艜_31"/><radialGradient id="鍊踑臇_蜸馯鳺艜_31-28" cx="28615.45" cy="-518.84" r="20.23" gradientTransform="matrix(-0.49, -0.11, -0.12, 0.47, 14242.9, 3473.54)" xlink:href="#鍊踑臇_蜸馯鳺艜_31"/><radialGradient id="鍊踑臇_蜸馯鳺艜_31-29" cx="141457.17" cy="-42488.26" r="20.24" gradientTransform="matrix(-0.08, -0.01, -0.01, 0.08, 11312.81, 4981.74)" xlink:href="#鍊踑臇_蜸馯鳺艜_31"/><radialGradient id="鍊踑臇_蜸馯鳺艜_31-30" cx="68366.54" cy="-15441.69" r="20.24" gradientTransform="matrix(-0.18, -0.03, -0.03, 0.17, 11865.97, 4594.9)" xlink:href="#鍊踑臇_蜸馯鳺艜_31"/><radialGradient id="鍊踑臇_蜸馯鳺艜_31-31" cx="101217.33" cy="-36086.18" r="20.24" gradientTransform="matrix(-0.11, -0.01, -0.01, 0.11, 11436.72, 4829.75)" xlink:href="#鍊踑臇_蜸馯鳺艜_31"/><radialGradient id="鍊踑臇_蜸馯鳺艜_31-32" cx="69328.42" cy="-21868.4" r="20.24" gradientTransform="matrix(-0.17, -0.01, -0.01, 0.17, 11731.87, 4551.17)" xlink:href="#鍊踑臇_蜸馯鳺艜_31"/><radialGradient id="鍊踑臇_蜸馯鳺艜_31-33" cx="15143.87" cy="433.68" r="33.81" gradientTransform="matrix(-1.1, 0, 0, 1.03, 16788.8, -144.55)" xlink:href="#鍊踑臇_蜸馯鳺艜_31"/><radialGradient id="鍊踑臇_蜸馯鳺艜_31-34" cx="69179.52" cy="-45622.86" r="33.82" gradientTransform="matrix(-0.14, 0.03, 0.03, 0.14, 11450.14, 4608.28)" xlink:href="#鍊踑臇_蜸馯鳺艜_31"/><radialGradient id="鍊踑臇_蜸馯鳺艜_31-35" cx="41246.74" cy="-20052.76" r="33.82" gradientTransform="matrix(-0.28, 0.04, 0.04, 0.26, 12244.13, 3840.7)" xlink:href="#鍊踑臇_蜸馯鳺艜_31"/><radialGradient id="鍊踑臇_蜸馯鳺艜_31-36" cx="99786.09" cy="-46836.69" r="33.82" gradientTransform="matrix(-0.11, 0, 0, 0.1, 11393.8, 4885.77)" xlink:href="#鍊踑臇_蜸馯鳺艜_31"/><radialGradient id="鍊踑臇_蜸馯鳺艜_31-37" cx="87632.04" cy="-30901.55" r="33.81" gradientTransform="matrix(-0.13, -0.01, -0.01, 0.13, 11562.04, 4852.19)" xlink:href="#鍊踑臇_蜸馯鳺艜_31"/><radialGradient id="鍊踑臇_蜸馯鳺艜_31-38" cx="67563.94" cy="-16985.42" r="20.23" gradientTransform="matrix(-0.18, -0.02, -0.03, 0.18, 11977.29, 4624.41)" xlink:href="#鍊踑臇_蜸馯鳺艜_31"/><radialGradient id="鍊踑臇_蜸馯鳺艜_31-39" cx="76164.29" cy="-19838.54" r="20.24" gradientTransform="matrix(-0.16, -0.02, -0.02, 0.15, 11822.33, 4697.43)" xlink:href="#鍊踑臇_蜸馯鳺艜_31"/><radialGradient id="鍊踑臇_蜸馯鳺艜_31-40" cx="38856.4" cy="-10254.58" r="20.24" gradientTransform="matrix(-0.33, -0.01, -0.01, 0.32, 12863.6, 3795.2)" xlink:href="#鍊踑臇_蜸馯鳺艜_31"/></defs><g id="圖層_2" data-name="圖層 2"><g id="圖層_1-2" data-name="圖層 1"><path class="cls-1" d="M340.38,219.8c2.33,8.24,6.91,20.86,8.69,25.69.46,1.25.74,2,.74,2L375.72,246s0-.33.41-2.1c.42-1.94,1.25-5.61,2.93-12.49a129.74,129.74,0,0,0,3.4-25.36h0c0-.23,0-.45,0-.68-.54-8.31-10.85-14.5-23-13.81-11.58.64-20.67,7.26-21.1,15h0S337.45,209.43,340.38,219.8Z"/><path class="cls-2" d="M349.07,245.49c.46,1.25.74,2,.74,2L375.72,246s0-.33.41-2.1a43.93,43.93,0,0,0-12.33-1A54.46,54.46,0,0,0,349.07,245.49Z"/><path class="cls-3" d="M349.85,247.46c.06,1,5.9,1.44,13,1S375.77,247,375.71,246s-5.9-1.43-13-1S349.78,246.5,349.85,247.46Z"/><path class="cls-4" d="M348.13,194.37s-7.3,6.23-3.92,20.27,8.11,29.91,8.11,29.91"/><path class="cls-4" d="M370.47,193.12s8,5.37,6.5,19.69-4.21,30.59-4.21,30.59"/><path class="cls-5" d="M204.31,155.73c3.22,9.67,9.36,24.44,11.75,30.09.61,1.46,1,2.31,1,2.31l30.7-3s0-.39.36-2.51c.39-2.32,1.18-6.72,2.79-15a153.75,153.75,0,0,0,2.64-30.3h0c0-.27,0-.54-.06-.8-1.1-9.85-13.69-16.7-28.13-15.31-13.71,1.33-24.15,9.62-24.22,18.88h0S200.26,143.56,204.31,155.73Z"/><path class="cls-2" d="M216.06,185.82c.61,1.46,1,2.31,1,2.31l30.7-3s0-.39.36-2.51a52,52,0,0,0-14.69-.57A64.67,64.67,0,0,0,216.06,185.82Z"/><path class="cls-3" d="M217.09,188.13c.13,1.15,7.09,1.42,15.55.6s15.21-2.41,15.08-3.56-7.09-1.42-15.55-.6S217,187,217.09,188.13Z"/><path class="cls-6" d="M212.1,125.16s-8.32,7.74-3.53,24.26,11.29,35.13,11.29,35.13"/><path class="cls-6" d="M238.57,122.6s9.85,6,8.81,23.07-3.31,36.54-3.31,36.54"/><path class="cls-7" d="M165.94,103.66c.14.63.42,1.61.53,2l.05.16h2a.77.77,0,0,1,0-.16c0-.15.12-.42.28-.93a9.63,9.63,0,0,0,.38-1.91h0v0c0-.63-.75-1.14-1.67-1.14s-1.6.46-1.67,1h0A2.47,2.47,0,0,0,165.94,103.66Z"/><path class="cls-8" d="M169.19,102.66s-.37-.38-1.6-.39a3,3,0,0,0-1.74.38"/><path class="cls-8" d="M169.07,102.33a2.86,2.86,0,0,0-1.48-.3,3.36,3.36,0,0,0-1.64.32"/><path class="cls-8" d="M168.75,102h0a3.46,3.46,0,0,0-1.16-.16,3.94,3.94,0,0,0-1.36.19"/><path class="cls-8" d="M169.19,102.88s-.37-.38-1.6-.39a2.92,2.92,0,0,0-1.74.39"/><path class="cls-8" d="M165.85,103.11h0a2.9,2.9,0,0,1,1.74-.38,2.65,2.65,0,0,1,1.57.35"/><path class="cls-8" d="M169.13,103.32a2.8,2.8,0,0,0-1.54-.33,3.11,3.11,0,0,0-1.71.36"/><path class="cls-8" d="M169.09,103.55a3,3,0,0,0-1.5-.31,3.38,3.38,0,0,0-1.67.34"/><path class="cls-8" d="M169,103.8a3.19,3.19,0,0,0-1.45-.28,3.32,3.32,0,0,0-1.61.31"/><path class="cls-8" d="M169,104a3.15,3.15,0,0,0-1.4-.25,3.51,3.51,0,0,0-1.56.28"/><path class="cls-8" d="M168.93,104.28a3,3,0,0,0-1.34-.27,3.5,3.5,0,0,0-1.5.26"/><path class="cls-8" d="M168.87,104.5a3.08,3.08,0,0,0-1.28-.23,3.68,3.68,0,0,0-1.44.23"/><path class="cls-9" d="M168.8,104.74a3.1,3.1,0,0,0-1.2-.22,3.86,3.86,0,0,0-1.39.22"/><path class="cls-9" d="M168.73,105a3.26,3.26,0,0,0-1.13-.18,3.82,3.82,0,0,0-1.33.19"/><path class="cls-9" d="M168.66,105.18a3,3,0,0,0-1.06-.17,3.83,3.83,0,0,0-1.26.17"/><path class="cls-9" d="M168.59,105.41a3,3,0,0,0-1-.15,4.4,4.4,0,0,0-1.2.15"/><path class="cls-2" d="M166.47,105.64l.05.16h2a.77.77,0,0,1,0-.16,3.57,3.57,0,0,0-.93-.13A4.61,4.61,0,0,0,166.47,105.64Z"/><path class="cls-3" d="M166.52,105.8c0,.07.44.13,1,.13s1-.06,1-.13-.44-.14-1-.14S166.52,105.72,166.52,105.8Z"/><path class="cls-8" d="M166.65,101.77a1.55,1.55,0,0,0-.4,1.52c.19,1.07.47,2.3.47,2.3"/><path class="cls-8" d="M168.35,101.77a1.53,1.53,0,0,1,.39,1.52c-.18,1.07-.46,2.3-.46,2.3"/><path class="cls-10" d="M134.31,84.09c.16.71.48,1.82.61,2.24l.05.17h2.23a1.05,1.05,0,0,1,0-.18c0-.16.14-.47.32-1a10.83,10.83,0,0,0,.43-2.16h0v0c0-.72-.85-1.3-1.89-1.3s-1.81.52-1.89,1.19h0A2.58,2.58,0,0,0,134.31,84.09Z"/><path class="cls-11" d="M138,83a2.73,2.73,0,0,0-1.81-.44,3.38,3.38,0,0,0-2,.44"/><path class="cls-11" d="M137.86,82.58a3.35,3.35,0,0,0-1.68-.34,3.92,3.92,0,0,0-1.86.36"/><path class="cls-11" d="M137.5,82.18h0a4.71,4.71,0,0,0-1.32-.18,4.46,4.46,0,0,0-1.53.22"/><path class="cls-11" d="M138,83.2s-.42-.42-1.81-.43a3.34,3.34,0,0,0-2,.43"/><path class="cls-11" d="M134.21,83.46h0a3.41,3.41,0,0,1,2-.43,3.1,3.1,0,0,1,1.78.4"/><path class="cls-11" d="M137.92,83.7a3.24,3.24,0,0,0-1.74-.38,3.65,3.65,0,0,0-1.93.41"/><path class="cls-11" d="M137.88,84a3.23,3.23,0,0,0-1.7-.35,3.7,3.7,0,0,0-1.88.38"/><path class="cls-11" d="M137.82,84.25a3.46,3.46,0,0,0-1.64-.32,3.9,3.9,0,0,0-1.82.34"/><path class="cls-11" d="M137.77,84.5a3.49,3.49,0,0,0-1.59-.29,4,4,0,0,0-1.76.31"/><path class="cls-11" d="M137.7,84.78a3.54,3.54,0,0,0-1.52-.3,4.31,4.31,0,0,0-1.7.29"/><path class="cls-11" d="M137.63,85a3.53,3.53,0,0,0-1.45-.27,4.3,4.3,0,0,0-1.63.26"/><path class="cls-12" d="M137.55,85.3a3.63,3.63,0,0,0-1.36-.24,4.49,4.49,0,0,0-1.57.24"/><path class="cls-12" d="M137.47,85.55a3.69,3.69,0,0,0-1.28-.21,4.11,4.11,0,0,0-1.5.22"/><path class="cls-12" d="M137.4,85.81a3.51,3.51,0,0,0-1.21-.2,4.45,4.45,0,0,0-1.43.2"/><path class="cls-12" d="M137.32,86.06a3.58,3.58,0,0,0-1.13-.16,4.26,4.26,0,0,0-1.35.17"/><path class="cls-2" d="M134.92,86.33l.05.17h2.23a1.05,1.05,0,0,1,0-.18,4.37,4.37,0,0,0-1.05-.14A5.06,5.06,0,0,0,134.92,86.33Z"/><path class="cls-3" d="M135,86.5c0,.09.5.15,1.11.15s1.11-.06,1.11-.15-.49-.15-1.11-.15S135,86.42,135,86.5Z"/><path class="cls-11" d="M135.12,82a1.73,1.73,0,0,0-.45,1.71c.21,1.22.53,2.6.53,2.6"/><path class="cls-11" d="M137,82a1.73,1.73,0,0,1,.45,1.71c-.22,1.22-.53,2.6-.53,2.6"/><path class="cls-13" d="M125.89,74.44c.37.88,1,2.22,1.3,2.73l.11.21,2.83-.46s0,0,0-.23.06-.64.16-1.41a14.33,14.33,0,0,0,0-2.84h0a.17.17,0,0,0,0-.07c-.17-.91-1.39-1.47-2.72-1.26s-2.18,1-2.12,1.9h0A3.51,3.51,0,0,0,125.89,74.44Z"/><path class="cls-14" d="M130.31,72.23a3.57,3.57,0,0,0-2.41-.18,4.26,4.26,0,0,0-2.41,1"/><path class="cls-14" d="M130.05,71.79a4.35,4.35,0,0,0-2.22-.09,4.75,4.75,0,0,0-2.28.85"/><path class="cls-14" d="M129.49,71.36h0a5.57,5.57,0,0,0-1.71,0,5.69,5.69,0,0,0-1.91.6"/><path class="cls-14" d="M130.37,72.55a3.57,3.57,0,0,0-2.41-.18,4.33,4.33,0,0,0-2.42,1"/><path class="cls-14" d="M125.61,73.67h0a4.16,4.16,0,0,1,2.41-1,3.91,3.91,0,0,1,2.36.15"/><path class="cls-14" d="M130.39,73.21a4.14,4.14,0,0,0-2.3-.13,4.61,4.61,0,0,0-2.37.92"/><path class="cls-14" d="M130.4,73.55a4.34,4.34,0,0,0-2.24-.1,4.74,4.74,0,0,0-2.32.88"/><path class="cls-14" d="M130.4,73.92a4.62,4.62,0,0,0-2.17-.07,4.9,4.9,0,0,0-2.24.82"/><path class="cls-14" d="M130.39,74.25a4.84,4.84,0,0,0-2.09,0,5.36,5.36,0,0,0-2.18.76"/><path class="cls-14" d="M130.37,74.63a4.43,4.43,0,0,0-2-.07,5.15,5.15,0,0,0-2.11.72"/><path class="cls-14" d="M130.34,75a4.52,4.52,0,0,0-1.91,0,5.48,5.48,0,0,0-2,.66"/><path class="cls-15" d="M130.3,75.32a4.81,4.81,0,0,0-1.79,0,5.6,5.6,0,0,0-1.94.64"/><path class="cls-15" d="M130.26,75.65a4.62,4.62,0,0,0-1.68,0,5.49,5.49,0,0,0-1.86.58"/><path class="cls-15" d="M130.22,76a4.32,4.32,0,0,0-1.58,0,5.55,5.55,0,0,0-1.77.54"/><path class="cls-15" d="M130.19,76.34a4.62,4.62,0,0,0-1.48,0,5.58,5.58,0,0,0-1.68.49"/><path class="cls-2" d="M127.19,77.17l.11.21,2.83-.46s0,0,0-.23a4.59,4.59,0,0,0-1.37,0A6.33,6.33,0,0,0,127.19,77.17Z"/><path class="cls-3" d="M127.3,77.38a2.88,2.88,0,0,0,1.45,0c.78-.12,1.4-.31,1.38-.42a2.88,2.88,0,0,0-1.45,0C127.9,77.08,127.28,77.27,127.3,77.38Z"/><path class="cls-14" d="M126.41,71.55a2.22,2.22,0,0,0-.17,2.28c.56,1.51,1.3,3.2,1.3,3.2"/><path class="cls-14" d="M128.85,71.15a2.3,2.3,0,0,1,1,2.1c0,1.59-.06,3.42-.06,3.42"/><path class="cls-16" d="M82.3,69c1,1.73,2.69,4.35,3.35,5.35.17.26.28.41.28.41l5.73-1.55s0-.08,0-.49,0-1.32,0-2.94A29.94,29.94,0,0,0,91,64h0l0-.15c-.57-1.84-3.22-2.74-5.91-2s-4.24,2.61-3.91,4.37h0S81.08,66.83,82.3,69Z"/><path class="cls-17" d="M90.86,63.53s-1.42-.8-5,.14-4.73,2.49-4.73,2.49"/><path class="cls-17" d="M90.22,62.67a9.12,9.12,0,0,0-4.59.29,9.93,9.93,0,0,0-4.5,2.23"/><path class="cls-17" d="M89,61.9h0a12,12,0,0,0-3.52.44A11.61,11.61,0,0,0,81.66,64"/><path class="cls-17" d="M91.06,64.17s-1.42-.79-5,.14-4.73,2.5-4.73,2.5"/><path class="cls-17" d="M81.53,67.48h0s1.2-1.57,4.74-2.49c3-.78,4.48-.35,4.89-.19"/><path class="cls-17" d="M91.27,65.52a8.57,8.57,0,0,0-4.77.23,9.34,9.34,0,0,0-4.66,2.4"/><path class="cls-17" d="M91.37,66.22a9.21,9.21,0,0,0-4.63.28,9.76,9.76,0,0,0-4.56,2.29"/><path class="cls-17" d="M91.46,67A9.41,9.41,0,0,0,87,67.3a10.23,10.23,0,0,0-4.43,2.17"/><path class="cls-17" d="M91.52,67.67a10,10,0,0,0-4.31.35,10.53,10.53,0,0,0-4.29,2"/><path class="cls-17" d="M91.57,68.45a9.25,9.25,0,0,0-4.14.28,10.82,10.82,0,0,0-4.15,1.93"/><path class="cls-17" d="M91.6,69.16a9.45,9.45,0,0,0-3.94.32,11.18,11.18,0,0,0-4,1.8"/><path class="cls-18" d="M91.61,69.9a9.4,9.4,0,0,0-3.69.32,11.27,11.27,0,0,0-3.85,1.71"/><path class="cls-18" d="M91.61,70.58a10,10,0,0,0-3.47.35,11.62,11.62,0,0,0-3.68,1.6"/><path class="cls-18" d="M91.61,71.3a9.59,9.59,0,0,0-3.25.34,11.66,11.66,0,0,0-3.52,1.49"/><path class="cls-18" d="M91.62,72a10.17,10.17,0,0,0-3,.35,12.08,12.08,0,0,0-3.35,1.38"/><path class="cls-2" d="M85.65,74.37c.17.26.28.41.28.41l5.73-1.55s0-.08,0-.49a10,10,0,0,0-2.81.36A12.07,12.07,0,0,0,85.65,74.37Z"/><path class="cls-3" d="M85.93,74.77c.07.22,1.41,0,3-.38s2.8-1,2.73-1.16-1.4,0-3,.38S85.87,74.56,85.93,74.77Z"/><path class="cls-17" d="M82.65,63s-1.29,1.74.23,4.73S86.33,74,86.33,74"/><path class="cls-17" d="M87.6,61.61s2.09.83,2.53,4.11.72,7.06.72,7.06"/><path class="cls-19" d="M83.5,50.8c.27,1,.81,2.51,1,3.1l.09.24L87.72,54a2.06,2.06,0,0,1,0-.25c0-.23.16-.67.37-1.5a15.33,15.33,0,0,0,.45-3.05h0v-.08c0-1-1.28-1.75-2.75-1.69s-2.5.85-2.56,1.79h0A3.56,3.56,0,0,0,83.5,50.8Z"/><path class="cls-20" d="M88.57,49S88,48.4,86,48.47a4.69,4.69,0,0,0-2.74.74"/><path class="cls-20" d="M88.36,48.45A4.71,4.71,0,0,0,86,48.09a5.32,5.32,0,0,0-2.59.63"/><path class="cls-20" d="M87.82,47.92h0A6.21,6.21,0,0,0,86,47.75a6.35,6.35,0,0,0-2.14.41"/><path class="cls-20" d="M88.59,49.32s-.62-.57-2.57-.5a4.67,4.67,0,0,0-2.73.74"/><path class="cls-20" d="M83.31,49.93h0A4.65,4.65,0,0,1,86,49.19a4.19,4.19,0,0,1,2.52.46"/><path class="cls-20" d="M88.53,50a4.5,4.5,0,0,0-2.46-.41,5.12,5.12,0,0,0-2.69.69"/><path class="cls-20" d="M88.48,50.4A4.55,4.55,0,0,0,86.09,50a5.29,5.29,0,0,0-2.62.66"/><path class="cls-20" d="M88.43,50.79a5,5,0,0,0-2.32-.34,5.38,5.38,0,0,0-2.53.61"/><path class="cls-20" d="M88.37,51.15a5.15,5.15,0,0,0-2.24-.31,5.72,5.72,0,0,0-2.45.56"/><path class="cls-20" d="M88.3,51.55a4.87,4.87,0,0,0-2.15-.32,5.82,5.82,0,0,0-2.37.51"/><path class="cls-20" d="M88.22,51.92a5.08,5.08,0,0,0-2-.29,6.29,6.29,0,0,0-2.27.47"/><path class="cls-21" d="M88.13,52.29A5.05,5.05,0,0,0,86.21,52a6.1,6.1,0,0,0-2.19.44"/><path class="cls-21" d="M88,52.64a5.24,5.24,0,0,0-1.81-.21,6.22,6.22,0,0,0-2.09.4"/><path class="cls-21" d="M88,53a5.07,5.07,0,0,0-1.7-.2,6.32,6.32,0,0,0-2,.37"/><path class="cls-21" d="M87.86,53.37a5,5,0,0,0-1.59-.16,6.58,6.58,0,0,0-1.89.32"/><path class="cls-2" d="M84.51,53.9l.09.24L87.72,54a2.06,2.06,0,0,1,0-.25,5.54,5.54,0,0,0-1.48-.13A6.63,6.63,0,0,0,84.51,53.9Z"/><path class="cls-3" d="M84.6,54.14a3.16,3.16,0,0,0,1.57.14c.86,0,1.55-.17,1.55-.29a3.16,3.16,0,0,0-1.57-.14C85.29,53.89,84.6,54,84.6,54.14Z"/><path class="cls-20" d="M84.47,47.75a2.4,2.4,0,0,0-.5,2.43c.39,1.7.94,3.61.94,3.61"/><path class="cls-20" d="M87.16,47.62A2.47,2.47,0,0,1,87.92,50c-.21,1.72-.55,3.68-.55,3.68"/><path class="cls-22" d="M36.89,20.76c.16.75.5,1.92.63,2.36l.06.19h2.35a1,1,0,0,1,0-.19c0-.17.14-.5.33-1.11a11.78,11.78,0,0,0,.46-2.28h0v-.06c0-.75-.89-1.36-2-1.36s-1.91.55-2,1.25h0A2.58,2.58,0,0,0,36.89,20.76Z"/><path class="cls-23" d="M40.77,19.56s-.44-.45-1.91-.46a3.59,3.59,0,0,0-2.08.46"/><path class="cls-23" d="M40.63,19.17a3.6,3.6,0,0,0-1.77-.36,4.06,4.06,0,0,0-2,.38"/><path class="cls-23" d="M40.25,18.75h0a4.41,4.41,0,0,0-1.39-.19,4.68,4.68,0,0,0-1.62.23"/><path class="cls-23" d="M40.77,19.82s-.44-.44-1.91-.46a3.59,3.59,0,0,0-2.08.46"/><path class="cls-23" d="M36.78,20.1h0a3.6,3.6,0,0,1,2.08-.46,3.14,3.14,0,0,1,1.87.43"/><path class="cls-23" d="M40.69,20.35a3.35,3.35,0,0,0-1.83-.4,3.83,3.83,0,0,0-2,.43"/><path class="cls-23" d="M40.65,20.63a3.59,3.59,0,0,0-1.79-.37,3.93,3.93,0,0,0-2,.4"/><path class="cls-23" d="M40.59,20.93a3.66,3.66,0,0,0-1.73-.34,4.09,4.09,0,0,0-1.93.37"/><path class="cls-23" d="M40.53,21.19a3.78,3.78,0,0,0-1.67-.3,4.23,4.23,0,0,0-1.86.33"/><path class="cls-23" d="M40.46,21.49a3.54,3.54,0,0,0-1.6-.31,4.38,4.38,0,0,0-1.8.3"/><path class="cls-23" d="M40.39,21.76a3.92,3.92,0,0,0-1.53-.28,4.55,4.55,0,0,0-1.73.27"/><path class="cls-24" d="M40.3,22a3.73,3.73,0,0,0-1.43-.25,4.49,4.49,0,0,0-1.66.25"/><path class="cls-24" d="M40.22,22.3a4.07,4.07,0,0,0-1.35-.22,4.46,4.46,0,0,0-1.58.23"/><path class="cls-24" d="M40.14,22.57a3.86,3.86,0,0,0-1.27-.2,4.64,4.64,0,0,0-1.51.2"/><path class="cls-24" d="M40.06,22.84a4,4,0,0,0-1.19-.17,4.74,4.74,0,0,0-1.43.18"/><path class="cls-2" d="M37.52,23.12l.06.19h2.35a1,1,0,0,1,0-.19A4,4,0,0,0,38.87,23,4.78,4.78,0,0,0,37.52,23.12Z"/><path class="cls-3" d="M37.58,23.31a2.4,2.4,0,0,0,1.17.16c.65,0,1.18-.07,1.18-.16s-.53-.16-1.18-.16S37.58,23.22,37.58,23.31Z"/><path class="cls-23" d="M37.74,18.5a1.83,1.83,0,0,0-.48,1.81c.23,1.29.56,2.74.56,2.74"/><path class="cls-23" d="M39.76,18.5a1.83,1.83,0,0,1,.48,1.81c-.23,1.29-.57,2.75-.57,2.75"/><path class="cls-25" d="M37.46,2c.14.62.41,1.57.52,1.93,0,.1.05.15.05.15H40a.89.89,0,0,1,0-.15c0-.14.12-.41.28-.91a9.48,9.48,0,0,0,.37-1.86h0v0C40.64.5,39.91,0,39,0s-1.56.45-1.63,1h0A2.42,2.42,0,0,0,37.46,2Z"/><path class="cls-26" d="M40.64,1S40.28.66,39.08.65A3,3,0,0,0,37.37,1"/><path class="cls-26" d="M40.53.71a3,3,0,0,0-1.45-.3,3.27,3.27,0,0,0-1.61.32"/><path class="cls-26" d="M40.21.36h0A3.64,3.64,0,0,0,39.08.21,3.74,3.74,0,0,0,37.75.4"/><path class="cls-26" d="M40.64,1.24S40.28.88,39.08.87a2.88,2.88,0,0,0-1.71.37"/><path class="cls-26" d="M37.37,1.47h0a3,3,0,0,1,1.71-.38,2.64,2.64,0,0,1,1.53.35"/><path class="cls-26" d="M40.58,1.68a2.77,2.77,0,0,0-1.5-.33,3.2,3.2,0,0,0-1.68.35"/><path class="cls-26" d="M40.54,1.9a3,3,0,0,0-1.46-.3,3.13,3.13,0,0,0-1.63.33"/><path class="cls-26" d="M40.49,2.15a3,3,0,0,0-1.41-.28,3.39,3.39,0,0,0-1.58.3"/><path class="cls-26" d="M40.44,2.36a3.28,3.28,0,0,0-1.36-.25,3.53,3.53,0,0,0-1.53.27"/><path class="cls-26" d="M40.38,2.61a2.9,2.9,0,0,0-1.3-.26,3.54,3.54,0,0,0-1.47.25"/><path class="cls-26" d="M40.33,2.83a3,3,0,0,0-1.25-.23,3.64,3.64,0,0,0-1.42.22"/><path class="cls-27" d="M40.26,3.06a2.88,2.88,0,0,0-1.18-.21,3.45,3.45,0,0,0-1.35.21"/><path class="cls-27" d="M40.19,3.27a3.13,3.13,0,0,0-1.11-.18,3.9,3.9,0,0,0-1.29.18"/><path class="cls-27" d="M40.12,3.49a3.14,3.14,0,0,0-1-.17,4,4,0,0,0-1.23.17"/><path class="cls-27" d="M40.06,3.71a3.09,3.09,0,0,0-1-.14,3.79,3.79,0,0,0-1.16.14"/><path class="cls-2" d="M38,3.94c0,.1.05.15.05.15H40a.89.89,0,0,1,0-.15,3.08,3.08,0,0,0-.91-.12A4,4,0,0,0,38,3.94Z"/><path class="cls-3" d="M38,4.09c0,.07.43.13,1,.13s1-.06,1-.13S39.52,4,39,4,38,4,38,4.09Z"/><path class="cls-26" d="M38.16.16a1.5,1.5,0,0,0-.39,1.48c.18,1.05.46,2.25.46,2.25"/><path class="cls-26" d="M39.82.16a1.51,1.51,0,0,1,.38,1.48c-.18,1.06-.46,2.25-.46,2.25"/><path class="cls-28" d="M56.93,78.59c.57,1.39,1.62,3.5,2,4.31l.17.33,4.48-.7s0,0,0-.37.1-1,.26-2.22A22.76,22.76,0,0,0,64,75.47h0s0-.08,0-.12c-.26-1.43-2.17-2.33-4.28-2s-3.45,1.62-3.37,3h0A5.37,5.37,0,0,0,56.93,78.59Z"/><path class="cls-29" d="M63.91,75.14s-1-.72-3.79-.3a6.77,6.77,0,0,0-3.82,1.49"/><path class="cls-29" d="M63.51,74.44A6.85,6.85,0,0,0,60,74.28,7.8,7.8,0,0,0,56.4,75.6"/><path class="cls-29" d="M62.64,73.76h0a10.32,10.32,0,0,0-5.72,1"/><path class="cls-29" d="M64,75.65s-1-.72-3.79-.31a6.77,6.77,0,0,0-3.82,1.49"/><path class="cls-29" d="M56.49,77.36h0a6.85,6.85,0,0,1,3.81-1.49c2.35-.35,3.43.1,3.72.26"/><path class="cls-29" d="M64,76.68a6.61,6.61,0,0,0-3.63-.22,7.18,7.18,0,0,0-3.75,1.44"/><path class="cls-29" d="M64,77.22a6.83,6.83,0,0,0-3.52-.17,7.4,7.4,0,0,0-3.66,1.36"/><path class="cls-29" d="M64,77.8a7.29,7.29,0,0,0-3.41-.12A7.82,7.82,0,0,0,57.08,79"/><path class="cls-29" d="M64,78.33a7.56,7.56,0,0,0-3.29-.09,8.15,8.15,0,0,0-3.44,1.19"/><path class="cls-29" d="M64,78.92a7,7,0,0,0-3.16-.13,8.53,8.53,0,0,0-3.32,1.12"/><path class="cls-29" d="M63.94,79.46a7.19,7.19,0,0,0-3-.09,8.68,8.68,0,0,0-3.2,1"/><path class="cls-30" d="M63.88,80A7.31,7.31,0,0,0,61.06,80a8.44,8.44,0,0,0-3.07,1"/><path class="cls-30" d="M63.81,80.53a7.55,7.55,0,0,0-2.65,0,8.94,8.94,0,0,0-2.94.91"/><path class="cls-30" d="M63.75,81.08a7,7,0,0,0-2.49,0,8.92,8.92,0,0,0-2.8.84"/><path class="cls-30" d="M63.68,81.61a7.83,7.83,0,0,0-2.32,0,9.33,9.33,0,0,0-2.66.77"/><path class="cls-2" d="M59,82.9l.17.33,4.48-.7s0,0,0-.37a7.7,7.7,0,0,0-2.17,0A9.86,9.86,0,0,0,59,82.9Z"/><path class="cls-3" d="M59.13,83.23c0,.17,1,.15,2.29,0s2.21-.49,2.17-.66a4.6,4.6,0,0,0-2.28,0C60.07,82.77,59.1,83.07,59.13,83.23Z"/><path class="cls-29" d="M57.77,74s-1.15,1.21-.28,3.59,2,5.06,2,5.06"/><path class="cls-29" d="M61.63,73.43s1.5.79,1.52,3.31S63,82.13,63,82.13"/><path class="cls-31" d="M113.22,77c.23.56.67,1.42.83,1.75l.07.14,1.83-.3s0,0,0-.15,0-.41.1-.91a8.56,8.56,0,0,0,0-1.82h0v0c-.11-.58-.9-1-1.76-.81s-1.4.67-1.36,1.23h0A2.11,2.11,0,0,0,113.22,77Z"/><path class="cls-32" d="M116.06,75.59a2.3,2.3,0,0,0-1.55-.12,2.69,2.69,0,0,0-1.55.62"/><path class="cls-32" d="M115.89,75.3a2.87,2.87,0,0,0-1.42-.06,3.13,3.13,0,0,0-1.47.55"/><path class="cls-32" d="M115.53,75h0a3.48,3.48,0,0,0-1.1,0,3.72,3.72,0,0,0-1.22.38"/><path class="cls-32" d="M116.1,75.79a2.3,2.3,0,0,0-1.55-.12,2.84,2.84,0,0,0-1.56.62"/><path class="cls-32" d="M113,76.51h0a2.71,2.71,0,0,1,1.55-.62,2.47,2.47,0,0,1,1.51.1"/><path class="cls-32" d="M116.11,76.21a2.73,2.73,0,0,0-1.48-.08,3,3,0,0,0-1.52.59"/><path class="cls-32" d="M116.12,76.43a2.94,2.94,0,0,0-1.44-.06,3.17,3.17,0,0,0-1.49.56"/><path class="cls-32" d="M116.12,76.67a2.94,2.94,0,0,0-1.39,0,3.19,3.19,0,0,0-1.45.52"/><path class="cls-32" d="M116.11,76.89a3,3,0,0,0-1.34,0,3.31,3.31,0,0,0-1.4.49"/><path class="cls-32" d="M116.1,77.13a2.88,2.88,0,0,0-1.29,0,3.34,3.34,0,0,0-1.35.47"/><path class="cls-32" d="M116.08,77.35a2.91,2.91,0,0,0-1.23,0,3.62,3.62,0,0,0-1.3.43"/><path class="cls-33" d="M116.06,77.57a3,3,0,0,0-1.15,0,3.48,3.48,0,0,0-1.25.4"/><path class="cls-33" d="M116,77.79a2.89,2.89,0,0,0-1.08,0,3.83,3.83,0,0,0-1.2.38"/><path class="cls-33" d="M116,78a2.86,2.86,0,0,0-1,0,3.67,3.67,0,0,0-1.14.35"/><path class="cls-33" d="M116,78.23a3,3,0,0,0-1,0,3.69,3.69,0,0,0-1.08.32"/><path class="cls-2" d="M114.05,78.76l.07.14,1.83-.3s0,0,0-.15a3.33,3.33,0,0,0-.88,0A4.07,4.07,0,0,0,114.05,78.76Z"/><path class="cls-3" d="M114.13,78.9c0,.07.43.06.93,0s.9-.2.89-.27a2,2,0,0,0-.94,0C114.51,78.71,114.11,78.83,114.13,78.9Z"/><path class="cls-32" d="M113.55,75.15a1.41,1.41,0,0,0-.1,1.46c.35,1,.83,2.06.83,2.06"/><path class="cls-32" d="M115.12,74.89a1.47,1.47,0,0,1,.63,1.35c0,1,0,2.2,0,2.2"/><path class="cls-34" d="M121.89,60.69c.14.69.44,1.76.55,2.17l0,.17,2.15,0,0-.18.32-1a11,11,0,0,0,.45-2.08h0v-.06c0-.69-.81-1.26-1.82-1.27s-1.75.49-1.84,1.13h0A2.44,2.44,0,0,0,121.89,60.69Z"/><path class="cls-35" d="M125.46,59.63s-.4-.41-1.74-.44a3.24,3.24,0,0,0-1.92.4"/><path class="cls-35" d="M125.34,59.27a3.37,3.37,0,0,0-1.62-.35,3.63,3.63,0,0,0-1.8.34"/><path class="cls-35" d="M125,58.88h0a4.59,4.59,0,0,0-1.27-.19,4.53,4.53,0,0,0-1.48.2"/><path class="cls-35" d="M125.46,59.87s-.4-.41-1.75-.44a3.32,3.32,0,0,0-1.91.4"/><path class="cls-35" d="M121.79,60.09h0a3.14,3.14,0,0,1,1.91-.4,2.85,2.85,0,0,1,1.71.41"/><path class="cls-35" d="M125.38,60.36a3,3,0,0,0-1.67-.39,3.52,3.52,0,0,0-1.88.38"/><path class="cls-35" d="M125.33,60.61a3.2,3.2,0,0,0-1.63-.36,3.73,3.73,0,0,0-1.83.35"/><path class="cls-35" d="M125.28,60.88a3.41,3.41,0,0,0-1.58-.32,3.83,3.83,0,0,0-1.77.31"/><path class="cls-35" d="M125.22,61.13a3.32,3.32,0,0,0-1.52-.3,4,4,0,0,0-1.72.28"/><path class="cls-35" d="M125.15,61.4a3.36,3.36,0,0,0-1.46-.31,4.19,4.19,0,0,0-1.65.26"/><path class="cls-35" d="M125.08,61.65a3.36,3.36,0,0,0-1.39-.28,4.46,4.46,0,0,0-1.59.23"/><path class="cls-36" d="M125,61.9a3.53,3.53,0,0,0-1.31-.25,4.35,4.35,0,0,0-1.52.22"/><path class="cls-36" d="M124.92,62.14a3.42,3.42,0,0,0-1.23-.22,4.46,4.46,0,0,0-1.45.19"/><path class="cls-36" d="M124.84,62.39a3.19,3.19,0,0,0-1.16-.2,4.07,4.07,0,0,0-1.38.17"/><path class="cls-36" d="M124.77,62.63a3.6,3.6,0,0,0-1.09-.17,4.43,4.43,0,0,0-1.31.15"/><path class="cls-2" d="M122.44,62.86l0,.17,2.15,0,0-.18a4,4,0,0,0-1-.15A4.51,4.51,0,0,0,122.44,62.86Z"/><path class="cls-3" d="M122.49,63c0,.08.48.15,1.08.16s1.07,0,1.07-.13-.48-.16-1.07-.16A2.15,2.15,0,0,0,122.49,63Z"/><path class="cls-35" d="M122.69,58.63a1.68,1.68,0,0,0-.45,1.66c.19,1.18.48,2.51.48,2.51"/><path class="cls-35" d="M124.55,58.65a1.68,1.68,0,0,1,.41,1.67c-.22,1.17-.55,2.5-.55,2.5"/><path class="cls-37" d="M137.44,61c.2,1,.62,2.48.78,3.06a2.14,2.14,0,0,1,.07.23l3,0,.07-.24c.06-.23.19-.65.45-1.43a15.67,15.67,0,0,0,.63-2.93h0v-.08c0-1-1.13-1.77-2.56-1.79s-2.47.68-2.59,1.58h0A3.68,3.68,0,0,0,137.44,61Z"/><path class="cls-38" d="M142.47,59.52s-.56-.59-2.45-.62a4.68,4.68,0,0,0-2.7.55"/><path class="cls-38" d="M142.3,59a4.7,4.7,0,0,0-2.28-.49,5.15,5.15,0,0,0-2.54.47"/><path class="cls-38" d="M141.81,58.46h0A5.77,5.77,0,0,0,140,58.2a6.13,6.13,0,0,0-2.1.27"/><path class="cls-38" d="M142.47,59.86s-.57-.59-2.46-.62a4.56,4.56,0,0,0-2.69.56"/><path class="cls-38" d="M137.31,60.15h0a4.77,4.77,0,0,1,2.7-.56,4.15,4.15,0,0,1,2.4.58"/><path class="cls-38" d="M142.36,60.54A4.4,4.4,0,0,0,140,60a4.93,4.93,0,0,0-2.64.52"/><path class="cls-38" d="M142.29,60.9a4.42,4.42,0,0,0-2.29-.51,5.13,5.13,0,0,0-2.58.49"/><path class="cls-38" d="M142.21,61.28a4.62,4.62,0,0,0-2.22-.46,5.34,5.34,0,0,0-2.49.44"/><path class="cls-38" d="M142.14,61.62A5,5,0,0,0,140,61.2a5.52,5.52,0,0,0-2.41.4"/><path class="cls-38" d="M142,62a4.73,4.73,0,0,0-2.06-.44,5.73,5.73,0,0,0-2.32.37"/><path class="cls-38" d="M141.94,62.35a5,5,0,0,0-2-.38,5.9,5.9,0,0,0-2.24.32"/><path class="cls-39" d="M141.83,62.71a4.89,4.89,0,0,0-1.85-.35,5.8,5.8,0,0,0-2.14.31"/><path class="cls-39" d="M141.72,63.05a4.92,4.92,0,0,0-1.74-.31,6,6,0,0,0-2,.27"/><path class="cls-39" d="M141.61,63.4a4.83,4.83,0,0,0-1.64-.29,6,6,0,0,0-1.95.24"/><path class="cls-39" d="M141.5,63.74A4.84,4.84,0,0,0,140,63.5a6,6,0,0,0-1.85.21"/><path class="cls-2" d="M138.22,64.07a2.14,2.14,0,0,1,.07.23l3,0,.07-.24a5.16,5.16,0,0,0-1.43-.21A6.26,6.26,0,0,0,138.22,64.07Z"/><path class="cls-3" d="M138.29,64.3c0,.12.68.21,1.51.22s1.52-.07,1.52-.18-.67-.22-1.51-.23A3,3,0,0,0,138.29,64.3Z"/><path class="cls-38" d="M138.58,58.11a2.34,2.34,0,0,0-.64,2.33c.26,1.66.67,3.54.67,3.54"/><path class="cls-38" d="M141.19,58.14a2.35,2.35,0,0,1,.58,2.34C141.46,62.14,141,64,141,64"/><path class="cls-40" d="M108.77,225.89c2.67,4.55,7.35,11.38,9.17,14l.74,1.07,15.08-4.39s0-.19-.09-1.29-.14-3.49-.23-7.78a78.81,78.81,0,0,0-2-15.45h0l-.12-.4c-1.62-4.84-8.69-7.09-15.78-5-6.74,2-11.07,7.11-10.1,11.76h0S105.41,220.16,108.77,225.89Z"/><path class="cls-41" d="M131.1,210.93s-3.81-2-13.24.62-12.4,6.83-12.4,6.83"/><path class="cls-41" d="M129.36,208.69c-1.73-.43-5.57-.85-12.13,1-7.08,2-10.52,4.84-11.79,6.14"/><path class="cls-41" d="M126,206.72h0a30.54,30.54,0,0,0-9.3,1.35,30.54,30.54,0,0,0-9.91,4.53"/><path class="cls-41" d="M131.67,212.63s-3.81-2-13.24.62-12.4,6.83-12.4,6.83"/><path class="cls-41" d="M106.63,221.87h0c.08-.12,3.09-4.22,12.39-6.84,7.9-2.22,11.86-1.15,12.94-.75"/><path class="cls-41" d="M132.3,216.18c-1.43-.45-5.35-1.18-12.6.85-8.06,2.27-11.4,5.65-12.2,6.59"/><path class="cls-41" d="M132.61,218c-1.68-.44-5.54-.92-12.25,1-7.37,2.07-10.79,5.08-11.93,6.3"/><path class="cls-41" d="M132.88,220.06c-1.86-.4-5.63-.68-11.81,1.06-6.75,1.89-10.18,4.57-11.59,5.95"/><path class="cls-41" d="M133.09,221.87c-2-.35-5.65-.47-11.39,1.14-6.25,1.76-9.66,4.19-11.25,5.63"/><path class="cls-41" d="M133.27,223.93c-2.12-.4-5.68-.53-10.94.95-5.82,1.64-9.18,3.85-10.89,5.31"/><path class="cls-41" d="M133.38,225.8a25.26,25.26,0,0,0-10.4,1,29.54,29.54,0,0,0-10.49,5"/><path class="cls-42" d="M133.45,227.75a25,25,0,0,0-9.75,1,29.48,29.48,0,0,0-10.09,4.74"/><path class="cls-42" d="M133.49,229.57a26,26,0,0,0-9.16,1.1,30,30,0,0,0-9.67,4.42"/><path class="cls-42" d="M133.54,231.46a25.3,25.3,0,0,0-8.59,1.06,30.69,30.69,0,0,0-9.24,4.12"/><path class="cls-42" d="M133.6,233.35a26,26,0,0,0-8,1.08,31.41,31.41,0,0,0-8.78,3.82"/><path class="cls-2" d="M117.94,239.88l.74,1.07,15.08-4.39s0-.19-.09-1.29a26.43,26.43,0,0,0-7.43,1.1A32.51,32.51,0,0,0,117.94,239.88Z"/><path class="cls-3" d="M118.7,240.94c.19.57,3.72,0,7.87-1.17s7.38-2.64,7.19-3.21-3.72,0-7.87,1.17S118.52,240.38,118.7,240.94Z"/><path class="cls-41" d="M109.35,209.81s-3.33,4.67.87,12.51,9.49,16.56,9.49,16.56"/><path class="cls-41" d="M122.35,206s5.6,2.07,6.93,10.74,2.32,18.65,2.32,18.65"/><path class="cls-43" d="M73.22,174.1c.39,1.81,1.21,4.59,1.52,5.65l.13.44h5.62s0-.07.12-.45.35-1.19.81-2.66a28.68,28.68,0,0,0,1.09-5.44h0s0-.1,0-.15c0-1.8-2.15-3.26-4.79-3.26s-4.57,1.32-4.77,3h0A6.59,6.59,0,0,0,73.22,174.1Z"/><path class="cls-44" d="M82.51,171.23s-1.06-1.07-4.57-1.1-5,1.09-5,1.09"/><path class="cls-44" d="M82.17,170.29a8.6,8.6,0,0,0-4.23-.86,9.82,9.82,0,0,0-4.7.92"/><path class="cls-44" d="M81.25,169.29h0a11,11,0,0,0-3.31-.46,11.4,11.4,0,0,0-3.88.56"/><path class="cls-44" d="M82.51,171.86s-1.06-1.07-4.57-1.1-5,1.1-5,1.1"/><path class="cls-44" d="M73,172.52h0s1.53-1.13,5-1.09c2.94,0,4.16.77,4.48,1"/><path class="cls-44" d="M82.32,173.13a8,8,0,0,0-4.38-1,9.12,9.12,0,0,0-4.89,1"/><path class="cls-44" d="M82.21,173.79a8.37,8.37,0,0,0-4.27-.88,9.55,9.55,0,0,0-4.77,1"/><path class="cls-44" d="M82.07,174.5a8.78,8.78,0,0,0-4.13-.81,9.88,9.88,0,0,0-4.61.88"/><path class="cls-44" d="M81.94,175.13a9.41,9.41,0,0,0-4-.73,10.29,10.29,0,0,0-4.46.8"/><path class="cls-44" d="M81.76,175.85a8.51,8.51,0,0,0-3.82-.75,10.68,10.68,0,0,0-4.3.72"/><path class="cls-44" d="M81.59,176.5a9,9,0,0,0-3.65-.68,11.08,11.08,0,0,0-4.13.66"/><path class="cls-45" d="M81.39,177.17a8.7,8.7,0,0,0-3.43-.61,10.65,10.65,0,0,0-4,.61"/><path class="cls-45" d="M81.2,177.79a9.07,9.07,0,0,0-3.24-.53,11.13,11.13,0,0,0-3.78.54"/><path class="cls-45" d="M81,178.44a8.9,8.9,0,0,0-3-.49,11.22,11.22,0,0,0-3.6.48"/><path class="cls-45" d="M80.8,179.08a9.11,9.11,0,0,0-2.84-.42,11.6,11.6,0,0,0-3.41.43"/><path class="cls-2" d="M74.74,179.75l.13.44h5.62s0-.07.12-.45a9.44,9.44,0,0,0-2.65-.36A12.15,12.15,0,0,0,74.74,179.75Z"/><path class="cls-3" d="M74.88,180.19c0,.21,1.26.38,2.81.38s2.8-.17,2.8-.38-1.25-.38-2.8-.38S74.88,180,74.88,180.19Z"/><path class="cls-44" d="M75.25,168.7S73.59,170,74.12,173s1.34,6.56,1.34,6.56"/><path class="cls-44" d="M80.1,168.7S81.76,170,81.23,173s-1.34,6.56-1.34,6.56"/><path class="cls-46" d="M162.29,139.67c.24,1.08.72,2.74.91,3.38l.08.26h3.36l.07-.27c.07-.24.21-.71.49-1.59a17.16,17.16,0,0,0,.65-3.25h0v-.09c0-1.08-1.28-2-2.86-2s-2.74.78-2.86,1.79h0A4,4,0,0,0,162.29,139.67Z"/><path class="cls-47" d="M167.85,138s-.64-.64-2.73-.66a5.1,5.1,0,0,0-3,.66"/><path class="cls-47" d="M167.65,137.39a5.19,5.19,0,0,0-2.53-.52,5.83,5.83,0,0,0-2.82.56"/><path class="cls-47" d="M167.1,136.79h0a6.39,6.39,0,0,0-2-.27,6.9,6.9,0,0,0-2.33.33"/><path class="cls-47" d="M167.85,138.33s-.64-.64-2.73-.66a5.1,5.1,0,0,0-3,.66"/><path class="cls-47" d="M162.13,138.72h0a5.28,5.28,0,0,1,3-.65,4.43,4.43,0,0,1,2.67.61"/><path class="cls-47" d="M167.74,139.09a4.78,4.78,0,0,0-2.62-.58,5.59,5.59,0,0,0-2.93.62"/><path class="cls-47" d="M167.67,139.48a5.08,5.08,0,0,0-2.55-.53,5.77,5.77,0,0,0-2.86.58"/><path class="cls-47" d="M167.59,139.91a5.29,5.29,0,0,0-2.47-.48,5.8,5.8,0,0,0-2.76.52"/><path class="cls-47" d="M167.51,140.29a5.5,5.5,0,0,0-2.39-.44,6.15,6.15,0,0,0-2.67.48"/><path class="cls-47" d="M167.4,140.72a5,5,0,0,0-2.28-.46,6.43,6.43,0,0,0-2.58.44"/><path class="cls-47" d="M167.3,141.1a5.39,5.39,0,0,0-2.18-.4,6.43,6.43,0,0,0-2.47.39"/><path class="cls-48" d="M167.18,141.5a5.41,5.41,0,0,0-2.05-.36,6.56,6.56,0,0,0-2.37.36"/><path class="cls-48" d="M167.06,141.88a5.37,5.37,0,0,0-1.93-.32,6.72,6.72,0,0,0-2.27.32"/><path class="cls-48" d="M167,142.26a5.59,5.59,0,0,0-1.82-.29,6.69,6.69,0,0,0-2.16.29"/><path class="cls-48" d="M166.83,142.65a5.22,5.22,0,0,0-1.7-.25,6.93,6.93,0,0,0-2,.25"/><path class="cls-2" d="M163.2,143.05l.08.26h3.36l.07-.27a5.74,5.74,0,0,0-1.58-.21A7,7,0,0,0,163.2,143.05Z"/><path class="cls-3" d="M163.29,143.31c0,.13.75.23,1.67.23s1.68-.1,1.68-.23-.75-.23-1.68-.23S163.29,143.19,163.29,143.31Z"/><path class="cls-47" d="M163.51,136.44a2.61,2.61,0,0,0-.68,2.59c.32,1.84.8,3.92.8,3.92"/><path class="cls-47" d="M166.41,136.44a2.62,2.62,0,0,1,.67,2.59c-.32,1.84-.8,3.92-.8,3.92"/><path class="cls-49" d="M179.61,138.33c.23,1.09.72,2.75.91,3.39,0,.16.07.26.07.26H184a1.51,1.51,0,0,1,.07-.27c.07-.25.21-.72.48-1.59a17.18,17.18,0,0,0,.65-3.26h0v-.09c0-1.07-1.28-2-2.86-2s-2.73.79-2.85,1.79h0A3.93,3.93,0,0,0,179.61,138.33Z"/><path class="cls-47" d="M185.16,136.62s-.63-.64-2.73-.66a5.1,5.1,0,0,0-3,.65"/><path class="cls-47" d="M185,136.06a5,5,0,0,0-2.53-.52,5.82,5.82,0,0,0-2.81.55"/><path class="cls-47" d="M184.41,135.46h0a6.59,6.59,0,0,0-2-.28,6.74,6.74,0,0,0-2.32.34"/><path class="cls-47" d="M185.16,137s-.63-.63-2.73-.65a5.1,5.1,0,0,0-3,.65"/><path class="cls-47" d="M179.45,137.39h0a5.14,5.14,0,0,1,3-.66,4.5,4.5,0,0,1,2.68.62"/><path class="cls-47" d="M185.05,137.75a4.92,4.92,0,0,0-2.62-.57,5.38,5.38,0,0,0-2.93.62"/><path class="cls-47" d="M185,138.15a5,5,0,0,0-2.55-.53,5.73,5.73,0,0,0-2.85.57"/><path class="cls-47" d="M184.9,138.57a5.26,5.26,0,0,0-2.47-.48,5.89,5.89,0,0,0-2.76.53"/><path class="cls-47" d="M184.82,139a5.62,5.62,0,0,0-2.39-.44,6.15,6.15,0,0,0-2.67.48"/><path class="cls-47" d="M184.72,139.38a5.24,5.24,0,0,0-2.29-.45,6.2,6.2,0,0,0-2.57.44"/><path class="cls-47" d="M184.61,139.77a5.39,5.39,0,0,0-2.18-.4,6.47,6.47,0,0,0-2.47.39"/><path class="cls-48" d="M184.49,140.17a5.33,5.33,0,0,0-2.05-.37,6.52,6.52,0,0,0-2.37.37"/><path class="cls-48" d="M184.38,140.54a5.67,5.67,0,0,0-1.94-.32,6.56,6.56,0,0,0-2.26.33"/><path class="cls-48" d="M184.26,140.93a5.09,5.09,0,0,0-1.82-.29,6.74,6.74,0,0,0-2.16.29"/><path class="cls-48" d="M184.14,141.32a5.46,5.46,0,0,0-1.7-.26,7.28,7.28,0,0,0-2,.26"/><path class="cls-2" d="M180.52,141.72c0,.16.07.26.07.26H184a1.51,1.51,0,0,1,.07-.27,5.51,5.51,0,0,0-1.59-.21A6.83,6.83,0,0,0,180.52,141.72Z"/><path class="cls-3" d="M180.6,142c0,.12.75.23,1.68.23A3.38,3.38,0,0,0,184,142c0-.13-.76-.23-1.68-.23S180.6,141.85,180.6,142Z"/><path class="cls-47" d="M180.82,135.1a2.63,2.63,0,0,0-.68,2.59c.32,1.85.8,3.93.8,3.93"/><path class="cls-47" d="M183.72,135.1a2.63,2.63,0,0,1,.68,2.59c-.32,1.85-.8,3.93-.8,3.93"/><path class="cls-50" d="M186,94c.14.93.46,2.37.58,2.92l.05.22,2.85.17.07-.23c.08-.2.22-.59.5-1.32a13.7,13.7,0,0,0,.74-2.73h0s0,0,0-.07c.06-.92-1-1.72-2.31-1.8s-2.37.53-2.52,1.38h0A3.34,3.34,0,0,0,186,94Z"/><path class="cls-51" d="M190.76,92.77s-.5-.57-2.28-.69a4.34,4.34,0,0,0-2.56.41"/><path class="cls-51" d="M190.62,92.29a4.24,4.24,0,0,0-2.12-.56,5,5,0,0,0-2.41.32"/><path class="cls-51" d="M190.19,91.75h0a6.58,6.58,0,0,0-3.65-.16"/><path class="cls-51" d="M190.74,93.09s-.51-.57-2.28-.69a4.36,4.36,0,0,0-2.57.41"/><path class="cls-51" d="M185.87,93.15h0a4.32,4.32,0,0,1,2.57-.41,3.84,3.84,0,0,1,2.23.65"/><path class="cls-51" d="M190.6,93.73a4,4,0,0,0-2.19-.61,4.62,4.62,0,0,0-2.51.37"/><path class="cls-51" d="M190.52,94.06a4.25,4.25,0,0,0-2.13-.57,5,5,0,0,0-2.45.34"/><path class="cls-51" d="M190.43,94.42a4.54,4.54,0,0,0-2.07-.53,5.13,5.13,0,0,0-2.37.3"/><path class="cls-51" d="M190.34,94.74a4.66,4.66,0,0,0-2-.49,5.15,5.15,0,0,0-2.28.27"/><path class="cls-51" d="M190.22,95.1a4.26,4.26,0,0,0-1.91-.5,5.4,5.4,0,0,0-2.21.24"/><path class="cls-51" d="M190.11,95.42a4.31,4.31,0,0,0-1.82-.45,5.44,5.44,0,0,0-2.12.21"/><path class="cls-52" d="M190,95.75a4.51,4.51,0,0,0-1.72-.41,5.65,5.65,0,0,0-2,.19"/><path class="cls-52" d="M189.87,96.06a4.64,4.64,0,0,0-1.62-.36,5.69,5.69,0,0,0-1.94.16"/><path class="cls-52" d="M189.75,96.38a4.49,4.49,0,0,0-1.53-.33,6,6,0,0,0-1.84.13"/><path class="cls-52" d="M189.62,96.7a4.73,4.73,0,0,0-1.42-.29,6.27,6.27,0,0,0-1.75.11"/><path class="cls-2" d="M186.53,96.87l.05.22,2.85.17.07-.23a4.79,4.79,0,0,0-1.33-.26A6,6,0,0,0,186.53,96.87Z"/><path class="cls-3" d="M186.59,97.09c0,.11.62.23,1.4.28a3,3,0,0,0,1.44-.11c0-.11-.62-.23-1.41-.28S186.59,97,186.59,97.09Z"/><path class="cls-51" d="M187.17,91.28a2.21,2.21,0,0,0-.72,2.16c.16,1.57.45,3.36.45,3.36"/><path class="cls-51" d="M189.62,91.42a2.22,2.22,0,0,1,.43,2.23c-.38,1.54-.91,3.29-.91,3.29"/><path class="cls-53" d="M182.69,87.25c.11.77.38,2,.48,2.43,0,.12,0,.18,0,.18l2.38.14.06-.18c.06-.17.18-.5.42-1.11a11.68,11.68,0,0,0,.61-2.27h0a.13.13,0,0,0,0-.06c.05-.77-.81-1.44-1.93-1.5s-2,.44-2.1,1.15h0A2.77,2.77,0,0,0,182.69,87.25Z"/><path class="cls-54" d="M186.7,86.26s-.42-.47-1.9-.57a3.65,3.65,0,0,0-2.14.34"/><path class="cls-54" d="M186.58,85.86a3.55,3.55,0,0,0-1.76-.47,4.39,4.39,0,0,0-2,.27"/><path class="cls-54" d="M186.22,85.41h0a4.74,4.74,0,0,0-1.39-.27,4.84,4.84,0,0,0-1.65.14"/><path class="cls-54" d="M186.68,86.53s-.42-.48-1.9-.58a3.65,3.65,0,0,0-2.14.34"/><path class="cls-54" d="M182.62,86.57h0a3.78,3.78,0,0,1,2.14-.34,3.18,3.18,0,0,1,1.86.55"/><path class="cls-54" d="M186.56,87.06a3.41,3.41,0,0,0-1.82-.51,3.77,3.77,0,0,0-2.1.32"/><path class="cls-54" d="M186.5,87.34a3.5,3.5,0,0,0-1.78-.48,3.92,3.92,0,0,0-2,.29"/><path class="cls-54" d="M186.42,87.64a3.74,3.74,0,0,0-1.72-.45,4.29,4.29,0,0,0-2,.26"/><path class="cls-54" d="M186.34,87.9a3.82,3.82,0,0,0-1.66-.41,4.46,4.46,0,0,0-1.91.23"/><path class="cls-54" d="M186.25,88.2a3.58,3.58,0,0,0-1.59-.41,4.31,4.31,0,0,0-1.84.2"/><path class="cls-54" d="M186.16,88.47a4,4,0,0,0-1.53-.38,4.8,4.8,0,0,0-1.76.18"/><path class="cls-55" d="M186.05,88.75a3.67,3.67,0,0,0-1.43-.35,4.9,4.9,0,0,0-1.69.16"/><path class="cls-55" d="M186,89a3.62,3.62,0,0,0-1.35-.31,4.67,4.67,0,0,0-1.61.14"/><path class="cls-55" d="M185.85,89.28a3.72,3.72,0,0,0-1.27-.29,5,5,0,0,0-1.54.12"/><path class="cls-55" d="M185.75,89.54a4.13,4.13,0,0,0-1.19-.25,5,5,0,0,0-1.45.1"/><path class="cls-2" d="M183.17,89.68c0,.12,0,.18,0,.18l2.38.14.06-.18a3.93,3.93,0,0,0-1.11-.22A5,5,0,0,0,183.17,89.68Z"/><path class="cls-3" d="M183.22,89.86c0,.09.52.2,1.17.24s1.19,0,1.2-.1-.52-.19-1.18-.23A2.4,2.4,0,0,0,183.22,89.86Z"/><path class="cls-54" d="M183.7,85a1.87,1.87,0,0,0-.6,1.81c.14,1.31.38,2.81.38,2.81"/><path class="cls-54" d="M185.75,85.14A1.81,1.81,0,0,1,186.1,87c-.31,1.29-.75,2.75-.75,2.75"/><path class="cls-56" d="M164.41,77.7c.55,1.26,1.54,3.17,1.92,3.9l.16.3,4.06-.7s0-.06,0-.34.08-.91.2-2a20.8,20.8,0,0,0,0-4.07h0s0-.07,0-.11c-.26-1.3-2-2.09-3.94-1.76s-3.11,1.52-3,2.76h0A5,5,0,0,0,164.41,77.7Z"/><path class="cls-57" d="M170.72,74.46s-.92-.64-3.46-.23a6.16,6.16,0,0,0-3.45,1.42"/><path class="cls-57" d="M170.34,73.82a6.36,6.36,0,0,0-3.18-.09A6.82,6.82,0,0,0,163.89,75"/><path class="cls-57" d="M169.53,73.21h0a7.91,7.91,0,0,0-2.46.09,8,8,0,0,0-2.73.89"/><path class="cls-57" d="M170.81,74.92s-.92-.64-3.46-.23a6.16,6.16,0,0,0-3.45,1.42"/><path class="cls-57" d="M164,76.59h0a6.18,6.18,0,0,1,3.45-1.42,5.8,5.8,0,0,1,3.39.18"/><path class="cls-57" d="M170.86,75.86a5.93,5.93,0,0,0-3.31-.15,6.62,6.62,0,0,0-3.39,1.36"/><path class="cls-57" d="M170.87,76.35a6.33,6.33,0,0,0-3.21-.11,6.87,6.87,0,0,0-3.31,1.29"/><path class="cls-57" d="M170.88,76.88a6.49,6.49,0,0,0-3.11-.06,7.12,7.12,0,0,0-3.21,1.2"/><path class="cls-57" d="M170.87,77.36a6.74,6.74,0,0,0-3,0,7.31,7.31,0,0,0-3.11,1.13"/><path class="cls-57" d="M170.85,77.9a6.32,6.32,0,0,0-2.88-.07,7.78,7.78,0,0,0-3,1.06"/><path class="cls-57" d="M170.81,78.39a6.37,6.37,0,0,0-2.73,0,7.59,7.59,0,0,0-2.9,1"/><path class="cls-58" d="M170.77,78.9a6.44,6.44,0,0,0-2.57,0,7.74,7.74,0,0,0-2.78.94"/><path class="cls-58" d="M170.72,79.37a7,7,0,0,0-2.42,0,8,8,0,0,0-2.66.87"/><path class="cls-58" d="M170.67,79.87a6.37,6.37,0,0,0-2.27,0,8.24,8.24,0,0,0-2.54.8"/><path class="cls-58" d="M170.62,80.36a6.7,6.7,0,0,0-2.12,0,8.35,8.35,0,0,0-2.41.73"/><path class="cls-2" d="M166.33,81.6l.16.3,4.06-.7s0-.06,0-.34a7.18,7.18,0,0,0-2,.07A8.63,8.63,0,0,0,166.33,81.6Z"/><path class="cls-3" d="M166.49,81.9c0,.15,1,.12,2.09-.08s2-.47,2-.62-1-.12-2.08.07S166.46,81.75,166.49,81.9Z"/><path class="cls-57" d="M165.1,73.54s-1,1.11-.19,3.27,1.91,4.58,1.91,4.58"/><path class="cls-57" d="M168.61,72.93a3.31,3.31,0,0,1,1.44,3c.06,2.3,0,4.92,0,4.92"/><path class="cls-59" d="M90.36,193.53c.39,1.8,1.2,4.59,1.52,5.65l.13.44h5.62s0-.07.11-.45.35-1.2.81-2.66a27.92,27.92,0,0,0,1.09-5.44h0v-.15c0-1.8-2.14-3.26-4.78-3.26s-4.57,1.32-4.77,3h0A6.59,6.59,0,0,0,90.36,193.53Z"/><path class="cls-44" d="M99.64,190.65s-1.06-1.06-4.57-1.09-5,1.09-5,1.09"/><path class="cls-44" d="M99.31,189.72a8.53,8.53,0,0,0-4.24-.86,9.82,9.82,0,0,0-4.7.92"/><path class="cls-44" d="M98.39,188.72h0a10.73,10.73,0,0,0-3.32-.46,11,11,0,0,0-3.87.56"/><path class="cls-44" d="M99.64,191.29s-1.06-1.07-4.57-1.1-5,1.1-5,1.1"/><path class="cls-44" d="M90.09,192h0s1.53-1.13,5-1.1c2.94,0,4.16.78,4.48,1"/><path class="cls-44" d="M99.45,192.55a8,8,0,0,0-4.38-1,9.07,9.07,0,0,0-4.88,1"/><path class="cls-44" d="M99.34,193.22a8.38,8.38,0,0,0-4.27-.89,9.57,9.57,0,0,0-4.76,1"/><path class="cls-44" d="M99.21,193.93a8.87,8.87,0,0,0-4.14-.81,9.91,9.91,0,0,0-4.61.88"/><path class="cls-44" d="M99.07,194.56a9.33,9.33,0,0,0-4-.73,10.33,10.33,0,0,0-4.46.8"/><path class="cls-44" d="M98.9,195.28a8.67,8.67,0,0,0-3.83-.76,10.64,10.64,0,0,0-4.3.73"/><path class="cls-44" d="M98.72,195.93a8.79,8.79,0,0,0-3.65-.68,10.61,10.61,0,0,0-4.12.66"/><path class="cls-45" d="M98.52,196.6A8.83,8.83,0,0,0,95.1,196a10.88,10.88,0,0,0-4,.62"/><path class="cls-45" d="M98.33,197.22a9,9,0,0,0-3.23-.53,11.16,11.16,0,0,0-3.79.54"/><path class="cls-45" d="M98.13,197.87a8.83,8.83,0,0,0-3-.49,11.29,11.29,0,0,0-3.61.48"/><path class="cls-45" d="M97.94,198.51a9.16,9.16,0,0,0-2.84-.42,11.63,11.63,0,0,0-3.42.43"/><path class="cls-2" d="M91.88,199.18l.13.44h5.62s0-.07.11-.45a9.42,9.42,0,0,0-2.64-.36A12,12,0,0,0,91.88,199.18Z"/><path class="cls-3" d="M92,199.62c0,.21,1.25.38,2.8.38s2.8-.17,2.8-.38-1.25-.38-2.8-.38S92,199.41,92,199.62Z"/><path class="cls-44" d="M92.39,188.13s-1.67,1.25-1.13,4.33S92.59,199,92.59,199"/><path class="cls-44" d="M97.23,188.13s1.66,1.25,1.13,4.33S97,199,97,199"/><path class="cls-60" d="M14.65,66.15c-.09,2.71.08,6.94.16,8.56,0,.42,0,.66,0,.66l8,1.74s0-.1.32-.6.93-1.61,2.11-3.56a42.41,42.41,0,0,0,3.49-7.44h0l.06-.2c.64-2.58-1.9-5.33-5.68-6.15-3.59-.78-7,.47-7.89,2.81h0S14.76,62.75,14.65,66.15Z"/><path class="cls-61" d="M29,64.92s-1.14-1.86-6.14-3-7.52,0-7.52,0"/><path class="cls-61" d="M28.8,63.48c-.65-.62-2.26-1.76-5.74-2.54a14.4,14.4,0,0,0-7-.14"/><path class="cls-61" d="M27.85,61.76h0a15.59,15.59,0,0,0-4.58-1.68,16.66,16.66,0,0,0-5.74-.4"/><path class="cls-61" d="M28.73,65.82s-1.14-1.85-6.14-3-7.52,0-7.52,0"/><path class="cls-61" d="M14.83,63.81h0c.07,0,2.59-1.14,7.52,0,4.19.94,5.67,2.4,6,2.84"/><path class="cls-61" d="M28,67.57c-.52-.55-2.08-1.85-5.93-2.71-4.26-1-6.73-.27-7.36,0"/><path class="cls-61" d="M27.61,68.49c-.63-.61-2.23-1.78-5.79-2.58a14.24,14.24,0,0,0-7.15-.11"/><path class="cls-61" d="M27.16,69.46A12.57,12.57,0,0,0,21.54,67a14.81,14.81,0,0,0-6.91-.17"/><path class="cls-61" d="M26.74,70.33A13.09,13.09,0,0,0,21.29,68a15.06,15.06,0,0,0-6.66-.23"/><path class="cls-61" d="M26.24,71.3A12.22,12.22,0,0,0,21,69a15.44,15.44,0,0,0-6.41-.29"/><path class="cls-61" d="M25.76,72.17a12.52,12.52,0,0,0-5-2.09,15.87,15.87,0,0,0-6.14-.34"/><path class="cls-62" d="M25.24,73.06a12.82,12.82,0,0,0-4.69-1.93,16,16,0,0,0-5.88-.35"/><path class="cls-62" d="M24.74,73.9a13.09,13.09,0,0,0-4.44-1.77,16.48,16.48,0,0,0-5.61-.38"/><path class="cls-62" d="M24.22,74.76a12.76,12.76,0,0,0-4.17-1.64,16.8,16.8,0,0,0-5.32-.42"/><path class="cls-62" d="M23.71,75.62a13.11,13.11,0,0,0-3.91-1.48,16.8,16.8,0,0,0-5-.44"/><path class="cls-2" d="M14.81,74.71c0,.42,0,.66,0,.66l8,1.74s0-.1.32-.6a13.44,13.44,0,0,0-3.66-1.34A17.51,17.51,0,0,0,14.81,74.71Z"/><path class="cls-3" d="M14.85,75.38c-.07.3,1.66.93,3.88,1.41s4.07.62,4.14.32S21.21,76.18,19,75.7,14.93,75.08,14.85,75.38Z"/><path class="cls-61" d="M19.48,59.06s-2.83,1.28-3.16,5.84-.43,9.8-.43,9.8"/><path class="cls-61" d="M26.4,60.55s1.93,2.31.08,6.55-4.25,9-4.25,9"/><path class="cls-63" d="M25.63,46.59c0,1.24.25,3.17.33,3.91,0,.19,0,.3,0,.3l3.74.59a1.79,1.79,0,0,1,.13-.29c.12-.26.37-.76.85-1.68a19.31,19.31,0,0,0,1.38-3.5h0a.36.36,0,0,0,0-.1c.22-1.2-1-2.39-2.78-2.66s-3.19.4-3.53,1.49h0A4.63,4.63,0,0,0,25.63,46.59Z"/><path class="cls-64" d="M32.14,45.64s-.58-.81-2.9-1.2a5.9,5.9,0,0,0-3.45.21"/><path class="cls-64" d="M32,45a5.68,5.68,0,0,0-2.71-1,6.58,6.58,0,0,0-3.23.12"/><path class="cls-64" d="M31.53,44.23h0a7.18,7.18,0,0,0-2.14-.65,7.48,7.48,0,0,0-2.64,0"/><path class="cls-64" d="M32.06,46.06s-.58-.81-2.9-1.2a5.87,5.87,0,0,0-3.44.21"/><path class="cls-64" d="M25.64,45.51h0a5.9,5.9,0,0,1,3.44-.21,4.89,4.89,0,0,1,2.85,1.15"/><path class="cls-64" d="M31.78,46.89A5.18,5.18,0,0,0,29,45.8a6.24,6.24,0,0,0-3.37.17"/><path class="cls-64" d="M31.63,47.31a5.52,5.52,0,0,0-2.73-1,6.32,6.32,0,0,0-3.28.14"/><path class="cls-64" d="M31.46,47.77a5.9,5.9,0,0,0-2.65-1,6.71,6.71,0,0,0-3.17.1"/><path class="cls-64" d="M31.29,48.18a6.1,6.1,0,0,0-2.57-.9,7,7,0,0,0-3,.06"/><path class="cls-64" d="M31.09,48.64a5.57,5.57,0,0,0-2.45-.9,7,7,0,0,0-2.94,0"/><path class="cls-64" d="M30.9,49.05a5.93,5.93,0,0,0-2.35-.83,7.28,7.28,0,0,0-2.82,0"/><path class="cls-65" d="M30.68,49.47a5.81,5.81,0,0,0-2.2-.76,7.39,7.39,0,0,0-2.7,0"/><path class="cls-65" d="M30.48,49.87a5.93,5.93,0,0,0-2.08-.69,7.41,7.41,0,0,0-2.58,0"/><path class="cls-65" d="M30.27,50.27a6,6,0,0,0-2-.64,7.87,7.87,0,0,0-2.45-.05"/><path class="cls-65" d="M30.06,50.68a6,6,0,0,0-1.83-.57A7.47,7.47,0,0,0,25.91,50"/><path class="cls-2" d="M26,50.5c0,.19,0,.3,0,.3l3.74.59a1.79,1.79,0,0,1,.13-.29,6.34,6.34,0,0,0-1.72-.51A8,8,0,0,0,26,50.5Z"/><path class="cls-3" d="M26,50.8c0,.14.79.39,1.82.55s1.88.18,1.9,0-.78-.39-1.81-.55S26,50.66,26,50.8Z"/><path class="cls-64" d="M27.62,43.21A3,3,0,0,0,26.35,46c0,2.1.1,4.49.1,4.49"/><path class="cls-64" d="M30.84,43.72a2.9,2.9,0,0,1,.23,3c-.72,2-1.67,4.21-1.67,4.21"/><path class="cls-66" d="M217.21,245.2c1.13,3,3.23,7.49,4,9.22l.33.71,9.51-1.26s0-.12.08-.78.28-2.11.68-4.69a48.16,48.16,0,0,0,.43-9.45h0l0-.24c-.47-3.05-4.47-5-8.94-4.45-4.25.56-7.39,3.26-7.29,6.14h0S215.79,241.46,217.21,245.2Z"/><path class="cls-67" d="M232.17,238.25s-2.07-1.56-8-.83-8.15,3-8.15,3"/><path class="cls-67" d="M231.36,236.75c-1-.42-3.25-1-7.38-.51-4.46.56-6.82,2-7.71,2.62"/><path class="cls-67" d="M229.55,235.26h0a22.07,22.07,0,0,0-12.13,1.79"/><path class="cls-67" d="M232.34,239.32s-2.08-1.56-8-.83-8.16,3-8.16,3"/><path class="cls-67" d="M216.35,242.59h0c.06-.06,2.29-2.25,8.15-3,5-.62,7.23.38,7.84.72"/><path class="cls-67" d="M232.35,241.51c-.82-.4-3.1-1.2-7.66-.63-5.06.63-7.42,2.35-8,2.84"/><path class="cls-67" d="M232.33,242.66c-1-.42-3.22-1.06-7.45-.54-4.63.58-7,2.07-7.81,2.69"/><path class="cls-67" d="M232.29,243.89c-1.08-.41-3.31-.92-7.2-.43a16.72,16.72,0,0,0-7.58,2.51"/><path class="cls-67" d="M232.22,245a15.89,15.89,0,0,0-6.95-.34,17.34,17.34,0,0,0-7.34,2.35"/><path class="cls-67" d="M232.11,246.25a14.72,14.72,0,0,0-6.66-.42,17.78,17.78,0,0,0-7.09,2.2"/><path class="cls-67" d="M232,247.38a15.22,15.22,0,0,0-6.35-.32,18.49,18.49,0,0,0-6.82,2"/><path class="cls-68" d="M231.82,248.55a15.38,15.38,0,0,0-6-.26,18.19,18.19,0,0,0-6.54,1.93"/><path class="cls-68" d="M231.66,249.65a16,16,0,0,0-5.61-.17,18.7,18.7,0,0,0-6.26,1.77"/><path class="cls-68" d="M231.49,250.79a15.49,15.49,0,0,0-5.27-.15,19.05,19.05,0,0,0-6,1.64"/><path class="cls-68" d="M231.32,251.93a15.46,15.46,0,0,0-4.91-.08,20,20,0,0,0-5.67,1.49"/><path class="cls-2" d="M221.25,254.42l.33.71,9.51-1.26s0-.12.08-.78a16.31,16.31,0,0,0-4.57,0A20.36,20.36,0,0,0,221.25,254.42Z"/><path class="cls-3" d="M221.6,255.13c.05.36,2.22.36,4.84,0s4.7-.91,4.64-1.27-2.22-.36-4.84,0S221.54,254.78,221.6,255.13Z"/><path class="cls-67" d="M219.24,235.61s-2.49,2.5-.79,7.58,4,10.8,4,10.8"/><path class="cls-67" d="M227.44,234.52s3.14,1.75,3,7.07-.56,11.4-.56,11.4"/><path class="cls-69" d="M165.41,220.58c.64,2.07,1.89,5.23,2.38,6.45.12.31.2.49.2.49l6.54-.52a4.09,4.09,0,0,1,.09-.54c.09-.49.27-1.42.65-3.17a32.49,32.49,0,0,0,.68-6.44h0v-.17c-.2-2.1-2.85-3.6-5.93-3.35-2.92.24-5.17,2-5.23,3.93h0S164.59,218,165.41,220.58Z"/><path class="cls-70" d="M175.91,216.37s-1.35-1.14-5.44-.85-5.69,1.74-5.69,1.74"/><path class="cls-70" d="M175.42,215.32a10.08,10.08,0,0,0-5-.61,11.29,11.29,0,0,0-5.38,1.51"/><path class="cls-70" d="M174.24,214.24h0a12.66,12.66,0,0,0-3.91-.23,13,13,0,0,0-4.45,1"/><path class="cls-70" d="M176,217.11s-1.35-1.14-5.43-.85-5.69,1.74-5.69,1.74"/><path class="cls-70" d="M164.92,218.77h0s1.65-1.45,5.68-1.74c3.42-.24,4.93.52,5.32.77"/><path class="cls-70" d="M175.89,218.6c-.53-.3-2.06-.92-5.2-.7a10.56,10.56,0,0,0-5.58,1.66"/><path class="cls-70" d="M175.84,219.38a10.11,10.11,0,0,0-5.07-.63,11,11,0,0,0-5.44,1.57"/><path class="cls-70" d="M175.76,220.22a10.55,10.55,0,0,0-4.9-.55,11.56,11.56,0,0,0-5.28,1.45"/><path class="cls-70" d="M175.67,221a11.16,11.16,0,0,0-4.74-.48,12,12,0,0,0-5.1,1.35"/><path class="cls-70" d="M175.54,221.83a10,10,0,0,0-4.53-.53,12.24,12.24,0,0,0-4.93,1.25"/><path class="cls-70" d="M175.41,222.6a10.4,10.4,0,0,0-4.32-.45,12.63,12.63,0,0,0-4.74,1.15"/><path class="cls-71" d="M175.25,223.39a10.51,10.51,0,0,0-4.06-.39,12.45,12.45,0,0,0-4.55,1.09"/><path class="cls-71" d="M175.09,224.14a10.71,10.71,0,0,0-3.83-.32,12.67,12.67,0,0,0-4.34,1"/><path class="cls-71" d="M174.93,224.91a10.44,10.44,0,0,0-3.59-.29,13,13,0,0,0-4.14.91"/><path class="cls-71" d="M174.77,225.68a10.9,10.9,0,0,0-3.35-.23,13.67,13.67,0,0,0-3.93.82"/><path class="cls-2" d="M167.79,227c.12.31.2.49.2.49l6.54-.52a4.09,4.09,0,0,1,.09-.54,11.27,11.27,0,0,0-3.13-.17A13.67,13.67,0,0,0,167.79,227Z"/><path class="cls-3" d="M168,227.52c0,.25,1.5.33,3.3.18s3.25-.46,3.23-.7-1.51-.33-3.31-.18S168,227.28,168,227.52Z"/><path class="cls-70" d="M167.19,214.11s-1.8,1.62-.85,5.15,2.26,7.51,2.26,7.51"/><path class="cls-70" d="M172.83,213.65s2.07,1.31,1.78,4.94-.85,7.76-.85,7.76"/><path class="cls-72" d="M86.58,146.79c.29.7.66,1.51,1.1,2.41.34.71.72,1.48,1.16,2.31l.44.81c.29.53.59,1.08.91,1.63.39.71.81,1.43,1.24,2.17s.83,1.42,1.27,2.15l1.35,2.24,1.45,2.34c.45.74.9,1.47,1.35,2.17s.91,1.46,1.35,2.14,1,1.54,1.41,2.22l1.46,2.25.38.61.31.46c.15.23.23.36.26.39,1.12.57,5.66,0,10.91-1.41s9.32-3.15,10-4.2v0a4.15,4.15,0,0,1,0-.53c0-.12,0-.25,0-.42s0-.48,0-.81c0-1,0-2.66,0-5.19,0-.78,0-1.64.05-2.59,0-.76,0-1.59,0-2.49v-.35c0-.78,0-1.55,0-2.31s0-1.72,0-2.55-.08-1.91-.13-2.83-.11-1.68-.18-2.47c-.08-1-.18-1.89-.27-2.75s-.2-1.77-.3-2.57c-.13-1-.25-1.83-.37-2.59-.16-1-.3-1.77-.39-2.3l-.15-.76h0c0-.18-.08-.36-.13-.54a10.43,10.43,0,0,0-.38-1,9.44,9.44,0,0,0-2.18-3.07,13.46,13.46,0,0,0-4.51-2.76,22.5,22.5,0,0,0-11.31-1,27.17,27.17,0,0,0-3,.63,25.1,25.1,0,0,0-8.7,4.21h0a17.6,17.6,0,0,0-3.68,3.75,12.11,12.11,0,0,0-2,4.37,8.93,8.93,0,0,0-.12,3.49h0S85.08,143.24,86.58,146.79Z"/><path class="cls-3" d="M101.77,172.75a.17.17,0,0,0,0,.14.42.42,0,0,0,.25.26c1.12.56,5.66,0,10.91-1.41s9.32-3.16,10-4.21a.48.48,0,0,0,.11-.39A.34.34,0,0,0,123,167a4.36,4.36,0,0,0-2.17-.34,42,42,0,0,0-9,1.66,41.34,41.34,0,0,0-8.07,2.89S102.13,171.87,101.77,172.75Z"/><path class="cls-73" d="M101.77,172.84a.38.38,0,0,0,.25.25c1.12.57,5.66,0,10.91-1.41s9.32-3.15,10-4.2a.47.47,0,0,0,.1-.39.34.34,0,0,0-.13-.17c-.85-.7-5.56-.15-11,1.33s-10,3.45-10.16,4.45A.23.23,0,0,0,101.77,172.84Z"/><path class="cls-74" d="M91,130.39s-4.85,6.3.47,17.1S104,171.05,104,171.05"/><path class="cls-74" d="M109.07,125.52s7.56,3,8.9,14.83,2.16,26.32,2.16,26.32"/><path class="cls-75" d="M.68,28.23c-.06.29-.11.63-.15,1s-.08.63-.11,1l0,.35c0,.23,0,.47,0,.71s0,.63-.05,1,0,.63,0,1,0,.67,0,1,0,.71,0,1.06,0,.65,0,1,0,.66,0,1,0,.7,0,1v1.51a.58.58,0,0,0,0,.18C.41,40.29,2,41,4.09,41.47s3.78.71,4.25.49h0a.88.88,0,0,1,.11-.19l.08-.14.17-.27c.22-.35.57-.89,1.13-1.72l.57-.85L11,38l.08-.12c.17-.26.34-.51.5-.77s.37-.57.54-.85l.56-1c.17-.29.33-.58.48-.86s.34-.66.5-1l.45-.91c.17-.35.31-.66.43-.94s.29-.64.37-.84l.12-.28h0c0-.07,0-.14.07-.21s.07-.27.1-.41a3.47,3.47,0,0,0-.07-1.43,4.61,4.61,0,0,0-.91-1.77,8.17,8.17,0,0,0-3.55-2.46c-.36-.13-.74-.25-1.13-.35a10,10,0,0,0-3.81-.23h0a7.47,7.47,0,0,0-2,.55A5.34,5.34,0,0,0,2,25.24a3.59,3.59,0,0,0-.79,1.14h0A5.15,5.15,0,0,0,.68,28.23Z"/><path class="cls-3" d="M.15,39.73a.05.05,0,0,0,0,.05s0,.08,0,.13C.4,40.31,2,41,4.08,41.49s3.79.71,4.25.49c.07,0,.11-.06.12-.11a.11.11,0,0,0,0-.08,1.62,1.62,0,0,0-.65-.52,16.37,16.37,0,0,0-3.36-1.14,16.09,16.09,0,0,0-3.31-.56A1.77,1.77,0,0,0,.15,39.73Z"/><path class="cls-76" d="M.13,39.76s0,.08,0,.13C.41,40.29,2,41,4.09,41.47s3.78.71,4.25.49a.17.17,0,0,0,.12-.11.11.11,0,0,0,0-.08c-.14-.39-1.83-1.09-4-1.63S.42,39.41.15,39.71A.08.08,0,0,0,.13,39.76Z"/><path class="cls-77" d="M5.68,23.61s-3,1.18-3.52,5.78-.92,10.19-.92,10.19"/><path class="cls-77" d="M12.75,25.38s1.88,2.41-.23,6.61-4.95,9.17-4.95,9.17"/><path class="cls-78" d="M279.8,193.49c0,.35,0,.76,0,1.22s0,.76.07,1.19q0,.19,0,.42c0,.27.05.56.08.85s.08.74.13,1.14.09.74.14,1.13.11.79.16,1.18l.18,1.25c.06.39.11.78.17,1.15s.12.79.18,1.15.13.83.19,1.19.14.88.2,1.21c0,.12,0,.23,0,.32s0,.18,0,.25a1.21,1.21,0,0,0,0,.21c.38.43,2.43.94,5,1.2s4.61.17,5.11-.16h0a2.35,2.35,0,0,1,.09-.23l.08-.18a3.61,3.61,0,0,1,.14-.35c.2-.45.5-1.15,1-2.23.15-.33.31-.7.5-1.11s.32-.68.49-1.06l.07-.15c.16-.33.3-.66.45-1s.31-.74.46-1.1.32-.84.48-1.24.26-.74.39-1.1.28-.84.4-1.23.25-.79.35-1.15.24-.83.33-1.17.21-.82.27-1.06.08-.35.08-.35h0c0-.09,0-.17.05-.26a4.32,4.32,0,0,0,0-.5,4.13,4.13,0,0,0-.36-1.68,5.7,5.7,0,0,0-1.42-1.93,10,10,0,0,0-4.68-2.29,12.26,12.26,0,0,0-5.95.15h0a8.51,8.51,0,0,0-2.29,1,6,6,0,0,0-1.7,1.54,4.49,4.49,0,0,0-.71,1.48h0A6.06,6.06,0,0,0,279.8,193.49Z"/><path class="cls-3" d="M281.44,207.16s0,0,0,.07,0,.09.06.15c.38.43,2.44.93,5,1.19s4.61.18,5.12-.15a.27.27,0,0,0,.12-.15.44.44,0,0,0,0-.1,2,2,0,0,0-.87-.5,20,20,0,0,0-4.2-.78,19.77,19.77,0,0,0-4-.08A2.09,2.09,0,0,0,281.44,207.16Z"/><path class="cls-79" d="M281.42,207.2a.17.17,0,0,0,.06.15c.38.43,2.43.94,5,1.2s4.61.17,5.11-.16a.22.22,0,0,0,.12-.15.1.1,0,0,0,0-.09c-.24-.44-2.37-1-5-1.25s-4.95-.16-5.21.24A.14.14,0,0,0,281.42,207.2Z"/><path class="cls-80" d="M284.8,187.17s-3.27,1.91-3,7.43.92,12.19.92,12.19"/><path class="cls-80" d="M293.49,188.05s2.7,2.52,1,7.85-4,11.68-4,11.68"/><path class="cls-81" d="M142.71,80.32a1.83,1.83,0,0,0,0,.21l0,.19s0,0,0,.07l0,.14c0,.07,0,.13,0,.19s0,.13,0,.19a1712618751661,1712618751661,0,0,1,.1.4c0,.07,0,.13,0,.19s0,.13,0,.19,0,.13.05.19,0,.15,0,.2l0,.06v.07a3.12,3.12,0,0,0,1.68,0h0a.16.16,0,0,1,0,0v0l0-.06c0-.08.06-.2.13-.39s0-.12.06-.19,0-.12.07-.18v0a.84.84,0,0,0,.05-.17l.06-.19.06-.21c0-.07,0-.13,0-.19s0-.14.05-.21a1.18,1.18,0,0,1,0-.2l0-.2a1.64,1.64,0,0,1,0-.18v-.06h0a.06.06,0,0,0,0,0V80a.72.72,0,0,0-.09-.27,1,1,0,0,0-.27-.3,1.61,1.61,0,0,0-.81-.32l-.23,0a2,2,0,0,0-.75.13h0a1.39,1.39,0,0,0-.36.2,1.14,1.14,0,0,0-.26.28.8.8,0,0,0-.09.26h0A.88.88,0,0,0,142.71,80.32Z"/><path class="cls-3" d="M143.2,82.58h0l0,0a2.09,2.09,0,0,0,.83.13,2.27,2.27,0,0,0,.85-.1,0,0,0,0,0,0,0h0a.43.43,0,0,0-.15-.08,4.48,4.48,0,0,0-.71-.07,3.22,3.22,0,0,0-.66.05S143.24,82.52,143.2,82.58Z"/><path class="cls-82" d="M143.19,82.59l0,0a3.12,3.12,0,0,0,1.68,0s0,0,0,0,0,0,0,0a1.83,1.83,0,0,0-.85-.14,1.71,1.71,0,0,0-.85.12Z"/><path class="cls-83" d="M143.43,79.2a1.3,1.3,0,0,0-.38,1.28c.13.92.35,2,.35,2"/><path class="cls-83" d="M144.88,79.22a1.29,1.29,0,0,1,.3,1.3c-.19.91-.48,2-.48,2"/><path class="cls-84" d="M190.89,83.76c0,.13,0,.27,0,.44s0,.27,0,.42l0,.16c0,.09,0,.2.05.3s0,.27.07.41.05.27.08.4.06.29.08.43.07.3.1.44l.09.42.09.41c0,.15.07.29.1.42s.08.32.1.43,0,.08,0,.12a.29.29,0,0,1,0,.09l0,.07a4.1,4.1,0,0,0,1.8.32,4.41,4.41,0,0,0,1.83-.17h0a.31.31,0,0,1,0-.09l0-.07a.68.68,0,0,0,0-.13c.06-.16.15-.42.3-.82l.16-.41.14-.4,0,0c0-.12.1-.25.14-.37l.14-.41c0-.15.09-.31.14-.46s.07-.27.11-.4.08-.31.11-.45.07-.29.1-.42.06-.31.09-.44.05-.29.07-.38l0-.13h0a.31.31,0,0,0,0-.1v-.18a1.51,1.51,0,0,0-.17-.6,2.15,2.15,0,0,0-.56-.66,3.5,3.5,0,0,0-1.73-.72,4,4,0,0,0-.51-.05,4.19,4.19,0,0,0-1.61.24h0a2.87,2.87,0,0,0-.8.41,2,2,0,0,0-.56.6,1.55,1.55,0,0,0-.22.55h0A2.28,2.28,0,0,0,190.89,83.76Z"/><path class="cls-3" d="M191.82,88.65s0,0,0,0,0,0,0,0a4.22,4.22,0,0,0,1.8.32,4.43,4.43,0,0,0,1.83-.17.21.21,0,0,0,0-.06v0a.77.77,0,0,0-.33-.16,6.9,6.9,0,0,0-1.52-.19,7.18,7.18,0,0,0-1.44.06A.76.76,0,0,0,191.82,88.65Z"/><path class="cls-85" d="M191.82,88.67s0,0,0,0a4.1,4.1,0,0,0,1.8.32,4.41,4.41,0,0,0,1.83-.17s0,0,0-.05,0,0,0,0a3.91,3.91,0,0,0-1.82-.34,3.52,3.52,0,0,0-1.86.21Z"/><path class="cls-86" d="M192.52,81.37a2.83,2.83,0,0,0-.89,2.74c.22,2,.63,4.38.63,4.38"/><path class="cls-86" d="M195.65,81.49a2.76,2.76,0,0,1,.57,2.81c-.47,2-1.15,4.3-1.15,4.3"/><path class="cls-87" d="M198.17,119.44c0,.08,0,.17.05.28l.06.26,0,.1a1.8,1.8,0,0,0,.05.19c0,.08,0,.16.07.25l.07.25.09.27.09.27a2.58,2.58,0,0,0,.08.26,2.41,2.41,0,0,1,.08.25l.09.26.09.27,0,.07,0,.06s0,0,0,0a2.56,2.56,0,0,0,1.15.1,2.6,2.6,0,0,0,1.15-.21h0v-.1a.31.31,0,0,1,0-.08c0-.11.07-.28.13-.54,0-.08.05-.17.08-.27s0-.16.06-.26v0a2.1,2.1,0,0,0,.06-.24,1.31,1.31,0,0,0,.06-.27,1.67,1.67,0,0,0,.06-.29c0-.09,0-.18.05-.27s0-.19,0-.29,0-.19,0-.27,0-.2,0-.28,0-.19,0-.25v-.08h0a.06.06,0,0,0,0-.06.37.37,0,0,0,0-.11,1,1,0,0,0-.14-.37,1.36,1.36,0,0,0-.4-.39,2.33,2.33,0,0,0-1.14-.36h-.32a2.68,2.68,0,0,0-1,.24h0a2,2,0,0,0-.47.3,1.35,1.35,0,0,0-.32.41,1,1,0,0,0-.1.36h0A1.18,1.18,0,0,0,198.17,119.44Z"/><path class="cls-3" d="M199.07,122.48s0,0,0,0a0,0,0,0,0,0,0,2.81,2.81,0,0,0,1.16.1,2.94,2.94,0,0,0,1.15-.21.05.05,0,0,0,0,0,0,0,0,0,1,0,0,.51.51,0,0,0-.22-.08,4.24,4.24,0,0,0-1,0,3.75,3.75,0,0,0-.9.11A.51.51,0,0,0,199.07,122.48Z"/><path class="cls-88" d="M199.07,122.49s0,0,0,0a2.56,2.56,0,0,0,1.15.1,2.6,2.6,0,0,0,1.15-.21s0,0,0,0v0a2.41,2.41,0,0,0-1.17-.12,2.25,2.25,0,0,0-1.16.24Z"/><path class="cls-89" d="M199,117.84a1.77,1.77,0,0,0-.39,1.78c.28,1.25.69,2.73.69,2.73"/><path class="cls-89" d="M201,117.74a1.78,1.78,0,0,1,.54,1.74c-.17,1.27-.46,2.79-.46,2.79"/><path class="cls-90" d="M164.24,154.36c0,.12,0,.26.07.42s.06.25.09.4a.57.57,0,0,1,0,.14c0,.09.05.19.08.28s.07.25.1.38l.12.38.12.4c0,.14.09.28.13.41s.08.26.13.39l.12.38.13.39c.06.16.1.29.14.4s0,.08,0,.11l0,.08,0,.07a4,4,0,0,0,1.74.16,4.18,4.18,0,0,0,1.71-.31h0s0,0,0-.08l0-.07a.35.35,0,0,1,0-.12c0-.16.1-.42.2-.81,0-.12.07-.25.11-.4s.07-.25.1-.39l0-.05.09-.36.09-.4.09-.44c0-.14.05-.27.07-.4s.05-.3.07-.43,0-.29,0-.41,0-.3,0-.42a3.32,3.32,0,0,0,0-.37v-.13h0v-.08c0-.06,0-.12,0-.18a1.45,1.45,0,0,0-.22-.55,2.07,2.07,0,0,0-.59-.59,3.46,3.46,0,0,0-1.71-.54,3.84,3.84,0,0,0-.48,0,3.94,3.94,0,0,0-1.51.35h0a3.06,3.06,0,0,0-.72.46,2.12,2.12,0,0,0-.48.61,1.29,1.29,0,0,0-.15.54h0A1.84,1.84,0,0,0,164.24,154.36Z"/><path class="cls-3" d="M165.57,158.93v0s0,0,0,.05a4,4,0,0,0,1.74.16,4.37,4.37,0,0,0,1.71-.31.09.09,0,0,0,0-.06,0,0,0,0,0,0,0s-.15-.09-.32-.13a6.7,6.7,0,0,0-1.46,0,6.37,6.37,0,0,0-1.36.17A.68.68,0,0,0,165.57,158.93Z"/><path class="cls-91" d="M165.57,158.94a.05.05,0,0,0,0,.05,4,4,0,0,0,1.74.16,4.18,4.18,0,0,0,1.71-.31s0,0,0-.06a0,0,0,0,0,0,0,3.63,3.63,0,0,0-1.75-.17,3.41,3.41,0,0,0-1.74.34Z"/><path class="cls-92" d="M165.56,152a2.69,2.69,0,0,0-.59,2.68c.4,1.86,1,4.1,1,4.1"/><path class="cls-92" d="M168.54,151.83a2.64,2.64,0,0,1,.79,2.61c-.25,1.89-.68,4.17-.68,4.17"/><path class="cls-93" d="M134.69,267.18c.15,1.26.35,2.7.64,4.33.22,1.27.48,2.67.81,4.19.1.48.2,1,.32,1.48.21,1,.45,2,.69,3,.31,1.28.65,2.62,1,4s.69,2.63,1,4,.75,2.77,1.14,4.16.82,2.93,1.23,4.37l1.17,4c.41,1.39.8,2.73,1.18,4,.45,1.49.87,2.89,1.26,4.15.5,1.66.94,3.1,1.29,4.23.26.85.48,1.53.62,2l.24.75c1.57,1.38,9.27,2.43,18.53,2.43s16.79-1,18.48-2.39v0a8.25,8.25,0,0,1,.21-.87c.12-.43.29-1.06.56-2,.49-1.66,1.27-4.26,2.55-8.29.39-1.23.82-2.59,1.31-4.1.39-1.22.81-2.54,1.27-4l.18-.56c.4-1.23.78-2.46,1.14-3.68.41-1.38.79-2.74,1.15-4.09.41-1.55.79-3.08,1.14-4.57s.62-2.73.9-4c.33-1.57.62-3.08.89-4.51s.52-2.91.72-4.21c.27-1.61.48-3.05.65-4.3.22-1.66.37-3,.47-3.85s.12-1.28.12-1.28h0q0-.46,0-.93a13.34,13.34,0,0,0-.12-1.79,14.92,14.92,0,0,0-2.08-5.83,21.8,21.8,0,0,0-6.06-6.36h0c-5.76-4.14-14-6.73-23.25-6.73-9.68,0-18.33,2.86-24.11,7.38a20.8,20.8,0,0,0-5.42,6.1,14.87,14.87,0,0,0-1.87,5.53h0S134,260.87,134.69,267.18Z"/><path class="cls-94" d="M149.82,242.91s-10.95,8-7.44,27.5,9.12,43,9.12,43"/><path class="cls-94" d="M181.73,242.91s11,8,7.44,27.5-9.11,42.95-9.11,42.95"/><path class="cls-3" d="M147,315.3c0,1.64,8.39,3,18.74,3s18.75-1.32,18.75-3-8.39-2.95-18.75-2.95S147,313.67,147,315.3Z"/><path class="cls-95" d="M147,315.3a.73.73,0,0,0,.29.53c1.57,1.38,9.27,2.43,18.53,2.43s16.79-1,18.48-2.39a.75.75,0,0,0,.35-.57.51.51,0,0,0-.13-.33c-1.05-1.48-9-2.62-18.7-2.62-9.91,0-18,1.2-18.77,2.73A.44.44,0,0,0,147,315.3Z"/><path class="cls-96" d="M177.23,179.84c.05.17.11.35.19.56s.14.34.22.54l.08.18.17.38.24.51c.08.16.16.33.25.5l.26.52.27.55.27.51c.09.17.17.34.26.5s.19.36.27.52l.29.52a2.59,2.59,0,0,0,.13.25l.05.1a6.18,6.18,0,0,0,2.52-.11,6.06,6.06,0,0,0,2.37-.74h0s0,0,0-.12,0-.14,0-.27.06-.59.12-1.15q0-.26.06-.57c0-.17,0-.36.07-.56v-.07c0-.18,0-.35,0-.52s0-.38,0-.56l0-.63c0-.19,0-.38,0-.56s0-.42,0-.61,0-.4,0-.58,0-.41,0-.58,0-.4,0-.52,0-.17,0-.17h0a.5.5,0,0,1,0-.12,2.17,2.17,0,0,0-.07-.24,2.06,2.06,0,0,0-.43-.72,3,3,0,0,0-1-.7h0a5.55,5.55,0,0,0-3.25-.35,5.19,5.19,0,0,0-3,1.53,2.89,2.89,0,0,0-.55.93,1.91,1.91,0,0,0-.1.78h0A2.66,2.66,0,0,0,177.23,179.84Z"/><path class="cls-97" d="M185.32,177.3s-1.1-.73-4.16-.22-4.15,1.68-4.15,1.68"/><path class="cls-97" d="M184.87,176.57a7.93,7.93,0,0,0-3.82-.08,8.68,8.68,0,0,0-3.94,1.49"/><path class="cls-97" d="M183.9,175.87h0a10.1,10.1,0,0,0-3,.12,10.29,10.29,0,0,0-3.28,1.06"/><path class="cls-97" d="M185.43,177.83s-1.11-.73-4.16-.22-4.16,1.68-4.16,1.68"/><path class="cls-97" d="M177.23,179.84h0s1.14-1.17,4.15-1.68c2.56-.42,3.75,0,4.07.18"/><path class="cls-97" d="M185.48,178.92a7.41,7.41,0,0,0-4-.13,8.15,8.15,0,0,0-4.09,1.61"/><path class="cls-97" d="M185.49,179.5a7.58,7.58,0,0,0-3.86-.09,8.56,8.56,0,0,0-4,1.52"/><path class="cls-97" d="M185.49,180.11a8,8,0,0,0-3.73,0,8.94,8.94,0,0,0-3.87,1.43"/><path class="cls-97" d="M185.48,180.67a8.42,8.42,0,0,0-3.6,0,9.1,9.1,0,0,0-3.75,1.35"/><path class="cls-97" d="M185.45,181.3a7.8,7.8,0,0,0-3.45-.06,9.27,9.27,0,0,0-3.62,1.27"/><path class="cls-97" d="M185.41,181.86a8.26,8.26,0,0,0-3.29,0,9.68,9.68,0,0,0-3.48,1.18"/><path class="cls-98" d="M185.35,182.45a8.24,8.24,0,0,0-3.09,0,9.59,9.59,0,0,0-3.34,1.12"/><path class="cls-98" d="M185.28,183a8.3,8.3,0,0,0-2.9,0,9.62,9.62,0,0,0-3.2,1"/><path class="cls-98" d="M185.22,183.58a8.16,8.16,0,0,0-2.73,0,9.94,9.94,0,0,0-3.05,1"/><path class="cls-98" d="M185.16,184.15a8.38,8.38,0,0,0-2.55.08,10.36,10.36,0,0,0-2.9.88"/><path class="cls-97" d="M178.58,176.29s-1.23,1.3-.25,3.8,2.34,5.47,2.34,5.47"/><path class="cls-97" d="M182.8,175.55s1.66.8,1.71,3.46-.07,5.89-.07,5.89"/><path class="cls-3" d="M180.13,185.92c0,.21,1.19.19,2.55,0s2.45-.61,2.4-.82-1.18-.2-2.55,0S180.09,185.7,180.13,185.92Z"/><path class="cls-99" d="M180.13,185.92s0,0,.05.06a6.18,6.18,0,0,0,2.52-.11,6.06,6.06,0,0,0,2.37-.74s0-.06,0-.08,0,0,0-.05a5.56,5.56,0,0,0-2.54.09,5.16,5.16,0,0,0-2.41.79Z"/><path class="cls-100" d="M36.14,200.49c.08.31.19.67.33,1.07s.22.65.37,1c0,.11.09.23.13.36s.19.48.3.73.26.64.4,1l.42,1,.45,1,.48,1.06.46,1c.15.34.3.66.45,1s.33.7.48,1l.49,1,.23.48.09.19c.45.29,2.43.29,4.76,0s4.19-.83,4.56-1.23h0s0-.05,0-.23,0-.28.07-.52c0-.43.15-1.11.31-2.17.05-.32.11-.68.17-1.08s.11-.66.17-1c0,0,0-.09,0-.14.06-.33.1-.65.15-1s.09-.72.12-1.07.08-.8.11-1.19,0-.7.07-1,0-.8,0-1.17,0-.75,0-1.08,0-.79,0-1.11,0-.76,0-1,0-.33,0-.33h0a1.81,1.81,0,0,0,0-.23,2.26,2.26,0,0,0-.1-.45,3.81,3.81,0,0,0-.75-1.4,5.94,5.94,0,0,0-1.77-1.39h0a10.28,10.28,0,0,0-6.11-.9,9.91,9.91,0,0,0-5.78,2.68A5.13,5.13,0,0,0,36.07,197a3.69,3.69,0,0,0-.25,1.46h0A5.25,5.25,0,0,0,36.14,200.49Z"/><path class="cls-101" d="M51.66,196.27s-2-1.46-7.85-.73-8,2.88-8,2.88"/><path class="cls-101" d="M50.87,194.85c-1-.38-3.18-.93-7.23-.42A16.52,16.52,0,0,0,36.07,197"/><path class="cls-101" d="M49.1,193.46h0a19.31,19.31,0,0,0-5.6,0,19.2,19.2,0,0,0-6.29,1.77"/><path class="cls-101" d="M51.81,197.28s-2-1.46-7.84-.73-8,2.88-8,2.88"/><path class="cls-101" d="M36.14,200.49h0c.06-.06,2.26-2.14,8-2.87,4.87-.62,7.08.31,7.67.62"/><path class="cls-101" d="M51.82,199.35c-.8-.38-3-1.11-7.5-.54-5,.63-7.28,2.28-7.85,2.75"/><path class="cls-101" d="M51.8,200.43c-.94-.38-3.16-1-7.3-.45-4.54.58-6.86,2-7.66,2.6"/><path class="cls-101" d="M51.75,201.6c-1-.38-3.23-.84-7-.36a16.83,16.83,0,0,0-7.43,2.44"/><path class="cls-101" d="M51.68,202.64a16.12,16.12,0,0,0-6.81-.27,17.45,17.45,0,0,0-7.19,2.28"/><path class="cls-101" d="M51.57,203.83a14.86,14.86,0,0,0-6.52-.35,18.14,18.14,0,0,0-7,2.13"/><path class="cls-101" d="M51.45,204.9a15.4,15.4,0,0,0-6.22-.26,18.46,18.46,0,0,0-6.69,2"/><path class="cls-102" d="M51.28,206a15.47,15.47,0,0,0-5.84-.2A18.5,18.5,0,0,0,39,207.68"/><path class="cls-102" d="M51.11,207.05a16,16,0,0,0-5.49-.12,19.25,19.25,0,0,0-6.14,1.72"/><path class="cls-102" d="M50.94,208.13a15.57,15.57,0,0,0-5.15-.1,19.52,19.52,0,0,0-5.86,1.59"/><path class="cls-102" d="M50.78,209.21a15.71,15.71,0,0,0-4.82,0,20.16,20.16,0,0,0-5.55,1.45"/><path class="cls-101" d="M39,193.86s-2.45,2.39-.8,7.18,4,10.51,4,10.51"/><path class="cls-101" d="M47,192.77s3.07,1.64,2.95,6.67-.61,11.13-.61,11.13"/><path class="cls-3" d="M41.13,212.18c.06.41,2.23.46,4.83.11s4.67-1,4.61-1.39-2.23-.45-4.84-.1S41.06,211.77,41.13,212.18Z"/><path class="cls-103" d="M41.13,212.18a.22.22,0,0,0,.09.13c.45.29,2.43.29,4.76,0s4.19-.83,4.56-1.23a.18.18,0,0,0,.07-.15.14.14,0,0,0,0-.08c-.32-.34-2.37-.35-4.81,0s-4.49.91-4.62,1.32Z"/><path class="cls-104" d="M176.93,117.71c0,.13,0,.27.07.44s.05.27.09.43l0,.15c0,.09,0,.2.08.3s.07.27.1.41l.12.4c0,.14.08.28.12.42s.08.3.13.44l.12.41c.05.14.09.28.13.41s.09.29.13.42.1.31.14.43a1.85,1.85,0,0,1,.06.2l0,.08a4.65,4.65,0,0,0,1.89.22,4.77,4.77,0,0,0,1.88-.26h0a.43.43,0,0,1,0-.09l.05-.2.25-.85.13-.42c0-.12.08-.26.12-.4l0-.06c0-.13.08-.25.11-.38s.08-.28.11-.41.08-.32.11-.47.06-.28.09-.41.06-.32.08-.46.05-.3.07-.43,0-.31.06-.44,0-.3,0-.39a.6.6,0,0,1,0-.13h0a.34.34,0,0,0,0-.1c0-.06,0-.12,0-.18a1.41,1.41,0,0,0-.22-.59,2.21,2.21,0,0,0-.62-.64h0a4.4,4.4,0,0,0-4.82.12,2.27,2.27,0,0,0-.54.63,1.47,1.47,0,0,0-.18.56h0A2,2,0,0,0,176.93,117.71Z"/><path class="cls-105" d="M183.32,116.8s-.72-.68-3.07-.67a5.83,5.83,0,0,0-3.33.74"/><path class="cls-105" d="M183.09,116.2a5.85,5.85,0,0,0-2.84-.52,6.65,6.65,0,0,0-3.15.63"/><path class="cls-105" d="M182.47,115.56h0a7.34,7.34,0,0,0-2.23-.27,7.81,7.81,0,0,0-2.6.39"/><path class="cls-105" d="M183.33,117.21s-.72-.68-3.07-.68a5.94,5.94,0,0,0-3.34.75"/><path class="cls-105" d="M176.93,117.71h0a5.91,5.91,0,0,1,3.33-.75,5.2,5.2,0,0,1,3,.63"/><path class="cls-105" d="M183.21,118a5.42,5.42,0,0,0-2.94-.58,6.22,6.22,0,0,0-3.27.7"/><path class="cls-105" d="M183.14,118.46a5.79,5.79,0,0,0-2.86-.54,6.59,6.59,0,0,0-3.19.66"/><path class="cls-105" d="M183.06,118.92a6.11,6.11,0,0,0-2.78-.49,6.7,6.7,0,0,0-3.08.6"/><path class="cls-105" d="M183,119.33a6.36,6.36,0,0,0-2.68-.45,7.17,7.17,0,0,0-3,.56"/><path class="cls-105" d="M182.86,119.8a5.88,5.88,0,0,0-2.57-.47,7.31,7.31,0,0,0-2.87.51"/><path class="cls-105" d="M182.75,120.21a6.26,6.26,0,0,0-2.45-.41,7.59,7.59,0,0,0-2.76.46"/><path class="cls-106" d="M182.62,120.65a6,6,0,0,0-2.3-.37,7.52,7.52,0,0,0-2.65.42"/><path class="cls-106" d="M182.5,121.05a6.48,6.48,0,0,0-2.17-.32,7.64,7.64,0,0,0-2.54.38"/><path class="cls-106" d="M182.37,121.47a6.05,6.05,0,0,0-2-.29,7.64,7.64,0,0,0-2.41.34"/><path class="cls-106" d="M182.25,121.89a6.59,6.59,0,0,0-1.91-.25,8,8,0,0,0-2.29.3"/><path class="cls-105" d="M178.44,115.22a2.76,2.76,0,0,0-.72,2.81c.38,2,1,4.37,1,4.37"/><path class="cls-105" d="M181.69,115.18a2.78,2.78,0,0,1,.79,2.79c-.33,2-.87,4.39-.87,4.39"/><path class="cls-3" d="M178.25,122.59c0,.17.86.3,1.91.28s1.91-.15,1.91-.32-.86-.29-1.92-.28S178.25,122.43,178.25,122.59Z"/><path class="cls-107" d="M178.25,122.6a.09.09,0,0,0,0,.05,4.65,4.65,0,0,0,1.89.22,4.77,4.77,0,0,0,1.88-.26.09.09,0,0,0,0-.06,0,0,0,0,0,0,0,4.1,4.1,0,0,0-1.91-.25,3.94,3.94,0,0,0-1.91.3Z"/><path class="cls-108" d="M170.39,89.78c0,.16,0,.33,0,.54s0,.33.05.52l0,.18c0,.12,0,.25.05.38s0,.33.08.5l.09.49c0,.18.06.35.1.52s.07.37.1.55.07.34.1.51.07.34.11.5.07.36.11.52.08.39.11.53a1.85,1.85,0,0,0,.06.25s0,.09,0,.09a5.22,5.22,0,0,0,2.23.47,5.69,5.69,0,0,0,2.27-.13h0l0-.11s0-.12.09-.23.2-.51.39-1l.2-.49.2-.47,0-.07c.06-.15.12-.29.17-.44s.13-.33.18-.49.13-.37.19-.55l.15-.49q.09-.28.15-.54l.14-.51c0-.2.09-.37.12-.53s.07-.36.1-.46,0-.16,0-.16h0a.45.45,0,0,0,0-.11,1.77,1.77,0,0,0,0-.23,1.74,1.74,0,0,0-.2-.73,2.61,2.61,0,0,0-.67-.83h0a5.23,5.23,0,0,0-5.77-.35,2.58,2.58,0,0,0-.73.7,2,2,0,0,0-.28.66h0A2.54,2.54,0,0,0,170.39,89.78Z"/><path class="cls-109" d="M178.13,89.34s-.78-.9-3.59-1.13a7.07,7.07,0,0,0-4.07.56"/><path class="cls-109" d="M177.92,88.59a6.93,6.93,0,0,0-3.33-.92,8,8,0,0,0-3.84.44"/><path class="cls-109" d="M177.25,87.76h0a8.81,8.81,0,0,0-2.63-.56,9.16,9.16,0,0,0-3.14.21"/><path class="cls-109" d="M178.09,89.83s-.78-.89-3.59-1.13a7.07,7.07,0,0,0-4.07.56"/><path class="cls-109" d="M170.39,89.78h0a7.08,7.08,0,0,1,4.07-.56A6.31,6.31,0,0,1,178,90.28"/><path class="cls-109" d="M177.86,90.81a6.48,6.48,0,0,0-3.45-1,7.45,7.45,0,0,0-4,.52"/><path class="cls-109" d="M177.72,91.32a6.73,6.73,0,0,0-3.36-.94,7.81,7.81,0,0,0-3.88.46"/><path class="cls-109" d="M177.57,91.86a7.28,7.28,0,0,0-3.26-.87,8.12,8.12,0,0,0-3.76.41"/><path class="cls-109" d="M177.42,92.35a7.62,7.62,0,0,0-3.16-.81,8.36,8.36,0,0,0-3.63.36"/><path class="cls-109" d="M177.23,92.9a6.92,6.92,0,0,0-3-.82,8.82,8.82,0,0,0-3.5.31"/><path class="cls-109" d="M177.05,93.39a7.33,7.33,0,0,0-2.88-.74,9,9,0,0,0-3.35.26"/><path class="cls-110" d="M176.85,93.9a7.31,7.31,0,0,0-2.71-.68,9.09,9.09,0,0,0-3.22.24"/><path class="cls-110" d="M176.65,94.37a7.48,7.48,0,0,0-2.56-.6A8.92,8.92,0,0,0,171,94"/><path class="cls-110" d="M176.45,94.86a7.42,7.42,0,0,0-2.4-.56,9.45,9.45,0,0,0-2.92.17"/><path class="cls-110" d="M176.25,95.36a7.4,7.4,0,0,0-2.25-.5,9.45,9.45,0,0,0-2.76.13"/><path class="cls-109" d="M172.48,86.94a3.39,3.39,0,0,0-1.19,3.31c.23,2.42.67,5.35.67,5.35"/><path class="cls-109" d="M176.36,87.23s1.25,1.07.63,3.44-1.55,5.19-1.55,5.19"/><path class="cls-3" d="M171.4,95.8c0,.2,1,.44,2.25.53s2.29,0,2.31-.2-1-.43-2.25-.53S171.41,95.6,171.4,95.8Z"/><path class="cls-111" d="M171.4,95.8s0,0,0,.06a5.22,5.22,0,0,0,2.23.47,5.69,5.69,0,0,0,2.27-.13s0,0,0-.06a.09.09,0,0,0,0,0,4.9,4.9,0,0,0-2.25-.49,4.55,4.55,0,0,0-2.31.17A0,0,0,0,0,171.4,95.8Z"/><path class="cls-112" d="M141.82,45.63c0,.13,0,.28.05.45s0,.28.07.43a.88.88,0,0,0,0,.16L142,47l.09.41.09.41c0,.14.07.29.1.43s.07.31.11.46.07.28.1.41.07.29.11.42.07.3.11.43l.11.44,0,.11a.46.46,0,0,0,0,.09s0,.07,0,.08a4.19,4.19,0,0,0,1.84.28,4.45,4.45,0,0,0,1.86-.21h0a.31.31,0,0,1,0-.09.25.25,0,0,1,0-.07.93.93,0,0,1,0-.13c0-.17.14-.44.28-.85,0-.13.09-.27.15-.42s.09-.26.14-.41l0-.06c0-.12.08-.25.13-.38l.12-.41c0-.16.09-.32.13-.47s.08-.28.11-.42.07-.31.1-.46.06-.3.09-.44.06-.31.08-.44.05-.3.06-.39l0-.13h0a.28.28,0,0,0,0-.09,1.21,1.21,0,0,0,0-.19,1.45,1.45,0,0,0-.19-.6,2.14,2.14,0,0,0-.58-.67,3.7,3.7,0,0,0-1.78-.69,4.55,4.55,0,0,0-.52,0,4.28,4.28,0,0,0-1.64.28h0a2.94,2.94,0,0,0-.8.44,2.22,2.22,0,0,0-.57.62,1.69,1.69,0,0,0-.2.57h0A2.17,2.17,0,0,0,141.82,45.63Z"/><path class="cls-3" d="M142.9,50.6a0,0,0,0,0,0,0,.09.09,0,0,0,0,0,4.19,4.19,0,0,0,1.84.28,4.45,4.45,0,0,0,1.86-.21s0,0,0-.06,0,0,0,0a.77.77,0,0,0-.34-.16,7.39,7.39,0,0,0-1.55-.16,7.16,7.16,0,0,0-1.47.1A.69.69,0,0,0,142.9,50.6Z"/><path class="cls-113" d="M142.89,50.62a.09.09,0,0,0,0,.05,4.19,4.19,0,0,0,1.84.28,4.45,4.45,0,0,0,1.86-.21s0,0,0-.06a0,0,0,0,0,0,0,6.42,6.42,0,0,0-3.75-.06A0,0,0,0,0,142.89,50.62Z"/><path class="cls-114" d="M143.42,43.16a2.87,2.87,0,0,0-.84,2.82c.28,2,.76,4.45.76,4.45"/><path class="cls-114" d="M146.61,43.21a2.81,2.81,0,0,1,.65,2.85c-.42,2-1.06,4.41-1.06,4.41"/><path class="cls-115" d="M67,29.67c0,.12,0,.25.05.4s0,.24,0,.38l0,.13c0,.09,0,.18,0,.28s0,.24.08.36,0,.24.08.37,0,.25.08.38.07.26.1.4.06.25.09.36l.09.37c0,.14.07.27.1.38s.08.28.1.39l0,.1a.31.31,0,0,1,0,.08l0,.07a4,4,0,0,0,1.63.25,4.1,4.1,0,0,0,1.64-.19h0a.32.32,0,0,1,0-.08l0-.06,0-.12c0-.15.12-.39.25-.75,0-.11.08-.24.13-.37a3.79,3.79,0,0,1,.12-.36l0,0c0-.11.07-.22.11-.33s.08-.25.11-.37l.12-.42c0-.12.06-.25.09-.36s.06-.28.09-.41.06-.27.08-.39,0-.27.07-.39,0-.27,0-.35l0-.11h0a.28.28,0,0,0,0-.09.86.86,0,0,0,0-.16,1.21,1.21,0,0,0-.16-.53,1.93,1.93,0,0,0-.52-.59,3.27,3.27,0,0,0-1.57-.62,3.44,3.44,0,0,0-.46,0,3.74,3.74,0,0,0-1.45.25h0a2.64,2.64,0,0,0-.7.39,2,2,0,0,0-.5.54,1.37,1.37,0,0,0-.18.5h0A2.05,2.05,0,0,0,67,29.67Z"/><path class="cls-3" d="M67.94,34.06v0s0,0,0,.05a4.09,4.09,0,0,0,1.63.25,4.13,4.13,0,0,0,1.64-.19.09.09,0,0,0,0,0,0,0,0,0,0,0,0S71.12,34,71,34a6.6,6.6,0,0,0-1.38-.14,6.32,6.32,0,0,0-1.29.08A.7.7,0,0,0,67.94,34.06Z"/><path class="cls-116" d="M67.94,34.07a.06.06,0,0,0,0,0,4,4,0,0,0,1.63.25,4.1,4.1,0,0,0,1.64-.19s0,0,0,0a0,0,0,0,0,0,0,3.32,3.32,0,0,0-1.64-.27,3.32,3.32,0,0,0-1.67.22Z"/><path class="cls-117" d="M68.4,27.49A2.54,2.54,0,0,0,67.66,30c.25,1.78.68,3.92.68,3.92"/><path class="cls-117" d="M71.22,27.53a2.5,2.5,0,0,1,.57,2.52c-.37,1.77-.93,3.89-.93,3.89"/><path class="cls-118" d="M94,82.47c0,.23.1.49.18.79s.12.49.2.77l.09.27c0,.18.1.36.16.55l.24.73c.08.24.16.48.25.72s.17.51.26.76.19.54.29.8.18.5.27.73.18.5.27.73l.28.75.3.77.07.21.07.16c0,.08,0,.12,0,.13a7.92,7.92,0,0,0,3.38.19,8.14,8.14,0,0,0,3.3-.71h0a1,1,0,0,1,0-.17.69.69,0,0,1,0-.13c0-.06,0-.14.05-.24.06-.32.17-.81.34-1.58q.08-.36.18-.78c0-.24.11-.49.17-.76l0-.11c.06-.23.11-.47.16-.7l.15-.77c0-.3.09-.59.14-.87s.07-.52.1-.77.07-.58.09-.85.06-.55.08-.79,0-.58,0-.81,0-.56,0-.73v-.24h0s0-.11,0-.17a1.88,1.88,0,0,0-.05-.33,2.7,2.7,0,0,0-.46-1.06,4,4,0,0,0-1.18-1.1,6.83,6.83,0,0,0-3.35-.94,7.44,7.44,0,0,0-.94,0,7.71,7.71,0,0,0-2.9.78h0a5.86,5.86,0,0,0-1.35.93,3.94,3.94,0,0,0-.89,1.22,3,3,0,0,0-.26,1.05h0A4.19,4.19,0,0,0,94,82.47Z"/><path class="cls-3" d="M96.93,91.22a.09.09,0,0,0,0,0,.12.12,0,0,0,.06.09,8.07,8.07,0,0,0,3.38.19,8.14,8.14,0,0,0,3.3-.71s.06-.08,0-.11a.14.14,0,0,0,0-.06,1.36,1.36,0,0,0-.64-.23,16.49,16.49,0,0,0-5.44.42A1.38,1.38,0,0,0,96.93,91.22Z"/><path class="cls-119" d="M96.92,91.25a.12.12,0,0,0,.06.09,7.92,7.92,0,0,0,3.38.19,8.14,8.14,0,0,0,3.3-.71s.06-.07,0-.11a.07.07,0,0,0,0-.06c-.22-.26-1.67-.36-3.41-.22s-3.24.48-3.35.78A.06.06,0,0,0,96.92,91.25Z"/><path class="cls-120" d="M96.38,77.73s-1.86,1.64-.94,5.23,2.26,7.87,2.26,7.87"/><path class="cls-120" d="M102.14,77.27s2.09,1.33,1.74,5-1,8.13-1,8.13"/></g></g></svg>