<svg xmlns="http://www.w3.org/2000/svg" viewBox="0 0 401.16 126.9"><defs><style>.cls-1{fill:#1d263f;}</style></defs><g id="圖層_2" data-name="圖層 2"><g id="圖層_1-2" data-name="圖層 1"><path class="cls-1" d="M4.58,36.9C22.36,21,43.28,8,66.49,2.6S115.4,0,135.21,13.24c13.33,8.92,24.75,22.65,40.68,24.48,12.79,1.47,24.93-5.3,37.56-7.83C239.88,24.6,269,40.56,278.71,65.71c3.34,8.63,4.86,18.5,11.45,25C296,96.52,304.81,98.37,313,98s16.21-2.78,24.3-4.27c13.29-2.45,27.43-2.44,39.83,2.93s22.67,16.83,24,30.27H2.32C-.79,96.71-1.44,66.65,4.58,36.9Z"/></g></g></svg>