<svg xmlns="http://www.w3.org/2000/svg" xmlns:xlink="http://www.w3.org/1999/xlink" viewBox="0 0 232.07 468.46"><defs><style>.cls-1{fill:url(#未命名漸層_3);}.cls-2{fill:#040000;}.cls-3{fill:url(#未命名漸層_122);}.cls-4{fill:url(#未命名漸層_2);}.cls-5{fill:url(#未命名漸層_122-2);}.cls-6{fill:url(#未命名漸層_122-3);}.cls-7{fill:url(#未命名漸層_122-4);}.cls-8{fill:url(#未命名漸層_2-2);}.cls-9{fill:url(#未命名漸層_122-5);}.cls-10{fill:url(#未命名漸層_3-2);}.cls-11{fill:url(#未命名漸層_2-3);}.cls-12{fill:url(#未命名漸層_122-6);}.cls-13{fill:url(#未命名漸層_3-3);}.cls-14{fill:url(#未命名漸層_122-7);}.cls-15{fill:url(#未命名漸層_122-8);}.cls-16{fill:url(#未命名漸層_3-4);}.cls-17{fill:url(#未命名漸層_2-4);}.cls-18{fill:url(#未命名漸層_3-5);}.cls-19{fill:url(#未命名漸層_3-6);}.cls-20{fill:url(#未命名漸層_122-9);}.cls-21{fill:url(#未命名漸層_2-5);}.cls-22{fill:url(#未命名漸層_122-10);}.cls-23{fill:url(#未命名漸層_122-11);}.cls-24{fill:url(#未命名漸層_122-12);}.cls-25{fill:url(#未命名漸層_3-7);}.cls-26{fill:url(#未命名漸層_2-6);}.cls-27,.cls-35,.cls-36{fill:none;}.cls-27,.cls-28,.cls-35{stroke:#040000;stroke-linecap:round;stroke-linejoin:round;}.cls-27,.cls-28{stroke-width:0.5px;}.cls-28{fill:#060001;}.cls-29{fill:#ff8908;}.cls-30{fill:#070001;}.cls-31{fill:url(#未命名漸層_4);}.cls-32{fill:url(#未命名漸層_4-2);}.cls-33{fill:#fff;}.cls-34{fill:url(#未命名漸層_4-3);}</style><linearGradient id="未命名漸層_3" x1="412.82" y1="213.8" x2="431.19" y2="359.46" gradientTransform="matrix(-0.85, 0.71, 0.72, 0.86, 255.79, -164.64)" gradientUnits="userSpaceOnUse"><stop offset="0" stop-color="#ffb361"/><stop offset="1" stop-color="#ff8908"/></linearGradient><linearGradient id="未命名漸層_122" x1="205.48" y1="344.39" x2="204.26" y2="371.7" gradientUnits="userSpaceOnUse"><stop offset="0" stop-color="#403c37"/><stop offset="1" stop-color="#121212"/></linearGradient><linearGradient id="未命名漸層_2" x1="386.65" y1="355.57" x2="378.66" y2="386.89" gradientTransform="matrix(-0.85, 0.71, 0.72, 0.86, 255.79, -164.64)" gradientUnits="userSpaceOnUse"><stop offset="0" stop-color="#ff6721"/><stop offset="1" stop-color="#ff4900"/></linearGradient><linearGradient id="未命名漸層_122-2" x1="182.44" y1="337" x2="167.3" y2="433.57" xlink:href="#未命名漸層_122"/><linearGradient id="未命名漸層_122-3" x1="196.53" y1="343.99" x2="195.3" y2="371.3" xlink:href="#未命名漸層_122"/><linearGradient id="未命名漸層_122-4" x1="226.1" y1="345.32" x2="224.88" y2="372.63" xlink:href="#未命名漸層_122"/><linearGradient id="未命名漸層_2-2" x1="356.24" y1="347.81" x2="348.24" y2="379.12" xlink:href="#未命名漸層_2"/><linearGradient id="未命名漸層_122-5" x1="205.32" y1="340.59" x2="190.18" y2="437.16" xlink:href="#未命名漸層_122"/><linearGradient id="未命名漸層_3-2" x1="350.93" y1="340.27" x2="344.92" y2="372.26" xlink:href="#未命名漸層_3"/><linearGradient id="未命名漸層_2-3" x1="400.87" y1="251.66" x2="416.18" y2="372.48" xlink:href="#未命名漸層_2"/><linearGradient id="未命名漸層_122-6" x1="180.1" y1="441.46" x2="184.04" y2="441.46" xlink:href="#未命名漸層_122"/><linearGradient id="未命名漸層_3-3" x1="411.48" y1="351.65" x2="405.46" y2="383.64" xlink:href="#未命名漸層_3"/><linearGradient id="未命名漸層_122-7" x1="189.21" y1="343.66" x2="187.98" y2="370.97" xlink:href="#未命名漸層_122"/><linearGradient id="未命名漸層_122-8" x1="203.27" y1="340.27" x2="188.13" y2="436.84" xlink:href="#未命名漸層_122"/><linearGradient id="未命名漸層_3-4" x1="362.13" y1="220.19" x2="380.51" y2="365.86" xlink:href="#未命名漸層_3"/><linearGradient id="未命名漸層_2-4" x1="353.74" y1="257.63" x2="369.05" y2="378.45" xlink:href="#未命名漸層_2"/><linearGradient id="未命名漸層_3-5" x1="367.1" y1="343.31" x2="361.08" y2="375.3" xlink:href="#未命名漸層_3"/><linearGradient id="未命名漸層_3-6" x1="382.11" y1="346.13" x2="376.09" y2="378.12" xlink:href="#未命名漸層_3"/><linearGradient id="未命名漸層_122-9" x1="219.54" y1="342.82" x2="204.4" y2="439.39" xlink:href="#未命名漸層_122"/><linearGradient id="未命名漸層_2-5" x1="404.66" y1="360.17" x2="396.66" y2="391.48" xlink:href="#未命名漸層_2"/><linearGradient id="未命名漸層_122-10" x1="198.95" y1="339.59" x2="183.81" y2="436.16" xlink:href="#未命名漸層_122"/><linearGradient id="未命名漸層_122-11" x1="200.36" y1="344.16" x2="199.13" y2="371.47" xlink:href="#未命名漸層_122"/><linearGradient id="未命名漸層_122-12" x1="202.89" y1="340.21" x2="187.75" y2="436.78" xlink:href="#未命名漸層_122"/><linearGradient id="未命名漸層_3-7" x1="393.86" y1="348.34" x2="387.85" y2="380.33" xlink:href="#未命名漸層_3"/><linearGradient id="未命名漸層_2-6" x1="416.13" y1="363.1" x2="408.13" y2="394.41" xlink:href="#未命名漸層_2"/><linearGradient id="未命名漸層_4" x1="94.83" y1="10.24" x2="104.92" y2="35.63" gradientUnits="userSpaceOnUse"><stop offset="0" stop-color="#ff8a00"/><stop offset="1" stop-color="#ff6d00"/></linearGradient><linearGradient id="未命名漸層_4-2" x1="81.95" y1="11.29" x2="92.62" y2="38.14" xlink:href="#未命名漸層_4"/><linearGradient id="未命名漸層_4-3" x1="51.88" y1="23.25" x2="62.56" y2="50.1" xlink:href="#未命名漸層_4"/></defs><g id="圖層_2" data-name="圖層 2"><g id="圖層_1-2" data-name="圖層 1"><path class="cls-1" d="M152.71,443.61c-11.48.32-16.89,21.44,10.35,16.31-.14-1-1.56-10.51-6-16.63A30,30,0,0,1,152.71,443.61Z"/><path class="cls-2" d="M199.53,410.41a22.49,22.49,0,0,1,5.76,5.42l0-.2h0A19.38,19.38,0,0,0,199.53,410.41Z"/><path class="cls-2" d="M172.23,457.55a73.87,73.87,0,0,1-9.17,2.37.62.62,0,0,1,0,.09c.8-.16,1.65-.35,2.51-.55,2.3-.54,4.48-1.15,6.55-1.86Z"/><path class="cls-3" d="M205.91,407.78c-.16,1.76-.32,3.89-.44,5.5C205.58,411.26,205.73,409.44,205.91,407.78Zm-.1,4.88c.13-2.33,0-2.21.2-4.06,0-.39.3-2.24.34-2.57,0-.18,0-.38.07-.53s0-.17,0-.25l-.19-.3a1.26,1.26,0,0,0,0,.28,17.5,17.5,0,0,0-4.07-4.94q-.51-.42-1.08-.81a22.3,22.3,0,0,0-1.82,6.6c-.11,1.17-.24,2.5-.42,3.94.23.11.47.25.7.39a19.38,19.38,0,0,1,5.77,5.21h0l0,.2a3,3,0,0,1,.22.28c0-.08.07-.76.09-1.15,0-.16,0-.34,0-.53S205.78,413,205.81,412.66Z"/><path class="cls-2" d="M190.2,384.31a8.11,8.11,0,0,0-.64,1.37C189.75,385.22,190,384.77,190.2,384.31Z"/><path class="cls-4" d="M199.53,410.41c-.23-.14-.47-.28-.7-.39a65.85,65.85,0,0,1-2.64,12.47,16.49,16.49,0,0,1,2,5.56,9.27,9.27,0,0,0-3.17-2.48,42.72,42.72,0,0,1-3.81,7.41,57.06,57.06,0,0,1,5.87,6.45,49.12,49.12,0,0,0,8.17-23.6A22.49,22.49,0,0,0,199.53,410.41Z"/><path class="cls-5" d="M163.06,459.92a73.87,73.87,0,0,0,9.17-2.37l.06,0a29.8,29.8,0,0,0-6.65-16.39l0,0c-2,1.42-7,2-8.28,2.1l-.28,0C161.5,449.41,162.92,459,163.06,459.92Z"/><path class="cls-6" d="M187.41,438.09a36.7,36.7,0,0,1,6.59,5.37,2.43,2.43,0,0,0,.2-.25c.43-.54,1.47-1.84,2.22-2.8l.1-.14c.17-.23.32-.45.48-.65l.12-.19a57.06,57.06,0,0,0-5.87-6.45A39.66,39.66,0,0,1,187.41,438.09Z"/><path class="cls-2" d="M205.91,407.78c-.18,1.66-.33,3.48-.44,5.5C205.59,411.67,205.75,409.54,205.91,407.78Z"/><path class="cls-7" d="M230,363.67c.11.43.64,4.13-8.45,12.07q-1.87,1.62-3.76,3.35a46.81,46.81,0,0,1,3.12,4.4c1.38-1.07,2.88-2.2,4.52-3.47C232.64,374.45,233.11,367.86,230,363.67Z"/><path class="cls-8" d="M207.7,389.3a42.23,42.23,0,0,0-6.63,10.18q.57.39,1.08.81a19.94,19.94,0,0,1,4.11,4.66c1.58-10.56,5.21-14.14,14.65-21.46a46.81,46.81,0,0,0-3.12-4.4A106.83,106.83,0,0,0,207.7,389.3Z"/><path class="cls-9" d="M189.54,385.71c.31-.07,10-2.47,17,2.58,0,0-3.35-8.5-9.47-13.5l0,0a.66.66,0,0,0-.13.16c-.64.76-3.06,3.75-5,6.59l-.2.31c-.87,1.38-1.6,2.7-2.16,3.8Z"/><path class="cls-2" d="M184.23,451.85a50.67,50.67,0,0,1-4.88,2.75A32.72,32.72,0,0,0,184.23,451.85Z"/><path class="cls-10" d="M197.09,374.79c6.12,5,9.47,13.5,9.47,13.5l1.14,1a106.83,106.83,0,0,1,10.09-10.21c-9-11.28-16.51-8.33-16.51-8.33C199.72,372.13,198.33,373.47,197.09,374.79Z"/><path class="cls-11" d="M179.3,454.62a2,2,0,0,0,.07-.21c-2.38,1.18-4.72,2.23-6.28,2.84A54.89,54.89,0,0,0,179.3,454.62Z"/><path class="cls-2" d="M197.06,374.82l0,0h0Z"/><path class="cls-2" d="M172.13,457.6c-2.07.71-4.25,1.32-6.55,1.86-.86.2-1.71.39-2.51.55C165.47,460.14,171.09,458,172.13,457.6Z"/><path class="cls-12" d="M180.1,439.09a11.09,11.09,0,0,1,1.08,4.74,37,37,0,0,0,2.86-2.36A19.9,19.9,0,0,0,180.1,439.09Z"/><path class="cls-13" d="M187.41,438.09a29.67,29.67,0,0,0-10.18-4.23h0a32.64,32.64,0,0,1-11.58,7.29,28.39,28.39,0,0,1,5,8.79,50.51,50.51,0,0,0,10.54-6.09h0a11.09,11.09,0,0,0-1.08-4.74,19.9,19.9,0,0,1,3.94,2.38A44.73,44.73,0,0,0,187.41,438.09Z"/><path class="cls-2" d="M189.56,385.68c.56-1.1,1.29-2.42,2.16-3.8-.57.84-1.09,1.66-1.5,2.39a.08.08,0,0,1,0,0C190,384.77,189.75,385.22,189.56,385.68Z"/><path class="cls-14" d="M184,441.47a37,37,0,0,1-2.86,2.36h0a34.8,34.8,0,0,1-1.8,10.57c2-1,4-2.07,5.63-3.07l0,0c.28-.18.54-.36.8-.55,1.17-.84,2.13-1.59,2.77-2.1.34-.27.59-.48.7-.58l.08-.06A17.15,17.15,0,0,0,184,441.47Z"/><path class="cls-2" d="M179.86,430.88a28.35,28.35,0,0,0,2.35-3.52C181.89,427.9,181,429.38,179.86,430.88Z"/><path class="cls-15" d="M198.83,410c.18-1.44.31-2.77.42-3.94a22.3,22.3,0,0,1,1.82-6.6c-3.24-2.22-8-3.43-14.19.21v0c0,.28,0,2.55,0,4.88a1,1,0,0,1,0,.17c0,.28,0,.57,0,.84,0,.07,0,.53,0,1.12,0,.27,0,.53,0,.79a5,5,0,0,0,0,.67c0,.32,0,.6,0,.83v.4A14.33,14.33,0,0,1,198.83,410Z"/><path class="cls-16" d="M186.92,404.6c0-2.33,0-4.6,0-4.88C186.86,401.34,186.89,403,186.92,404.6Z"/><path class="cls-2" d="M165.6,441.16l0,0h0Z"/><path class="cls-17" d="M202.15,400.29a17.5,17.5,0,0,1,4.07,4.94,1.26,1.26,0,0,1,0-.28A19.94,19.94,0,0,0,202.15,400.29Z"/><path class="cls-18" d="M206.56,388.29c-7-5.05-16.71-2.65-17-2.58a34,34,0,0,0-2.66,14v0c6.2-3.64,11-2.43,14.19-.21a42.23,42.23,0,0,1,6.63-10.18Z"/><path class="cls-19" d="M196.19,422.49A65.85,65.85,0,0,0,198.83,410a14.33,14.33,0,0,0-11.92-.6,49,49,0,0,1-.46,5.56.21.21,0,0,0,0-.06A16,16,0,0,1,196.19,422.49Z"/><path class="cls-20" d="M201.28,370.76s7.49-2.95,16.51,8.33q1.89-1.72,3.76-3.35c9.09-7.94,8.56-11.64,8.45-12.07,0,0,0,0,0,0-3.55-4.78-11.75-6.43-19.8.17A100.3,100.3,0,0,0,201.28,370.76Z"/><path class="cls-21" d="M187.41,438.09a44.73,44.73,0,0,1-3.37,3.38,17.15,17.15,0,0,1,5.33,6.56,41.69,41.69,0,0,0,4.63-4.57A36.7,36.7,0,0,0,187.41,438.09Z"/><path class="cls-22" d="M182.21,427.36a28.35,28.35,0,0,1-2.35,3.52l-.08.11a19.92,19.92,0,0,1-2.55,2.87,29.67,29.67,0,0,1,10.18,4.23,39.66,39.66,0,0,0,3.84-5.11c-2.66-2.54-5.9-5-8.91-5.83Z"/><path class="cls-23" d="M195.06,425.57a9.27,9.27,0,0,1,3.17,2.48,16.49,16.49,0,0,0-2-5.56C195.85,423.5,195.47,424.54,195.06,425.57Z"/><path class="cls-24" d="M186.46,414.92a.21.21,0,0,1,0,.06,1.13,1.13,0,0,1,0,.18.1.1,0,0,1,0,0,1.41,1.41,0,0,1,0,.25c0,.11,0,.24-.05.38s0,0,0,0-.05.26-.07.39a.29.29,0,0,0,0,.09.31.31,0,0,1,0,.13c0,.11,0,.22-.06.35a2.62,2.62,0,0,1-.09.38,32.89,32.89,0,0,1-1.63,5.52c-.07.19-.14.38-.22.58q-.36.91-.81,1.83h0s6.57-2.06,11.68.44c.41-1,.79-2.07,1.13-3.08A16,16,0,0,0,186.46,414.92Z"/><path class="cls-2" d="M179.35,454.6a50.67,50.67,0,0,0,4.88-2.75h0l.76-.51c-1.63,1-3.64,2.09-5.63,3.07a2,2,0,0,1-.07.21Z"/><path class="cls-25" d="M191.25,433a42.72,42.72,0,0,0,3.81-7.41c-5.11-2.5-11.68-.44-11.68-.44-.33.7-.68,1.37-1,2C185.35,428,188.59,430.44,191.25,433Z"/><path class="cls-2" d="M196.52,440.27l.32-.41.16-.24C196.84,439.82,196.69,440,196.52,440.27Z"/><path class="cls-2" d="M184.41,422.71a32.89,32.89,0,0,0,1.63-5.52A41.06,41.06,0,0,1,184.41,422.71Z"/><path class="cls-26" d="M170.63,449.93a28.66,28.66,0,0,1,1.66,7.6l.8-.28c1.56-.61,3.9-1.66,6.28-2.84a34.8,34.8,0,0,0,1.8-10.57A50.51,50.51,0,0,1,170.63,449.93Z"/><path class="cls-27" d="M185,451.32l0,0c-1.63,1-3.64,2.09-5.63,3.07-2.38,1.18-4.72,2.23-6.28,2.84l-.8.28-.06,0"/><path class="cls-27" d="M189.29,448.09l-.7.58c-.88.73-1.8,1.43-2.77,2.1-.26.19-.52.37-.8.55"/><path class="cls-27" d="M194,443.46a41.69,41.69,0,0,1-4.63,4.57"/><path class="cls-27" d="M197.12,439.43l-.12.19c-.16.2-.31.42-.48.65l-.1.14c-.7.94-1.51,2-2.22,2.8a2.43,2.43,0,0,1-.2.25"/><path class="cls-27" d="M206.18,405.47c0,.19,0,.36-.07.54"/><path class="cls-27" d="M230,363.67c3.11,4.19,2.64,10.78-4.57,16.35-1.64,1.27-3.14,2.4-4.52,3.47-9.44,7.32-13.07,10.9-14.65,21.46a1.26,1.26,0,0,0,0,.28"/><path class="cls-27" d="M197.09,374.79c1.24-1.32,2.63-2.66,4.19-4a100.3,100.3,0,0,1,8.9-7c8-6.6,16.25-4.95,19.8-.17"/><path class="cls-27" d="M189.54,385.71l0,0c.56-1.1,1.29-2.42,2.16-3.8l.2-.31a45.23,45.23,0,0,1,5-6.59"/><path class="cls-27" d="M186.92,404.6c0-1.64-.06-3.26,0-4.88a34,34,0,0,1,2.66-14"/><path class="cls-27" d="M186.91,409.42V409c0-.22,0-.52,0-.83a5,5,0,0,1,0-.67v-.79c0-.59,0-1.05,0-1.12,0-.27,0-.55,0-.84"/><path class="cls-27" d="M186.42,415.16a1.13,1.13,0,0,0,0-.18,49,49,0,0,0,.46-5.56"/><path class="cls-28" d="M183.38,425.13h0a95.49,95.49,0,0,0,3-9.92.1.1,0,0,0,0,0"/><path class="cls-27" d="M165.64,441.14a32.64,32.64,0,0,0,11.58-7.29,30.79,30.79,0,0,0,2.56-2.86l.08-.11a28.35,28.35,0,0,0,2.35-3.52l.13-.21c.36-.65.71-1.32,1-2"/><path class="cls-27" d="M157.32,443.26a41.63,41.63,0,0,0,8.28-2.1"/><path class="cls-27" d="M172.23,457.55a73.87,73.87,0,0,1-9.17,2.37c-27.24,5.13-21.83-16-10.35-16.31a30,30,0,0,0,4.33-.32"/><path class="cls-28" d="M205.3,415.62h0l0,.2a49.12,49.12,0,0,1-8.17,23.6"/><path class="cls-27" d="M201.28,370.76s7.49-2.95,16.51,8.33a46.81,46.81,0,0,1,3.12,4.4"/><path class="cls-29" d="M92.63,61.41,75.11,137.33H45.47l7.72-33.5h-4L55.06,78.6,86.9,61.41ZM63,71.22H56.82L63.32,43l15.76-7.38H98.47L94.18,54.14Zm45.84,46.16-4,16.86H84.48L79.3,130l3.19-12.57Zm43.52-23.13-.55,2.31H156L151.8,115h-4.18l-5.07,21.93H107l2.75-11.9,6.83-4.41,1.33-5.62H82.94l4.29-18.4h34.82l.55-2.31H88.12l3.63-15.76h66.77l-3.63,15.76ZM168,35.19l-9.37,40.43H92.08l9.37-40.43ZM133.62,63.28l.66-3H121.39l-.66,3ZM124,49.07l-.67,2.86h12.9l.66-2.86Z"/><path class="cls-29" d="M148.17,214.8h4.4l-4,17.3H135.39l12.12,6.5-1.88,8.15H105.85L98.69,236.5H95.17l-10,10.25H42.83l1.87-8.15,14.11-6.5H46.46l4.08-17.63h30.3l.55-2.43H73l3.52-15.31H74l-2.31,9.8L65.86,212H51.42L59,179.1H80.62l.66-2.65H59.47l7.16-30.85H85.8l-3,12.56h2.64l2.87-12.45h22.14L96.05,208.08h25.56l-1.54,6.72h3l.66-2.76h22.81Zm-45.4-8.6-3.2-2.86,1-4.74h22.8l-1.76,7.6Zm60.05-35L156,176.89h4l-1.77,7.83h2.87l-2.65,11.79h-3l-3.2,13.77H123l2.1-9,3.85-1.65.66-3.08H101l2.75-11.79h28.65l.55-2.32H104.31L107.18,170h27l2.21-2H125.25l1.43-6.5h13.55l-1,4,2.54-2.2.88-3.86H109.71l2.21-9.25,7.71-5.84h23.58l-.55,2.42h25.78ZM111,168l-2.53-2.43,1-4.07h15.32l-1.44,6.5Z"/><path class="cls-29" d="M134.5,308.9h20.72l-11.13,48.15H47.57l3.74-16.31h-5L53,312.32l10-4.08-5-6.17,2.76-12H93.84l3.53,4,16.2-6.62.33-1.65H61.56l4.52-19.28,15.75-12.12h31.08l-1.11,4.85h50l-9.81,42Zm-15.75,22H85.47l-1.21,5.18h33.27Z"/><path class="cls-29" d="M161.72,397.94l7.38-31.74H119.63l-7.27,31.74ZM135.6,381.08H142l-.89,4.08h-6.5Z"/><path class="cls-29" d="M116.32,366.2H66.74l-7.38,31.74h49.58Zm-24.57,19H85.47l.88-4.08h6.39Z"/><path class="cls-29" d="M119.52,439.81h30.3l9-39H60.35l-9,39H81.83l-.66,3H49.22l-4.85,20.83H76.32l-1.1,4.85h37.69l1.1-4.85h32.61l4.74-20.83h-32.5Zm-30.19-13h-8.6l.66-3H90Zm2.31-10.25H83.16l.66-3h8.59Zm28.87-3h8.59l-.66,3h-8.59Zm-2.31,10.25h8.48l-.66,3h-8.6Z"/><path class="cls-30" d="M28.25,457.75a58.55,58.55,0,0,0,17.52-1.83c31.2-7.66,59.33-36.26,60.37-37.31C78,439.91,40.69,442.72,18.63,442.16A155.7,155.7,0,0,1,0,440.7a2.61,2.61,0,0,1,.27.2C3.79,443.21,28.25,457.75,28.25,457.75Z"/><path class="cls-30" d="M140.38,376.13a119.24,119.24,0,0,0,20.54,26.6l1.6-7.4A79,79,0,0,1,140.38,376.13Z"/><path class="cls-30" d="M29.1,226.38a36.35,36.35,0,0,0,12.24.09c22.89-3.24,49-22.88,50-23.61-24.3,14-50.06,13-64.74,10.68-7.52-1.19-9.32.26-9.32.26C21,217.7,29.1,226.38,29.1,226.38Z"/><path class="cls-30" d="M37.33,118.29a36.73,36.73,0,0,0,12.15,1.5c23.11-.59,51.32-17.1,52.36-17.71-25.76,11.13-51.23,7.15-65.54,3.16-7.34-2-9.28-.81-9.28-.81C30.25,108.73,37.33,118.29,37.33,118.29Z"/><path class="cls-30" d="M173.14,278.87a45.21,45.21,0,0,1-9.12,9.36c-18.54,14.59-46.66,17.52-47.7,17.62,24.31-6.38,43.13-26.81,53.1-39.94a125.84,125.84,0,0,0,7.91-11.55.9.9,0,0,0,0,.25C176.88,257.75,173.14,278.87,173.14,278.87Z"/><path class="cls-30" d="M179.33,324.79a45.5,45.5,0,0,1-10.56,7.7c-20.72,11.27-48.93,9.45-50,9.38,25-2.23,47-19.21,59-30.48a125.87,125.87,0,0,0,9.73-10.07,1.84,1.84,0,0,0-.07.24C186.56,304.59,179.33,324.79,179.33,324.79Z"/><path class="cls-30" d="M172.74,181.75a45.67,45.67,0,0,1-7.8,10.48C148.47,209.12,121,215.73,120,216c23.25-9.53,39.23-32.25,47.38-46.58a126.43,126.43,0,0,0,6.32-12.49,1.12,1.12,0,0,0,0,.25C173.67,160.32,172.74,181.75,172.74,181.75Z"/><path class="cls-30" d="M43.39,368.09a39.68,39.68,0,0,0,10.14-5.19c16.91-11.69,26.57-34.36,26.92-35.2-11.56,18.6-33.4,29-46.9,34a108.9,108.9,0,0,1-11.65,3.62.59.59,0,0,1,.21,0C24.84,365.79,43.39,368.09,43.39,368.09Z"/><path class="cls-31" d="M104.25,18.61c-2.84,3.85-7.44,6.83-8.41,7.56a35.57,35.57,0,0,1,3,11.25,15,15,0,0,1-3.66,2.07c.47-4.36-.17-8.55-1.61-11-3.4-5.69-1.86-4,5.41-9a10.86,10.86,0,0,0,4.2-5.06,11.92,11.92,0,0,0,.21-7.67C108,10.76,106.89,15.07,104.25,18.61Z"/><path class="cls-29" d="M103.43,6.82s0,0,0,0a15.52,15.52,0,0,0-1.89-1.42,14.58,14.58,0,0,0-5.13-2.13c-10-1.86-15.27,11.26-15.27,11.26-18.49-12.83-35.64-3-35.64-3a10.39,10.39,0,0,0-1.81-6.25C40.08-.14,31.84-2.34,26.58,3.81c-7,8.18,3.16,20.62,3.16,20.62s-4.86,4.79-6.6,10.88c.14-.34,1.27-3.12,1.78-4.16a5.88,5.88,0,0,0,1.63,2,18.3,18.3,0,0,0,7.08,3.46,15.71,15.71,0,0,1-8.83-.45,11.9,11.9,0,0,1-1.68-.83,14.87,14.87,0,0,0-.62,4.11v.36A22.3,22.3,0,0,0,33,43.7,22,22,0,0,1,23.85,45c1.42,2.74,4.12,5.41,8.72,7.72,0,0,0,0,0,0C43.53,56,77.25,58,86.6,53.83a11.53,11.53,0,0,0,3.57-2.51,30.87,30.87,0,0,1-6.92-2.65,33.38,33.38,0,0,0,9.11-.18,19.63,19.63,0,0,0,2.19-5.32,31.41,31.41,0,0,1-10-1.52,29.8,29.8,0,0,0,10.66-2.16c.47-4.36-.17-8.55-1.61-11-3.4-5.69-1.86-4,5.41-9a10.86,10.86,0,0,0,4.2-5.06A11.92,11.92,0,0,0,103.43,6.82Zm-53,24.7a1.54,1.54,0,0,1,.55-3s5.43-.36,5.27,1.73S52.29,32.23,50.43,31.52ZM77.9,32.7a13.18,13.18,0,0,1-14.1-4.56c6.54-2.91,14.1-6.37,14.1-6.37a18.36,18.36,0,0,1,2.37,2.77C82.11,27.2,83.51,31.07,77.9,32.7Z"/><path class="cls-2" d="M98.88,37.43a27.51,27.51,0,0,1,0,5.21H98.8A24.07,24.07,0,0,0,98.88,37.43Z"/><path class="cls-32" d="M98.8,42.65a19.06,19.06,0,0,1-1.21,4.63h0a30.73,30.73,0,0,1-5.21,1.21,19.63,19.63,0,0,0,2.19-5.32A18.3,18.3,0,0,0,98.8,42.65Z"/><path class="cls-2" d="M97.57,47.28h0a9.76,9.76,0,0,1-1,2A13.92,13.92,0,0,0,97.57,47.28Z"/><path class="cls-2" d="M97.57,47.28a13.92,13.92,0,0,1-1,2c-.1.16-.2.34-.31.5a23.15,23.15,0,0,1-1.46,1.92l-.16.2-.24.26a34.53,34.53,0,0,1-4.22-.85,13,13,0,0,0,2.18-2.83A30.73,30.73,0,0,0,97.57,47.28Z"/><path class="cls-33" d="M94.8,51.71a23.15,23.15,0,0,0,1.46-1.92A11.74,11.74,0,0,1,94.8,51.71Z"/><path class="cls-2" d="M94.4,52.17l.24-.26-.22.26Z"/><path class="cls-34" d="M90.18,51.32a34.53,34.53,0,0,0,4.22.85c-5.24,5.53-15.89,9.14-36.34,6.9-11.84-1.29-20-3.54-25.46-6.31C43.53,56,77.25,58,86.6,53.83A11.41,11.41,0,0,0,90.18,51.32Z"/><path class="cls-2" d="M92.36,48.49a13,13,0,0,1-2.18,2.83,30.58,30.58,0,0,1-6.93-2.65A33.79,33.79,0,0,0,92.36,48.49Z"/><path class="cls-2" d="M51,28.53s5.43-.36,5.27,1.73-4,2-5.82,1.26A1.54,1.54,0,0,1,51,28.53Z"/><path class="cls-2" d="M37.15,37.69a21.58,21.58,0,0,1-12.1-.62l.73-1.2c.56-.93,1.11-1.9,1.66-2.92A25.25,25.25,0,0,0,37.15,37.69Z"/><path class="cls-2" d="M25.21,30.2A8.08,8.08,0,0,0,27.44,33c-.55,1-1.1,2-1.66,2.92l-.73,1.2a16.87,16.87,0,0,1-2.3-1.13.1.1,0,0,1,0,0C23,35.43,24.52,31.62,25.21,30.2Z"/><path class="cls-2" d="M22.5,39.81A22.19,22.19,0,0,0,33,43.7,21.9,21.9,0,0,1,23.85,45c-.1-.18-.18-.34-.26-.5s0,0,0-.05A19,19,0,0,1,22.75,42l-.05-.24A12.77,12.77,0,0,1,22.5,39.81Z"/><path class="cls-2" d="M23.85,45H23.8l-.21-.5C23.67,44.69,23.75,44.85,23.85,45Z"/><path class="cls-33" d="M22.75,42a19,19,0,0,0,.82,2.51A11.31,11.31,0,0,1,22.75,42Z"/><path class="cls-2" d="M22.5,39.81a12.77,12.77,0,0,0,.2,1.92,10.21,10.21,0,0,1-.31-2A.43.43,0,0,0,22.5,39.81Z"/><path class="cls-27" d="M45.38,11.67s17.15-9.84,35.65,3c0,0,7.09-17.63,20.39-9.13s-3.7,19.29-5.67,20.78c0,0,19.29,39.12-37.78,32.9S29.64,24.58,29.64,24.58,19.49,12.15,26.49,4,45.77,2.39,45.38,11.67Z"/><path class="cls-35" d="M80.17,24.68s3.7-2.26,5.9-1.36"/><path class="cls-35" d="M81.8,29.15s3.37,0,4.27,1.25"/><path class="cls-35" d="M38.28,19.7a19,19,0,0,0-2.13-2.15"/><path class="cls-35" d="M35.23,22.48a11,11,0,0,0-2.76-.58"/><path class="cls-36" d="M98.79,37.57s-4.56,3.91-14.32,4.22c0,0,7.54,2.65,14.32,1A26.77,26.77,0,0,0,98.79,37.57Z"/><path class="cls-36" d="M97.49,47.42a35,35,0,0,1-14.33,1.4A33.09,33.09,0,0,0,94.32,52.3,18.39,18.39,0,0,0,97.49,47.42Z"/><path class="cls-36" d="M24.82,31.29s1.34,3.4,8.73,5.47c0,0-5.72,1.57-10.52-1.27C23,35.49,24.29,32.39,24.82,31.29Z"/><path class="cls-36" d="M22.3,39.88a22.1,22.1,0,0,0,10.63,4,22,22,0,0,1-9.23,1.34A17.76,17.76,0,0,1,22.3,39.88Z"/><path class="cls-36" d="M50.89,28.67a1.54,1.54,0,0,0-.55,3c1.85.71,5.67.83,5.82-1.26S50.89,28.67,50.89,28.67Z"/><path class="cls-30" d="M80.28,24.53c1.82,2.67,3.23,6.54-2.38,8.17a13.15,13.15,0,0,1-14.09-4.56c6.53-2.91,14.09-6.37,14.09-6.37A19,19,0,0,1,80.28,24.53Z"/><path class="cls-30" d="M40.36,18.45S44.6,24.91,47,26.12c0,0-8.3,4-11.5,0a3,3,0,0,1-.13-3.79,10.17,10.17,0,0,1,3-2.76A15.32,15.32,0,0,1,40.36,18.45Z"/><path class="cls-2" d="M98.79,36a38.36,38.36,0,0,1-.13,8.07,28,28,0,0,1-6.57.8,37.32,37.32,0,0,0,1-5.7A23.51,23.51,0,0,0,98.79,36Z"/><path class="cls-2" d="M93.14,39.18a37.32,37.32,0,0,1-1,5.7,48.42,48.42,0,0,1-15.42-2.35A46,46,0,0,0,93.14,39.18Z"/></g></g></svg>