<svg xmlns="http://www.w3.org/2000/svg" viewBox="0 0 211 76"><defs><style>.cls-1{fill:#970101;}.cls-2{fill:#eada8e;}.cls-3{fill:#ff0;}</style></defs><g id="圖層_2" data-name="圖層 2"><g id="圖層_1-2" data-name="圖層 1"><rect class="cls-1" x="69.31" y="-65.68" width="72.38" height="207.36" rx="15.79" transform="translate(67.5 143.5) rotate(-90)"/><path class="cls-2" d="M211,16.11V59.89A16.17,16.17,0,0,1,194.8,76H16.2A16.17,16.17,0,0,1,0,59.89V16.11A16.17,16.17,0,0,1,16.2,0H194.8A16.17,16.17,0,0,1,211,16.11ZM3.64,59.89A12.53,12.53,0,0,0,16.2,72.38H194.8a12.53,12.53,0,0,0,12.56-12.49V16.11A12.53,12.53,0,0,0,194.8,3.62H16.2A12.53,12.53,0,0,0,3.64,16.11Z"/><path class="cls-3" d="M59.11,49.45l-1.89,8.19H39.56l1.9-8.19h1.17l1-5.46h-.93l3.66-15.84H64L60.33,44h-.71l-1.56,5.46Zm5-22.26H46.71l1.85-7.94H66ZM49.74,49.45h.88L52.18,44H50.7Zm2.1-11.89H54.4L55,35.17H52.39Zm27.45-10-.63,1.22h6.43L79.63,52.43H78.11l1.18,2.69-.59,2.61H70.21l-.67-3.95H69l-1.93,3.95H58l.59-2.61,2.14-2.69H59.41l5.46-23.69h4.37l.63-1.22H65.16l1.94-8.35H87.49l-1.94,8.35Zm-10.8,19.2h4.24L73,45.55H68.74Zm1.42-6.22-.25,1.14h4.25l.25-1.14Zm5.47-5.2H71.13l-.25,1.17h4.25Z"/><path class="cls-3" d="M163.7,45.46h1.68l-1.51,6.6h-5l4.62,2.48-.72,3.1H147.56l-2.73-3.9h-1.35l-3.82,3.9H123.51l.72-3.1,5.38-2.48H124.9l1.56-6.72H138l.21-.93H135l1.35-5.84h-1l-.88,3.74-2.23,2.1h-5.51l2.9-12.56h8.24l.26-1h-8.33l2.73-11.76h7.32l-1.14,4.79h1l1.1-4.75h8.44l-5.5,23.78h9.75L153,45.46h1.14l.25-1.05h8.7Zm-17.32-3.27-1.22-1.1.38-1.8h8.7l-.67,2.9Zm22.91-13.36L166.69,31h1.51l-.67,3h1.09l-1,4.5h-1.13l-1.22,5.25H154.12l.8-3.45,1.47-.63.25-1.17H145.71l1-4.5h10.93l.21-.88H147l1.09-4.75h10.3l.84-.75H155l.54-2.48h5.18l-.38,1.51,1-.84.34-1.47H149l.84-3.53,2.94-2.22h9l-.21.92h9.84Zm-19.75-1.22-1-.93.38-1.55h5.84l-.55,2.48Z"/></g></g></svg>