<svg xmlns="http://www.w3.org/2000/svg" viewBox="0 0 211 76"><defs><style>.cls-1{fill:#970101;}.cls-2{fill:#eada8e;}.cls-3{fill:#ff0;}</style></defs><g id="圖層_2" data-name="圖層 2"><g id="圖層_1-2" data-name="圖層 1"><rect class="cls-1" x="69.09" y="-65.63" width="72.81" height="207.71" rx="15.85" transform="translate(67.27 143.73) rotate(-90)"/><path class="cls-2" d="M211,16.11V59.89A16.17,16.17,0,0,1,194.8,76H16.2A16.17,16.17,0,0,1,0,59.89V16.11A16.17,16.17,0,0,1,16.2,0H194.8A16.17,16.17,0,0,1,211,16.11ZM3.64,59.89A12.53,12.53,0,0,0,16.2,72.38H194.8a12.53,12.53,0,0,0,12.56-12.49V16.11A12.53,12.53,0,0,0,194.8,3.62H16.2A12.53,12.53,0,0,0,3.64,16.11Z"/><path class="cls-3" d="M55,48.11l-2.27,9.74H41.31l1.38-6H40.21l2.48-10.76,2.74-1,1.72-7.48H44.59l2.31-9.92,2.27-3.06h3.19l-.5,2.1h.92l.72-3h8.28l-.67,3H63L60.44,32.61H58.59l-1,4.07H59.3L56.78,47.44Zm10.13.38-1.89,8.23H58.08l-1.93-1.64,1.55-6.59ZM78.39,29.2h6l-1.89,8.28h-1.3l-.25,1.13h1.43l-2.06,8.83H78.89l-2.4,10.25H64.05l1.47-6.52,2.31-1.8.47-1.93H57.91l2-8.83H70.31l.26-1.13H60.35l1.89-8.28h5.09l.25-1.13H62.75L64.64,20h4.79l.34-1.39h11L80.49,20h5.67l-1.89,8.06H78.64Z"/><path class="cls-3" d="M163.05,45.46h1.68l-1.51,6.6h-5.05l4.63,2.48-.72,3.1H146.91l-2.73-3.9h-1.35L139,57.64H122.86l.72-3.1L129,52.06h-4.71l1.56-6.72h11.55l.22-.93h-3.2l1.35-5.84h-1l-.88,3.74-2.23,2.1h-5.51L129,31.85h8.24l.25-1h-8.32l2.73-11.76h7.32l-1.14,4.79h1l1.09-4.75h8.45l-5.5,23.78h9.75l-.59,2.56h1.14l.25-1.05h8.7Zm-17.32-3.27-1.22-1.1.38-1.8h8.7l-.67,2.9Zm22.91-13.36L166,31h1.52l-.67,3H168l-1,4.5h-1.13l-1.22,5.25H153.47l.8-3.44,1.47-.64.25-1.17H145.06l1.05-4.5H157l.21-.88H146.32l1.09-4.75h10.3l.84-.75h-4.24l.54-2.48H160l-.37,1.51,1-.84.34-1.47H148.38l.84-3.53,2.94-2.22h9l-.21.92h9.84Zm-19.76-1.22-1-.93.38-1.55h5.84l-.55,2.48Z"/></g></g></svg>