<svg xmlns="http://www.w3.org/2000/svg" viewBox="0 0 211 76"><defs><style>.cls-1{fill:#e33333;}.cls-2{fill:#eada8e;}.cls-3{fill:#ff0;}</style></defs><g id="圖層_2" data-name="圖層 2"><g id="圖層_1-2" data-name="圖層 1"><rect class="cls-1" x="69.09" y="-65.63" width="72.81" height="207.71" rx="15.85" transform="translate(67.27 143.73) rotate(-90)"/><path class="cls-2" d="M211,16.11V59.89A16.17,16.17,0,0,1,194.8,76H16.2A16.17,16.17,0,0,1,0,59.89V16.11A16.17,16.17,0,0,1,16.2,0H194.8A16.17,16.17,0,0,1,211,16.11ZM3.64,59.89A12.53,12.53,0,0,0,16.2,72.38H194.8a12.53,12.53,0,0,0,12.56-12.49V16.11A12.53,12.53,0,0,0,194.8,3.62H16.2A12.53,12.53,0,0,0,3.64,16.11Z"/><path class="cls-3" d="M59.87,19.12,51,57.73H40.28L43.68,43H41.79l3.53-15.29,6.94-8.57Zm13,10.38-.59,2H82.61L79,47.23h2.06L78.7,57.43H52l2.35-10.2h1.89l2-6.18h-2l2.23-9.53h2.82l.63-2H58.69L61,19.67H86.14L83.83,29.5ZM68.32,47.23l1.43-6.18H68.27l-1.68,6.18Z"/><path class="cls-3" d="M163,45.46h1.68l-1.52,6.6h-5l4.62,2.48-.71,3.1H146.84l-2.73-3.9h-1.34l-3.83,3.9H122.8l.71-3.1,5.39-2.48h-4.71l1.55-6.72H137.3l.21-.93h-3.19l1.34-5.84h-1l-.89,3.74-2.23,2.1h-5.5L129,31.85h8.24l.25-1h-8.32l2.73-11.76h7.31l-1.13,4.79h1l1.09-4.75h8.45L143.1,42.9h9.76l-.59,2.56h1.13l.25-1.05h8.71Zm-17.32-3.27-1.22-1.1.38-1.8h8.7l-.67,2.9Zm22.91-13.36L166,31h1.51l-.67,3h1.1l-1,4.5h-1.14l-1.22,5.25H153.4l.8-3.45,1.47-.63.25-1.17H145l1.06-4.5H157l.21-.88H146.26l1.09-4.75h10.3l.84-.75h-4.25l.55-2.48H160l-.38,1.51,1-.84.34-1.47H148.32l.84-3.53,2.94-2.22h9l-.21.92h9.83Zm-19.76-1.22-1-.93.38-1.55h5.84l-.54,2.48Z"/></g></g></svg>