<svg xmlns="http://www.w3.org/2000/svg" viewBox="0 0 211 76"><defs><style>.cls-1{fill:#e33333;}.cls-2{fill:#eada8e;}.cls-3{fill:#ff0;}</style></defs><g id="圖層_2" data-name="圖層 2"><g id="圖層_1-2" data-name="圖層 1"><rect class="cls-1" x="69.09" y="-65.63" width="72.81" height="207.71" rx="15.85" transform="translate(67.27 143.73) rotate(-90)"/><path class="cls-2" d="M211,16.11V59.89A16.17,16.17,0,0,1,194.8,76H16.2A16.17,16.17,0,0,1,0,59.89V16.11A16.17,16.17,0,0,1,16.2,0H194.8A16.17,16.17,0,0,1,211,16.11ZM3.64,59.89A12.53,12.53,0,0,0,16.2,72.38H194.8a12.53,12.53,0,0,0,12.56-12.49V16.11A12.53,12.53,0,0,0,194.8,3.62H16.2A12.53,12.53,0,0,0,3.64,16.11Z"/><path class="cls-3" d="M62.39,53l1.77,2.57-.47,2H54l-.67-2.56H51.67l-1.6,2.56H39.77l.47-2L43,53H41.2l3.37-14.66H67.31L63.9,53Zm5.25-15.58H44.06l.84-3.61H68.44Zm1.52-7.94-.8,3.4H45.57l.8-3.4Zm12.06-.92L77.4,45.08,80.13,51l-1.64,7h-8.7l-4.08-8.61,4.83-20.79H46.25L48,21H70.63l.55-2.39h11L81.68,21h.89L83,19.12h3.19L86,21h.85l-1.77,7.61Zm-31,21h6l.21-.88h-6Zm7-4.12h-6l-.25.93h6Zm-5.3-3.19-.21.92h6l.21-.92Z"/><path class="cls-3" d="M163.49,45.46h1.68l-1.51,6.6h-5l4.62,2.48-.72,3.1H147.35l-2.73-3.9h-1.35l-3.82,3.9H123.3l.72-3.1,5.38-2.48h-4.71l1.56-6.72h11.56l.21-.93h-3.2l1.35-5.84h-1l-.88,3.74-2.23,2.1h-5.51l2.9-12.56h8.24l.25-1h-8.32l2.73-11.76h7.32l-1.14,4.79h1l1.09-4.75h8.45l-5.5,23.78h9.75l-.59,2.56h1.14l.25-1.05h8.7Zm-17.32-3.27L145,41.09l.38-1.8H154l-.67,2.9Zm22.91-13.36L166.48,31H168l-.67,3h1.09l-1,4.5h-1.13l-1.22,5.25H153.91l.8-3.44,1.47-.64.25-1.17H145.5l1.05-4.5h10.93l.21-.88H146.76l1.09-4.75h10.3l.84-.75h-4.24l.54-2.48h5.17l-.37,1.51,1-.84.34-1.47H148.82l.84-3.53,2.94-2.22h9l-.21.92h9.84Zm-19.76-1.22-1-.93.38-1.55h5.84L154,27.61Z"/></g></g></svg>