<svg xmlns="http://www.w3.org/2000/svg" viewBox="0 0 211 76"><defs><style>.cls-1{fill:#e33333;}.cls-2{fill:#eada8e;}.cls-3{fill:#ff0;}</style></defs><g id="圖層_2" data-name="圖層 2"><g id="圖層_1-2" data-name="圖層 1"><rect class="cls-1" x="69.09" y="-65.63" width="72.81" height="207.71" rx="15.85" transform="translate(67.27 143.73) rotate(-90)"/><path class="cls-2" d="M211,16.11V59.89A16.17,16.17,0,0,1,194.8,76H16.2A16.17,16.17,0,0,1,0,59.89V16.11A16.17,16.17,0,0,1,16.2,0H194.8A16.17,16.17,0,0,1,211,16.11ZM3.64,59.89A12.53,12.53,0,0,0,16.2,72.38H194.8a12.53,12.53,0,0,0,12.56-12.49V16.11A12.53,12.53,0,0,0,194.8,3.62H16.2A12.53,12.53,0,0,0,3.64,16.11Z"/><path class="cls-3" d="M57.64,50.12l-1.81,7.73H39.44l1.72-7.56,2.06-4.37H42l1.68-7.26h.84L49,19.21H64.91L63.1,26.94H56.34l-.26,1h6.48l-1,4.2H55.12l-.26,1.05h6.52l-1,4.37H53.86l-.26,1h6.69l-1.68,7.26H52.3l-1.6,3.45h1.52l.46-2h4.24ZM85.51,25.63h1.18l-2.31,9.92H83.24l-1.3,5.63H76l-.3,1.17h6.14l-1.34,5.72h-6.1l-.29,1.17h6.51l-1.47,6.47H72.6l-.5,2.23H61.21l.51-2.23H57.35l1.51-6.47h4.37l.25-1.17H59.11l1.35-5.72h4.33l.29-1.17H60.92l1.3-5.67h4.16l.26-1.14H62.31L64,27.1h4.33L68.57,26H64.49l1.35-5.75h4.07l.38-1.68H81.18l-.38,1.68h6Zm-9,9.88L76.81,34H75.13l-.34,1.47ZM77,26l-.38,1.47h1.68L78.66,26Z"/><path class="cls-3" d="M163.83,45.46h1.68L164,52.06H159l4.63,2.48-.72,3.1H147.69L145,53.74h-1.34l-3.83,3.9H123.64l.71-3.1,5.38-2.48H125l1.55-6.72h11.56l.21-.93h-3.19l1.34-5.84h-1l-.89,3.74-2.22,2.1h-5.51l2.9-12.56h8.24l.25-1H130l2.73-11.76H140l-1.13,4.79h1L141,19.12h8.45L143.94,42.9h9.76l-.59,2.56h1.13l.26-1.05h8.7Zm-17.32-3.27-1.22-1.1.38-1.8h8.7l-.67,2.9Zm22.91-13.36L166.81,31h1.52l-.68,3h1.1l-1,4.5H166.6l-1.22,5.25H154.24l.8-3.44,1.47-.64.26-1.17H145.84l1-4.5h10.93l.21-.88H147.1l1.09-4.75h10.3l.84-.75h-4.25l.55-2.48h5.17l-.38,1.51,1-.84.34-1.47H149.16L150,20.8l2.94-2.22h9l-.21.92h9.83Zm-19.76-1.22-1-.93.38-1.55h5.85l-.55,2.48Z"/></g></g></svg>