<svg xmlns="http://www.w3.org/2000/svg" viewBox="0 0 211 76"><defs><style>.cls-1{fill:#970101;}.cls-2{fill:#eada8e;}.cls-3{fill:#ff0;}</style></defs><g id="圖層_2" data-name="圖層 2"><g id="圖層_1-2" data-name="圖層 1"><rect class="cls-1" x="69.09" y="-65.63" width="72.81" height="207.71" rx="15.85" transform="translate(67.27 143.73) rotate(-90)"/><path class="cls-2" d="M211,16.11V59.89A16.17,16.17,0,0,1,194.8,76H16.2A16.17,16.17,0,0,1,0,59.89V16.11A16.17,16.17,0,0,1,16.2,0H194.8A16.17,16.17,0,0,1,211,16.11ZM3.64,59.89A12.53,12.53,0,0,0,16.2,72.38H194.8a12.53,12.53,0,0,0,12.56-12.49V16.11A12.53,12.53,0,0,0,194.8,3.62H16.2A12.53,12.53,0,0,0,3.64,16.11Z"/><path class="cls-3" d="M76.66,50.33h3.7l-1.47,6.35L57.24,58.06H39.67L41,52.48Zm-2.27-6.46h7l-1.18,5.2-35.6,2.15H41.52l1.22-5.34Zm9.67-16.6,1.35,1.85-1.14,5.13H79.6L84.1,36l-1.55,6.72h-2l-3.91-1.47-.34,1.47-29.8,1.89H44l.46-1.89h-2L44,36l5.3-1.76H44.8l1.09-4.84,3.32-3.1h-1.3l.8-3.45,4.75-3.95h12.4l-.34,1.47v.09h4.42v-.09l.33-1.47h12.4l3,3.95-.8,3.45H79.6L76.79,29l-.17.59h2.23l.54-2.31Zm-24.63-1L56.61,29l-.13.59h2.19l.55-2.31h4.54l1.38,1.85-.46,2h1l.38-1.69,3.32-3.1Zm9.33,12-1.51-.55H61.11L57,39Z"/><path class="cls-3" d="M163.6,45.46h1.68l-1.52,6.6h-5l4.62,2.48-.71,3.1H147.45l-2.73-3.9h-1.34l-3.83,3.9H123.41l.71-3.1,5.38-2.48h-4.7l1.55-6.72h11.56l.21-.93h-3.19l1.34-5.84h-1l-.88,3.74-2.23,2.1h-5.5l2.9-12.56h8.24l.25-1h-8.32l2.73-11.76h7.31l-1.13,4.79h1l1.09-4.75h8.45L143.71,42.9h9.76l-.59,2.56H154l.25-1.05H163Zm-17.32-3.27-1.22-1.1.38-1.8h8.7l-.67,2.9Zm22.91-13.36L166.58,31h1.51l-.67,3h1.1l-1,4.5h-1.14l-1.22,5.25H154l.8-3.45,1.47-.63.25-1.17H145.6l1.06-4.5h10.92l.21-.88H146.87L148,28.36h10.3l.84-.75h-4.25l.55-2.48h5.17l-.38,1.51,1-.84.34-1.47H148.93l.84-3.53,2.94-2.22h9l-.21.92h9.83Zm-19.76-1.22-1-.93.38-1.55h5.84l-.54,2.48Z"/></g></g></svg>