<svg xmlns="http://www.w3.org/2000/svg" viewBox="0 0 524.26 45.32"><defs><style>.cls-1{fill:#ff0;}.cls-2{fill:#fff;}</style></defs><g id="圖層_2" data-name="圖層 2"><g id="圖層_1-2" data-name="圖層 1"><path class="cls-1" d="M41.33,33.75H34.85a27.68,27.68,0,0,0,9.36,5.9A23.08,23.08,0,0,0,40.61,44a29.6,29.6,0,0,1-7.92-6.77v7.11H27.6V33.75H24.1V44.31h-5V37.68a30.38,30.38,0,0,1-7.49,6.15,24.09,24.09,0,0,0-3.46-3.89,28.72,28.72,0,0,0,9.22-6.19H12v-3.6h7.11V27.84H10.23V24.19h8.88V22.08H12.39V18.43h6.72V16.27H11V12.19h7.06a19.22,19.22,0,0,0-1.3-2.3l4.37-1H9.36V19c0,7.63-.67,19-4.75,26.07A27.3,27.3,0,0,0,0,41.91c3.65-6.53,3.94-16,3.94-22.9V3.94H22.51c-.33-1-.72-2-1-2.74L27.27,0A36.19,36.19,0,0,1,28.9,3.94H44.64v5H31.92l5.28.86c-.48.82-1,1.64-1.44,2.4h8v4.08H32.69v2.16h8.64v5.38h3.89v4.13H41.33ZM21.84,8.93a34.44,34.44,0,0,1,2,3.26H30.1c.57-1.15,1.15-2.3,1.53-3.26Zm2.26,9.5h3.5V16.27H24.1Zm0,5.76h3.5V22.08H24.1Zm3.5,6V27.84H24.1v2.31Zm5.09-8.07v2.11h3.65V22.08Zm3.65,8.07V27.84H32.69v2.31Z"/><path class="cls-1" d="M55.3,23.28a46.41,46.41,0,0,0-6.87-6.05l3.31-3.69a54.37,54.37,0,0,1,7,5.66Zm3.31,5.91c-1.44,5.18-3.31,10.65-5.14,15.36l-4.7-2.88h-.05a139,139,0,0,0,5.71-15.46ZM55.68,10a41.78,41.78,0,0,0-6.34-6.24L52.66.43a42,42,0,0,1,6.53,5.81Zm14.4,27.13a32,32,0,0,1-9.41,6.09,30.78,30.78,0,0,0-2.92-3.41,25.48,25.48,0,0,0,8.3-5.42ZM64.71,14V12.24H60.24V8.69h4.47V7H59.52V3.36h5.19V1.49h4.65V3.36H74.5V7H69.36V8.69H74v3.55H69.36v1.39l5.19-.33,0,3.36c3.12-2.35,4.28-5.91,4.81-9.65H75.6V3H91.92s0,1.2-.09,1.78c-.24,8.3-.58,11.81-1.63,13a4.14,4.14,0,0,1-2.69,1.49,25.16,25.16,0,0,1-4.08.19,11.71,11.71,0,0,0-1.15-4.42,12.6,12.6,0,0,0,2.4.2,1.23,1.23,0,0,0,1.15-.53c.43-.58.67-2.55.86-7.73H83.91c-.63,5.33-2.31,10.18-7,13.3a12.63,12.63,0,0,0-3-3.17l.29-.19-4.85.48v2.49H64.71V17.86l-4.9.43-.43-4Zm13.53,19.1v7.11c0,2-.33,3.07-2,3.74s-3.69.68-6.57.68a13.74,13.74,0,0,0-1.54-4c1.68,0,3.46,0,4,0s.68-.14.68-.53V33.36c-7.4.43-9.41.67-10.8,1A30.77,30.77,0,0,0,60,31.15a16.49,16.49,0,0,0,5.38-1.53c1.05-.39,2.93-1.3,5.23-2.45-5.62.38-7.1.72-8.21,1a17.77,17.77,0,0,0-2-3.12A10.62,10.62,0,0,0,64,23.86a39.11,39.11,0,0,0,8.35-5.43L76.85,21a48.31,48.31,0,0,1-5.14,3.12L76.47,24c1.39-.81,2.73-1.72,4-2.59l5.09,2.07a92.19,92.19,0,0,1-11.43,6.14l10-.48c-.62-.72-1.3-1.49-1.92-2.16l3.89-1.82c2.59,2.49,5.52,5.8,6.57,7.77L88.37,35a17.68,17.68,0,0,0-1.53-2.45Zm5.24,1.2a96.27,96.27,0,0,1,9,6.29L89,43.78a95.59,95.59,0,0,0-8.88-6.67Z"/><path class="cls-1" d="M136.32,31.25h-5.47l4.71,1.34c-1.06,2.12-2.07,4.28-3.08,6.1h8.16v4.8H110.83v-4.8h7.44a22.93,22.93,0,0,0-1.92-6l4.9-1.39a21.48,21.48,0,0,1,2.26,6.43l-3.17,1h6.53a43.37,43.37,0,0,0,2.69-7.44h-14.5V20.83c-.82.63-1.68,1.25-2.5,1.78a20.83,20.83,0,0,0-2.49-3.46c-.24.77-.44,1.44-.63,2.07l-2.83-1.15c0,2.2-.14,4.46-.34,6.67l.39-.29c1,1.39,4.85,7.58,5.71,8.83l-4,3.89a64.79,64.79,0,0,0-3.12-6.29,29.78,29.78,0,0,1-5.14,11.62A15,15,0,0,0,96.72,41c4-5.71,5.09-12.68,5.33-19.59L98.4,22.42A121.44,121.44,0,0,0,96,9.31l3.79-1c.87,3.22,1.78,7.16,2.31,10.28V.62h4.56V19.44a96.8,96.8,0,0,0,1.63-11.18l4.08,1.34,1.78-2.06c1,.57,2.11,1.39,3.21,2.11.43-1,.91-2,1.3-3.12H113V1.68h7.63l.92-.14,3.26,1a40.15,40.15,0,0,1-3.22,9.89h8.26A57.08,57.08,0,0,1,126,1.25l4.7-1c.34,1.34.72,2.59,1.1,3.74a34.12,34.12,0,0,0,2.69-2.49l3.6,3.69c-1.58,1.06-3.17,2.12-4.61,3a21.32,21.32,0,0,0,1,2,28.48,28.48,0,0,0,3.46-2.88l3.65,3.84c-1.64.86-3.12,1.77-4.56,2.54a21.77,21.77,0,0,0,4.8,3.89,12.93,12.93,0,0,0-3.51,4.42c-.67-.48-1.34-.91-2-1.44ZM114.87,13.68c-1-.72-2-1.53-2.93-2.21-.53,2.16-1.06,4.37-1.54,6.44A20.92,20.92,0,0,0,114.87,13.68ZM120,17.19V15.31a28.33,28.33,0,0,1-3.12,3.94h18a28.6,28.6,0,0,1-3.6-4.42v2.36Zm11,6.48h-10.8v3.16H131Z"/><path class="cls-1" d="M158.69,12.48H144.43V8h5.67a46.12,46.12,0,0,0-2.26-6.34l4.8-1.44a54,54,0,0,1,2.59,6.43L151.2,8h7.49Zm-13.11,6.39V14.55h12.34v4.32Zm12.29,6.52H145.58V21.07h12.29Zm10.52-2.06a52.28,52.28,0,0,1-2.74,11.28A19.23,19.23,0,0,1,168.77,37c2.3,1.73,5.14,2.21,8.93,2.21a105.57,105.57,0,0,0,12.05-.77,23.81,23.81,0,0,0-1.15,5.33c-2.88.15-7.59.34-10.85.34-4.32,0-7.11-.82-9.46-2.5-1.39-1.15-2.78-2.49-3.46-2.45-1.1,0-2.83,3-4.12,5.67l-2.88-4.18v1.73h-7.54v1.92h-4.37V27.84h11.91V39.17a30.73,30.73,0,0,1,2.88-2.78,41.12,41.12,0,0,0,2.49-8.74H159c1-2.93,2-7.06,2.92-10.94h-2.83V12.19h8.45c-.77,3.32-1.73,7.2-2.64,10.56h.82l.72-.19Zm-15,9h-3.12v5.53h3.12Zm9.26-21.5c-.57-2.16-1.82-5.67-2.68-8.31l4.32-1c.86,2.64,2.11,5.9,2.83,8.06Zm13.25,9.6h-7.53V15.7h7.53V.38h5V15.7h7.63v4.75h-4.47a87.11,87.11,0,0,1,5.19,12.38l-3.94,2.6a94.86,94.86,0,0,0-4.41-12V37.88h-5v-15c-1.25,4.75-3.21,9.79-5.42,12.91a20.39,20.39,0,0,0-3.51-3.5c2.12-2.64,4.08-7.3,5.14-11.43l3.79,1.25Zm-4.32-5.76a67.62,67.62,0,0,0-3.12-10.56L172.42,3a69.84,69.84,0,0,1,3.41,10.27Zm9.32,5.76v1.87L184,20.45ZM188.4,4.08c-1.1,3.7-2.35,7.87-3.5,10.61l-3.84-1.1A68.06,68.06,0,0,0,184,2.93Z"/><path class="cls-1" d="M236.69,37.3v5.62H193.2V37.3h18.63V25.11H197.76V19.44h14.07V8.69H195.5V3h38.74V8.69H217.83V19.44h14.54v5.67H217.83V37.3Z"/><path class="cls-2" d="M253.83,30.05c-.1-.62-.2-1.34-.34-2.11-8.69,1.25-10.27,1.73-11.33,2.21A43.74,43.74,0,0,0,240.29,25c1.29-.34,2.35-1.39,3.89-3.17.52-.67,1.63-2,2.88-3.79-3.51.43-4.56.72-5.28,1.06A46.25,46.25,0,0,0,240,14.16c1-.24,1.73-1.15,2.69-2.54A51.68,51.68,0,0,0,248,0l5.18,2.16A67.59,67.59,0,0,1,247,13.44l3.22-.24a55.73,55.73,0,0,0,3.4-6.38l4.85,3a78.31,78.31,0,0,1-6.38,9.89l3.55-1a60.83,60.83,0,0,1,2.54,10Zm-7.21,2.3a58.48,58.48,0,0,1-2.16,12.15A31.51,31.51,0,0,0,240.24,43c1.15-2.88,1.73-7.29,2-11.33Zm4.76-.76a87.4,87.4,0,0,1,1.05,10.17l-4.22.72a88.91,88.91,0,0,0-.82-10.17Zm1.15-8c-.24-1.15-.58-2.3-.86-3.31-1,1.29-2.07,2.59-3.13,3.79Zm3.36,6.62a56.57,56.57,0,0,1,2,6.63L254,38.12a47.72,47.72,0,0,0-1.82-6.73Zm13.39-3.55c-1.58,7.44-5.13,13-10.13,16a20.82,20.82,0,0,0-3.21-4,17.19,17.19,0,0,0,7-8.45h-4.32V25.63H265l.86-.14Zm15.65.34c-2.21,1.73-4.37,3.6-6.33,5a19.64,19.64,0,0,0,7,6.62,21.78,21.78,0,0,0-3.74,4.56,23.1,23.1,0,0,1-6.91-8v4.13c0,2.54-.43,3.93-2.12,4.84s-3.84.92-6.91.92a21,21,0,0,0-1.53-5.24c1.77.1,3.74.1,4.32,0s.81-.14.81-.67V22.71h-9.17V5.23h6.82A47.43,47.43,0,0,0,268.71.14l6.53,1.16c-.72,1.39-1.49,2.68-2.16,3.93h10.27V22.71H275v1.53a38.33,38.33,0,0,0,1.44,3.84,42.08,42.08,0,0,0,4.27-4.65Zm-19.3-15.07h12.2V9.5h-12.2Zm0,6.52h12.2V15.89h-12.2Z"/><path class="cls-2" d="M332.69,36.87v5.76H289.06V36.87h17.18V.72h6.15V14.45h16.94v5.81H312.39V36.87Z"/><path class="cls-2" d="M376.32,31.25h-5.47l4.71,1.34c-1.06,2.12-2.07,4.28-3.08,6.1h8.16v4.8H350.83v-4.8h7.44a22.93,22.93,0,0,0-1.92-6l4.9-1.39a21.48,21.48,0,0,1,2.26,6.43l-3.17,1h6.53a43.37,43.37,0,0,0,2.69-7.44h-14.5V20.83c-.82.63-1.68,1.25-2.5,1.78a20.83,20.83,0,0,0-2.49-3.46c-.24.77-.44,1.44-.63,2.07l-2.83-1.15c0,2.2-.14,4.46-.34,6.67l.39-.29c1,1.39,4.85,7.58,5.71,8.83l-4,3.89a64.79,64.79,0,0,0-3.12-6.29,29.78,29.78,0,0,1-5.14,11.62A15,15,0,0,0,336.72,41c4-5.71,5.09-12.68,5.33-19.59l-3.65,1.06A121.44,121.44,0,0,0,336,9.31l3.79-1c.87,3.22,1.78,7.16,2.31,10.28V.62h4.56V19.44a96.8,96.8,0,0,0,1.63-11.18l4.08,1.34,1.78-2.06c1,.57,2.11,1.39,3.21,2.11.43-1,.91-2,1.3-3.12H353V1.68h7.63l.92-.14,3.26,1a40.15,40.15,0,0,1-3.22,9.89h8.26A57.08,57.08,0,0,1,366,1.25l4.7-1c.34,1.34.72,2.59,1.1,3.74a34.12,34.12,0,0,0,2.69-2.49l3.6,3.69c-1.58,1.06-3.17,2.12-4.61,3a21.32,21.32,0,0,0,1,2,28.48,28.48,0,0,0,3.46-2.88l3.65,3.84c-1.64.86-3.12,1.77-4.56,2.54a21.77,21.77,0,0,0,4.8,3.89,12.93,12.93,0,0,0-3.51,4.42c-.67-.48-1.34-.91-2-1.44ZM354.87,13.68c-1-.72-2-1.53-2.93-2.21-.53,2.16-1.06,4.37-1.54,6.44A20.92,20.92,0,0,0,354.87,13.68ZM360,17.19V15.31a28.33,28.33,0,0,1-3.12,3.94h18.05a28.6,28.6,0,0,1-3.6-4.42v2.36Zm11,6.48h-10.8v3.16H371Z"/><path class="cls-2" d="M398.69,12.48H384.43V8h5.67a46.12,46.12,0,0,0-2.26-6.34l4.8-1.44a54,54,0,0,1,2.59,6.43L391.2,8h7.49Zm-13.11,6.39V14.55h12.34v4.32Zm12.29,6.52H385.58V21.07h12.29Zm10.52-2.06a52.28,52.28,0,0,1-2.74,11.28A19.23,19.23,0,0,1,408.77,37c2.3,1.73,5.14,2.21,8.93,2.21a105.57,105.57,0,0,0,12.05-.77,23.81,23.81,0,0,0-1.15,5.33c-2.88.15-7.59.34-10.85.34-4.32,0-7.11-.82-9.46-2.5-1.39-1.15-2.78-2.49-3.46-2.45-1.1,0-2.83,3-4.12,5.67l-2.88-4.18v1.73h-7.54v1.92h-4.37V27.84h11.91V39.17a30.73,30.73,0,0,1,2.88-2.78,41.12,41.12,0,0,0,2.49-8.74H399c1-2.93,2-7.06,2.92-10.94h-2.83V12.19h8.45c-.77,3.32-1.73,7.2-2.64,10.56h.82l.72-.19Zm-15,9h-3.12v5.53h3.12Zm9.26-21.5c-.57-2.16-1.82-5.67-2.68-8.31l4.32-1c.86,2.64,2.11,5.9,2.83,8.06Zm13.25,9.6h-7.53V15.7h7.53V.38h5V15.7h7.63v4.75h-4.47a87.11,87.11,0,0,1,5.19,12.38l-3.94,2.6a94.86,94.86,0,0,0-4.41-12V37.88h-5v-15c-1.25,4.75-3.21,9.79-5.42,12.91a20.39,20.39,0,0,0-3.51-3.5c2.12-2.64,4.08-7.3,5.14-11.43l3.79,1.25Zm-4.32-5.76a67.62,67.62,0,0,0-3.12-10.56L412.42,3a69.84,69.84,0,0,1,3.41,10.27Zm9.32,5.76v1.87L424,20.45ZM428.4,4.08c-1.1,3.7-2.35,7.87-3.5,10.61l-3.84-1.1A68.06,68.06,0,0,0,424,2.93Z"/><path class="cls-2" d="M441.6,23.28c-2-1.39-6.1-3.65-8.93-5.18l3.07-4.23c2.64,1.3,6.92,3.36,9,4.66Zm-8.26,17.28a142.23,142.23,0,0,0,9.13-15.12l4.17,3.84c-2.54,5-5.57,10.52-8.5,15.17Zm10.33-30.38a100.26,100.26,0,0,0-8.74-5.28L438.14.77c2.69,1.34,6.87,3.45,8.93,4.8Zm21.26,9.36v6.05h9.79V44.74H469.3V43H454.85v2h-5.14V25.59h9.8V19.54H446.74V14.07h12.77V8.45c-3.17.48-6.34.81-9.36,1.1a20.12,20.12,0,0,0-1.59-4.89c8.16-.82,17.14-2.4,22.42-4.52l4.42,4.52a61.48,61.48,0,0,1-10.47,2.83v6.58h12.19v5.47Zm4.37,11.23H454.85v7.06H469.3Z"/><path class="cls-2" d="M524.26,10.94s0,1.88,0,2.55c-.43,19.63-.81,26.59-2.35,28.8a5.32,5.32,0,0,1-3.79,2.4,31.87,31.87,0,0,1-6,.19,13.46,13.46,0,0,0-1.68-5.47c2.11.19,3.93.24,4.84.24a1.77,1.77,0,0,0,1.64-.81c1-1.3,1.48-7.16,1.77-22.66h-4.32c-.62,12.86-2.83,22.75-10.9,29.14a18.57,18.57,0,0,0-3.36-3.8c-6.91.72-13.82,1.44-19,1.88l-.67-4.8c2.69-.2,6.05-.44,9.75-.68V35h-8.45V31h8.45V29.14h-8.26V14.31h8.26V12.43h-9.46V8.3h9.46V6.38c-2.79.2-5.52.34-8.12.39a18,18,0,0,0-1.24-4A148.43,148.43,0,0,0,501.51.38L504,4.66c-2.54.52-5.52,1-8.64,1.29V8.3h9.22v2.64h4.51c.05-3.16.05-6.48.05-10h5.47c0,3.51,0,6.87-.09,10ZM486.43,20h3.75V17.91h-3.75Zm3.75,5.57V23.43h-3.75v2.16Zm5.18,11.9c2.74-.19,5.57-.43,8.35-.67,3.75-5.19,4.9-12,5.24-20.64h-4.37V12.43h-9.22v1.88h8.5V29.14h-8.5V31h8.69v4h-8.69ZM499.11,20V17.91h-3.75V20Zm-3.75,3.41v2.16h3.75V23.43Z"/></g></g></svg>