<svg xmlns="http://www.w3.org/2000/svg" viewBox="0 0 396.17 106.76"><defs><style>.cls-1{fill:#ff0;}</style></defs><g id="圖層_2" data-name="圖層 2"><g id="圖層_1-2" data-name="圖層 1"><path class="cls-1" d="M103.66,11.66,95.1,49,68.57,71.79l-.25,1.49H92.75l-7.69,33.11H0L5.46,82.58,52.82,41.79l1.12-4.47H17.11L25.67,0H95.85Z"/><path class="cls-1" d="M117.8,13.89,135.4.37h57.29L206.2,15.13,188,94.11l-17.61,12.65H113.09L99.57,92.87Zm23.43,58.89h14.51l8.68-37.69H149.91Z"/><path class="cls-1" d="M300.44,11.66,291.89,49,265.35,71.79l-.25,1.49h24.43l-7.69,33.11h-85l5.45-23.81,47.37-40.79,1.11-4.47H213.9L222.45,0h70.18Z"/><path class="cls-1" d="M396.17,11.66,387.61,49,361.08,71.79l-.25,1.49h24.43l-7.69,33.11H292.51L298,82.58l47.36-40.79,1.12-4.47H309.62L318.18,0h70.18Z"/></g></g></svg>