<svg xmlns="http://www.w3.org/2000/svg" viewBox="0 0 262.9 265.21"><defs><style>.cls-1{fill:#fdfaf7;}.cls-2{fill:#e8d8c8;}</style></defs><g id="圖層_2" data-name="圖層 2"><g id="圖層_1-2" data-name="圖層 1"><ellipse class="cls-1" cx="131.45" cy="132.6" rx="132.64" ry="131.35" transform="translate(-28.27 229.32) rotate(-76.45)"/><path class="cls-2" d="M88.6,82.25c-3.71-.49-2.92-3.75-.26-3.93s1.88-2.79,4.63-2.53,5.27,1.06,6.21-1.6-3.93-3.69-4.73-5.41.45-2.48,3.67-2.06,7.72-3.87,9.15-6.06S113,58.08,116.15,58s3.08-4.84,5.59-5.25,3.18-5.88,6.48-5.84,5.21-3.47,7.56-3.82,5.33-.84,4.29-2.31,2.48-1.39,5.36-1.45,1.92-6.09,0-7,.1-1.65,2.16-1.46,10.33,2.19,11,5.09,3.47,2.51,5.72,4.42-.73,9.27-1.54,10.75-5.15,1.34-6.66,3.26-6,2.22-6.69.22-3.87-4.59-5.7-6.4-3.34.72-1,2.81,3.38,6,3.06,11.09,6.85,2.87,11.83,3.06,4.25,4.06,7.4,8.48,2,11,5.2,11.81,5.53-2.93,5.47-5.18-.14-7.75,1.74-9.73,5.92-2,11.58.35,3-2.52.39-5.79,18.54,1.93,22.81,3,8.31-3.17,3.32-3.77-13.12-5.6-13.86-10,6-9.83,2.56-10.65-10.06-5.78-12.44-9.7-13.58-11.19-21.26-10.61a27.36,27.36,0,0,1-16-3.84c-2.92-1.62.77-3.17,7.42-1.57s22.67.19,1.34-5.56-33.16-4.24-44.47-3.61S85.55,15.63,81.11,21.56s-15.8,10.5-18.47,16.56S62,43.44,56.93,46.8s-3.14,9.29-3.14,9.29,2.1,6.29-1,6.47-8.54-.84-7.43-5.45-.39-10.9,5.49-14S61.7,34.52,61.75,31.8s-2.22-2.07-2.71-.65-1.4,3.33-5,5.05-5.16,4.55-7.79,5.44-6.56,9.68-7.11,12S37.74,58,35.61,59.32s-2,4.85-.2,4.83,5.79-1.5,6.55,1-.22,5.27,2.56,5.64,8.77,2,10.23.08,2.59-4,5.63-3.31,6.44-.89,8.91-.29.61,6.64-1.33,7.19-2.62,5-5.61,5.75a26.32,26.32,0,0,1-11-.16c-4.17-.86-4.69,2.52-2.12,3.75S54,86.3,54.1,88.55s3.4,5.08,7.34,4.61,7.44-.85,9,.14S73.62,91.83,76.8,92s12,2.08,14.19,3.68,6.62,1.74,8.32.53,1.2-5.8,3.8-5.79,7.14,2.94,8.07.73,2.7-1.18,4.68-3.54-.19-6.75-3.27-7.29S108.31,79.69,108,77s-5.43-4.16-6.36-2,1.25,3.15.12,4.5-2.4,2.47-4.45,1.77-1.89,1.17-4,1.67A8.28,8.28,0,0,1,88.6,82.25Z"/><path class="cls-2" d="M160,93.15l-13.87-2.53c-3.28-.58-6.33,3.75.84,5.69s16.69,2.09,15.38,10-1,11.76,2.63,12.27,7.49.83,10.06,3.27a8.43,8.43,0,0,0,9,1.33c2.25-1.2,3.37-4.58,6.51-2.6s-2.2,6.62,1.69,8,5.05,5.93,1.42,5.36-5.59,4.44-8.41,4.22-6.33,5.63-6.21,7.64,1.26,2.28-.79,5.14,2.8,8.19,5.6,7.44,4.72-5.36,6.53-2.89,3.35,6.08,1.8,7.54-8.79,6.41-6.69,8.54,1.18,6.78-.7,8.76,2.29,4,1.77,7.33-1.21,7-4.13,10.78-6.42,12.47-6.3,16.15,6.59.17,10.77,1.17,4.53,3.74,7.93,4.66,6.31-3.66,8-1.43,5.54,4.58,6.52,2.18-.28-6.36-2.56-6.91,1.89-9.5-.73-10.33-2.72-2.89.76-8.14-2.39-10.93,1.94-15.57.9-16.23,5.4-17.38,5.11-9.53,3.2-11.62-8.6-2.68-8.05-5.79,4.65-.1,6.15-3,1.63-7.6,4.75-10.56,3.86-15.18,5.91-14.48,6.19,3.52,5.44,6.59,1.51,5.44,2.93,4.56,2-6.62,5.7-6.14,6-3.22,6.18-5.61-4-6-5.9-3-4.08.23-5.8-1.8-2.91-2.94-4.24-3.26-1.73-3.67-3.68-3.93,1,4.92-4.29,3.63-.68-2.21-4.07-5.66,1.74-10.53-.69-11.32-6.47-3.18-8.06.09-4.82,3.3-7.29,2.71-1.47,1.27-5.71,1.67-4.32,2.41-5.21,4.43-5.07,1-7.92.32-4.18,5.69-7.22,5-5.28-2.29-6.29-4.77S163.79,93.85,160,93.15Z"/><path class="cls-2" d="M235,171.34s4.85,1.17,4.19,3.29-1.85,6.41-.74,6.83.52,4.09-1,8.59-4,7.41-5.19,7.58-2.85,9.52-4,10.6-4,.87-3.78-.3,2-9.11.38-10-4.82-1.92-4.9-4.07-.29-5.71,1.08-8.27,2.7-1.79,3.46-4.95,2.91-6.46,3.54-9.05,5.79-3.47,5.36-.69S234.06,171.06,235,171.34Z"/></g></g></svg>