<svg xmlns="http://www.w3.org/2000/svg" viewBox="0 0 1813.64 412.72"><defs><style>.cls-1{fill:#ffd85e;}</style></defs><g id="圖層_2" data-name="圖層 2"><g id="圖層_1-2" data-name="圖層 1"><polygon class="cls-1" points="1665.11 384.65 1648.94 382.76 1661.23 393.62 1655.55 409.61 1668.86 400.14 1682.77 412.72 1676.59 395.48 1692.57 388.13 1674.46 386.11 1671.74 369.68 1665.11 384.65"/><polygon class="cls-1" points="1641.95 79.19 1628.04 78.87 1639.37 87.13 1635.81 101.19 1646.38 92.06 1659.22 101.65 1652.59 87.48 1665.59 79.95 1650.02 79.67 1646.39 65.91 1641.95 79.19"/><polygon class="cls-1" points="1700.71 236.38 1694.9 233.47 1698.04 239.21 1693.73 244.44 1700.02 242.69 1703.53 249.3 1703.55 241.99 1710.54 241.4 1704.02 238.19 1705.23 231.65 1700.71 236.38"/><polygon class="cls-1" points="1575.2 247.36 1566.98 248.15 1574.23 252.21 1573.14 260.74 1578.71 254.62 1586.95 259.36 1582.04 251.48 1589.16 246.13 1579.98 247.07 1576.87 239.23 1575.2 247.36"/><polygon class="cls-1" points="1446.6 261.84 1434.75 260.7 1443.89 268.45 1439.98 280.23 1449.57 273.1 1459.93 282.09 1455.15 269.58 1466.72 263.96 1453.45 262.76 1451.22 250.79 1446.6 261.84"/><polygon class="cls-1" points="1736.28 66.02 1726.95 65.72 1734.5 71.32 1732.03 80.73 1739.17 74.68 1747.73 81.18 1743.36 71.64 1752.13 66.67 1741.69 66.39 1739.34 57.14 1736.28 66.02"/><polygon class="cls-1" points="1804.31 115.06 1798.8 114.37 1802.96 118.1 1800.99 123.53 1805.55 120.34 1810.26 124.65 1808.19 118.77 1813.64 116.3 1807.48 115.57 1806.59 109.97 1804.31 115.06"/><polygon class="cls-1" points="1542.7 310.86 1538.04 307.85 1540.16 313.01 1536.03 317.05 1541.52 316.15 1543.88 322.08 1544.58 315.89 1550.56 316.04 1545.34 312.7 1546.97 307.27 1542.7 310.86"/><polygon class="cls-1" points="293.88 26.89 299.81 40.59 302.78 25.86 318.08 23.02 304.45 16.81 308.04 0 297.2 12.82 284.04 3.52 290.74 18.81 278.96 28.52 293.88 26.89"/><polygon class="cls-1" points="62.2 185.53 68.34 196.72 69.69 183.94 82.48 180.3 70.39 176.11 72.09 161.52 63.9 173.29 51.96 166.43 58.89 178.91 49.64 188.11 62.2 185.53"/><polygon class="cls-1" points="159.91 66.74 160.28 72.69 163.39 67.56 169.52 68.58 165.25 64.39 168.87 58.57 163.07 61.91 159.39 56.64 159.83 63.29 154.09 65.33 159.91 66.74"/><polygon class="cls-1" points="261.71 222.51 266.12 228.66 266.01 221.04 273.28 218 265.86 216.38 265.83 207.68 261.84 215.19 254.33 212 259.29 218.85 254.5 224.92 261.71 222.51"/><polygon class="cls-1" points="332.25 317.87 336.79 327.8 338.74 316.98 349.88 314.68 339.82 310.34 342.19 298 334.46 307.53 324.7 300.93 329.83 312.01 321.37 319.28 332.25 317.87"/><polygon class="cls-1" points="8.44 116.75 12.49 124.29 13.47 115.73 22.07 113.37 13.99 110.48 15.22 100.71 9.65 108.56 1.69 103.89 6.26 112.29 0 118.41 8.44 116.75"/><polygon class="cls-1" points="16.11 40.28 18.09 44.95 19.14 39.94 24.35 39.01 19.73 36.87 20.98 31.15 17.27 35.49 12.81 32.3 15.06 37.52 11.02 40.8 16.11 40.28"/><polygon class="cls-1" points="327.01 219.13 326.76 224.21 329.88 220.15 334.98 221.58 331.75 217.64 335.37 213.04 330.13 215.33 327.51 210.51 327.26 216.19 322.2 217.39 327.01 219.13"/></g></g></svg>