<svg xmlns="http://www.w3.org/2000/svg" viewBox="0 0 476.68 208.9"><defs><style>.cls-1{fill:#22375f;}</style></defs><g id="圖層_2" data-name="圖層 2"><g id="圖層_1-2" data-name="圖層 1"><path class="cls-1" d="M315.82,114.5A137.37,137.37,0,0,0,239.64,93a137.36,137.36,0,0,0-76.17,21.53c-31.24,20.07-90.88,63.35-134,63.21V208.9H62a37.32,37.32,0,0,1,11.66-22.41,35.71,35.71,0,0,1,48.59,0,37.32,37.32,0,0,1,11.66,22.41h17.27A92.42,92.42,0,0,1,153,190.4a90.9,90.9,0,0,1,27.43-48.77,87,87,0,0,1,118.42,0,90.85,90.85,0,0,1,27.44,48.77,93.16,93.16,0,0,1,1.85,18.5H345.4a37.28,37.28,0,0,1,11.67-22.41,35.69,35.69,0,0,1,48.58,0,37.28,37.28,0,0,1,11.67,22.41H449.8V177.71C406.7,177.85,347.05,134.57,315.82,114.5Z"/><path class="cls-1" d="M449.59,151c-38.61,0-89.17-33.36-122.65-55.45-4.47-3-8.69-5.74-12.45-8.16a135.08,135.08,0,0,0-74.82-21.14h0A135.08,135.08,0,0,0,164.8,87.38c-3.76,2.42-8,5.21-12.45,8.16C118.87,117.63,68.31,151,29.7,151h-.22l0-5.12h.2c37.14,0,87-32.86,119.93-54.63,4.49-3,8.72-5.75,12.51-8.18a140,140,0,0,1,77.5-21.93,140,140,0,0,1,77.51,21.93c3.79,2.43,8,5.22,12.5,8.18,33.05,21.81,83,54.75,120.14,54.63l0,5.12Z"/><path class="cls-1" d="M449.59,173.73c-38.61,0-89.17-33.36-122.65-55.45-4.47-3-8.69-5.73-12.45-8.15A135.08,135.08,0,0,0,239.67,89h0a135.08,135.08,0,0,0-74.82,21.14c-3.76,2.42-8,5.2-12.45,8.15-33.48,22.09-84,55.45-122.65,55.45h-.22l0-5.12h.2c37.14,0,87-32.87,119.93-54.63,4.49-3,8.72-5.75,12.51-8.19a140,140,0,0,1,77.5-21.92,140,140,0,0,1,77.51,21.92c3.79,2.44,8,5.23,12.5,8.19,33.05,21.8,83,54.75,120.14,54.63l0,5.12Z"/><path class="cls-1" d="M239.64,87.55a3.2,3.2,0,0,1-3.16-3.23V65.57a3.17,3.17,0,1,1,6.33,0V84.32A3.2,3.2,0,0,1,239.64,87.55Z"/><path class="cls-1" d="M218.09,89.39a3.19,3.19,0,0,1-3.16-3.23V66.49a3.16,3.16,0,1,1,6.32,0V86.16A3.19,3.19,0,0,1,218.09,89.39Z"/><path class="cls-1" d="M196.53,94a3.2,3.2,0,0,1-3.16-3.23V71.08a3.17,3.17,0,1,1,6.33,0V90.75A3.2,3.2,0,0,1,196.53,94Z"/><path class="cls-1" d="M175,103.17a3.19,3.19,0,0,1-3.16-3.23V80.27a3.16,3.16,0,1,1,6.32,0V99.94A3.2,3.2,0,0,1,175,103.17Z"/><path class="cls-1" d="M153.42,117a3.2,3.2,0,0,1-3.16-3.23V93.13a3.16,3.16,0,1,1,6.32,0v20.59A3.19,3.19,0,0,1,153.42,117Z"/><path class="cls-1" d="M131.87,130.27a3.19,3.19,0,0,1-3.16-3.23V107.37a3.16,3.16,0,1,1,6.32,0V127A3.2,3.2,0,0,1,131.87,130.27Z"/><path class="cls-1" d="M110.31,143.59a3.2,3.2,0,0,1-3.16-3.23V120.69a3.16,3.16,0,1,1,6.32,0v19.67A3.19,3.19,0,0,1,110.31,143.59Z"/><path class="cls-1" d="M88.76,155.53a3.2,3.2,0,0,1-3.17-3.23V132.63a3.17,3.17,0,1,1,6.33,0V152.3A3.2,3.2,0,0,1,88.76,155.53Z"/><path class="cls-1" d="M67.2,164.72A3.19,3.19,0,0,1,64,161.49V141.82a3.16,3.16,0,1,1,6.32,0v19.67A3.19,3.19,0,0,1,67.2,164.72Z"/><path class="cls-1" d="M45.65,171.15a3.2,3.2,0,0,1-3.17-3.23V148.25a3.17,3.17,0,1,1,6.33,0v19.67A3.2,3.2,0,0,1,45.65,171.15Z"/><path class="cls-1" d="M261.2,89.39A3.19,3.19,0,0,1,258,86.16V66.49a3.16,3.16,0,1,1,6.32,0V86.16A3.19,3.19,0,0,1,261.2,89.39Z"/><path class="cls-1" d="M282.76,94a3.2,3.2,0,0,1-3.17-3.23V71.08a3.17,3.17,0,1,1,6.33,0V90.75A3.2,3.2,0,0,1,282.76,94Z"/><path class="cls-1" d="M304.31,103.17a3.19,3.19,0,0,1-3.16-3.23V80.27a3.16,3.16,0,1,1,6.32,0V99.94A3.19,3.19,0,0,1,304.31,103.17Z"/><path class="cls-1" d="M325.87,117a3.2,3.2,0,0,1-3.17-3.23V93.13a3.17,3.17,0,1,1,6.33,0v20.59A3.2,3.2,0,0,1,325.87,117Z"/><path class="cls-1" d="M347.42,130.27a3.2,3.2,0,0,1-3.16-3.23V107.37a3.16,3.16,0,1,1,6.32,0V127A3.19,3.19,0,0,1,347.42,130.27Z"/><path class="cls-1" d="M369,143.59a3.2,3.2,0,0,1-3.17-3.23V120.69a3.17,3.17,0,1,1,6.33,0v19.67A3.2,3.2,0,0,1,369,143.59Z"/><path class="cls-1" d="M390.53,155.53a3.2,3.2,0,0,1-3.16-3.23V132.63a3.16,3.16,0,1,1,6.32,0V152.3A3.19,3.19,0,0,1,390.53,155.53Z"/><path class="cls-1" d="M412.09,164.72a3.19,3.19,0,0,1-3.16-3.23V141.82a3.16,3.16,0,1,1,6.32,0v19.67A3.2,3.2,0,0,1,412.09,164.72Z"/><path class="cls-1" d="M433.64,171.15a3.2,3.2,0,0,1-3.16-3.23V148.25a3.17,3.17,0,1,1,6.33,0v19.67A3.2,3.2,0,0,1,433.64,171.15Z"/><path class="cls-1" d="M32,136.74V136a1.05,1.05,0,0,0-1-1.07H12.18a1.05,1.05,0,0,0-1,1.07v.74a1.06,1.06,0,0,1-1,1.07h0a1.26,1.26,0,0,0-1.25,1.27v2.1a1.05,1.05,0,0,0,1,1.07H33.21a1.05,1.05,0,0,0,1-1.07v-2.1A1.25,1.25,0,0,0,33,137.81h0A1.06,1.06,0,0,1,32,136.74Z"/><path class="cls-1" d="M21.55,128h0a7.94,7.94,0,0,1,7.94,7.94v.33a.16.16,0,0,1-.16.16H13.77a.16.16,0,0,1-.16-.16v-.33A7.94,7.94,0,0,1,21.55,128Z"/><polygon class="cls-1" points="29.65 140.15 24.35 140.15 18.91 140.15 13.61 140.15 5.02 203.72 18.91 203.72 24.35 203.72 38.24 203.72 29.65 140.15"/><path class="cls-1" d="M21.51,133h0a7.15,7.15,0,0,1,.08-9.94h0A7.14,7.14,0,0,1,21.51,133Z"/><path class="cls-1" d="M8,200.27H35.26a8,8,0,0,1,8,8v.64a0,0,0,0,1,0,0H0a0,0,0,0,1,0,0v-.64A8,8,0,0,1,8,200.27Z"/><path class="cls-1" d="M465.39,136.74V136a1.06,1.06,0,0,0-1.05-1.07H445.6a1.06,1.06,0,0,0-1,1.07v.74a1.06,1.06,0,0,1-1,1.07h0a1.26,1.26,0,0,0-1.25,1.27v2.1a1.06,1.06,0,0,0,1,1.07h23.32a1.06,1.06,0,0,0,1.05-1.07v-2.1a1.26,1.26,0,0,0-1.25-1.27h0A1.05,1.05,0,0,1,465.39,136.74Z"/><path class="cls-1" d="M462.76,136.41H447.19a.16.16,0,0,1-.16-.16v-.15A8,8,0,0,1,455,128h0a8,8,0,0,1,7.94,8.12v.15A.16.16,0,0,1,462.76,136.41Z"/><polygon class="cls-1" points="463.07 140.15 457.77 140.15 452.33 140.15 447.03 140.15 438.44 203.72 452.33 203.72 457.77 203.72 471.66 203.72 463.07 140.15"/><path class="cls-1" d="M454.93,133h0A7.15,7.15,0,0,1,455,123h0A7.14,7.14,0,0,1,454.93,133Z"/><path class="cls-1" d="M441.42,200.27h27.26a8,8,0,0,1,8,8v.64a0,0,0,0,1,0,0H433.42a0,0,0,0,1,0,0v-.64A8,8,0,0,1,441.42,200.27Z"/><path class="cls-1" d="M184.34,58.36c0,.91,1.21,3.29,1.92,3.48a16.14,16.14,0,0,0,3,0l4-3.41,1.45-.76s3,.81,3.94.3c.64-.35,4.08-2.65,6.22-4.24a4.15,4.15,0,0,0-.08,1.56c.34,1.27,2.63,3.66,2.63,3.66h.24l1.37,37.58-.26.26c-1.68,1.08-3.81,3.42-3.33,3.89s8.12-.16,9.5-.57c-.07.2-.08.35,0,.44.52.51,9.06-.24,9.67-.64.3-.18.23-.8.08-1.39l.26.13,1.08-32.64,2.06-5.58a2.1,2.1,0,0,0,1.16-.7c.36-.54,5.6-9,5.26-9.93-1.6-4.35-5-15.69-6.56-17.34-.71-.74-5.14-1.7-5.14-1.7v0l-.71-.39-1.57-2a6.09,6.09,0,0,1-1.18.84l-.74-3.06a6.14,6.14,0,0,0,3.37-1,3.56,3.56,0,0,0,.5-.64h0A32.86,32.86,0,0,0,225.69,21a5.29,5.29,0,0,0,1.48-2.19,10.92,10.92,0,0,0,.52-1.11c.09-.24.18-.48.28-.72,1.1-2.85,2.62-6.75-.2-11.45S220.61.73,220.24.74c-.39-.14-6-1.95-10.93.66,0,0-1.73.57-3.89,5.05a15.76,15.76,0,0,0-.73,8.56,3.35,3.35,0,0,0-.16,2.24,5.26,5.26,0,0,0,2.21,3.18A23.65,23.65,0,0,0,208.41,23a.1.1,0,0,0,.08.05h.07a3.69,3.69,0,0,0,.9,1.51,10.06,10.06,0,0,0,4.76,1.5,2.71,2.71,0,0,0,.06.38l-.8,2.92a6.07,6.07,0,0,1-1.1-.72l-1.32,1.54a.82.82,0,0,0,0,.11c-.48.25-3.39,1.73-4.13,2.75v0s-7,11.67-7.36,12.44-7,4-7.55,5.08a10.4,10.4,0,0,0-.81,2.32l-1.44,1.25c-1.22-.34-3.15-.79-3.28-.3-.18.73,1.4,1.83,1.4,1.83S184.35,57.45,184.34,58.36Zm31,41.12a6.88,6.88,0,0,0-.51-1.92l.3,0s.64-30.14.81-32.81c.11-1.77,1.08-1.52,1.16.11.15,2.78,1.47,30.31,1.53,31.54l-.12.12A12.31,12.31,0,0,0,215.34,99.48Zm-.65-1.94h0v0Z"/><path class="cls-1" d="M162,22.3a2.52,2.52,0,0,0,2.55,2.37.87.87,0,0,1,.53,0,.92.92,0,0,1,.35.48,4.3,4.3,0,0,0,1.94,2.32,1.93,1.93,0,0,0,2.6-.86,3.47,3.47,0,0,0,1.09,1.68q.21.34.45.69a12.39,12.39,0,0,0,1.11,1.36,3.43,3.43,0,0,0,1.48,1.68,4.55,4.55,0,0,0,1,.42,14.16,14.16,0,0,0,3.91,1.76,7.54,7.54,0,0,0,2.38,1l-.71,3.7a4.39,4.39,0,0,1-1.8-1.15,10.16,10.16,0,0,0-3.26,3.23c-2.07,3-7.35,25.79-7.35,25.79l.47.15a10.69,10.69,0,0,0-2.46,1.78A1.73,1.73,0,0,0,167,71c.82.32,4.59-.81,4.59-.81s.28,1.89.88,1.4.68-2.72.7-3.15l.74.25,3.3-9.46.07,0-.12,3.46-.43-.08a12.4,12.4,0,0,0,1.06,8.75l2.28,25.87,1.54,0,.44,1.53a5.78,5.78,0,0,0-.19.55,1,1,0,0,1-.17-.19s-.76,2.07-.14,2.4,8.75.76,9.2.29c.08-.08.06-.22,0-.39,1.33.32,8.6.67,9,.23s-2.19-2.85-3.89-3.61a2.1,2.1,0,0,0-.46.07l-.07,0L195,96.84l-3.52-.15,4.24-.17-.88-32.59.61-.12-1.32-6.16a.22.22,0,0,0,.11-.12l4.58,9.17.75-.33c.11.65.49,2.56,1,2.9s.72-1.5.72-1.5,3.87.69,4.64.28a1.73,1.73,0,0,0,.41-2.3,10.51,10.51,0,0,0-2.61-1.47c.17-.11.26-.19.26-.24,0-.37-9.07-21.87-11.25-24.29a12.12,12.12,0,0,0-3.88-2.5,4.2,4.2,0,0,1-2.08,1.47l-1-3.15a1.76,1.76,0,0,0,0-.31h.08a8.28,8.28,0,0,0,5.87-4,7.82,7.82,0,0,0,.75-2.07h.23a2.38,2.38,0,0,0,1.36-.92,4,4,0,0,0,.9-3.07,2.58,2.58,0,0,0-1.65-2.14,13.17,13.17,0,0,0-2.82-8.32c-3.59-4.47-10.17-3.4-10.5-3.34a12.16,12.16,0,0,0-8,4,3,3,0,0,0-2-.54,3.15,3.15,0,0,0-2.68,2.75,1.9,1.9,0,0,0-2.86-1,2.18,2.18,0,0,0-.09,3.2A2.52,2.52,0,0,0,162,22.3Zm24.82,76a2,2,0,0,0-.45.07l-.08,0L186,97l-2.52-.11,3.35,0s-1.23-25-1.35-27.57,1.65-2.51,2.13-.13,2.25,27.59,2.25,27.59l.65,0,.55,1.93a5.78,5.78,0,0,0-.19.55.73.73,0,0,1-.17-.19,6.19,6.19,0,0,0-.38,1.87A12,12,0,0,0,186.86,98.26Z"/><path class="cls-1" d="M275.6,74c-2.06-3.21-8.45-13-10.41-13.56l-.09,0L265,60a.19.19,0,0,0-.15-.12.2.2,0,0,0-.18.07,4.08,4.08,0,0,1-1.12.88l-.68-2.38a13.38,13.38,0,0,0,5.95-2.21,5.24,5.24,0,0,0,1.06-.71,4.38,4.38,0,0,0,.44,1.42,5.64,5.64,0,0,0,6,2.85c-2.09-.56-1.14-5.5-.61-8a3.27,3.27,0,0,0-2.17-3.93v-.57c-.16-5.15-5.64-9.72-9.47-9.82a13.08,13.08,0,0,0-10.78,2.15c-2.95,2.26-4.16,6.47-4.27,9-.86.14-1.59.93-1.24,2.5a2.71,2.71,0,0,0,2.4,2.25,7.76,7.76,0,0,0,1.05,1.92c1.56,2.08,4.65,3.12,7.93,3.28a.14.14,0,0,0,0,.06l-.74,2.3a5.58,5.58,0,0,1-1.13-.73.2.2,0,0,0-.15-.05.2.2,0,0,0-.14.08l-.13.19-.1,0c-1.55.53-9,12.54-10,14.15a9.49,9.49,0,0,0-2.6.93,1.48,1.48,0,0,0,0,2c.6.46,4,.42,4,.42s-.19,1.64.41,1.37,1.32-2.5,1.32-2.5v0l5-5.87-2.19,9.31a11.39,11.39,0,0,0,2.9.78h0l.76,7.72a.17.17,0,0,0,.07.13.18.18,0,0,0,.14,0l.23,0,.14,2.13a2.26,2.26,0,0,0-.29,0s-2.44,1.92-2,2.64,5.42-.34,6.09-.74,0-1.43-.25-1.81l.07-2.73.48-.07h0a.19.19,0,0,0,.16-.18l.2-6.64c.51,0,1,0,1.47,0l.72,7.4a.17.17,0,0,0,.07.13.18.18,0,0,0,.14,0l.33,0,.11,1.74a2.26,2.26,0,0,0-.29,0s-2.44,1.91-2,2.63,5.41-.33,6.08-.72,0-1.43-.24-1.81l.06-2.34.42-.06h0a.2.2,0,0,0,.17-.18l.25-7.71a14.38,14.38,0,0,0,1.87-.64l-2.56-9,4.31,5.23.05,0a1.74,1.74,0,0,0-.11.18s.83,2.2,1.44,2.43.34-1.39.34-1.39,3.37-.13,4-.62a1.48,1.48,0,0,0-.06-2A8.4,8.4,0,0,0,275.6,74Z"/><path class="cls-1" d="M371,115.19l-.69.12.72-.27v-.24a2.25,2.25,0,0,1,.33-1.32,1.54,1.54,0,0,0,.14-.22,2.39,2.39,0,0,0,0-2.2c-.54-.89-3.89-13.2-4.76-14.59s-1.6-1.2-1.6-1.2a3.64,3.64,0,0,0-.2-2.82c-.72-1.08-2.22-1.23-3.92-.62l-.21-1.24a2,2,0,0,0,.1-.26c2.86-.18,5.54-1.16,6.93-3.1l.06-.08A8,8,0,0,0,369.09,86a2.55,2.55,0,0,0,2-2,2.1,2.1,0,0,0-.26-2.12,10.93,10.93,0,0,0-.26-3.71,6.91,6.91,0,0,0-3.09-4.18l2.22.77s.49-.82-2.34-2.81a11,11,0,0,0-8.22-1.57c-7.72-.87-11.42,4.51-11.73,8.27a12.18,12.18,0,0,0,.21,3.66,2,2,0,0,0-.25,2.43,2.41,2.41,0,0,0,2.54,1.57,10.69,10.69,0,0,0,1.42,1.1,3.84,3.84,0,0,0,.46.44,11.7,11.7,0,0,0,5.48,2.24l-.38,1.38c-.83-.36-2.56-1-3.64-.5-1.46.64-1.46,2.85-1.46,2.85a5.22,5.22,0,0,0-1.72,1c-.75.69-6.21,10.88-6.7,11.69-.78,1.3-2.17,2.26-2.23,3.36l-.11,2.07-.42,1.08h0a11.45,11.45,0,0,0-2.84,1.56,1.36,1.36,0,0,0,.4,2c.78.41,4.65,0,4.65,0s.07,1.92.72,1.5,1.06-3.12,1.06-3.12l0,0,.44-.47a2.18,2.18,0,0,0,1.19,0c.3-.14,1.1-2.35,1.65-4a9.09,9.09,0,0,0-.6,2.65,3.12,3.12,0,0,0,.88,1l-2.81,13.39,2.08,1,.14-.65c.29.1.64.19,1,.28l-.6,7.05-1.45-.09-.26,4.63.72,0a.52.52,0,0,0,.21.39c.6.36,7.72,1,8.19.56.32-.31-.45-1.36-1.5-2.25-.26-.25-.55-.5-.83-.72l.12-2.26-.91-.06.76-6.67c.47,0,.78-.07.83-.21.24-.72,1.83-8.68,2.86-8.49s2,7.85,2.12,8.71c0,.22.55.28,1.31.23l1.08,6.4-.69.15.65,3.11a2,2,0,0,0,.26,1.26l0,.16.18,0c.86.15,7.22-.87,7.56-1.42.17-.28-.16-.8-.76-1.31a3.23,3.23,0,0,0-.88-.66l-.53-2.52-1.62.35-.86-6.24c1.21-.3,2.13-.61,2.14-.78,0-.42-1.65-9.29-2.12-11.8l.82,0,1.09-.42.51,1.21-.2.17s.11,2.74.71,3.23.88-1.41.88-1.41,3.5.6,4.31.28,1.32-1.2.93-1.7A11.69,11.69,0,0,0,371,115.19Z"/></g></g></svg>