<svg xmlns="http://www.w3.org/2000/svg" xmlns:xlink="http://www.w3.org/1999/xlink" viewBox="0 0 345.4 306.4"><defs><style>.cls-1{isolation:isolate;}.cls-2{fill:url(#未命名漸層_1503);}.cls-3{fill:url(#未命名漸層_1461);}.cls-4{fill:url(#未命名漸層_122);}.cls-5{fill:url(#未命名漸層_122-2);}.cls-6{fill:url(#未命名漸層_122-3);}.cls-7{fill:url(#未命名漸層_1503-2);}.cls-8{fill:url(#未命名漸層_1461-2);}.cls-9{fill:url(#未命名漸層_122-4);}.cls-10{fill:url(#未命名漸層_122-5);}.cls-11{fill:url(#未命名漸層_1503-3);}.cls-12{fill:url(#未命名漸層_122-6);}.cls-13{fill:url(#未命名漸層_1461-3);}.cls-14{fill:url(#未命名漸層_122-7);}.cls-15{fill:url(#未命名漸層_122-8);}.cls-16{fill:url(#未命名漸層_122-9);}.cls-17{fill:url(#未命名漸層_122-10);}.cls-18{fill:url(#未命名漸層_1461-4);}.cls-19{fill:url(#未命名漸層_1503-4);}.cls-20{fill:url(#未命名漸層_1503-5);}.cls-21{fill:url(#未命名漸層_122-11);}.cls-22{fill:url(#未命名漸層_1461-5);}.cls-23{fill:url(#未命名漸層_1461-6);}.cls-24{fill:url(#未命名漸層_1503-6);}.cls-25{fill:url(#未命名漸層_122-12);}.cls-26{fill:url(#未命名漸層_122-13);}.cls-27{fill:url(#未命名漸層_122-14);}.cls-28,.cls-33,.cls-55,.cls-62{fill:none;stroke-width:0.4px;}.cls-28{stroke:#231815;}.cls-28,.cls-62{stroke-miterlimit:10;}.cls-29{fill:#040000;}.cls-30{fill:url(#未命名漸層_42);}.cls-31{fill:#fff;}.cls-32{fill:url(#未命名漸層_248);}.cls-33{stroke:#040000;}.cls-33,.cls-55{stroke-linecap:round;stroke-linejoin:round;}.cls-34{fill:url(#未命名漸層_248-2);}.cls-35{fill:url(#未命名漸層_42-2);}.cls-36{fill:url(#未命名漸層_1503-7);}.cls-37{fill:#231815;}.cls-38{fill:url(#未命名漸層_1461-7);}.cls-39{fill:url(#未命名漸層_883);}.cls-40{fill:url(#未命名漸層_1461-8);}.cls-41{fill:url(#未命名漸層_23);}.cls-42{fill:url(#未命名漸層_15);}.cls-43{fill:url(#未命名漸層_793);}.cls-44{fill:url(#未命名漸層_883-2);}.cls-45{fill:url(#未命名漸層_23-2);}.cls-46{fill:url(#未命名漸層_793-2);}.cls-47{fill:url(#未命名漸層_883-3);}.cls-48{fill:url(#未命名漸層_793-3);}.cls-49{fill:url(#未命名漸層_23-3);}.cls-50{fill:url(#未命名漸層_883-4);}.cls-51{fill:url(#未命名漸層_22);}.cls-52{fill:url(#未命名漸層_22-2);}.cls-53{fill:url(#未命名漸層_27);}.cls-54{fill:url(#未命名漸層_27-2);}.cls-55{stroke:red;}.cls-56{fill:url(#未命名漸層_27-3);}.cls-57{fill:url(#未命名漸層_27-4);}.cls-58{fill:url(#未命名漸層_22-3);}.cls-59{fill:url(#未命名漸層_22-4);}.cls-60{fill:url(#未命名漸層_22-5);}.cls-61{fill:url(#未命名漸層_1461-9);}.cls-62{stroke:#000;}.cls-63{fill:url(#未命名漸層_122-15);}.cls-64{fill:url(#未命名漸層_122-16);}.cls-65{fill:url(#未命名漸層_1461-10);}.cls-66{fill:url(#未命名漸層_122-17);}.cls-67{fill:url(#未命名漸層_122-18);}.cls-68{fill:url(#未命名漸層_1394);}.cls-69{fill:url(#未命名漸層_1461-11);}.cls-70{fill:url(#未命名漸層_122-19);}.cls-71{fill:url(#未命名漸層_1503-8);}.cls-72{fill:url(#未命名漸層_1503-9);}.cls-73{fill:url(#未命名漸層_1503-10);}.cls-74{fill:url(#未命名漸層_1503-11);}.cls-75{fill:#dba100;}.cls-76{fill:url(#未命名漸層_62);}.cls-77{fill:url(#未命名漸層_961);}.cls-78{fill:url(#未命名漸層_27-5);}.cls-79{fill:url(#未命名漸層_27-6);}.cls-80{fill:url(#未命名漸層_27-7);}.cls-81{fill:url(#未命名漸層_22-6);}.cls-82{fill:#eea877;}.cls-83{fill:#f9f5da;}.cls-84{fill:#de7e4e;}.cls-85{fill:#e9b78d;}.cls-86{fill:url(#未命名漸層_883-5);}.cls-87{fill:url(#未命名漸層_62-2);}.cls-88{fill:url(#未命名漸層_1461-12);}.cls-89{fill:url(#未命名漸層_1503-12);}.cls-90{fill:url(#未命名漸層_122-20);}.cls-91{fill:url(#未命名漸層_1461-13);}.cls-92{fill:url(#未命名漸層_1461-14);}.cls-93{fill:url(#未命名漸層_122-21);}.cls-94{fill:url(#未命名漸層_1503-13);}.cls-95{fill:url(#未命名漸層_1503-14);}.cls-96{fill:url(#未命名漸層_883-6);}.cls-97{fill:url(#未命名漸層_729);}.cls-98{fill:url(#未命名漸層_23-4);}.cls-99{fill:url(#未命名漸層_793-4);}.cls-100{fill:url(#未命名漸層_883-7);}.cls-101{fill:url(#未命名漸層_23-5);}.cls-102{fill:url(#未命名漸層_793-5);}.cls-103{fill:url(#未命名漸層_883-8);}.cls-104{fill:url(#未命名漸層_793-6);}.cls-105{fill:url(#未命名漸層_23-6);}.cls-106{fill:url(#未命名漸層_15-2);}.cls-107{fill:url(#未命名漸層_883-9);}.cls-108{fill:url(#未命名漸層_883-10);}.cls-109{fill:url(#未命名漸層_883-11);}.cls-110{fill:url(#未命名漸層_883-12);}.cls-111{fill:url(#未命名漸層_15-3);}.cls-112{fill:url(#未命名漸層_883-13);}.cls-113{fill:url(#未命名漸層_883-14);}.cls-114{fill:url(#未命名漸層_883-15);}.cls-115{fill:url(#未命名漸層_729-2);}.cls-116{fill:url(#未命名漸層_23-7);}.cls-117{fill:url(#未命名漸層_793-7);}.cls-118{fill:url(#未命名漸層_1461-15);}.cls-119{fill:url(#未命名漸層_883-16);}.cls-120{fill:url(#未命名漸層_793-8);}.cls-121{fill:url(#未命名漸層_23-8);}.cls-122{fill:url(#未命名漸層_883-17);}.cls-123{fill:url(#未命名漸層_793-9);}.cls-124{fill:url(#未命名漸層_23-9);}.cls-125{fill:url(#未命名漸層_883-18);}.cls-126{fill:url(#未命名漸層_883-19);}.cls-127{fill:url(#未命名漸層_15-4);}.cls-128{fill:url(#未命名漸層_1461-16);}.cls-129{fill:url(#未命名漸層_23-10);}.cls-130{fill:url(#未命名漸層_793-10);}.cls-131{fill:url(#未命名漸層_883-20);}.cls-132{fill:url(#未命名漸層_793-11);}.cls-133{fill:url(#未命名漸層_883-21);}.cls-134{fill:url(#未命名漸層_23-11);}.cls-135{fill:url(#未命名漸層_23-12);}.cls-136{fill:url(#未命名漸層_793-12);}.cls-137{fill:url(#未命名漸層_883-22);}.cls-138{fill:url(#未命名漸層_1503-15);}.cls-139{fill:#ce1a1b;}.cls-140{fill:#9f1f24;}.cls-141{fill:#8695ba;}.cls-142{fill:#7e7b8f;mix-blend-mode:multiply;}</style><linearGradient id="未命名漸層_1503" x1="79.68" y1="262.38" x2="79.78" y2="275.9" gradientTransform="translate(-11.24 -22.46) rotate(-4.76)" gradientUnits="userSpaceOnUse"><stop offset="0" stop-color="#8a0e12"/><stop offset="1" stop-color="#cc526c"/></linearGradient><linearGradient id="未命名漸層_1461" x1="76.52" y1="249.19" x2="81" y2="276.67" gradientTransform="translate(-11.24 -22.46) rotate(-4.76)" gradientUnits="userSpaceOnUse"><stop offset="0" stop-color="#f2888b"/><stop offset="0.2" stop-color="#ef8487"/><stop offset="0.4" stop-color="#e5777b"/><stop offset="0.61" stop-color="#d46366"/><stop offset="0.82" stop-color="#bd464a"/><stop offset="1" stop-color="#a3262a"/></linearGradient><linearGradient id="未命名漸層_122" x1="56.34" y1="263.27" x2="57.69" y2="272.38" gradientTransform="translate(-11.24 -22.46) rotate(-4.76)" gradientUnits="userSpaceOnUse"><stop offset="0" stop-color="#403c37"/><stop offset="1" stop-color="#121212"/></linearGradient><linearGradient id="未命名漸層_122-2" x1="57.79" y1="258.08" x2="57.53" y2="278.89" xlink:href="#未命名漸層_122"/><linearGradient id="未命名漸層_122-3" x1="41.65" y1="158.77" x2="47.54" y2="166.77" xlink:href="#未命名漸層_122"/><linearGradient id="未命名漸層_1503-2" x1="42.36" y1="258.43" x2="40.79" y2="284.97" xlink:href="#未命名漸層_1503"/><linearGradient id="未命名漸層_1461-2" x1="44.2" y1="252.61" x2="40.66" y2="270.93" xlink:href="#未命名漸層_1461"/><linearGradient id="未命名漸層_122-4" x1="34.72" y1="157.81" x2="52.13" y2="170.58" xlink:href="#未命名漸層_122"/><linearGradient id="未命名漸層_122-5" x1="33.89" y1="164.47" x2="39.78" y2="172.47" xlink:href="#未命名漸層_122"/><linearGradient id="未命名漸層_1503-3" x1="32.12" y1="167.88" x2="43.51" y2="195.66" xlink:href="#未命名漸層_1503"/><linearGradient id="未命名漸層_122-6" x1="28.81" y1="165.87" x2="46.21" y2="178.63" xlink:href="#未命名漸層_122"/><linearGradient id="未命名漸層_1461-3" x1="17.37" y1="163.67" x2="38.74" y2="188.68" xlink:href="#未命名漸層_1461"/><linearGradient id="未命名漸層_122-7" x1="17.51" y1="176.52" x2="23.4" y2="184.52" xlink:href="#未命名漸層_122"/><linearGradient id="未命名漸層_122-8" x1="28.79" y1="253.71" x2="26.3" y2="261.51" xlink:href="#未命名漸層_122"/><linearGradient id="未命名漸層_122-9" x1="30.07" y1="251.67" x2="26.17" y2="270.67" xlink:href="#未命名漸層_122"/><linearGradient id="未命名漸層_122-10" x1="5.66" y1="181.62" x2="29.13" y2="181.62" xlink:href="#未命名漸層_122"/><linearGradient id="未命名漸層_1461-4" x1="22.85" y1="235.6" x2="6.61" y2="261.83" xlink:href="#未命名漸層_1461"/><linearGradient id="未命名漸層_1503-4" x1="8.6" y1="186.99" x2="23.43" y2="205.87" xlink:href="#未命名漸層_1503"/><linearGradient id="未命名漸層_1503-5" x1="13.64" y1="246.44" x2="8.18" y2="261.57" xlink:href="#未命名漸層_1503"/><linearGradient id="未命名漸層_122-11" x1="-4.19" y1="237.05" x2="21.39" y2="237.05" xlink:href="#未命名漸層_122"/><linearGradient id="未命名漸層_1461-5" x1="6.94" y1="177.82" x2="8.08" y2="214.03" xlink:href="#未命名漸層_1461"/><linearGradient id="未命名漸層_1461-6" x1="20.82" y1="216.14" x2="-19.09" y2="230.63" xlink:href="#未命名漸層_1461"/><linearGradient id="未命名漸層_1503-6" x1="8.91" y1="213.68" x2="14.34" y2="221.13" xlink:href="#未命名漸層_1503"/><linearGradient id="未命名漸層_122-12" x1="-7.79" y1="191.24" x2="4.7" y2="202.95" xlink:href="#未命名漸層_122"/><linearGradient id="未命名漸層_122-13" x1="-6.43" y1="206.04" x2="27.1" y2="211.04" xlink:href="#未命名漸層_122"/><linearGradient id="未命名漸層_122-14" x1="-0.22" y1="244.61" x2="2" y2="244.61" xlink:href="#未命名漸層_122"/><linearGradient id="未命名漸層_42" x1="259.62" y1="135.94" x2="303.91" y2="135.94" gradientTransform="translate(-11.24 -22.46) rotate(-4.76)" gradientUnits="userSpaceOnUse"><stop offset="0" stop-color="#bb2b21"/><stop offset="1" stop-color="#930d09"/></linearGradient><linearGradient id="未命名漸層_248" x1="253.78" y1="120.8" x2="303.54" y2="120.8" gradientTransform="translate(-11.24 -22.46) rotate(-4.76)" gradientUnits="userSpaceOnUse"><stop offset="0" stop-color="#f9724e"/><stop offset="1" stop-color="#dc4c1a"/></linearGradient><linearGradient id="未命名漸層_248-2" x1="100.66" y1="84.2" x2="148.84" y2="84.2" xlink:href="#未命名漸層_248"/><linearGradient id="未命名漸層_42-2" x1="95.83" y1="92.77" x2="133.42" y2="92.77" xlink:href="#未命名漸層_42"/><linearGradient id="未命名漸層_1503-7" x1="92.58" y1="296.84" x2="101.1" y2="319.7" xlink:href="#未命名漸層_1503"/><linearGradient id="未命名漸層_1461-7" x1="58.65" y1="281.86" x2="64.06" y2="342.64" xlink:href="#未命名漸層_1461"/><linearGradient id="未命名漸層_883" x1="61.27" y1="358.03" x2="63.46" y2="316.98" gradientTransform="translate(-11.24 -22.46) rotate(-4.76)" gradientUnits="userSpaceOnUse"><stop offset="0" stop-color="#fff46a"/><stop offset="0.28" stop-color="#fef167"/><stop offset="0.47" stop-color="#f9e85f"/><stop offset="0.64" stop-color="#f1d952"/><stop offset="0.8" stop-color="#e6c33e"/><stop offset="0.94" stop-color="#d7a725"/><stop offset="1" stop-color="#d09919"/></linearGradient><linearGradient id="未命名漸層_1461-8" x1="59.3" y1="292.39" x2="119.15" y2="292.39" xlink:href="#未命名漸層_1461"/><linearGradient id="未命名漸層_23" x1="50.33" y1="294.33" x2="48.38" y2="425.88" gradientTransform="translate(-11.24 -22.46) rotate(-4.76)" gradientUnits="userSpaceOnUse"><stop offset="0" stop-color="#dba100"/><stop offset="1" stop-color="#a07200"/></linearGradient><linearGradient id="未命名漸層_15" x1="41.63" y1="284.86" x2="47.81" y2="338.53" gradientTransform="translate(-11.24 -22.46) rotate(-4.76)" gradientUnits="userSpaceOnUse"><stop offset="0" stop-color="#fff8c5"/><stop offset="1" stop-color="#fff494"/></linearGradient><linearGradient id="未命名漸層_793" x1="48.61" y1="306.76" x2="49.59" y2="381.23" gradientTransform="translate(-11.24 -22.46) rotate(-4.76)" gradientUnits="userSpaceOnUse"><stop offset="0" stop-color="#ffd84c"/><stop offset="0.3" stop-color="#fed448"/><stop offset="0.61" stop-color="#fbc73e"/><stop offset="0.93" stop-color="#f6b32c"/><stop offset="1" stop-color="#f5ad27"/></linearGradient><linearGradient id="未命名漸層_883-2" x1="38.94" y1="356.84" x2="41.13" y2="315.79" xlink:href="#未命名漸層_883"/><linearGradient id="未命名漸層_23-2" x1="32.82" y1="294.06" x2="30.87" y2="425.63" xlink:href="#未命名漸層_23"/><linearGradient id="未命名漸層_793-2" x1="34.74" y1="306.94" x2="35.72" y2="381.41" xlink:href="#未命名漸層_793"/><linearGradient id="未命名漸層_883-3" x1="24.48" y1="356.07" x2="26.66" y2="315.02" xlink:href="#未命名漸層_883"/><linearGradient id="未命名漸層_793-3" x1="23.63" y1="307.08" x2="24.61" y2="381.56" xlink:href="#未命名漸層_793"/><linearGradient id="未命名漸層_23-3" x1="21.02" y1="293.89" x2="19.07" y2="425.45" xlink:href="#未命名漸層_23"/><linearGradient id="未命名漸層_883-4" x1="15.57" y1="355.6" x2="17.76" y2="314.54" xlink:href="#未命名漸層_883"/><linearGradient id="未命名漸層_22" x1="72.71" y1="118.92" x2="119.73" y2="118.92" gradientTransform="translate(-11.24 -22.46) rotate(-4.76)" gradientUnits="userSpaceOnUse"><stop offset="0" stop-color="#38547f"/><stop offset="1" stop-color="#1f335b"/></linearGradient><linearGradient id="未命名漸層_22-2" x1="54.58" y1="154.35" x2="102.72" y2="154.35" xlink:href="#未命名漸層_22"/><linearGradient id="未命名漸層_27" x1="52.98" y1="165.59" x2="102.26" y2="165.59" gradientTransform="translate(-11.24 -22.46) rotate(-4.76)" gradientUnits="userSpaceOnUse"><stop offset="0" stop-color="#293553"/><stop offset="1" stop-color="#0f1c3a"/></linearGradient><linearGradient id="未命名漸層_27-2" x1="69.99" y1="128.52" x2="118.72" y2="128.52" xlink:href="#未命名漸層_27"/><linearGradient id="未命名漸層_27-3" x1="283.66" y1="147.97" x2="284.26" y2="190.54" xlink:href="#未命名漸層_27"/><linearGradient id="未命名漸層_27-4" x1="280.96" y1="190" x2="281.52" y2="229.84" xlink:href="#未命名漸層_27"/><linearGradient id="未命名漸層_22-3" x1="278.39" y1="140.7" x2="285.32" y2="183.3" xlink:href="#未命名漸層_22"/><linearGradient id="未命名漸層_22-4" x1="290.59" y1="200.65" x2="302.49" y2="262.84" xlink:href="#未命名漸層_22"/><linearGradient id="未命名漸層_22-5" x1="276.68" y1="182.52" x2="283.33" y2="223.34" xlink:href="#未命名漸層_22"/><linearGradient id="未命名漸層_1461-9" x1="304.11" y1="181.69" x2="275.38" y2="180.95" gradientTransform="matrix(1, 0, 0, 1, 0, 0)" xlink:href="#未命名漸層_1461"/><linearGradient id="未命名漸層_122-15" x1="286.14" y1="222.77" x2="259.72" y2="214.4" xlink:href="#未命名漸層_122"/><linearGradient id="未命名漸層_122-16" x1="281.76" y1="236.59" x2="255.35" y2="228.22" xlink:href="#未命名漸層_122"/><linearGradient id="未命名漸層_1461-10" x1="50.94" y1="186.07" x2="76.82" y2="191.02" xlink:href="#未命名漸層_1461"/><linearGradient id="未命名漸層_122-17" x1="62.48" y1="193.95" x2="85.15" y2="200.98" xlink:href="#未命名漸層_122"/><linearGradient id="未命名漸層_122-18" x1="56.08" y1="182.17" x2="79.06" y2="182.25" xlink:href="#未命名漸層_122"/><radialGradient id="未命名漸層_1394" cx="182.75" cy="167.11" r="121.51" gradientTransform="matrix(1, -0.08, 0.08, 1, -11.65, -22.48)" gradientUnits="userSpaceOnUse"><stop offset="0" stop-color="#f7f29e"/><stop offset="0.39" stop-color="#f7f09c"/><stop offset="0.53" stop-color="#f7e996"/><stop offset="0.63" stop-color="#f6de8b"/><stop offset="0.71" stop-color="#f5cd7a"/><stop offset="0.78" stop-color="#f4b766"/><stop offset="0.84" stop-color="#f39b4c"/><stop offset="0.89" stop-color="#f17c2e"/><stop offset="0.93" stop-color="#f06518"/></radialGradient><linearGradient id="未命名漸層_1461-11" x1="236.1" y1="220.04" x2="256.61" y2="266.11" xlink:href="#未命名漸層_1461"/><linearGradient id="未命名漸層_122-19" x1="273.5" y1="230.26" x2="232.08" y2="264.55" xlink:href="#未命名漸層_122"/><linearGradient id="未命名漸層_1503-8" x1="251.7" y1="269.08" x2="259.74" y2="292.54" xlink:href="#未命名漸層_1503"/><linearGradient id="未命名漸層_1503-9" x1="256.36" y1="269.05" x2="256.38" y2="269.11" xlink:href="#未命名漸層_1503"/><linearGradient id="未命名漸層_1503-10" x1="242.06" y1="240.9" x2="248.46" y2="331.73" xlink:href="#未命名漸層_1503"/><linearGradient id="未命名漸層_1503-11" x1="197.58" y1="299.8" x2="246.77" y2="299.8" xlink:href="#未命名漸層_1503"/><radialGradient id="未命名漸層_62" cx="228" cy="199.63" r="13.27" gradientTransform="matrix(1, -0.08, 0.08, 1, -11.65, -22.48)" gradientUnits="userSpaceOnUse"><stop offset="0" stop-color="#dfae99"/><stop offset="0.29" stop-color="#deac96"/><stop offset="0.49" stop-color="#dda38d"/><stop offset="0.66" stop-color="#da967e"/><stop offset="0.82" stop-color="#d68368"/><stop offset="0.97" stop-color="#d06a4c"/><stop offset="1" stop-color="#cf6445"/></radialGradient><linearGradient id="未命名漸層_961" x1="164.89" y1="264.22" x2="163.65" y2="302" gradientTransform="translate(-11.24 -22.46) rotate(-4.76)" gradientUnits="userSpaceOnUse"><stop offset="0" stop-color="#ffff96"/><stop offset="1" stop-color="#ffdd47"/></linearGradient><linearGradient id="未命名漸層_27-5" x1="192.56" y1="124.49" x2="218.57" y2="124.49" xlink:href="#未命名漸層_27"/><linearGradient id="未命名漸層_27-6" x1="177.37" y1="104.9" x2="215.35" y2="104.9" xlink:href="#未命名漸層_27"/><linearGradient id="未命名漸層_27-7" x1="213.55" y1="104.33" x2="213.67" y2="104.33" xlink:href="#未命名漸層_27"/><linearGradient id="未命名漸層_22-6" x1="170.16" y1="123.3" x2="213.65" y2="123.3" xlink:href="#未命名漸層_22"/><linearGradient id="未命名漸層_883-5" x1="158.59" y1="348.39" x2="162.64" y2="282.82" xlink:href="#未命名漸層_883"/><radialGradient id="未命名漸層_62-2" cx="135.3" cy="182.19" r="13.27" xlink:href="#未命名漸層_62"/><linearGradient id="未命名漸層_1461-12" x1="78.34" y1="206.43" x2="78.33" y2="206.68" xlink:href="#未命名漸層_1461"/><linearGradient id="未命名漸層_1503-12" x1="92.16" y1="243.31" x2="93.62" y2="295.56" xlink:href="#未命名漸層_1503"/><linearGradient id="未命名漸層_122-20" x1="94.61" y1="234.86" x2="78.39" y2="263.88" xlink:href="#未命名漸層_122"/><linearGradient id="未命名漸層_1461-13" x1="77.21" y1="172.82" x2="118.48" y2="265.51" xlink:href="#未命名漸層_1461"/><linearGradient id="未命名漸層_1461-14" x1="85.54" y1="183.55" x2="82.84" y2="253.24" xlink:href="#未命名漸層_1461"/><linearGradient id="未命名漸層_122-21" x1="103.43" y1="201.28" x2="84.28" y2="217.13" xlink:href="#未命名漸層_122"/><linearGradient id="未命名漸層_1503-13" x1="82.89" y1="215.29" x2="75.71" y2="237.4" xlink:href="#未命名漸層_1503"/><linearGradient id="未命名漸層_1503-14" x1="77.25" y1="213.46" x2="70.07" y2="235.57" xlink:href="#未命名漸層_1503"/><linearGradient id="未命名漸層_883-6" x1="331.28" y1="266.29" x2="331.91" y2="203.44" xlink:href="#未命名漸層_883"/><linearGradient id="未命名漸層_729" x1="304.22" y1="162.23" x2="300.31" y2="215.14" gradientTransform="translate(-11.24 -22.46) rotate(-4.76)" gradientUnits="userSpaceOnUse"><stop offset="0" stop-color="#fff8c5"/><stop offset="1" stop-color="#fff38f"/></linearGradient><linearGradient id="未命名漸層_23-4" x1="323.59" y1="216.93" x2="322.19" y2="228.85" xlink:href="#未命名漸層_23"/><linearGradient id="未命名漸層_793-4" x1="324.79" y1="194.46" x2="322.51" y2="252.03" xlink:href="#未命名漸層_793"/><linearGradient id="未命名漸層_883-7" x1="308.33" y1="266.06" x2="308.96" y2="203.21" xlink:href="#未命名漸層_883"/><linearGradient id="未命名漸層_23-5" x1="303.06" y1="214.51" x2="301.65" y2="226.43" xlink:href="#未命名漸層_23"/><linearGradient id="未命名漸層_793-5" x1="303.96" y1="193.64" x2="301.68" y2="251.2" xlink:href="#未命名漸層_793"/><linearGradient id="未命名漸層_883-8" x1="292.04" y1="265.91" x2="292.66" y2="203.04" xlink:href="#未命名漸層_883"/><linearGradient id="未命名漸層_793-6" x1="284.21" y1="192.85" x2="281.93" y2="250.42" xlink:href="#未命名漸層_793"/><linearGradient id="未命名漸層_23-6" x1="281.59" y1="211.98" x2="280.18" y2="223.9" xlink:href="#未命名漸層_23"/><linearGradient id="未命名漸層_15-2" x1="268.27" y1="162.3" x2="265.31" y2="178.38" xlink:href="#未命名漸層_15"/><linearGradient id="未命名漸層_883-9" x1="270.79" y1="265.69" x2="271.42" y2="202.83" xlink:href="#未命名漸層_883"/><linearGradient id="未命名漸層_883-10" x1="263.68" y1="265.62" x2="264.31" y2="202.76" xlink:href="#未命名漸層_883"/><linearGradient id="未命名漸層_883-11" x1="241.31" y1="223.49" x2="257.75" y2="176.46" xlink:href="#未命名漸層_883"/><linearGradient id="未命名漸層_883-12" x1="123.22" y1="192.49" x2="109.48" y2="142.23" xlink:href="#未命名漸層_883"/><linearGradient id="未命名漸層_15-3" x1="104.79" y1="123.55" x2="110.2" y2="154.36" xlink:href="#未命名漸層_15"/><linearGradient id="未命名漸層_883-13" x1="95.09" y1="214.23" x2="100.24" y2="167.24" xlink:href="#未命名漸層_883"/><linearGradient id="未命名漸層_883-14" x1="92.58" y1="213.96" x2="97.73" y2="166.97" xlink:href="#未命名漸層_883"/><linearGradient id="未命名漸層_883-15" x1="88.42" y1="213.5" x2="93.57" y2="166.51" xlink:href="#未命名漸層_883"/><linearGradient id="未命名漸層_729-2" x1="66.68" y1="114.22" x2="62.79" y2="166.86" xlink:href="#未命名漸層_729"/><linearGradient id="未命名漸層_23-7" x1="83.8" y1="168.13" x2="77.71" y2="190.07" xlink:href="#未命名漸層_23"/><linearGradient id="未命名漸層_793-7" x1="82.72" y1="153.63" x2="83.6" y2="170.54" xlink:href="#未命名漸層_793"/><linearGradient id="未命名漸層_1461-15" x1="85.31" y1="153.49" x2="86.2" y2="170.4" xlink:href="#未命名漸層_1461"/><linearGradient id="未命名漸層_883-16" x1="67.77" y1="211.24" x2="72.92" y2="164.25" xlink:href="#未命名漸層_883"/><linearGradient id="未命名漸層_793-8" x1="61.56" y1="140.23" x2="60.74" y2="184.46" xlink:href="#未命名漸層_793"/><linearGradient id="未命名漸層_23-8" x1="62.74" y1="162.29" x2="56.65" y2="184.23" xlink:href="#未命名漸層_23"/><linearGradient id="未命名漸層_883-17" x1="44.28" y1="208.66" x2="49.43" y2="161.68" xlink:href="#未命名漸層_883"/><linearGradient id="未命名漸層_793-9" x1="40.39" y1="139.84" x2="39.57" y2="184.07" xlink:href="#未命名漸層_793"/><linearGradient id="未命名漸層_23-9" x1="40.78" y1="156.21" x2="34.7" y2="178.14" xlink:href="#未命名漸層_23"/><linearGradient id="未命名漸層_883-18" x1="24.48" y1="206.49" x2="29.63" y2="159.51" xlink:href="#未命名漸層_883"/><linearGradient id="未命名漸層_883-19" x1="283.35" y1="370.35" x2="278.04" y2="328.36" xlink:href="#未命名漸層_883"/><linearGradient id="未命名漸層_15-4" x1="244.55" y1="302.83" x2="253.02" y2="352.64" xlink:href="#未命名漸層_15"/><linearGradient id="未命名漸層_1461-16" x1="203.65" y1="302.87" x2="278.75" y2="302.87" xlink:href="#未命名漸層_1461"/><linearGradient id="未命名漸層_23-10" x1="270.9" y1="297.75" x2="268.95" y2="429.11" xlink:href="#未命名漸層_23"/><linearGradient id="未命名漸層_793-10" x1="268.94" y1="303.85" x2="269.92" y2="378.31" xlink:href="#未命名漸層_793"/><linearGradient id="未命名漸層_883-20" x1="266.84" y1="372.42" x2="261.54" y2="330.44" xlink:href="#未命名漸層_883"/><linearGradient id="未命名漸層_793-11" x1="253.64" y1="304.08" x2="254.62" y2="378.56" xlink:href="#未命名漸層_793"/><linearGradient id="未命名漸層_883-21" x1="247.33" y1="374.9" x2="242.02" y2="332.9" xlink:href="#未命名漸層_883"/><linearGradient id="未命名漸層_23-11" x1="254.25" y1="297.54" x2="252.31" y2="428.71" xlink:href="#未命名漸層_23"/><linearGradient id="未命名漸層_23-12" x1="234.04" y1="296.98" x2="232.08" y2="428.73" xlink:href="#未命名漸層_23"/><linearGradient id="未命名漸層_793-12" x1="233.89" y1="304.39" x2="234.86" y2="378.82" xlink:href="#未命名漸層_793"/><linearGradient id="未命名漸層_883-22" x1="226.37" y1="377.55" x2="221.07" y2="335.54" xlink:href="#未命名漸層_883"/><linearGradient id="未命名漸層_1503-15" x1="210.69" y1="306" x2="202.58" y2="333.06" xlink:href="#未命名漸層_1503"/></defs><g class="cls-1"><g id="圖層_2" data-name="圖層 2"><g id="圖層_1-2" data-name="圖層 1"><path class="cls-2" d="M105.37,226.8c2.2,5.28-1.34,13.41-5.33,14.82s-11.36,4.81-23.32,5.85a18.75,18.75,0,0,1-2.22-4.62c20.75-.81,31.86-8.94,30.87-16Z"/><path class="cls-3" d="M105.18,229.42c-1,3.69-5,7.37-11.76,10h0a46.68,46.68,0,0,1-5.4,1.66h0a67.72,67.72,0,0,1-13.48,1.8,22.62,22.62,0,0,1,.93-15.22,76.63,76.63,0,0,0,14.17-4.16c4.23-1.24,7.5-1.48,10-1C101.27,224.78,103.14,227.13,105.18,229.42Z"/><path class="cls-4" d="M76.72,247.47a83.92,83.92,0,0,1-12.88.11,24,24,0,0,1-2.55-5.16,99.26,99.26,0,0,0,13.21.43A18.75,18.75,0,0,0,76.72,247.47Z"/><path class="cls-5" d="M75.43,227.63a22.62,22.62,0,0,0-.93,15.22,99.26,99.26,0,0,1-13.21-.43c-2.89-8.62,2.65-13.25,2.94-13.49A71.59,71.59,0,0,0,75.43,227.63Z"/><path class="cls-6" d="M54,130.6c1.38,5.16,0,13.09-5.77,20.9a10,10,0,0,0-3-5.34A37.27,37.27,0,0,0,54,130.6Z"/><path class="cls-7" d="M61.29,242.42a24,24,0,0,0,2.55,5.16A114.36,114.36,0,0,1,42.25,244a16.63,16.63,0,0,1-.73-5.12c3,.8,6.26,1.54,9.79,2.18S58.12,242.11,61.29,242.42Z"/><path class="cls-8" d="M64.23,228.93c-.29.24-5.83,4.87-2.94,13.49q-4.76-.46-10-1.39c-3.53-.64-6.78-1.38-9.79-2.18.19-8,7-11.88,7-11.88A48.28,48.28,0,0,0,64.23,228.93Z"/><path class="cls-9" d="M49.2,125c2.28.56,4,2.61,4.75,5.58a37.27,37.27,0,0,1-8.8,15.56,27.66,27.66,0,0,0-4.7-3.36,14.32,14.32,0,0,0-12.59-1.12,30.91,30.91,0,0,0,3.1-4C37.7,127.23,41.53,123.16,49.2,125Z"/><path class="cls-10" d="M48.18,151.5l-5.65-2.72c.95-.87,1.82-1.75,2.62-2.62A10,10,0,0,1,48.18,151.5Z"/><path class="cls-11" d="M42.53,148.78l5.65,2.72a44.32,44.32,0,0,1-8.26,8.4l-3.05,2.43a25.88,25.88,0,0,0-4.07-6.73c.52-.33,1.07-.65,1.62-1A43.74,43.74,0,0,0,42.53,148.78Z"/><path class="cls-12" d="M45.15,146.16c-.8.87-1.67,1.75-2.62,2.62l-14.69-7.09h0a14.32,14.32,0,0,1,12.59,1.12A27.66,27.66,0,0,1,45.15,146.16Z"/><path class="cls-13" d="M27.84,141.69l14.69,7.09a43.74,43.74,0,0,1-8.11,5.85c-.55.32-1.1.64-1.62,1-.37-.47-.77-.95-1.2-1.45-6.68-7.05-13.19-3-13.19-3C21.87,147.63,25.22,144.6,27.84,141.69Z"/><path class="cls-14" d="M36.87,162.33h0a98.72,98.72,0,0,0-8.9,7.92h0c0-.08-.26-2.77-4.88-6.33a40.38,40.38,0,0,1,9.71-8.32A25.88,25.88,0,0,1,36.87,162.33Z"/><path class="cls-15" d="M42.25,244,41,243.64a57.25,57.25,0,0,1-11.34-4.4,16.7,16.7,0,0,1-.2-4.51,91.52,91.52,0,0,0,12.05,4.12A16.63,16.63,0,0,0,42.25,244Z"/><path class="cls-16" d="M48.5,227s-6.79,3.85-7,11.88a91.52,91.52,0,0,1-12.05-4.12c.85-9,9.3-12.49,9.3-12.49A34.89,34.89,0,0,0,48.5,227Z"/><path class="cls-17" d="M31.6,154.15c.43.5.83,1,1.2,1.45a40.38,40.38,0,0,0-9.71,8.32c-.53-.42-1.12-.84-1.77-1.27C15.1,158.54,10,161,9.71,161.16a81.46,81.46,0,0,1,8.7-10S24.92,147.1,31.6,154.15Z"/><path class="cls-18" d="M32.34,216.38a34.11,34.11,0,0,0,6.43,5.86s-8.45,3.52-9.3,12.49c-9.69-4.11-15.29-8.82-18.32-12.13,5-10.88,18.1-9.34,18.69-9.27h0C30.63,214.33,31.46,215.34,32.34,216.38Z"/><path class="cls-19" d="M28,170.25h0A33.54,33.54,0,0,0,20.55,181a14.19,14.19,0,0,0-4.26-3.41,30.61,30.61,0,0,1,6.8-13.71C27.71,167.48,28,170.17,28,170.25Z"/><path class="cls-20" d="M29.47,234.73a16.7,16.7,0,0,0,.2,4.51A52.8,52.8,0,0,1,11,223a3.39,3.39,0,0,1,.18-.39C14.18,225.91,19.78,230.62,29.47,234.73Z"/><path class="cls-21" d="M29.84,213.33c-.59-.07-13.65-1.61-18.69,9.27a24.5,24.5,0,0,1-2.49-3.11v0c-.22-.35-.43-.71-.63-1.06H8a57.9,57.9,0,0,1-4.16-8.86c7.5-8.43,19.84-4.64,20.28-4.51A73.23,73.23,0,0,0,29.84,213.33Z"/><path class="cls-22" d="M21.32,162.65c.65.43,1.24.85,1.77,1.27a30.61,30.61,0,0,0-6.8,13.71c-6.85-3.51-14.39.3-14.68.44a50.56,50.56,0,0,1,8.08-16.9h0C10,161,15.1,158.54,21.32,162.65Z"/><path class="cls-23" d="M20.55,197.41A41.84,41.84,0,0,0,24.13,205c-.44-.13-12.78-3.92-20.28,4.51A58.19,58.19,0,0,1,.23,191.42s6.46-2.65,17.5.77A28.62,28.62,0,0,0,20.55,197.41Z"/><path class="cls-24" d="M19.35,192.72a29.69,29.69,0,0,0,1.2,4.69,28.62,28.62,0,0,1-2.82-5.22C18.26,192.35,18.79,192.53,19.35,192.72Z"/><path class="cls-25" d="M20.55,181a21.5,21.5,0,0,0-1.2,11.68c-.56-.19-1.09-.37-1.62-.53a24.85,24.85,0,0,1-1.44-14.56A14.19,14.19,0,0,1,20.55,181Z"/><path class="cls-26" d="M16.29,177.63a24.85,24.85,0,0,0,1.44,14.56c-11-3.42-17.5-.77-17.5-.77A46.44,46.44,0,0,1,1.6,178.08h0C1.9,177.93,9.44,174.12,16.29,177.63Z"/><path class="cls-27" d="M11.15,222.6A3.39,3.39,0,0,0,11,223c-.82-1.14-1.59-2.31-2.31-3.5A24.5,24.5,0,0,0,11.15,222.6Z"/><path class="cls-28" d="M8.66,219.49c.72,1.19,1.49,2.36,2.31,3.5a52.8,52.8,0,0,0,18.7,16.25A57.25,57.25,0,0,0,41,243.64l1.24.33a114.36,114.36,0,0,0,21.59,3.61,83.92,83.92,0,0,0,12.88-.11c12-1,19.42-4.48,23.32-5.85s7.53-9.54,5.33-14.82c-1.58-3.82-6.17-6.14-15.77-3.33a75.71,75.71,0,0,1-14.17,4.16,71.59,71.59,0,0,1-11.2,1.3,48.28,48.28,0,0,1-15.73-2,34.89,34.89,0,0,1-9.73-4.73,34.11,34.11,0,0,1-6.43-5.86c-.88-1-1.71-2-2.49-3"/><path class="cls-28" d="M8,218.41c.2.35.41.71.63,1.06"/><path class="cls-28" d="M1.6,178.08A46.44,46.44,0,0,0,.23,191.42,58.64,58.64,0,0,0,8,218.4"/><path class="cls-28" d="M9.69,161.17a50.56,50.56,0,0,0-8.08,16.9"/><path class="cls-28" d="M36.87,162.33l3.05-2.43a44.32,44.32,0,0,0,8.26-8.4c5.8-7.81,7.15-15.74,5.77-20.9-.77-3-2.47-5-4.75-5.58-7.67-1.86-11.5,2.21-18.24,12.7a30.91,30.91,0,0,1-3.1,4h0c-2.62,2.91-6,5.94-9.43,9.42a81.46,81.46,0,0,0-8.7,10"/><path class="cls-28" d="M29.84,213.33a73.23,73.23,0,0,1-5.71-8.3,41.84,41.84,0,0,1-3.58-7.62,29.69,29.69,0,0,1-1.2-4.69A21.5,21.5,0,0,1,20.55,181,33.54,33.54,0,0,1,28,170.26a98.72,98.72,0,0,1,8.9-7.92"/><path class="cls-28" d="M18.41,151.11s6.51-4,13.19,3c.43.5.83,1,1.2,1.45a25.88,25.88,0,0,1,4.07,6.73h0"/><path class="cls-28" d="M9.69,161.17h0c.3-.16,5.39-2.62,11.61,1.49.65.43,1.24.85,1.77,1.27,4.62,3.56,4.88,6.25,4.88,6.33"/><path class="cls-28" d="M1.6,178.08h0c.29-.14,7.83-3.95,14.68-.44A14.19,14.19,0,0,1,20.55,181"/><path class="cls-28" d="M.23,191.42s6.46-2.65,17.5.77c.53.16,1.06.34,1.62.53h0"/><path class="cls-28" d="M24.14,205h0c-.44-.13-12.78-3.92-20.28,4.51"/><path class="cls-28" d="M29.86,213.33h0c-.59-.07-13.65-1.61-18.69,9.27A3.39,3.39,0,0,0,11,223"/><path class="cls-28" d="M38.77,222.24s-8.45,3.52-9.3,12.49a16.7,16.7,0,0,0,.2,4.51"/><path class="cls-28" d="M48.5,227s-6.79,3.85-7,11.88a16.63,16.63,0,0,0,.73,5.12"/><path class="cls-28" d="M64.24,228.92a0,0,0,0,0,0,0c-.29.24-5.83,4.87-2.94,13.49a24,24,0,0,0,2.55,5.16h0"/><path class="cls-28" d="M75.44,227.62h0a22.62,22.62,0,0,0-.93,15.22,18.75,18.75,0,0,0,2.22,4.62h0"/><path class="cls-29" d="M310.69,59.71a0,0,0,0,0,0,0c-.52,6.4-3.45,12.92-6,17.46A56.53,56.53,0,0,0,310.69,59.71Z"/><path class="cls-29" d="M310.69,59.71A71.8,71.8,0,0,1,301.2,72a18.83,18.83,0,0,0-1.48-3.64c-4.13-7.75-13.42-12.21-13.42-12.21.22,0,.45,0,.69,0a79,79,0,0,1,12.48,1.43l.52.1.76.16c7.18,1.5,9.47,1.81,9.88,1.86h.07A0,0,0,0,1,310.69,59.71Z"/><path class="cls-29" d="M301.2,72a71.8,71.8,0,0,0,9.49-12.28,56.53,56.53,0,0,1-5.95,17.44l-.12.23c-1.41,2.53-2.67,4.42-3.28,5.3l-.36.5h0A18.54,18.54,0,0,0,301.2,72Z"/><path class="cls-29" d="M310.63,59.68c-.41,0-2.7-.36-9.88-1.86C304,58.46,309.93,59.56,310.63,59.68Z"/><path class="cls-30" d="M301.2,72a18.54,18.54,0,0,1-.23,11.2h0c-12.63,17.66-32,23.39-32,23.39a48.68,48.68,0,0,1-10-12.23C278.71,91.88,292.77,80.92,301.2,72Z"/><path class="cls-31" d="M300,57.66l-.52-.1Z"/><path class="cls-31" d="M304.62,77.38a52.56,52.56,0,0,1-3.28,5.3C302,81.8,303.21,79.91,304.62,77.38Z"/><path class="cls-31" d="M301,83.18s0,0,0,0h0Z"/><path class="cls-31" d="M296.72,57l2.75.6A79,79,0,0,0,287,56.13,47.92,47.92,0,0,1,296.72,57Z"/><path class="cls-32" d="M250.76,63.81c10.17-5.11,24.57-7.58,35.54-7.67,0,0,9.29,4.46,13.42,12.21A18.83,18.83,0,0,1,301.2,72c-8.43,8.93-22.49,19.89-42.21,22.38A64.19,64.19,0,0,1,250.76,63.81Z"/><path class="cls-33" d="M310.42,59.86l-10.95-2.3-2.75-.6a47.92,47.92,0,0,0-9.73-.83"/><path class="cls-33" d="M301.34,82.68c1.17-1.66,2.64-4.63,3.65-6.5"/><path class="cls-33" d="M301,83.2s0,0,0,0"/><path class="cls-33" d="M287,56.13c-11,.1-26.06,2.57-36.23,7.68A64.19,64.19,0,0,0,259,94.37"/><path class="cls-33" d="M259,94.37a48.68,48.68,0,0,0,10,12.23s19.73-6.26,32.36-23.92l-.37.52"/><path class="cls-34" d="M144,48.22a64.86,64.86,0,0,1-13.48,23.93A76.78,76.78,0,0,1,94.78,37.86a10.86,10.86,0,0,1,3.64-3.56c6.85-3.93,8.72-4.61,14.75-4h0C123.34,33.45,135.94,39.72,144,48.22Z"/><path class="cls-35" d="M130.51,72.15a45.85,45.85,0,0,1-17.14,12.07S96.67,72,91,50.52a.25.25,0,0,0,0,.09s.32-7.57,3.75-12.75A76.78,76.78,0,0,0,130.51,72.15Z"/><path class="cls-29" d="M113.17,30.26c-6-.57-7.9.11-14.75,4a10.86,10.86,0,0,0-3.64,3.56A57,57,0,0,1,90.07,26a.42.42,0,0,0,.13,0,56.42,56.42,0,0,0,9.35,1.51s0,0,0,0l4.5.63h.05C108.28,28.93,112.78,30.15,113.17,30.26Z"/><path class="cls-31" d="M113.17,30.26c-.39-.11-4.89-1.33-9-2.13A54.15,54.15,0,0,1,113.17,30.26Z"/><path class="cls-29" d="M104.1,28.13l-4.5-.63A35.93,35.93,0,0,1,104.1,28.13Z"/><path class="cls-31" d="M99.55,27.5A56.42,56.42,0,0,1,90.2,26C90.72,26.11,93,26.57,99.55,27.5Z"/><path class="cls-29" d="M94.78,37.86C91.35,43,91,50.61,91,50.61a.25.25,0,0,1,0-.09,56.08,56.08,0,0,1-1.74-17.79c0-.44.06-.86.1-1.27.16-1.74.35-3.18.5-4.15,0-.13,0-.25.05-.36.1-.64.17-1,.17-1A57,57,0,0,0,94.78,37.86Z"/><path class="cls-31" d="M89.85,27.31c0-.11,0-.23.05-.36C89.89,27.06,89.87,27.18,89.85,27.31Z"/><path class="cls-31" d="M89.35,31.46c.11-1.36.28-2.74.5-4.15C89.7,28.28,89.51,29.72,89.35,31.46Z"/><path class="cls-29" d="M89.25,32.73A56.08,56.08,0,0,0,91,50.52C88.92,44.84,88.88,37.81,89.25,32.73Z"/><path class="cls-33" d="M99.55,27.5a115.07,115.07,0,0,1,13.62,2.76"/><path class="cls-33" d="M90.2,26c.52.12,2.78.58,9.35,1.51"/><path class="cls-33" d="M89.4,33.62c.1-1.35.23-4.9.45-6.31,0-.11.34-1.19.35-1.32"/><path class="cls-33" d="M130.51,72.15a45.85,45.85,0,0,1-17.14,12.07S95.27,72.08,90,45.76"/><path class="cls-33" d="M130.51,72.15A64.86,64.86,0,0,0,144,48.22c-8.05-8.5-20.65-14.77-30.79-18h0"/><path class="cls-36" d="M131.31,254c2.74,9.17-3,21-18.09,30.27-8.22,5.06-15.93,10-23.56,13.84-.32-3.35-.74-6.44-1.28-9.29,2.56-1.09,5.13-2.31,7.68-3.65.31.88.39,1.23.39,1.23s0-.52,0-1.43C109.81,277.85,122.68,267.54,131.31,254Z"/><path class="cls-37" d="M99.32,248.89c6.87,10.22,6.18,26.65,6.18,26.65a62.74,62.74,0,0,0-5.36-15.13c-6.32-14-23.91-16.48-23.91-16.48l.34-.13c1.76-.63,6.57-2.15,7.53-2.47l.18-.05.23-.06h0C85.93,240.89,93.15,239.71,99.32,248.89Z"/><path class="cls-37" d="M96.06,285.13l.38-.2c0,.91,0,1.43,0,1.43S96.37,286,96.06,285.13Z"/><path class="cls-38" d="M89.78,270.39c4,8.51,5.62,12.85,6.28,14.74-2.55,1.34-5.12,2.56-7.68,3.65C80.63,246.55,52,255.94,51,256.26c.87-.56,1.75-1.09,2.65-1.57q2.76-1.51,5.67-3S79,248.09,89.78,270.39Z"/><path class="cls-37" d="M84.51,241.22l-.23.06Z"/><path class="cls-39" d="M88.38,288.78c.54,2.85,1,5.94,1.28,9.29a76.47,76.47,0,0,1-18.74,7,34.46,34.46,0,0,1-3.52-9.66A102.65,102.65,0,0,0,88.38,288.78Z"/><path class="cls-31" d="M84.1,241.33c-1,.32-5.77,1.84-7.53,2.47C79,242.88,81.56,242,84.1,241.33Z"/><path class="cls-40" d="M76.23,243.93s17.59,2.44,23.91,16.48a62.74,62.74,0,0,1,5.36,15.13s.69-16.43-6.18-26.65c-6.17-9.18-13.39-8-14.8-7.67,10.76-2.93,22.09-3.61,33.56.43,7.18,2.52,11.64,7,13.23,12.31-8.63,13.58-21.5,23.89-34.87,31-.13-4.49-1-18.52-6.5-27.59C83.61,247,71.81,246.27,70.61,246.22q2.94-1.28,6-2.42Z"/><path class="cls-37" d="M70.51,246.22h.1l-1.13.5Z"/><path class="cls-41" d="M70.92,305.06h0a50.38,50.38,0,0,1-9.75,1.09,33.22,33.22,0,0,1-.06-9.79c2-.22,4.12-.54,6.31-1A34.46,34.46,0,0,0,70.92,305.06Z"/><path class="cls-42" d="M88.38,288.78a102.65,102.65,0,0,1-21,6.62,48.06,48.06,0,0,1-1.1-10.09c-3.22,3.07-4.64,7.24-5.21,11.06a54,54,0,0,1-7.33.34c-.87,0-1.71-.07-2.52-.13a35.78,35.78,0,0,1,3-13.38c-5.32,2.95-7.87,8.14-9.1,12.5a27.2,27.2,0,0,1-6.74-2.39,33,33,0,0,1,3.88-11c-4.81.69-7.05,4.57-8.1,7.94a11,11,0,0,1-3.24-5.15c1-10.48,10-22.34,20.06-28.87h0C52,255.94,80.63,246.55,88.38,288.78Z"/><path class="cls-43" d="M66.3,285.31a48.06,48.06,0,0,0,1.1,10.09c-2.19.43-4.3.75-6.31,1C61.66,292.55,63.08,288.38,66.3,285.31Z"/><path class="cls-31" d="M61.15,306.16a50.38,50.38,0,0,0,9.75-1.09A27.8,27.8,0,0,1,61.15,306.16Z"/><path class="cls-31" d="M69.48,246.72l-10.14,4.95C62.61,250,66,248.28,69.48,246.72Z"/><path class="cls-37" d="M59.34,251.67l10.14-4.95,1.13-.5c1.2.05,13,.77,19.33,11.12,5.55,9.07,6.37,23.1,6.5,27.59l-.38.2c-.66-1.89-2.33-6.23-6.28-14.74C79,248.09,59.34,251.67,59.34,251.67Z"/><path class="cls-44" d="M53.76,296.71a54,54,0,0,0,7.33-.34,33.22,33.22,0,0,0,.06,9.79,48.37,48.37,0,0,1-8.48-.68h0a24,24,0,0,1-1.43-8.89C52.05,296.64,52.89,296.69,53.76,296.71Z"/><path class="cls-31" d="M52.67,305.47h0Z"/><path class="cls-45" d="M52.67,305.47h0l-.13,0-.25-.05c-.81-.17-2.73-.56-4.65-1.06l-.36-.1c-1.08-.3-2.16-.64-3.26-1a29.86,29.86,0,0,1,1.13-7.51,41.65,41.65,0,0,0,6.11.88A24,24,0,0,0,52.67,305.47Z"/><path class="cls-31" d="M52.52,305.45a1.23,1.23,0,0,1-.25-.05Z"/><path class="cls-46" d="M54.23,283.2a35.78,35.78,0,0,0-3,13.38,41.65,41.65,0,0,1-6.11-.88C46.36,291.34,48.91,286.15,54.23,283.2Z"/><path class="cls-31" d="M47.62,304.34c1.92.5,3.84.89,4.65,1.06C50.74,305.13,49.19,304.78,47.62,304.34Z"/><path class="cls-31" d="M44,303.21c1.1.39,2.18.73,3.26,1A28.86,28.86,0,0,1,44,303.21Z"/><path class="cls-47" d="M45.13,295.7A29.86,29.86,0,0,0,44,303.21a27,27,0,0,1-5.26-2.46,17.87,17.87,0,0,1-.35-7.44A27.2,27.2,0,0,0,45.13,295.7Z"/><path class="cls-48" d="M42.27,282.35a33,33,0,0,0-3.88,11,17.74,17.74,0,0,1-4.22-3C35.22,286.92,37.46,283,42.27,282.35Z"/><path class="cls-49" d="M38.74,300.75a.11.11,0,0,0-.05,0,35,35,0,0,1-4.9-4.4s0,0,0,0l-.49-.69,0-.08a21.09,21.09,0,0,1,.92-5.24,17.74,17.74,0,0,0,4.22,3A17.87,17.87,0,0,0,38.74,300.75Z"/><path class="cls-31" d="M33.79,296.31a35,35,0,0,0,4.9,4.4A17.42,17.42,0,0,1,33.79,296.31Z"/><path class="cls-31" d="M33.3,295.61l.49.69A5.24,5.24,0,0,1,33.3,295.61Z"/><path class="cls-50" d="M34.17,290.29a21.09,21.09,0,0,0-.92,5.24,16,16,0,0,1-2.32-10.39A11,11,0,0,0,34.17,290.29Z"/><path class="cls-28" d="M70.92,305.06a76.47,76.47,0,0,0,18.74-7c7.63-3.88,15.34-8.78,23.56-13.84,15.07-9.28,20.83-21.1,18.09-30.27-1.59-5.35-6-9.79-13.23-12.31-11.47-4-22.8-3.36-33.56-.43"/><path class="cls-28" d="M52.67,305.48a48.37,48.37,0,0,0,8.48.68"/><path class="cls-28" d="M47.62,304.34c1.57.44,3.12.79,4.65,1.06a1.23,1.23,0,0,0,.25.05"/><path class="cls-28" d="M38.74,300.75A27,27,0,0,0,44,303.21"/><path class="cls-28" d="M33.79,296.31a17.42,17.42,0,0,0,4.9,4.4"/><path class="cls-28" d="M51,256.27c-10.08,6.53-19.08,18.39-20.06,28.87a16,16,0,0,0,2.32,10.39"/><path class="cls-28" d="M69.48,246.72c-3.48,1.56-6.87,3.24-10.14,4.95q-2.91,1.5-5.67,3c-.9.48-1.78,1-2.65,1.57"/><path class="cls-28" d="M84.52,241.22c-2.54.71-5.48,1.66-8,2.58q-3,1.14-6,2.42"/><path class="cls-28" d="M61.15,306.16a33.22,33.22,0,0,1-.06-9.79c.57-3.82,2-8,5.21-11.06a48.06,48.06,0,0,0,1.1,10.09,34.46,34.46,0,0,0,3.52,9.66h0A27.8,27.8,0,0,1,61.15,306.16Z"/><path class="cls-28" d="M44,303.21a29.86,29.86,0,0,1,1.13-7.51c1.23-4.36,3.78-9.55,9.1-12.5a35.78,35.78,0,0,0-3,13.38,24,24,0,0,0,1.43,8.89h0l-.13,0-.25-.05c-.81-.17-2.73-.56-4.65-1.06l-.36-.1A28.86,28.86,0,0,1,44,303.21Z"/><path class="cls-28" d="M33.25,295.53a21.09,21.09,0,0,1,.92-5.24c1-3.37,3.29-7.25,8.1-7.94a33,33,0,0,0-3.88,11,17.87,17.87,0,0,0,.35,7.44.11.11,0,0,0-.05,0,35,35,0,0,1-4.9-4.4s0,0,0,0a5.24,5.24,0,0,1-.49-.69Z"/><path class="cls-28" d="M51,256.27h0c.95-.32,29.61-9.71,37.36,32.52.54,2.85,1,5.94,1.28,9.29"/><path class="cls-51" d="M118.24,90a26.1,26.1,0,0,1-.48,6.28c-3.82,9.13-10.61,13.87-20.55,14-.69,0-1.38,0-2.1,0-8.51-.38-14.08-3.51-17.72-7.6-7.56-8.48-6.84-21.07-6.79-21.71a24.63,24.63,0,0,1,43-4.57A25.44,25.44,0,0,1,118.24,90Z"/><path class="cls-52" d="M104.22,126.79a25.66,25.66,0,0,1-.11,3.93c-4.94,12.48-16,15.79-22.52,15.63C58,145.53,55.53,121.7,55.46,121a25.07,25.07,0,0,1,16.4-17.21,25.06,25.06,0,0,0,10.66,10.14h0A23.44,23.44,0,0,0,86,115.29a24.22,24.22,0,0,0,8.58,1.14l.75,0a24.64,24.64,0,0,0,4.9-.88l.72-.22A25.39,25.39,0,0,1,104.22,126.79Z"/><path class="cls-31" d="M82.53,113.88A11.14,11.14,0,0,1,86,115.29,22.39,22.39,0,0,1,82.53,113.88Z"/><path class="cls-53" d="M104.11,130.72a24.84,24.84,0,0,1-49.57-1.66,25.89,25.89,0,0,1,.92-8.11c.07.75,2.55,24.58,26.13,25.4C88.16,146.51,99.17,143.2,104.11,130.72Z"/><path class="cls-54" d="M117.76,96.25a25.2,25.2,0,0,1-16.84,19l-.72.22a24.64,24.64,0,0,1-4.9.88l-.75,0A24.22,24.22,0,0,1,86,115.29a11,11,0,0,0-3.44-1.41h0a25.06,25.06,0,0,1-10.66-10.14,25.74,25.74,0,0,1-1.26-22.8c0,.64-.77,13.23,6.79,21.71,3.64,4.09,9.21,7.22,17.72,7.6.72,0,1.41,0,2.1,0C107.15,110.12,113.94,105.38,117.76,96.25Z"/><path class="cls-33" d="M71.85,103.74A25.1,25.1,0,0,0,55.46,121a25.57,25.57,0,0,0-.92,8.1,24.84,24.84,0,0,0,49.57,1.67,27,27,0,0,0,.11-3.93,25.66,25.66,0,0,0-3.3-11.51"/><path class="cls-33" d="M86,115.29a7.38,7.38,0,0,1,3.54,5.4,8.83,8.83,0,0,1-.35,3.7c-1.67,4.68-6.32,4.64-9.4,3.56"/><path class="cls-33" d="M100.19,115.51c1.37,6.08,3.3,22.2-13.5,24.77C69,143,63.52,125.87,72.32,116.54c2.52-2.67,6.63-3.47,10.2-2.66"/><path class="cls-33" d="M70.6,80.94a25.77,25.77,0,0,0,1.25,22.8,25.14,25.14,0,0,0,10.67,10.14s0,0,0,0A22.39,22.39,0,0,0,86,115.29a24.22,24.22,0,0,0,8.58,1.14l.74,0a25.1,25.1,0,0,0,4.9-.88l.73-.23a25.16,25.16,0,0,0,16.84-19,26.58,26.58,0,0,0,.48-6.28,25.47,25.47,0,0,0-4.64-13.6,24.62,24.62,0,0,0-43,4.57Z"/><path class="cls-33" d="M113.6,76.37s7.89,23.91-12.9,27.09c-17.65,2.7-23.17-14.41-14.36-23.74,5.78-6.12,19.85-2.39,16.83,7.85-1.66,4.68-6.31,4.64-9.4,3.56"/><path class="cls-55" d="M55.46,120.94h0c.07.74,2.55,24.58,26.13,25.4a23.81,23.81,0,0,0,22.52-15.63,0,0,0,0,1,0,0"/><path class="cls-56" d="M308.34,128.31a25.49,25.49,0,0,1-7.06,9.67,25.14,25.14,0,0,1-13.47,5.88,10.93,10.93,0,0,0-3.75.14,24.3,24.3,0,0,1-8.45-1.86,24,24,0,0,1-5-2.8l-.6-.45a25.06,25.06,0,0,1-9.58-20.26c.06.38,1.9,13.21,14.13,17.15,3.84,1.25,8.72,1.62,14.89.44a25.23,25.23,0,0,0,5.63-1.73c18.06-8.08,7.32-34,7-34.79A25.28,25.28,0,0,1,308.34,128.31Z"/><path class="cls-57" d="M308.87,167.69c-5.4,12.92-20.06,19.12-32.73,13.84A24.89,24.89,0,0,1,261,157.24c0,.08,0,.22,0,.39.24,3.54,2.65,25.39,27,19.39l.16,0,.51-.11c24.5-6,17.69-31,16.5-34.82a2.56,2.56,0,0,0-.16-.46A25.37,25.37,0,0,1,308.87,167.69Z"/><path class="cls-58" d="M295.09,134.49a25.23,25.23,0,0,1-5.63,1.73c-6.17,1.18-11,.81-14.89-.44-12.23-3.94-14.07-16.77-14.13-17.15h0a25.86,25.86,0,0,1,11-20.63h0a24.76,24.76,0,0,1,23.71-2.64,24,24,0,0,1,6.89,4.34,0,0,0,0,1,0,0C302.41,100.49,313.15,126.41,295.09,134.49Z"/><path class="cls-59" d="M288.68,176.87l-.51.11c23.87-6,18.33-30.21,17.07-34.7C306.61,146.76,312.73,171,288.68,176.87Z"/><path class="cls-60" d="M288.17,177c-23.88,5.59-26.86-15.85-27.15-19.35,0-.17,0-.3,0-.39v-.09a25.71,25.71,0,0,1,2-8.59,25.34,25.34,0,0,1,7-9.67l.6.45a24,24,0,0,0,5,2.8,24.3,24.3,0,0,0,8.45,1.86,22.33,22.33,0,0,0,3.75-.14A25.14,25.14,0,0,0,301.28,138a22.86,22.86,0,0,1,3.74,3.61,2.56,2.56,0,0,1,.16.46l.06.23C306.5,146.77,312,171,288.17,177Z"/><path class="cls-31" d="M287.81,143.86a22.37,22.37,0,0,1-3.75.14A11.18,11.18,0,0,1,287.81,143.86Z"/><path class="cls-55" d="M261,157.63c.24,3.54,2.65,25.39,27,19.39l.16,0c24.31-6.11,18.12-31.12,17-34.92"/><path class="cls-33" d="M261,157.25c0,.07,0,.21,0,.38"/><path class="cls-33" d="M301.28,138a23.32,23.32,0,0,1,3.75,3.61,25.39,25.39,0,0,1,3.84,26.1c-5.4,12.92-20.06,19.12-32.73,13.83A24.86,24.86,0,0,1,261,157.25"/><path class="cls-33" d="M261,157.15a26.13,26.13,0,0,1,2-8.59,25.63,25.63,0,0,1,7-9.67"/><path class="cls-33" d="M284.06,144c-3.22.72-5.83,3.08-6.12,7.46,0,5,4.35,6.52,7.62,6.56"/><path class="cls-33" d="M270.62,139.34c-3.37,5.25-10.71,19.73,4.19,27.9,15.66,8.57,26.71-5.61,21.64-17.38-1.44-3.37-5-5.52-8.64-6"/><path class="cls-33" d="M302.08,99.7a25.29,25.29,0,0,1,6.26,28.61,25.57,25.57,0,0,1-7.06,9.67,25.14,25.14,0,0,1-13.47,5.88,22.37,22.37,0,0,1-3.75.14,24.49,24.49,0,0,1-13.44-4.66c-.21-.14-.4-.29-.6-.45a25,25,0,0,1-9.57-20.26"/><path class="cls-33" d="M271.46,98a24.76,24.76,0,0,1,23.71-2.64,24.17,24.17,0,0,1,6.9,4.34"/><path class="cls-33" d="M260.45,118.62a25.34,25.34,0,0,1,2-9.44,25.67,25.67,0,0,1,9-11.19"/><path class="cls-33" d="M271.46,98h0c-.46.59-15.33,19.91,2.83,29.86a19,19,0,0,0,9.92,2.61c10-.41,15.63-10.92,11.73-20-3.33-7.74-17.84-9-18.51,1.61,0,5,4.34,6.51,7.61,6.56"/><path class="cls-55" d="M305,141.57v0s.07.21.15.47c1.19,3.79,8,28.77-16.5,34.81l-.51.11c-23.88,5.59-26.85-15.85-27.15-19.35,0-.17,0-.3,0-.38v-.1"/><path class="cls-61" d="M261.16,163.94c18.25-19.13,53.13-9.19,56,3.43,0,0-3.81,47.54-54.61,40.87C262.52,208.24,242.91,183.08,261.16,163.94Z"/><path class="cls-62" d="M317.13,167.37s-3.81,47.54-54.61,40.87c0,0-19.61-25.16-1.36-44.3S314.29,154.75,317.13,167.37Z"/><path class="cls-63" d="M265,160.52s7.8,19,32.63,22.82c0,0-26.49,3.78-38.86-16.56C258.76,166.78,262.05,162.34,265,160.52Z"/><path class="cls-64" d="M254.7,175.68a52,52,0,0,0,34.91,18.07s-16.32,3.09-35.66-9.14A48.13,48.13,0,0,1,254.7,175.68Z"/><path class="cls-65" d="M89.12,144.45l.25.11c.6-2.42,1.23-4.88,1.91-7.38.38,0,.79.11,1.25.2a40.94,40.94,0,0,0-3.48-2.22,45.44,45.44,0,0,0-21.88-6,30.32,30.32,0,0,0-5.34.4c-4.26.71-7.67,2.34-9.48,4.82,0,0-15,43.86,31.79,58.54-.27-.75-.52-1.47-.74-2.15a83,83,0,0,1-2.54-9.17c0-1.57.13-3.11.24-4.63C68.77,176.74,60.72,172,60.72,172c16.45,1.12,27-4.69,31.42-7.78-.9-2.31-1.71-4.49-2.42-6.48-18.21,6.69-32.76.6-32.76.6,15.46-1,25-7.36,29.35-11.14A24.22,24.22,0,0,0,89.12,144.45Zm7.55,30.41A51.63,51.63,0,0,1,84,177a55.12,55.12,0,0,0,8.73,12,47.63,47.63,0,0,0,7.25-7.34C98.82,179.38,97.71,177.11,96.67,174.86Z"/><path class="cls-66" d="M94.44,162.44c10,5.89,2.52,12.34,2.52,12.34-20.82,6.26-36.24-2.73-36.24-2.73C82.91,173.56,94.44,162.44,94.44,162.44Z"/><path class="cls-67" d="M89.12,144.45c10.68,4.52,4.12,11.9,4.12,11.9-19.81,8.92-36.28,2-36.28,2C79.15,157,89.12,144.45,89.12,144.45Z"/><path class="cls-28" d="M52.35,134.39s-15.41,45.15,33.87,59.16c0,0,28-15.32,18.86-40.12S60,123.92,52.35,134.39Z"/><path class="cls-29" d="M275.62,179.4v0A162.09,162.09,0,0,1,272.31,205a.31.31,0,0,1,0,.07c-1.25,1-2.5,1.94-3.72,2.81q1.29-6.52,2.23-13.18a86.62,86.62,0,0,0,4.81-15.26Z"/><path class="cls-68" d="M227.63,207c-12.84,13.46-28.35,22-57.89,19.1-20.73-2.05-32-14.72-40-25-8.93-11.42-12.73-24.86-16.5-39-5.57-20.82-17.1-24.42-21.93-25C104.2,90,133.54,31.69,180,30.44c-1.14,3.13-2.11,6.09-2.95,8.8A153.07,153.07,0,0,0,172.73,56a8.68,8.68,0,0,0,1.92,5.31c-.28.32-.57.67-.86,1h0c-4.81,6.14-10.78,18.12.86,31.28,6.81,7.13,24.29,13.46,24.95,13.69-.38-.46-8.22-9.91.21-16.87,8.21-6.79,23.41-12.45,12-28.87-.6-.86-1.27-1.75-2-2.68-.57-6.28-1.42-12.13-2.41-17.51-.56-3-1.17-5.92-1.81-8.64C241.85,40.28,258.67,65.4,266,89.22c5.21,17,8.4,43.82,7.55,72.65-14,1.63-23.14,17.59-29.47,24.76C241.47,189.58,235.94,198.3,227.63,207Zm18-46.2a13.3,13.3,0,1,0-16.06,9.79A13.28,13.28,0,0,0,245.59,160.82Zm-16.12-47.14c4.15-3.34,3.73-12.31,3.73-12.31a10.54,10.54,0,0,1-7.38,6.88,7.19,7.19,0,0,0-3.69-1.63c-5.44-.61-10.73,5.8-12.53,14.71l8.72,3.56L209,129.36c.43,7.89,3.94,14,8.87,14.58,6,.68,11.78-7.12,13-17.43A27.65,27.65,0,0,0,229.47,113.68ZM167,119.38c1.26-10.29-2.56-19.23-8.54-19.95a8,8,0,0,0-6.12,2.17,10.3,10.3,0,0,1-6.08-7.15s-1.05,8.14,2.24,12.07a28,28,0,0,0-2.69,7.51l8.69,3.63-9.34,4.39c.37,7.9,3.82,14,8.75,14.66C159.92,137.43,165.79,129.68,167,119.38Zm-15.48,31.73a13.3,13.3,0,1,0-16.05,9.8A13.28,13.28,0,0,0,151.56,151.11Z"/><path class="cls-29" d="M275.62,179.42A138.64,138.64,0,0,1,272.31,205,162.09,162.09,0,0,0,275.62,179.42Z"/><path class="cls-69" d="M275.61,179.41v0c-.15.3-1.45,3-3.76,6.89-5.68,9.61-17.51,26.47-33.17,32.26,0,0,9.71.9,23.13-6.45A99.35,99.35,0,0,1,241.94,235a40.22,40.22,0,0,0-8.14,2.88c4.81-19.91-5.78-30.43-6.17-30.82,8.32-8.72,13.84-17.45,16.45-20.39,6.33-7.17,15.51-23.13,29.47-24.76.64-.07,1.29-.12,2-.13A136.13,136.13,0,0,1,275.61,179.41Z"/><path class="cls-70" d="M275.61,179.43a86.62,86.62,0,0,1-4.81,15.26,110.93,110.93,0,0,1-9,17.44c-13.42,7.35-23.13,6.45-23.13,6.45,15.66-5.79,27.49-22.65,33.17-32.26C274.16,182.44,275.46,179.73,275.61,179.43Z"/><path class="cls-29" d="M270.8,194.69q-.93,6.65-2.23,13.18a69.29,69.29,0,0,1-6.76,4.26A111.79,111.79,0,0,0,270.8,194.69Z"/><path class="cls-71" d="M261.78,234.9c1.31-2.55,2.9-5.91,4.63-10.13A99.66,99.66,0,0,1,261.78,234.9Z"/><path class="cls-72" d="M266.55,224.41v0Z"/><path class="cls-73" d="M272.29,205.06a125.88,125.88,0,0,1-5.74,19.35h0c-.12.09-1.3.93-3.13,2.21-6.38,4.44-20.85,14.08-27.11,14.76l-1-1.35a98.24,98.24,0,0,0,26.47-27.9,69.29,69.29,0,0,0,6.76-4.26C269.8,207,271,206.08,272.29,205.06Z"/><path class="cls-29" d="M263.43,226.62c1.92-1.35,3.12-2.22,3.12-2.22A122.09,122.09,0,0,1,261.22,236c-.3.58-.59,1.11-.87,1.58-.6,1.06-1.23,2.12-1.88,3.16-.08.13-.14.22-.17.28l-.09.11a24.66,24.66,0,0,1-2.9.65A76.55,76.55,0,0,0,263.43,226.62Z"/><path class="cls-29" d="M258.47,240.71c.65-1,1.28-2.1,1.88-3.16C259.46,239.16,258.81,240.2,258.47,240.71Z"/><path class="cls-74" d="M258.21,241.1l.09-.11a74.77,74.77,0,0,1-46.55,33.79h0c1-1,1.88-2.09,2.77-3.12a78.89,78.89,0,0,0,40.79-29.9A24.66,24.66,0,0,0,258.21,241.1Z"/><path class="cls-29" d="M263.43,226.62a76.55,76.55,0,0,1-8.12,15.13c-8.32,1.37-19-.37-19-.37C242.57,240.7,257,231.06,263.43,226.62Z"/><path class="cls-75" d="M236.31,241.38s10.68,1.74,19,.37a78.89,78.89,0,0,1-40.79,29.9c9.87-11.4,15.38-21.35,18.14-29.81.92-.59,1.81-1.19,2.68-1.81Z"/><path class="cls-76" d="M235.78,144.79a13.28,13.28,0,1,1-16.05,9.79A13.28,13.28,0,0,1,235.78,144.79Z"/><path class="cls-29" d="M233.2,101.37s.42,9-3.73,12.31a27.65,27.65,0,0,1,1.37,12.83c-1.18,10.31-7,18.11-13,17.43-4.93-.57-8.44-6.69-8.87-14.58l9.31-4.47-8.72-3.56c1.8-8.91,7.09-15.32,12.53-14.71a7.19,7.19,0,0,1,3.69,1.63A10.54,10.54,0,0,0,233.2,101.37Z"/><path class="cls-77" d="M227.63,207c.42.41,12.39,12.32,5,34.82-13.4,8.71-30.82,15.18-53.37,16.49-28.42,1.65-48.92-6.88-63.59-18.8-3.41-26.46,14-38.38,14-38.38,8,10.25,19.35,22.51,40,25C196.36,229.28,214.79,220.48,227.63,207Z"/><path class="cls-78" d="M211.83,61.54c11.39,16.42-3.81,22.08-12,28.87-8.43,7-.59,16.41-.21,16.87-7.26-3.83-13.5-19.35.23-23.38,11.22-3.3,11-15.15,10.54-19.35a3.74,3.74,0,0,0-.22-1.5Z"/><path class="cls-79" d="M211.83,61.54l-1.68,1.51s.11.55.22,1.5c-.11,2.26-2.2,6.36-15.56,7.16-18.26,1.09-20.92-9-21-9.4h0c.29-.37.58-.72.86-1a10.2,10.2,0,0,0,1.23,1.37c2.28,2.18,6.21,4.22,13,5,8.61,1,13.89-1.36,17-3.86a13.29,13.29,0,0,0,3.94-4.89C210.56,59.79,211.23,60.68,211.83,61.54Z"/><path class="cls-80" d="M210.15,63.05a3.74,3.74,0,0,1,.22,1.5C210.26,63.6,210.15,63.05,210.15,63.05Z"/><path class="cls-81" d="M210.37,64.55c.46,4.2.68,16-10.54,19.35-13.73,4-7.49,19.55-.23,23.38-.66-.23-18.14-6.56-24.95-13.69C163,80.43,169,68.45,173.79,62.31c.1.38,2.76,10.49,21,9.4C208.17,70.91,210.26,66.81,210.37,64.55Z"/><path class="cls-82" d="M207.4,41.35c1,5.38,1.84,11.23,2.41,17.51a27.25,27.25,0,0,0-5.42-5.17c-.53-3.28-1.17-7.09-1.91-11A33.36,33.36,0,0,0,207.4,41.35Z"/><path class="cls-83" d="M205.59,32.71c.64,2.72,1.25,5.61,1.81,8.64a33.36,33.36,0,0,1-4.92,1.33C201.8,39,201,35.25,200.2,31.73,202,32,203.84,32.33,205.59,32.71Z"/><path class="cls-83" d="M204.87,29.78c.24.95.48,1.93.72,2.93-1.75-.38-3.55-.7-5.39-1-.07-.32-.15-.65-.23-1A36.6,36.6,0,0,0,204.87,29.78Z"/><path class="cls-82" d="M209.81,58.86a13.29,13.29,0,0,1-3.94,4.89s-.54-4.17-1.48-10.06A27.25,27.25,0,0,1,209.81,58.86Z"/><path class="cls-84" d="M204.39,53.69c.94,5.89,1.48,10.06,1.48,10.06-3.1,2.5-8.38,4.83-17,3.86-6.79-.76-10.72-2.8-13-5h0s.31-1.37.86-3.62c.67-.66,1.1-1,1.1-1S191,44.3,204.39,53.69Z"/><path class="cls-82" d="M194,.2s6.08,10.65,10.89,29.58a36.6,36.6,0,0,1-4.9,1c-2.06-8.58-4.47-15.47-6.88-15.48s-5.23,6.24-8,14.2a22.91,22.91,0,0,1-4.16-1.74A181.53,181.53,0,0,1,194,.2Z"/><path class="cls-84" d="M202.48,42.68c.74,3.92,1.38,7.73,1.91,11C191,44.3,177.85,58,177.85,58s-.43.35-1.1,1c1-4,2.69-10.87,4.73-18A42.59,42.59,0,0,0,202.48,42.68Z"/><path class="cls-85" d="M200.2,31.73c.83,3.52,1.6,7.28,2.28,11a42.59,42.59,0,0,1-21-1.65c1-3.58,2.15-7.22,3.29-10.59,1.82,0,3.6.11,5.34.22a33.54,33.54,0,0,0,4.82.4C196.73,31.24,198.48,31.47,200.2,31.73Z"/><path class="cls-85" d="M200,30.76c.08.32.16.65.23,1-1.72-.26-3.47-.49-5.27-.67A32.92,32.92,0,0,0,200,30.76Z"/><path class="cls-84" d="M200,30.76a32.92,32.92,0,0,1-5,.3c-1.57-.17-3.18-.3-4.82-.4a30.22,30.22,0,0,1-5-1.18c2.76-8,5.67-14.22,8-14.2S197.91,22.18,200,30.76Z"/><path class="cls-86" d="M232.66,241.84c-2.76,8.46-8.26,18.41-18.13,29.81-.89,1-1.82,2.07-2.78,3.12h0c-13.5,3.39-29.82,4.12-49.52,1.06-15.63-2.48-28.4-6.77-38.8-12.31-.81-1.63-1.55-3.24-2.23-4.81a71.66,71.66,0,0,1-5.5-19.19c14.67,11.92,35.17,20.45,63.59,18.8C201.84,257,219.26,250.55,232.66,241.84Z"/><path class="cls-31" d="M190.11,30.66c1.64.1,3.25.23,4.82.4A33.54,33.54,0,0,1,190.11,30.66Z"/><path class="cls-85" d="M190.11,30.66c-1.74-.11-3.52-.18-5.34-.22l.33-1A30.22,30.22,0,0,0,190.11,30.66Z"/><path class="cls-83" d="M185.1,29.48l-.33,1c-1.2,0-2.41,0-3.64,0l-1.18,0c.31-.88.65-1.79,1-2.7A22.91,22.91,0,0,0,185.1,29.48Z"/><path class="cls-83" d="M181.13,30.41c1.23,0,2.44,0,3.64,0-1.14,3.37-2.25,7-3.29,10.59A36.1,36.1,0,0,1,177,39.24c.84-2.71,1.81-5.67,2.95-8.8Z"/><path class="cls-82" d="M177,39.24A36.1,36.1,0,0,0,181.48,41c-2,7.1-3.77,13.95-4.73,18a28.35,28.35,0,0,0-2.1,2.26A8.68,8.68,0,0,1,172.73,56,153.07,153.07,0,0,1,177,39.24Z"/><path class="cls-82" d="M176.75,59c-.55,2.25-.86,3.62-.86,3.62h0a10.2,10.2,0,0,1-1.23-1.37A28.35,28.35,0,0,1,176.75,59Z"/><path class="cls-29" d="M158.5,99.43c6,.72,9.8,9.66,8.54,19.95s-7.12,18.05-13.09,17.33c-4.93-.61-8.38-6.76-8.75-14.66l9.34-4.39L145.85,114a28,28,0,0,1,2.69-7.51c-3.29-3.93-2.24-12.07-2.24-12.07a10.3,10.3,0,0,0,6.08,7.15A8,8,0,0,1,158.5,99.43Z"/><path class="cls-87" d="M141.75,135.09a13.28,13.28,0,1,1-16,9.8A13.28,13.28,0,0,1,141.75,135.09Z"/><path class="cls-88" d="M84,177a.85.85,0,0,1-.16,0c0-.08,0-.16,0-.24C83.93,176.79,84,176.87,84,177Z"/><path class="cls-89" d="M123.43,263.53C100,251.06,88.66,232.16,83.85,212.75a28,28,0,0,0,2.78,1.91A37.21,37.21,0,0,0,97.14,219a93.47,93.47,0,0,0,18.56,20.52,71.66,71.66,0,0,0,5.5,19.19C121.88,260.29,122.62,261.9,123.43,263.53Z"/><path class="cls-90" d="M107.9,220.32A41.27,41.27,0,0,1,97.14,219a111.61,111.61,0,0,1-8.06-14.14A50.47,50.47,0,0,0,107.9,220.32Z"/><path class="cls-91" d="M115.7,239.53a88.85,88.85,0,0,1-10.52-10.11c-2-2.29-3.91-4.64-5.63-7-.84-1.14-1.65-2.28-2.41-3.42a41.57,41.57,0,0,0,10.76,1.32,50.58,50.58,0,0,1-18.82-15.46,120.13,120.13,0,0,1-4.94-11.94c-.27-.75-.52-1.47-.74-2.15a83,83,0,0,1-2.54-9.17c0-1.57.13-3.11.24-4.63.12-1.81.28-3.59.45-5.32a49.78,49.78,0,0,0,2.34,5.05c0,.08,0,.16,0,.24a.85.85,0,0,0,.16,0,55.12,55.12,0,0,0,8.73,12,68.9,68.9,0,0,0,24.77,16.48c-6.92-5.93-12.79-14.78-17.52-23.82-1.19-2.26-2.3-4.53-3.34-6.78-1.71-3.68-3.22-7.27-4.53-10.6-.9-2.31-1.71-4.49-2.42-6.48-.8-2.26-1.47-4.28-2-5.95-.7-2.19-1.17-3.79-1.4-4.59a24.22,24.22,0,0,0,2.81-2.79l.25.11c.6-2.42,1.23-4.88,1.91-7.38.38,0,.79.11,1.25.2,5.34,1,15.54,5.61,20.68,24.81,3.77,14.1,7.57,27.53,16.5,39C129.71,201.15,112.29,213.07,115.7,239.53Z"/><path class="cls-92" d="M91.28,137.18c-.68,2.5-1.31,5-1.91,7.38l-.25-.11a24.22,24.22,0,0,1-2.81,2.79c-.09-.32-.14-.51-.16-.56h0c1.59-6,2.91-9.57,2.91-9.57A11.7,11.7,0,0,1,91.28,137.18Z"/><path class="cls-93" d="M117.54,205.47S95,197.77,83.89,176.71a49.78,49.78,0,0,1-2.34-5.05.18.18,0,0,1,0,0c.12-.87,1.76-12.75,3.55-20.82,0-.18.08-.36.13-.55.31-1.26.62-2.45.91-3.56,0,.16.57,2.07,1.56,5.15C91.47,163.51,101.85,192,117.54,205.47Z"/><path class="cls-29" d="M86.15,146.68c-.29,1.11-.6,2.3-.91,3.56C85.54,148.91,85.84,147.71,86.15,146.68Z"/><path class="cls-29" d="M89.08,204.87A111.61,111.61,0,0,0,97.14,219a37,37,0,0,1-10.52-4.36,91.55,91.55,0,0,1-3-18.37A60.47,60.47,0,0,0,89.08,204.87Z"/><path class="cls-94" d="M89.08,204.87a60.47,60.47,0,0,1-5.46-8.59c-.12-1.81-.19-3.64-.23-5.51A118.75,118.75,0,0,0,89.08,204.87Z"/><path class="cls-31" d="M85.11,150.8c-1.79,8.07-3.43,19.94-3.55,20.81A164,164,0,0,1,85.11,150.8Z"/><path class="cls-95" d="M83.39,190.77c0,1.87.11,3.7.23,5.51a53,53,0,0,1-2.78-6.23c-.09-2.86-.08-5.68,0-8.44A83.57,83.57,0,0,0,83.39,190.77Z"/><path class="cls-29" d="M83.62,196.28a91.55,91.55,0,0,0,3,18.37,27.26,27.26,0,0,1-2.77-1.9h0a.5.5,0,0,1,0-.13s0,0,0,0c-.2-1-1.29-6.18-2.15-11.71-.44-3.64-.71-7.26-.81-10.82A53,53,0,0,0,83.62,196.28Z"/><path class="cls-29" d="M83.81,212.62a.5.5,0,0,0,0,.13Z"/><path class="cls-31" d="M81.65,200.87c.86,5.53,1.95,10.71,2.15,11.71A98.49,98.49,0,0,1,81.65,200.87Z"/><path class="cls-29" d="M80.61,189.38s.07.24.23.67c.1,3.56.37,7.18.81,10.82A69.56,69.56,0,0,1,80.61,189.38Z"/><path class="cls-33" d="M205.59,32.71C241.85,40.28,258.67,65.4,266,89.22c5.21,17,8.4,43.82,7.55,72.65"/><path class="cls-33" d="M91.28,137.19C104.2,90,133.54,31.69,180,30.44"/><path class="cls-33" d="M81.56,171.61a190.47,190.47,0,0,1,4.59-24.93"/><path class="cls-33" d="M80.84,190.05c-.09-2.86-.08-5.68,0-8.44.12-3.42.36-6.76.7-10"/><path class="cls-33" d="M83.8,212.58c-1.08-2.84-2.87-15.07-3-22.53"/><path class="cls-33" d="M258.3,241a74.77,74.77,0,0,1-46.55,33.79c-13.5,3.39-29.81,4.11-49.52,1.06-15.63-2.49-28.4-6.77-38.8-12.31C100,251.06,88.66,232.16,83.85,212.75"/><path class="cls-33" d="M272.29,205.06A116.25,116.25,0,0,1,261.22,236"/><path class="cls-33" d="M91.28,137.19c4.83.57,16.36,4.17,21.93,25,3.77,14.11,7.57,27.55,16.5,39,8,10.25,19.32,22.78,40,25,28.45,3,45-5.64,57.89-19.1,8.31-8.72,13.84-17.44,16.45-20.39,6.33-7.17,15.51-23.13,29.47-24.76.64-.07,1.3-.12,2-.13,0,0,1.77,17.86-3.22,43.32"/><path class="cls-33" d="M129.71,201.15s-17.42,11.92-14,38.38a71.45,71.45,0,0,0,5.51,19.19c.66,1.57,1.41,3.17,2.22,4.81"/><path class="cls-33" d="M227.62,207h0c.42.41,12.39,12.32,5,34.82-2.76,8.46-8.27,18.41-18.14,29.81-.89,1-1.81,2.07-2.77,3.12"/><path class="cls-33" d="M86.15,146.68h0c1.59-6,2.92-9.57,2.92-9.57a11.21,11.21,0,0,1,2.21.09"/><path class="cls-33" d="M199.6,107.28c-.38-.46-8.22-9.91.21-16.87,8.21-6.79,23.41-12.45,12-28.87-.6-.86-1.27-1.75-2-2.68"/><path class="cls-33" d="M173.79,62.31c-4.81,6.14-10.78,18.12.86,31.28,6.81,7.13,24.29,13.46,24.95,13.69"/><path class="cls-33" d="M174.65,61.26c-.28.32-.57.67-.86,1"/><path class="cls-33" d="M174.65,61.26A8.68,8.68,0,0,1,172.73,56,153.07,153.07,0,0,1,177,39.24c.84-2.71,1.81-5.67,2.95-8.8.31-.88.65-1.79,1-2.7A181.53,181.53,0,0,1,194,.2s6.08,10.65,10.89,29.58c.24.95.48,1.93.72,2.93.64,2.72,1.25,5.61,1.81,8.64,1,5.38,1.84,11.23,2.41,17.51a13.29,13.29,0,0,1-3.94,4.89c-3.1,2.5-8.38,4.83-17,3.86-6.79-.76-10.72-2.8-13-5A10.2,10.2,0,0,1,174.65,61.26Z"/><path class="cls-33" d="M180.94,27.74a22.91,22.91,0,0,0,4.16,1.74,30.22,30.22,0,0,0,5,1.18,33.54,33.54,0,0,0,4.82.4,32.92,32.92,0,0,0,5-.3,36.6,36.6,0,0,0,4.9-1h0"/><path class="cls-33" d="M177,39.24A36.1,36.1,0,0,0,181.48,41a42.59,42.59,0,0,0,21,1.65,33.36,33.36,0,0,0,4.92-1.33h0"/><path class="cls-55" d="M199.62,107.3l0,0"/><path class="cls-33" d="M245.59,160.82a13.3,13.3,0,1,1-9.81-16A13.32,13.32,0,0,1,245.59,160.82Z"/><path class="cls-33" d="M151.56,151.11a13.3,13.3,0,1,1-9.81-16A13.3,13.3,0,0,1,151.56,151.11Z"/><path class="cls-29" d="M107.91,92.4s1.25,16.85,19.59,27.13a50.64,50.64,0,0,1-26.19-12.2S106,96.33,107.91,92.4Z"/><path class="cls-29" d="M98,116s6.33,12.6,25.08,16.47c0,0-19.36,2.71-29.56-3C93.51,129.5,96.39,118.87,98,116Z"/><path class="cls-29" d="M270.81,112.08s-5.89,15.15-26.67,18.4a45.56,45.56,0,0,0,27.64-2.11S271.27,116.44,270.81,112.08Z"/><path class="cls-29" d="M271.85,137.68s-8.76,10.26-27.69,7.36c0,0,15.63,8.62,27.19,6.82C271.35,151.86,272.36,140.9,271.85,137.68Z"/><path class="cls-96" d="M344.5,143c2,9.72-.08,20.68-7.94,26.79a24.65,24.65,0,0,1-7.78,3.67,36.06,36.06,0,0,0,4.76-2.12c.26-1-.31-4.59-1.13-8.64C346,155.72,344.5,143,344.5,143Z"/><path class="cls-97" d="M332.41,162.66c-1.36-6.74-3.39-14.81-3.39-14.81,0,3-1.4,10.79-2.64,17.16a56,56,0,0,1-14.27,2c-1.88-11.78-2.75-19.63-2.75-19.63-.51,4.49-2.5,12.94-4.16,19.52a80.53,80.53,0,0,1-13.58-1.79,147.65,147.65,0,0,0-1.29-16.15,74.87,74.87,0,0,1-4.46,14.54c-7.61-2.62-12.22-6.39-15-10.17a20.87,20.87,0,0,1-4.08-11,14.21,14.21,0,0,1,0-2.78c0-.09,0-.13,0-.13,2.18-14.92,9.87-22,16.72-23.5l1.61-.33c25.18-4.91,40.5,2.76,50.9,11.68,4.18,3.6,7.16,9.39,8.43,15.71C344.5,143,346,155.72,332.41,162.66Z"/><path class="cls-98" d="M332.41,162.66c.82,4.05,1.39,7.62,1.13,8.64a36.06,36.06,0,0,1-4.76,2.12c-1.32.4-2.73.76-4.22,1.09l-.12,0s.93-4.3,1.94-9.52A33.27,33.27,0,0,0,332.41,162.66Z"/><path class="cls-99" d="M329,147.85s2,8.07,3.39,14.81a33.27,33.27,0,0,1-6,2.35C327.62,158.64,329,150.89,329,147.85Z"/><path class="cls-31" d="M328.78,173.42a21.11,21.11,0,0,1-4.22,1.09C326.05,174.18,327.46,173.82,328.78,173.42Z"/><path class="cls-100" d="M324.44,174.53l.12,0A86.64,86.64,0,0,1,303,176.12c3.78.1,10.67-.14,10.67-.14-.57-3.18-1.07-6.2-1.52-9a55.94,55.94,0,0,0,14.26-2C325.37,170.23,324.44,174.53,324.44,174.53Z"/><path class="cls-101" d="M312.12,167c.45,2.79.95,5.81,1.52,9,0,0-6.89.24-10.67.14h-.18s1.1-4,2.41-9.24C307.66,167,310,167,312.12,167Z"/><path class="cls-102" d="M309.35,147.36s.88,7.85,2.77,19.63c-2.16,0-4.46,0-6.92-.12C306.85,160.3,308.85,151.85,309.35,147.36Z"/><path class="cls-103" d="M305.2,166.87c-1.31,5.2-2.41,9.24-2.41,9.24a83.17,83.17,0,0,1-11.28-1.31c.19-3.32.2-6.63.12-9.71A79.46,79.46,0,0,0,305.2,166.87Z"/><path class="cls-104" d="M290.33,148.94a149,149,0,0,1,1.3,16.15,51,51,0,0,1-5.76-1.62A74.55,74.55,0,0,0,290.33,148.94Z"/><path class="cls-105" d="M291.63,165.09c.08,3.08.07,6.39-.12,9.71l-.1,0-.65-.13-.83-.18c-.52-.11-1.15-.25-1.81-.41a52.55,52.55,0,0,1-6.29-1.95h0a92.55,92.55,0,0,0,4.06-8.63A51,51,0,0,0,291.63,165.09Z"/><path class="cls-31" d="M291.41,174.78l-.65-.13Z"/><path class="cls-31" d="M289.93,174.47l.83.18C290.49,174.6,290.2,174.54,289.93,174.47Z"/><path class="cls-106" d="M285.17,115.57l-1.61.33c-6.85,1.47-14.55,8.58-16.72,23.5l0,.13c-.13.87-.24,1.77-.32,2.7-.56-.15-1.13-.33-1.72-.53-17.92-6-9.72-23.31-9.72-23.31C264.22,107.84,278.67,109.47,285.17,115.57Z"/><path class="cls-31" d="M288.12,174.06a28.88,28.88,0,0,1-6.29-1.95A52.55,52.55,0,0,0,288.12,174.06Z"/><path class="cls-107" d="M285.87,163.47a92.55,92.55,0,0,1-4.06,8.63c-8.36-3.22-14.44-8.46-15.19-16.23-.1-1.08-.18-2.14-.24-3.16a23,23,0,0,0,2.77.49c.58.06,1.15.1,1.72.11C273.65,157.08,278.26,160.85,285.87,163.47Z"/><path class="cls-108" d="M270.87,153.31c-.57,0-1.14-.05-1.72-.11a23,23,0,0,1-2.77-.49,68.09,68.09,0,0,1,.12-10.48,1.82,1.82,0,0,0,.29.08A20.87,20.87,0,0,0,270.87,153.31Z"/><path class="cls-31" d="M266.82,139.53a15.51,15.51,0,0,0,0,2.78,1.82,1.82,0,0,1-.29-.08C266.58,141.3,266.69,140.4,266.82,139.53Z"/><path class="cls-109" d="M264.78,141.7c.59.2,1.16.38,1.72.53a68.09,68.09,0,0,0-.12,10.48c-11.7-2.92-23.51-16.22-13.37-31.61a26.32,26.32,0,0,1,2.05-2.71S246.86,135.69,264.78,141.7Z"/><path class="cls-28" d="M285.17,115.57c-6.5-6.1-20.95-7.73-30.11,2.82A26.32,26.32,0,0,0,253,121.1c-10.14,15.39,1.67,28.69,13.37,31.61"/><path class="cls-28" d="M281.81,172.1c-8.36-3.22-14.44-8.46-15.19-16.23-.1-1.08-.18-2.14-.24-3.16a68.09,68.09,0,0,1,.12-10.48c.08-.93.19-1.83.32-2.7"/><path class="cls-28" d="M291.41,174.78l-.65-.13c-.27-.05-.56-.11-.83-.18"/><path class="cls-28" d="M302.79,176.11a83.17,83.17,0,0,1-11.28-1.31"/><path class="cls-28" d="M324.56,174.51A86.64,86.64,0,0,1,303,176.12"/><path class="cls-28" d="M266.84,139.4c2.17-14.92,9.87-22,16.72-23.5l1.61-.33c25.17-4.91,40.5,2.76,50.9,11.68,4.18,3.6,7.16,9.39,8.43,15.71,2,9.72-.08,20.68-7.94,26.79a24.65,24.65,0,0,1-7.78,3.67"/><path class="cls-28" d="M281.81,172.1a92.55,92.55,0,0,0,4.06-8.63,74.55,74.55,0,0,0,4.46-14.53,149,149,0,0,1,1.3,16.15c.08,3.08.07,6.39-.12,9.71l-.1,0-.65-.13-.83-.18c-.52-.11-1.15-.25-1.81-.41a28.88,28.88,0,0,1-6.29-1.95Z"/><path class="cls-28" d="M302.79,176.11s1.1-4,2.41-9.24c1.65-6.57,3.65-15,4.15-19.51,0,0,.88,7.85,2.77,19.63.45,2.79.95,5.81,1.52,9,0,0-6.89.24-10.67.14Z"/><path class="cls-33" d="M324.56,174.51l-.12,0s.93-4.3,1.94-9.52c1.24-6.37,2.63-14.12,2.64-17.16,0,0,2,8.07,3.39,14.81.82,4.05,1.39,7.62,1.13,8.64a36.06,36.06,0,0,1-4.76,2.12A21.11,21.11,0,0,1,324.56,174.51Z"/><path class="cls-110" d="M121.48,102.43c7.15,17-6.89,27.9-18.93,28.62a73.3,73.3,0,0,0,1.43-7.21c1.15-.14,2.37-.32,3.66-.56,19.56-3.69,8.53-28.32,8.19-29.07A23.38,23.38,0,0,1,121.48,102.43Z"/><path class="cls-111" d="M107.64,123.28c-1.29.24-2.51.42-3.66.56a47.34,47.34,0,0,0,0-15.23C102.27,99.28,97.4,93.8,92.4,91.73c-.52-.2-1-.42-1.53-.61,6.24-4,17.33-4,25,3.09C116.16,95,127.2,119.59,107.64,123.28Z"/><path class="cls-112" d="M104,108.61a47.34,47.34,0,0,1,0,15.23c-1,.11-1.85.17-2.71.21A31.16,31.16,0,0,0,104,108.61Z"/><path class="cls-113" d="M101.27,124.05c.86,0,1.76-.1,2.71-.21a73.3,73.3,0,0,1-1.43,7.21,18.93,18.93,0,0,1-2.82,0,21.17,21.17,0,0,1-3.28-.54A21.2,21.2,0,0,0,101.27,124.05Z"/><path class="cls-114" d="M102.55,131.05c-.25,1-.52,2-.82,3.08-1.6,5.56-5.84,9.23-11.52,11.4a66,66,0,0,0-1-10.43,25.68,25.68,0,0,0,7.25-4.6,21.17,21.17,0,0,0,3.28.54A18.93,18.93,0,0,0,102.55,131.05Z"/><path class="cls-115" d="M104,108.61a31.16,31.16,0,0,1-2.68,15.44,21.33,21.33,0,0,1-4.81,6.45,25.66,25.66,0,0,1-7.26,4.6c-.55-3.56-1.23-7.24-1.82-10.15h0c-.66-3.38-1.18-5.74-1.18-5.74a33.07,33.07,0,0,1-.49,3.35c-.77,4.07-2.27,9.8-3.67,14.78a65,65,0,0,1-14.14,1.25c-.59-8.68-1.68-19.91-1.68-19.91-2,3.8-5.09,12.73-7.28,19.43a54.75,54.75,0,0,1-15.14-3.56c-.1-8,.46-16.39.46-16.39-2.14,3.28-4.29,9-5.84,13.69-12.27-7.53-12.6-18.76-12.6-19.12h0c1.83-8.22,6.69-15.83,12.88-19.42C50.57,86.42,67,81.68,90.87,91.12c.51.19,1,.41,1.53.61C97.4,93.8,102.27,99.28,104,108.61Z"/><path class="cls-116" d="M89.2,135.1a66,66,0,0,1,1,10.43h0l-.07,0-.31.11a53.38,53.38,0,0,1-6.32,1.68l-.06,0c-1.46.25-3,.44-4.5.58,0,0,1.48-4.8,3.09-10.61A38.93,38.93,0,0,0,89.2,135.1Z"/><path class="cls-31" d="M90.14,145.56l.07,0Z"/><path class="cls-117" d="M87.38,125c.58,2.91,1.27,6.59,1.82,10.15A38.93,38.93,0,0,1,82,137.34c1.4-5,2.91-10.72,3.67-14.78a16.33,16.33,0,0,0,1.67,2.38Z"/><path class="cls-118" d="M86.2,119.2s.52,2.36,1.18,5.74a16.33,16.33,0,0,1-1.67-2.38A30.91,30.91,0,0,0,86.2,119.2Z"/><path class="cls-31" d="M83.51,147.35a53.38,53.38,0,0,0,6.32-1.68A35.42,35.42,0,0,1,83.51,147.35Z"/><path class="cls-31" d="M83.45,147.37A30.12,30.12,0,0,1,79,148C80.49,147.81,82,147.62,83.45,147.37Z"/><path class="cls-119" d="M82,137.34C80.43,143.15,79,148,79,148a69.29,69.29,0,0,1-10.79,0,72.87,72.87,0,0,0-.27-9.41A65.71,65.71,0,0,0,82,137.34Z"/><path class="cls-120" d="M66.22,118.67s1.09,11.24,1.67,19.91c-2,0-4.23-.1-6.51-.27-.83-.05-1.64-.13-2.44-.21C61.12,131.4,64.2,122.47,66.22,118.67Z"/><path class="cls-121" d="M67.89,138.58a72.87,72.87,0,0,1,.27,9.41h-.07a92.4,92.4,0,0,1-11.76-1.63h0s1.1-3.59,2.62-8.26c.8.08,1.61.16,2.44.21C63.66,138.48,65.84,138.56,67.89,138.58Z"/><path class="cls-31" d="M68.09,148a51.81,51.81,0,0,1-11.76-1.63A92.4,92.4,0,0,0,68.09,148Z"/><path class="cls-122" d="M58.94,138.1c-1.52,4.67-2.62,8.26-2.62,8.26A86.79,86.79,0,0,1,44.24,143c-.28-2.45-.41-5.42-.44-8.45A54.73,54.73,0,0,0,58.94,138.1Z"/><path class="cls-123" d="M44.26,118.15s-.56,8.37-.46,16.38a36,36,0,0,1-5.38-2.69C40,127.16,42.11,121.43,44.26,118.15Z"/><path class="cls-124" d="M44.24,143l-.07,0c-.67-.27-5.35-2.23-7.42-3.29l-.6-.33s.9-3.32,2.27-7.49a36,36,0,0,0,5.38,2.69C43.83,137.56,44,140.53,44.24,143Z"/><path class="cls-31" d="M36.75,139.66c2.07,1.06,6.75,3,7.42,3.29A57.55,57.55,0,0,1,36.75,139.66Z"/><path class="cls-125" d="M38.42,131.84c-1.37,4.17-2.27,7.49-2.27,7.49A22.46,22.46,0,0,1,30.43,135c-5.32-6-6.36-14.41-4.61-22.26C25.82,113.08,26.15,124.31,38.42,131.84Z"/><path class="cls-28" d="M90.87,91.12c6.24-4,17.33-4,25,3.09a23.38,23.38,0,0,1,5.65,8.22c7.15,17-6.89,27.9-18.93,28.62"/><path class="cls-28" d="M90.21,145.53c5.68-2.17,9.92-5.84,11.52-11.4.3-1,.57-2.07.82-3.08a73.3,73.3,0,0,0,1.43-7.21,47.34,47.34,0,0,0,0-15.23c-1.68-9.32-6.56-14.8-11.56-16.88-.51-.21-1-.42-1.52-.61C67,81.68,50.57,86.43,38.7,93.3c-6.19,3.58-11.06,11.19-12.88,19.41"/><path class="cls-28" d="M83.51,147.35a35.42,35.42,0,0,0,6.32-1.68"/><path class="cls-28" d="M68.16,148A69.29,69.29,0,0,0,79,148"/><path class="cls-28" d="M44.24,143a86.79,86.79,0,0,0,12.08,3.38"/><path class="cls-28" d="M36.75,139.66A57.55,57.55,0,0,0,44.17,143"/><path class="cls-28" d="M25.82,112.72c-1.75,7.85-.71,16.26,4.61,22.26a22.46,22.46,0,0,0,5.72,4.35"/><path class="cls-28" d="M36.15,139.33s.9-3.32,2.27-7.49c1.55-4.68,3.69-10.41,5.84-13.69,0,0-.56,8.37-.46,16.38,0,3,.16,6,.44,8.45l-.07,0c-.67-.27-5.35-2.23-7.42-3.29Z"/><path class="cls-28" d="M56.32,146.36s1.1-3.59,2.62-8.26c2.18-6.7,5.26-15.63,7.28-19.43,0,0,1.09,11.24,1.67,19.91a72.87,72.87,0,0,1,.27,9.41h-.07a51.81,51.81,0,0,1-11.76-1.63Z"/><path class="cls-28" d="M79,148s1.48-4.8,3.09-10.61c1.4-5,2.91-10.72,3.67-14.78a30.91,30.91,0,0,0,.49-3.36s.52,2.36,1.18,5.74h0c.58,2.91,1.27,6.59,1.82,10.15a66,66,0,0,1,1,10.43h0l-.07,0-.31.11a53.38,53.38,0,0,1-6.32,1.68l-.06,0A30.12,30.12,0,0,1,79,148Z"/><path class="cls-126" d="M288.21,285.46c5.24-5.49,8.1-12.65,6.7-21h0c2.88,8.08,3.12,17.94-5.72,26.34A48,48,0,0,0,288.21,285.46Z"/><path class="cls-127" d="M291.77,257.62c.85,1.54,1.56,3,2.14,4.35.36.81.69,1.65,1,2.51h0c1.4,8.33-1.46,15.49-6.7,21-2.79-11.3-8.52-13.63-8.52-13.63,2.76,3.9,3.46,12.21,3.59,17.84a40.74,40.74,0,0,1-9.52,4.89c-2-8.8-8.56-18.06-8.79-18.38,2.82,4.62,2.38,14.06,1.68,20.33a45.61,45.61,0,0,1-6.48.75,66.27,66.27,0,0,1-7-.16c-1.08-10.41-6-15.89-6-15.89,1.3,4.71,1.09,10.54.57,15.2a37.2,37.2,0,0,1-18.83-8.89c3.13-10,12.39-25.1,39.71-32C286.52,250.43,291.53,257.28,291.77,257.62Z"/><path class="cls-128" d="M291.77,257.63c-.25-.35-5.25-7.2-23.13-2.09-27.32,6.88-36.58,22-39.71,32a34.53,34.53,0,0,1-4-4.35,39,39,0,0,1-5.8-10.9,47.48,47.48,0,0,1-2.63-16,34.79,34.79,0,0,1,17.3-18.38,40.22,40.22,0,0,1,8.14-2.88q.8-.19,1.62-.36c14.55-2.95,25.54.49,33.6,6.19-7.79-4.3-12-7.36-28.84-2.95-31.77,10.14-28.26,34.29-28.26,34.29.61-8.95,10.3-21.94,30.83-29,21.15-7.29,28.69-.17,29,.15l-1-1.15a48.2,48.2,0,0,1,8.49,8.76c-7.3-5-13.76-7.83-32.62-2.75-31.78,10.14-28.26,34.29-28.26,34.29.6-8.95,9-18.87,28.76-28.32,19.45-9.3,33.06-1.52,33.5-1.26h0A55.61,55.61,0,0,1,291.77,257.63Z"/><path class="cls-37" d="M288.8,252.79l0,.05h0A.06.06,0,0,0,288.8,252.79Z"/><path class="cls-37" d="M288.8,252.79a.06.06,0,0,1,0,.06c-.43-.26-14.05-8-33.5,1.26-19.76,9.45-28.15,19.37-28.76,28.33,0,0-3.51-24.16,28.27-34.3,18.85-5.08,25.31-2.22,32.6,2.76h0Z"/><path class="cls-31" d="M288.8,252.79l-1.35-1.88C287.93,251.54,288.38,252.16,288.8,252.79Z"/><path class="cls-129" d="M289.19,290.82s-.14.14-.4.37c-.47.42-1.33,1.17-2.37,2l-.15.12c-.85.64-1.77,1.28-2.76,1.9a2.26,2.26,0,0,1-.26.16s.12-2.38,0-5.68a33.46,33.46,0,0,0,4.93-4.21A48,48,0,0,1,289.19,290.82Z"/><path class="cls-31" d="M286.42,293.17c1-.81,1.9-1.56,2.37-2C288.07,291.86,287.27,292.52,286.42,293.17Z"/><path class="cls-130" d="M279.69,271.83s5.73,2.33,8.52,13.63a33.46,33.46,0,0,1-4.93,4.21C283.15,284,282.45,275.73,279.69,271.83Z"/><path class="cls-31" d="M283.51,295.19c1-.62,1.91-1.26,2.76-1.9A26.35,26.35,0,0,1,283.51,295.19Z"/><path class="cls-37" d="M278.41,241.47l.55.67c-.58-.47-1.18-.91-1.8-1.35Z"/><path class="cls-131" d="M283.51,295.19a55.49,55.49,0,0,1-9.17,4.6h0a20.76,20.76,0,0,0-.59-5.22,40.74,40.74,0,0,0,9.52-4.89c.09,3.3,0,5.68,0,5.68A2.26,2.26,0,0,0,283.51,295.19Z"/><path class="cls-31" d="M274.34,299.79q-1.72.7-3.6,1.35c-.53.18-1.05.36-1.57.52C271.69,300.82,274.12,299.87,274.34,299.79Z"/><path class="cls-132" d="M273.76,294.56a46.39,46.39,0,0,1-7.11,1.95c.7-6.27,1.14-15.71-1.68-20.33C265.2,276.5,271.73,285.76,273.76,294.56Z"/><path class="cls-31" d="M265.9,302.63c.55-.14,1.1-.31,1.67-.47C267,302.34,266.42,302.51,265.9,302.63Z"/><path class="cls-133" d="M266.65,296.51c-.41,3.6-.89,6.16-.89,6.16a58.15,58.15,0,0,1-12.51,2,41.46,41.46,0,0,0-.07-7.6,66.27,66.27,0,0,0,7,.16A45.61,45.61,0,0,0,266.65,296.51Z"/><path class="cls-134" d="M265.9,302.63l-.14,0s.48-2.56.89-6.16a46.39,46.39,0,0,0,7.11-1.95,20.76,20.76,0,0,1,.59,5.22h0c-.22.08-2.65,1-5.17,1.87-.54.18-1.08.35-1.6.5S266.45,302.49,265.9,302.63Z"/><path class="cls-135" d="M253.18,297.1a41.46,41.46,0,0,1,.07,7.6,46.92,46.92,0,0,1-6.86-.17,74.37,74.37,0,0,0,1.37-8.12C249.47,296.71,251.28,297,253.18,297.1Z"/><path class="cls-31" d="M253.25,304.7v0a54.65,54.65,0,0,1-6.86-.2A46.92,46.92,0,0,0,253.25,304.7Z"/><path class="cls-136" d="M247.76,296.41c.52-4.66.73-10.49-.57-15.2,0,0,4.91,5.48,6,15.89C251.28,297,249.47,296.71,247.76,296.41Z"/><path class="cls-137" d="M247.76,296.41a74.37,74.37,0,0,1-1.37,8.12,36.91,36.91,0,0,1-19-7.33,30.86,30.86,0,0,1,1.58-9.68A37.2,37.2,0,0,0,247.76,296.41Z"/><path class="cls-138" d="M228.93,287.52a30.86,30.86,0,0,0-1.58,9.68,35.93,35.93,0,0,1-11.17-14.5c-3.26-7.63-3.34-17.56.32-26.49a47.39,47.39,0,0,0,2.64,16.06,38.72,38.72,0,0,0,5.79,10.9A34.53,34.53,0,0,0,228.93,287.52Z"/><path class="cls-37" d="M220.06,272.13s-3.52-24.16,28.26-34.29c16.89-4.41,21.06-1.35,28.84,2.95.62.44,1.22.88,1.8,1.35l1,1.15c-.34-.33-7.88-7.45-29-.16C230.36,250.2,220.66,263.18,220.06,272.13Z"/><path class="cls-28" d="M287.44,250.9a47.48,47.48,0,0,0-8.48-8.76"/><path class="cls-28" d="M288.8,252.79c-.42-.63-.87-1.25-1.35-1.88"/><path class="cls-28" d="M289.19,290.82c8.84-8.4,8.6-18.26,5.72-26.34-.31-.86-.64-1.7-1-2.51-.58-1.35-1.29-2.81-2.14-4.35s-1.82-3.15-2.93-4.78"/><path class="cls-28" d="M286.42,293.17c.85-.65,1.65-1.31,2.37-2"/><path class="cls-28" d="M269.17,301.66c.52-.16,1-.34,1.57-.52q1.88-.64,3.6-1.35a55.49,55.49,0,0,0,9.17-4.6"/><path class="cls-28" d="M253.25,304.7a58.15,58.15,0,0,0,12.51-2"/><path class="cls-28" d="M277.16,240.79c-8.07-5.7-19.05-9.14-33.6-6.19-14.21,2.88-23,11.62-27.06,21.61-3.66,8.93-3.58,18.86-.32,26.49a35.93,35.93,0,0,0,11.17,14.5,36.91,36.91,0,0,0,19,7.33"/><path class="cls-28" d="M246.39,304.53a74.37,74.37,0,0,0,1.37-8.12c.52-4.66.73-10.49-.57-15.2,0,0,4.91,5.48,6,15.89a41.46,41.46,0,0,1,.07,7.6v0A54.65,54.65,0,0,1,246.39,304.53Z"/><path class="cls-28" d="M265,276.18c.23.32,6.76,9.58,8.79,18.38a20.76,20.76,0,0,1,.59,5.22h0c-.22.08-2.65,1-5.17,1.87-.54.18-1.08.35-1.6.5s-1.15.35-1.67.47l-.14,0s.48-2.56.89-6.16c.7-6.27,1.14-15.71-1.68-20.33h0"/><path class="cls-28" d="M283.51,295.19a2.26,2.26,0,0,1-.26.16s.12-2.38,0-5.68c-.13-5.63-.83-13.94-3.59-17.84,0,0,5.73,2.33,8.52,13.63a48,48,0,0,1,1,5.36s-.14.14-.4.37c-.47.42-1.33,1.17-2.37,2l-.15.12A26.35,26.35,0,0,1,283.51,295.19Z"/><path class="cls-28" d="M227.35,297.2a30.86,30.86,0,0,1,1.58-9.68c3.13-10,12.39-25.1,39.71-32,17.88-5.11,22.89,1.74,23.13,2.08v0"/><path class="cls-139" d="M140.16,179.46s14.06-5,36.1-.59,30.68,10.68,35.21,17.12h0c-7.75,8.92-18.59,15.21-33.47,12.63C152.52,204.22,143.13,192.53,140.16,179.46Z"/><path class="cls-140" d="M140.65,145.24s35.78,39.61,88.28,12.77c0,0-4.27,22.81-17.45,38h0c-4.53-6.44-13.16-12.73-35.21-17.12s-36.1.59-36.1.59C137.5,167.74,140,154.9,140.65,145.24Z"/><path class="cls-33" d="M140.16,179.46c-2.66-11.72-.16-24.56.49-34.22,0,0,35.78,39.61,88.28,12.77,0,0-4.27,22.81-17.45,38-7.75,8.92-18.59,15.21-33.47,12.63C152.52,204.22,143.13,192.53,140.16,179.46Z"/><path class="cls-141" d="M173.68,77.64a26.73,26.73,0,0,0,0,5.06.81.81,0,0,0,1.61,0,25.17,25.17,0,0,1,0-5.06.81.81,0,0,0-.8-.81.84.84,0,0,0-.81.81Z"/><path class="cls-141" d="M172.26,75.44a15.9,15.9,0,0,0,.9,10,1.21,1.21,0,0,0,1.65.43,1.23,1.23,0,0,0,.43-1.65,13.13,13.13,0,0,1-.66-8.14,1.23,1.23,0,0,0-.84-1.48,1.22,1.22,0,0,0-1.48.84Z"/><path class="cls-141" d="M174.66,78a11.78,11.78,0,0,0,.4,4.34,1.2,1.2,0,0,0,2.32-.64,11.7,11.7,0,0,1-.32-1.54l0,.32a11.43,11.43,0,0,1,0-2.48,1.23,1.23,0,0,0-.35-.85,1.22,1.22,0,0,0-1.71,0,1.4,1.4,0,0,0-.35.85Z"/><path class="cls-141" d="M177.23,78.71l.05,1.31a.87.87,0,0,0,.24.57.81.81,0,0,0,.57.23.75.75,0,0,0,.56-.23.76.76,0,0,0,.24-.57l-.06-1.31a.83.83,0,0,0-.23-.57.81.81,0,0,0-.57-.23.86.86,0,0,0-.57.23.83.83,0,0,0-.23.57Z"/><path class="cls-141" d="M178.88,79.3l.21.35a.66.66,0,0,0,.21.23.7.7,0,0,0,.59.15.55.55,0,0,0,.3-.09l.16-.13a.84.84,0,0,0,.21-.35l0-.21a.74.74,0,0,0-.11-.41l-.2-.35a.66.66,0,0,0-.21-.23.5.5,0,0,0-.27-.14.58.58,0,0,0-.32,0,.53.53,0,0,0-.3.09l-.16.13a.78.78,0,0,0-.21.35l0,.21a1,1,0,0,0,.11.41Z"/><path class="cls-141" d="M182,79.25a.4.4,0,0,0,0-.8.4.4,0,0,0,0,.8Z"/><path class="cls-141" d="M286.09,96.81A35.65,35.65,0,0,0,281,97a.83.83,0,0,0-.8.81c0,.39.35.85.8.8a34.23,34.23,0,0,1,5.06-.23.81.81,0,0,0,.8-.8.82.82,0,0,0-.8-.81Z"/><path class="cls-141" d="M287.89,95.54a19.49,19.49,0,0,0-9.33,1,1.23,1.23,0,0,0-.84,1.48,1.21,1.21,0,0,0,1.48.84,18.09,18.09,0,0,1,8.69-1c.65.09,1.2-.61,1.2-1.2a1.22,1.22,0,0,0-1.2-1.2Z"/><path class="cls-141" d="M285.84,97.45a15.34,15.34,0,0,0-4.32.5,1.21,1.21,0,0,0-.84,1.48,1.23,1.23,0,0,0,1.48.84,15.18,15.18,0,0,1,1.63-.33l-.32,0a14.37,14.37,0,0,1,2.37-.13,1.2,1.2,0,0,0,1.2-1.2,1.23,1.23,0,0,0-1.2-1.21Z"/><path class="cls-141" d="M285.25,99.5l-1.3.1a.62.62,0,0,0-.31.07.63.63,0,0,0-.26.16.82.82,0,0,0-.24.57.82.82,0,0,0,.81.81l1.3-.11a.56.56,0,0,0,.31-.06.65.65,0,0,0,.26-.17.8.8,0,0,0-.57-1.37Z"/><path class="cls-141" d="M284.77,100.77l-.34.16a.66.66,0,0,0-.23.21.7.7,0,0,0-.15.59.53.53,0,0,0,.09.3l.13.16a.78.78,0,0,0,.35.21l.21,0a.84.84,0,0,0,.41-.11l.34-.17a.61.61,0,0,0,.22-.2.7.7,0,0,0,.16-.6.71.71,0,0,0-.1-.3l-.12-.16a.72.72,0,0,0-.36-.2l-.21,0a.71.71,0,0,0-.4.11Z"/><path class="cls-141" d="M285.38,103.66a.4.4,0,0,0,0-.8.4.4,0,0,0,0,.8Z"/><path class="cls-141" d="M91.81,69.91a19.14,19.14,0,0,0-3.78.27.81.81,0,0,0-.56,1,.83.83,0,0,0,1,.56l.44-.06.1,0h0l.2,0,.86-.08c.58,0,1.16,0,1.75,0a.81.81,0,0,0,.8-.8.82.82,0,0,0-.8-.81Z"/><path class="cls-141" d="M93.24,68.05A11.52,11.52,0,0,0,86,69.15a1.22,1.22,0,0,0-.43,1.65,1.24,1.24,0,0,0,1.65.43l.4-.19s.34-.16.12-.06c.23-.1.48-.19.72-.27a11.42,11.42,0,0,1,1.51-.36c.29-.06-.15,0,.12,0l.44,0,.77,0,.78,0,.33,0c-.28,0,.18,0,.22,0a1.2,1.2,0,1,0,.64-2.32Z"/><path class="cls-141" d="M91.06,71.86l-.92.1a.55.55,0,0,0-.31.07.63.63,0,0,0-.26.16.73.73,0,0,0-.17.26.56.56,0,0,0-.06.31.77.77,0,0,0,.23.57l.16.12a.74.74,0,0,0,.41.11l.92-.1a.57.57,0,0,0,.31-.07.51.51,0,0,0,.25-.16.56.56,0,0,0,.17-.26.67.67,0,0,0,.07-.31.82.82,0,0,0-.24-.57L91.46,72a.71.71,0,0,0-.4-.11Z"/><path class="cls-141" d="M90.59,73.09l-.24.16a.63.63,0,0,0-.22.21.5.5,0,0,0-.14.27.58.58,0,0,0,0,.32.63.63,0,0,0,.1.3l.12.16a.82.82,0,0,0,.36.21l.21,0a.86.86,0,0,0,.41-.1l.23-.17a.64.64,0,0,0,.23-.2.79.79,0,0,0,.16-.6.71.71,0,0,0-.1-.3l-.12-.16a.72.72,0,0,0-.36-.2L91,73a.74.74,0,0,0-.41.11Z"/><path class="cls-142" d="M180.28,29.54a34.53,34.53,0,0,0,25,2.05l-.45-1.81s-12.86,4-23.93-2Z"/><path class="cls-142" d="M177,39.24s14.64,7.71,30.4,2.11L207,39.18a42.67,42.67,0,0,1-29.31-2.07Z"/></g></g></g></svg>