<svg xmlns="http://www.w3.org/2000/svg" viewBox="0 0 117.94 494.81"><defs><style>.cls-1{fill:#fdfaf7;}</style></defs><g id="圖層_2" data-name="圖層 2"><g id="圖層_1-2" data-name="圖層 1"><path class="cls-1" d="M51.28,89.34l6.18,5.92v21H38.05l-8.56-7.93-7.56,7.93H1V97.66l6.3-7.19L3.78,86.82V40.07H0V9.83H3.78V.25H36.29V9.83H55.44V84.55ZM27.47,40.07V69.3l2.27,2.4,2.14-2.27V40.07ZM117.94,84.3H106.73v31.88H62.5V103.83l8.19-9.45V84.3H59V49.77H70.69V41.83L77,32.76V31.25H59V0h57.08V31.25L106.73,46v3.78h11.21Z"/><path class="cls-1" d="M116.81,217.74v24.69H29.23l-6.17-5.54-5.92,5.54H1.39V156.87H30.87v60.87H58.09v-3.28H34.15V201H58.09v-2.9H36.42V163.17H58.09v-2.89H37.55V151h-3.4V126.13H116.3V151h-3.9v9.33H90.73v2.89h22.93v34.91H90.73V201h25.2v13.48H90.73v3.28Zm-85.94-64H1.51V128.27H30.87Zm26,20.67v3h6.3v-3Zm0,12.47h6.3v-3h-6.3Zm.88-41.08v3.91H62v-3.91Zm34.78,28.61H86.31v3h6.18Zm0,12.47v-3H86.31v3Zm-1.14-41.08H87.2v3.91h4.15Z"/><path class="cls-1" d="M117.56,310.72v20.54h-3.15v11.47H98.66v26.08H74.47V342.73H71.7v26.08H47.5V342.73H32.89V331.51H47.5v-2.9H32.26V314.12H47.5v-2.89H32.89V299.88H47.5v-2.64H32.26V282h7.43l-1.51-3H29.74V351l4.41-5.79H44.86v21.92H29.49v-7.56l-6.68,8.44H.76V255.28H42.59v-5H84.3v5h32.63V279h-7.3l-1.52,3h8.32v15.25H98.66v2.64h15.75v10.84ZM69.56,282h8.69l1.39-3H68Zm-.38,29.24v3.15h4.41v-3.15Zm0,20.28h4.41v-3H69.18Zm1.76-31.63h4.54v-2.64H70.94Zm26.21,14.5v-3.15h-4v3.15Zm0,17.13v-3h-4v3ZM112,345.25l4.79,6.17v15.75h-15.5V345.25Z"/><path class="cls-1" d="M117.56,436.72v20.54h-3.15v11.47H98.66v26.08H74.47V468.73H71.7v26.08H47.5V468.73H32.89V457.51H47.5v-2.9H32.26V440.12H47.5v-2.89H32.89V425.88H47.5v-2.64H32.26V408h7.43l-1.51-3H29.74V477l4.41-5.79H44.86v21.92H29.49v-7.56l-6.68,8.44H.76V381.28H42.59v-5H84.3v5h32.63V405h-7.3l-1.52,3h8.32v15.25H98.66v2.64h15.75v10.84ZM69.56,408h8.69l1.39-3H68Zm-.38,29.24v3.15h4.41v-3.15Zm0,20.28h4.41v-3H69.18Zm1.76-31.63h4.54v-2.64H70.94Zm26.21,14.5v-3.15h-4v3.15Zm0,17.13v-3h-4v3ZM112,471.25l4.79,6.17v15.75h-15.5V471.25Z"/></g></g></svg>