<svg xmlns="http://www.w3.org/2000/svg" viewBox="0 0 186 106"><defs><style>.cls-1{fill:#db3a1f;}.cls-2{fill:#eada8e;}.cls-3{fill:#fff;}</style></defs><g id="圖層_2" data-name="圖層 2"><g id="圖層_1-2" data-name="圖層 1"><rect class="cls-1" x="41.71" y="-37.41" width="102.58" height="181.45" rx="15.85" transform="translate(39.68 146.32) rotate(-90)"/><path class="cls-2" d="M186,18v70.1a18,18,0,0,1-18.11,18H18.11A18,18,0,0,1,0,88.05V18A18,18,0,0,1,18.11,0H167.89A18,18,0,0,1,186,18ZM4.07,88.05a14,14,0,0,0,14,13.92H167.89a14,14,0,0,0,14-13.92V18A14,14,0,0,0,167.89,4H18.11A14,14,0,0,0,4.07,18Z"/><path class="cls-3" d="M48.75,43.93c1.22,0,1.41-.64,1.6-4.56a13.2,13.2,0,0,0,4.07,1.71c-.5,5.51-1.68,7-5.25,7H44.42C40,48.08,39,46.71,39,42.6V35.31H33.86c-.49,7.26-2.28,11.32-12.31,13.3a12,12,0,0,0-2.39-3.84c8.58-1.41,9.72-4,10.07-9.46H19.84V31.05H53.69v4.26H43.55v7.26c0,1.21.23,1.36,1.56,1.36ZM25.05,26.46H20.56V17H34.43a32.15,32.15,0,0,0-1.29-3l4.63-1.37A29,29,0,0,1,39.83,17h13.1v9.43H48.18V21.37H25.05Zm1.74,1.82V24.1H46.44v4.18Z"/><path class="cls-3" d="M90.14,26.34a44,44,0,0,1-6.54,13c1.1,2.74,2.32,4.34,3.53,4.34.92,0,1.37-1.9,1.56-6.65a12.28,12.28,0,0,0,3.84,2.54c-.72,7-2.24,8.7-5.78,8.7-2.66,0-4.75-1.9-6.42-5a32.22,32.22,0,0,1-6.42,5.17,29.81,29.81,0,0,0-3.27-3.73,29,29,0,0,0,7.76-6.15,78.48,78.48,0,0,1-2.63-15.31h-11v4.06h9.38s0,1.18,0,1.71C74,37,73.76,40.4,72.89,41.5A3.59,3.59,0,0,1,70.26,43a31.08,31.08,0,0,1-4.36.12,10.24,10.24,0,0,0-1.26-4.22c1.37.11,2.66.15,3.27.15a1.23,1.23,0,0,0,1.14-.45c.38-.54.53-2.36.64-7.15H64.76c-.16,5.55-1,13-4.07,17.59A19.77,19.77,0,0,0,56.85,46C59.74,41.43,60,34.82,60,29.88V18.78h15.5c-.08-1.86-.15-3.72-.15-5.62h4.75c0,1.9,0,3.76.07,5.62H86a46.6,46.6,0,0,0-4.86-3.3l2.74-2.7a31.75,31.75,0,0,1,6.19,4.06l-1.82,1.94h4v4.49H80.45A88.73,88.73,0,0,0,82,33.68a38.52,38.52,0,0,0,3.64-8.44Z"/><path class="cls-3" d="M105.72,30.86a45.1,45.1,0,0,1-3,9.88c.6.38,1.33.91,2.35,1.52,2.58,1.56,6.16,1.79,10.6,1.79a128.32,128.32,0,0,0,15.39-1,16.57,16.57,0,0,0-1.33,4.64c-3.12.19-9.84.45-14.29.45-5,0-8.24-.42-11-2-1.59-.88-3-2.13-3.72-2.13s-2.24,2.58-3.15,4.75l-3-4.29a17.93,17.93,0,0,1,4-3.65,37.47,37.47,0,0,0,2.2-6.57H96C96.87,32,97.85,29,98.73,26H95.31V22h8.89c-.8,2.66-1.71,5.7-2.62,8.36h1.56l.68-.15Zm-6.38-9.95c-.42-1.75-1.45-4.48-2.06-6.57l4-1.18c.69,2,1.68,4.56,2.21,6.27ZM115,19.5h-9.5V15.86H115v-2.7h4.4v2.7h10V19.5h-10v1.87h8.29V34.28h-8.29V36h10.38v3.69H119.43v3.42H115V39.72h-9.42V36H115V34.28h-8V21.37h8Zm-3.84,6.84H115V24.48h-3.84ZM115,31.17V29.23h-3.84v1.94Zm4.4-6.69v1.86h4V24.48Zm4,4.75h-4v1.94h4Z"/><path class="cls-3" d="M143.64,36.79c-.07-.49-.15-1.06-.26-1.67-6.88,1-8.13,1.37-9,1.75a34.72,34.72,0,0,0-1.48-4.07c1-.26,1.86-1.1,3.08-2.51.41-.53,1.29-1.55,2.28-3a14.18,14.18,0,0,0-4.18.84,36.72,36.72,0,0,0-1.41-3.91c.76-.19,1.37-.92,2.13-2A40.63,40.63,0,0,0,139.05,13l4.1,1.71a53.54,53.54,0,0,1-4.9,8.93l2.54-.19a43.1,43.1,0,0,0,2.7-5.06l3.84,2.36a63.37,63.37,0,0,1-5.05,7.82l2.81-.79a49,49,0,0,1,2,7.9Zm-5.7,1.83a46.35,46.35,0,0,1-1.71,9.61,25.05,25.05,0,0,0-3.34-1.18,33.39,33.39,0,0,0,1.6-9Zm3.77-.61a71,71,0,0,1,.83,8.05l-3.34.57a70.48,70.48,0,0,0-.65-8.05Zm.91-6.35c-.19-.91-.46-1.82-.69-2.62-.79,1-1.63,2.05-2.47,3Zm2.66,5.25a44.15,44.15,0,0,1,1.55,5.24l-3.07,1a37.75,37.75,0,0,0-1.45-5.31Zm10.6-2.82c-1.26,5.89-4.07,10.26-8,12.69a16.39,16.39,0,0,0-2.55-3.15,13.57,13.57,0,0,0,5.55-6.69h-3.42V33.3h5.06l.68-.12Zm12.38.27c-1.74,1.37-3.45,2.85-5,4a15.5,15.5,0,0,0,5.55,5.24,17.33,17.33,0,0,0-3,3.61,18.29,18.29,0,0,1-5.47-6.34v3.26c0,2-.34,3.12-1.67,3.84s-3,.72-5.47.72A16.71,16.71,0,0,0,152,44.54c1.41.08,3,.08,3.42,0s.65-.11.65-.53V31h-7.26V17.15h5.4a35.59,35.59,0,0,0,1.21-4l5.17.91c-.57,1.1-1.18,2.13-1.71,3.12H167V31h-6.65v1.21a30,30,0,0,0,1.14,3,31.74,31.74,0,0,0,3.38-3.68ZM153,22.43h9.65v-1.9H153Zm0,5.17h9.65v-2H153Z"/><path class="cls-3" d="M33.14,80.34a74.37,74.37,0,0,1,5.24,9.92L34.16,92.5a25.33,25.33,0,0,0-1.33-3.27C23.91,92,22.39,92.65,21.32,93.37a16.14,16.14,0,0,0-1.75-4.6,2.83,2.83,0,0,0,1.75-2.66V60.62h16V79.39H26v7.48L31,85.43c-.61-1.1-1.21-2.2-1.78-3.19ZM26,64.65v3.23H32.8V64.65ZM32.8,75.36V71.91H26v3.45Zm20.25,7.37c0,2.06-.34,3.23-1.64,4s-3,.76-5.39.76a16,16,0,0,0-1.26-4.25c1.37.07,2.78.07,3.2,0s.64-.16.64-.65V65H44V94.21H39.45V60.89h13.6Z"/><path class="cls-3" d="M92,65.83H87.59V88.47c0,2.74-.65,4.07-2.43,4.83s-4.71.83-8.59.83a20.48,20.48,0,0,0-1.86-4.79c2.7.16,6,.12,6.91.12s1.22-.27,1.22-1.07V65.83H57.73V61.27H92Zm-26.33,19v2.88H61.22V70.08H77.33V84.79Zm0-10.42v6.08h7.22V74.37Z"/><path class="cls-3" d="M108.26,79l-4.1,1.14v9.31c0,2.16-.38,3.27-1.63,3.91s-3.08.84-5.7.84a15.41,15.41,0,0,0-1.26-4.11c1.49.08,3,.08,3.5.08s.72-.19.72-.72V81.37c-1.44.38-2.77.68-4,1L94.62,78.1c1.49-.31,3.27-.72,5.17-1.18V70.08H95.23V65.86h4.56v-7.1h4.37v7.1h3.65v4.22h-3.65v5.74l3.53-.91Zm21.51-11.85V93.87h-4.48V91.4H113v2.73h-4.33v-27h8.21v-8.4h4.25v8.4ZM113,71.45V77h3.88V71.45Zm0,15.61h3.88V81.18H113Zm8.13-15.61V77h4.15V71.45Zm4.15,15.61V81.18h-4.15v5.88Z"/><path class="cls-3" d="M157.28,86.5c4.07,1.36,8.67,3,11.36,4.21l-2,3.54a158.24,158.24,0,0,0-14.82-5.86L153,86.5h-1.14c-1.78,3.19-6.23,6.3-16.34,7.94a22.34,22.34,0,0,0-2.5-3.65c6.84-1,10.71-2.59,12.88-4.29H133.16V82.77h15.23a8.76,8.76,0,0,0,.08-1V79.24H153V81.9a6.33,6.33,0,0,1,0,.87h6.61a27.53,27.53,0,0,0-2.5-1.9l1.36-1.29h-1.44a13,13,0,0,0-1.1-3.27c1.21.08,2.62.08,3,.08s.53-.15.53-.53V73.65H153.1a13.67,13.67,0,0,1,2.51,2.28l-3,2.24a16.32,16.32,0,0,0-3.73-3.34l1.56-1.18h-3.76V70.73h1.48a10.15,10.15,0,0,0-1.48-2.13,36.23,36.23,0,0,0,9.5-2.13,26.56,26.56,0,0,0-3.15-3c-1.22.45-2.63.91-4.11,1.33a10,10,0,0,0-2.2-2.55c4.56-.91,8-2.24,10-3.72l3.73.76c-.54.45-1.07.87-1.64,1.29h5.28l.73-.11,2.31,1.17a15.75,15.75,0,0,1-7.56,6.62h4.14v2.43H168v2.92h-4.3V76c0,1.78-.34,2.58-1.59,3.11a6.7,6.7,0,0,1-2,.42,19.23,19.23,0,0,1,3,2.36l-.88.87h6.31V86.5Zm-17.82-13c0,1.79-.53,5.51-3,7.6A17.31,17.31,0,0,0,133,79.12a7.44,7.44,0,0,0,2.51-5.66h-2.13V70h8.1V67.88h-6.61V59.67h3.76v4.79h2.85V58.8h4.1V80.45h-4.1v-7Zm14.18-6.53c-1.87.19-3.61.38-5.32.57l-.38-2.28c1.59-.12,3.45-.27,5.66-.42Zm5.77,3.8V68.37a35,35,0,0,1-7.9,2.36Zm-2.89-7.68a32.06,32.06,0,0,1,2.4,2.21,13,13,0,0,0,2.88-2.21Z"/></g></g></svg>