<svg xmlns="http://www.w3.org/2000/svg" viewBox="0 0 519.93 150.97"><defs><style>.cls-1{fill:#e55578;}.cls-2{fill:#f3de09;}.cls-3{fill:#efdc01;}.cls-4{fill:#580100;}.cls-5{fill:#dc0000;}.cls-6,.cls-7{fill:#fff;}.cls-6{opacity:0.1;}.cls-7{opacity:0.3;}.cls-8{fill:#ee1c27;}.cls-9{fill:#e8116f;}</style></defs><g id="圖層_2" data-name="圖層 2"><g id="圖層_1-2" data-name="圖層 1"><path class="cls-1" d="M473.68,103.82l-2-.09a8.77,8.77,0,0,1,1,2,8.23,8.23,0,0,1-2.3,8.27,10.5,10.5,0,0,0,1.4,0l-.27.89a3.66,3.66,0,0,0,.6-.92l.29,0-.22.72a3.64,3.64,0,0,0,.53-.78l.16,0H473c-.22.86-.39,1.49-.39,1.49a6.11,6.11,0,0,0,.8-1.53l.14,0-.05.19a1.57,1.57,0,0,0,.15-.19c-.12.43-.21.71-.21.71a3.64,3.64,0,0,0,.53-.78h0l-.29,1a3.49,3.49,0,0,0,.47-.68c-.17.68-.3,1.16-.3,1.16a6.18,6.18,0,0,0,.81-1.56h.13l-.27.88a3.75,3.75,0,0,0,.6-.92l.13,0c-.16.57-.28,1-.28,1a2.45,2.45,0,0,0,.23-.29.06.06,0,0,1,0,0,3.4,3.4,0,0,0,.53-.78l.33-.07-.4,1.51a6.1,6.1,0,0,0,.85-1.67l.15,0-.12.37A2.85,2.85,0,0,0,477,113l.27-.16-.4,1.34a6.92,6.92,0,0,0,1.07-2C479.86,109.53,473.68,103.82,473.68,103.82Z"/><path class="cls-2" d="M472.91,99.22l-1,.13.05-.26h-1.22l-.08.42-.24,0a.76.76,0,0,0-.65,1l1.52,4.89,4.36-.56L474.11,100A1.14,1.14,0,0,0,472.91,99.22Z"/><path class="cls-3" d="M460.74,74.09v2.38c0,.46,4.83.84,10.8.84s10.79-.38,10.79-.84V74.09Z"/><path class="cls-4" d="M482.33,74.09c0,.47-4.84.85-10.79.85s-10.8-.38-10.8-.85,4.83-.85,10.8-.85S482.33,73.62,482.33,74.09Z"/><path class="cls-5" d="M464.54,74.6h14C487,72.73,493,67.58,493,61.52c0-7.64-9.61-13.84-21.47-13.84s-21.48,6.2-21.48,13.84C450.06,67.58,456.11,72.73,464.54,74.6Z"/><path class="cls-6" d="M469.76,74.6h3.55c8.42-1.87,14.48-7,14.48-13.08,0-6.48-6.92-11.92-16.25-13.42-9.34,1.5-16.26,6.94-16.26,13.42C455.28,67.58,461.34,72.73,469.76,74.6Z"/><path class="cls-7" d="M475.17,74.6h1.63c8.43-1.87,14.49-7,14.49-13.08,0-6.48-6.92-11.92-16.26-13.42H475a24.92,24.92,0,0,1,4.12,13.42A24.88,24.88,0,0,1,475.17,74.6Z"/><path class="cls-7" d="M466.13,74.6h1.64A23.91,23.91,0,0,1,468,48.11h-.08c-9.33,1.5-16.25,6.94-16.25,13.42C451.65,67.58,457.71,72.73,466.13,74.6Z"/><path class="cls-3" d="M458.39,47.68v2.9c0,.57,5.89,1,13.15,1s13.14-.46,13.14-1v-2.9Z"/><path class="cls-4" d="M484.68,47.68c0,.57-5.89,1-13.14,1s-13.15-.47-13.15-1,5.89-1,13.15-1S484.68,47.11,484.68,47.68Z"/><rect class="cls-5" x="471.3" y="23.02" width="0.46" height="24.21"/><rect class="cls-3" x="471.3" y="75.39" width="0.46" height="9.14"/><path class="cls-8" d="M474,80c0,.88-1.11,1.59-2.46,1.59s-2.47-.71-2.47-1.59,1.11-1.58,2.47-1.58S474,79.09,474,80Z"/><path class="cls-9" d="M474,98.11c0,.88-1.11,1.59-2.46,1.59s-2.47-.71-2.47-1.59,1.11-1.58,2.47-1.58S474,97.24,474,98.11Z"/><path class="cls-9" d="M471.54,90.78c-2.68,0-4.86-1.4-4.86-3.12s2.18-3.13,4.86-3.13,4.85,1.4,4.85,3.13S474.21,90.78,471.54,90.78Zm0-5.85c-2.34,0-4.24,1.22-4.24,2.73s1.9,2.73,4.24,2.73,4.23-1.23,4.23-2.73S473.87,84.93,471.54,84.93Z"/><path class="cls-9" d="M471.54,96.64c-2.68,0-4.86-1.4-4.86-3.13s2.18-3.12,4.86-3.12,4.85,1.4,4.85,3.12S474.21,96.64,471.54,96.64Zm0-5.86c-2.34,0-4.24,1.23-4.24,2.73s1.9,2.73,4.24,2.73,4.23-1.22,4.23-2.73S473.87,90.78,471.54,90.78Z"/><path class="cls-9" d="M465.22,95c-3.55,0-6.43-1.86-6.43-4.14s2.88-4.14,6.43-4.14,6.43,1.86,6.43,4.14S468.76,95,465.22,95Zm0-7.88c-3.2,0-5.81,1.68-5.81,3.74s2.61,3.74,5.81,3.74S471,92.87,471,90.81,468.42,87.07,465.22,87.07Z"/><path class="cls-9" d="M477.85,95c-3.54,0-6.43-1.86-6.43-4.14s2.89-4.14,6.43-4.14,6.43,1.86,6.43,4.14S481.39,95,477.85,95Zm0-7.88c-3.2,0-5.81,1.68-5.81,3.74s2.61,3.74,5.81,3.74,5.81-1.68,5.81-3.74S481.05,87.07,477.85,87.07Z"/><path class="cls-1" d="M401.6,124.79l-2-.09a9,9,0,0,1,.95,2,8.25,8.25,0,0,1-2.29,8.27,12.54,12.54,0,0,0,1.39,0l-.27.89A4,4,0,0,0,400,135l.28,0c-.13.44-.22.72-.22.72a3.32,3.32,0,0,0,.53-.77l.16,0h.16c-.22.85-.39,1.48-.39,1.48a5.83,5.83,0,0,0,.81-1.52l.13,0-.05.19.16-.19-.22.7a3.4,3.4,0,0,0,.53-.78H402c-.17.58-.29,1-.29,1a3.32,3.32,0,0,0,.48-.68c-.18.69-.31,1.16-.31,1.16a5.79,5.79,0,0,0,.81-1.55h.13l-.27.89a3.66,3.66,0,0,0,.6-.92l.14,0-.29.95a2.47,2.47,0,0,0,.24-.29l0,0a3.64,3.64,0,0,0,.53-.78l.33-.08-.4,1.52a6.55,6.55,0,0,0,.86-1.67l.14-.06-.11.37a3,3,0,0,0,.36-.49,1.75,1.75,0,0,0,.27-.16c-.22.77-.4,1.34-.4,1.34a6.55,6.55,0,0,0,1.07-2C407.78,130.51,401.6,124.79,401.6,124.79Z"/><path class="cls-2" d="M400.83,120.2l-1,.13.05-.26h-1.22l-.08.42-.23,0a.76.76,0,0,0-.66,1l1.52,4.88,4.36-.56L402,121A1.13,1.13,0,0,0,400.83,120.2Z"/><path class="cls-3" d="M388.66,95.06v2.38c0,.47,4.84.85,10.8.85s10.79-.38,10.79-.85V95.06Z"/><path class="cls-4" d="M410.25,95.06c0,.47-4.83.85-10.79.85s-10.8-.38-10.8-.85,4.84-.84,10.8-.84S410.25,94.6,410.25,95.06Z"/><path class="cls-5" d="M392.46,95.58h14c8.43-1.87,14.48-7,14.48-13.09,0-7.64-9.61-13.83-21.47-13.83S378,74.85,378,82.49C378,88.56,384,93.71,392.46,95.58Z"/><path class="cls-6" d="M397.69,95.58h3.54c8.42-1.87,14.48-7,14.48-13.09,0-6.48-6.92-11.92-16.25-13.42-9.34,1.5-16.26,6.94-16.26,13.42C383.2,88.56,389.26,93.71,397.69,95.58Z"/><path class="cls-7" d="M403.09,95.58h1.64c8.42-1.87,14.48-7,14.48-13.09,0-6.48-6.92-11.92-16.25-13.42h-.08a23.92,23.92,0,0,1,.21,26.5Z"/><path class="cls-7" d="M394.05,95.58h1.64a23.9,23.9,0,0,1,.22-26.5h-.08c-9.34,1.5-16.26,6.94-16.26,13.42C379.57,88.56,385.63,93.71,394.05,95.58Z"/><path class="cls-3" d="M386.31,68.66v2.89c0,.57,5.89,1,13.15,1s13.14-.46,13.14-1V68.66Z"/><path class="cls-4" d="M412.6,68.66c0,.57-5.88,1-13.14,1s-13.15-.46-13.15-1,5.89-1,13.15-1S412.6,68.09,412.6,68.66Z"/><rect class="cls-5" x="399.23" y="44" width="0.46" height="24.21"/><rect class="cls-3" x="399.23" y="96.36" width="0.46" height="9.14"/><path class="cls-8" d="M401.92,100.94c0,.87-1.1,1.58-2.46,1.58s-2.46-.71-2.46-1.58,1.1-1.59,2.46-1.59S401.92,100.06,401.92,100.94Z"/><path class="cls-9" d="M401.92,119.09c0,.87-1.1,1.58-2.46,1.58S397,120,397,119.09s1.1-1.59,2.46-1.59S401.92,118.21,401.92,119.09Z"/><path class="cls-9" d="M399.46,111.76c-2.68,0-4.86-1.4-4.86-3.13s2.18-3.13,4.86-3.13,4.85,1.41,4.85,3.13S402.13,111.76,399.46,111.76Zm0-5.86c-2.34,0-4.24,1.23-4.24,2.73s1.9,2.73,4.24,2.73,4.23-1.22,4.23-2.73S401.79,105.9,399.46,105.9Z"/><path class="cls-9" d="M399.46,117.61c-2.68,0-4.86-1.4-4.86-3.12s2.18-3.13,4.86-3.13,4.85,1.4,4.85,3.13S402.13,117.61,399.46,117.61Zm0-5.85c-2.34,0-4.24,1.22-4.24,2.73s1.9,2.73,4.24,2.73,4.23-1.23,4.23-2.73S401.79,111.76,399.46,111.76Z"/><path class="cls-9" d="M393.14,115.93c-3.54,0-6.43-1.86-6.43-4.15s2.89-4.14,6.43-4.14,6.43,1.86,6.43,4.14S396.68,115.93,393.14,115.93Zm0-7.89c-3.2,0-5.81,1.68-5.81,3.74s2.61,3.75,5.81,3.75,5.81-1.68,5.81-3.75S396.34,108,393.14,108Z"/><path class="cls-9" d="M405.77,115.93c-3.54,0-6.42-1.86-6.42-4.15s2.88-4.14,6.42-4.14,6.43,1.86,6.43,4.14S409.32,115.93,405.77,115.93Zm0-7.89c-3.2,0-5.8,1.68-5.8,3.74s2.6,3.75,5.8,3.75,5.81-1.68,5.81-3.75S409,108,405.77,108Z"/><path class="cls-1" d="M329.53,135.79l-2-.09a8,8,0,0,1,.95,2c.89,2.84.05,5.81-2.29,8.27a10.39,10.39,0,0,0,1.39,0c-.15.54-.27.89-.27.89a4,4,0,0,0,.61-.92l.29,0c-.14.44-.22.72-.22.72a4.55,4.55,0,0,0,.53-.78l.15,0h.16c-.22.85-.39,1.48-.39,1.48a5.92,5.92,0,0,0,.81-1.53l.14,0c0,.12-.06.2-.06.2l.16-.2-.21.71a3.63,3.63,0,0,0,.52-.78h.06c-.18.57-.3,1-.3,1a3.63,3.63,0,0,0,.48-.68l-.31,1.16a6.07,6.07,0,0,0,.82-1.55h.12c-.15.53-.27.89-.27.89a4,4,0,0,0,.61-.93h.13l-.29.95.24-.3v0a3.66,3.66,0,0,0,.52-.77l.33-.08c-.22.87-.4,1.51-.4,1.51a6.16,6.16,0,0,0,.86-1.66l.14-.06-.11.37a3.46,3.46,0,0,0,.36-.49l.27-.16c-.22.77-.4,1.34-.4,1.34a6.46,6.46,0,0,0,1.07-2C335.71,141.5,329.53,135.79,329.53,135.79Z"/><path class="cls-2" d="M328.75,131.19l-1,.13,0-.25h-1.21l-.09.41-.23,0a.75.75,0,0,0-.65,1l1.51,4.89,4.37-.56L330,132A1.17,1.17,0,0,0,328.75,131.19Z"/><path class="cls-3" d="M316.59,106.06v2.38c0,.47,4.83.84,10.79.84s10.79-.37,10.79-.84v-2.38Z"/><path class="cls-4" d="M338.17,106.06c0,.47-4.83.85-10.79.85s-10.79-.38-10.79-.85,4.83-.85,10.79-.85S338.17,105.59,338.17,106.06Z"/><path class="cls-5" d="M320.39,106.57h14c8.42-1.87,14.48-7,14.48-13.08,0-7.64-9.62-13.84-21.48-13.84s-21.48,6.2-21.48,13.84C305.9,99.55,312,104.7,320.39,106.57Z"/><path class="cls-6" d="M325.61,106.57h3.54c8.43-1.87,14.48-7,14.48-13.08,0-6.48-6.91-11.92-16.25-13.42C318,81.57,311.13,87,311.13,93.49,311.13,99.55,317.18,104.7,325.61,106.57Z"/><path class="cls-7" d="M331,106.57h1.64c8.42-1.87,14.48-7,14.48-13.08,0-6.48-6.92-11.92-16.25-13.42h-.08a23.91,23.91,0,0,1,.21,26.49Z"/><path class="cls-7" d="M322,106.57h1.63a23.88,23.88,0,0,1,.22-26.49h-.08c-9.34,1.5-16.26,6.94-16.26,13.42C307.49,99.55,313.55,104.7,322,106.57Z"/><path class="cls-3" d="M314.24,79.65v2.9c0,.57,5.88,1,13.14,1s13.14-.46,13.14-1v-2.9Z"/><path class="cls-4" d="M340.52,79.65c0,.58-5.88,1-13.14,1s-13.14-.46-13.14-1,5.88-1,13.14-1S340.52,79.08,340.52,79.65Z"/><rect class="cls-5" x="327.15" y="54.99" width="0.46" height="24.21"/><rect class="cls-3" x="327.15" y="107.36" width="0.46" height="9.14"/><path class="cls-8" d="M329.84,111.93c0,.88-1.1,1.59-2.46,1.59s-2.46-.71-2.46-1.59,1.1-1.58,2.46-1.58S329.84,111.06,329.84,111.93Z"/><path class="cls-9" d="M329.84,130.08c0,.88-1.1,1.59-2.46,1.59s-2.46-.71-2.46-1.59,1.1-1.58,2.46-1.58S329.84,129.21,329.84,130.08Z"/><path class="cls-9" d="M327.38,122.75c-2.68,0-4.85-1.4-4.85-3.12s2.17-3.13,4.85-3.13,4.85,1.4,4.85,3.13S330.06,122.75,327.38,122.75Zm0-5.85c-2.34,0-4.24,1.22-4.24,2.73s1.9,2.73,4.24,2.73,4.24-1.23,4.24-2.73S329.71,116.9,327.38,116.9Z"/><path class="cls-9" d="M327.38,128.61c-2.68,0-4.85-1.4-4.85-3.13s2.17-3.12,4.85-3.12,4.85,1.4,4.85,3.12S330.06,128.61,327.38,128.61Zm0-5.86c-2.34,0-4.24,1.23-4.24,2.73s1.9,2.73,4.24,2.73,4.24-1.22,4.24-2.73S329.71,122.75,327.38,122.75Z"/><path class="cls-9" d="M321.06,126.92c-3.54,0-6.42-1.86-6.42-4.14s2.88-4.14,6.42-4.14,6.43,1.86,6.43,4.14S324.61,126.92,321.06,126.92Zm0-7.88c-3.2,0-5.81,1.68-5.81,3.74s2.61,3.74,5.81,3.74,5.81-1.67,5.81-3.74S324.27,119,321.06,119Z"/><path class="cls-9" d="M333.7,126.92c-3.55,0-6.43-1.86-6.43-4.14s2.88-4.14,6.43-4.14,6.42,1.86,6.42,4.14S337.24,126.92,333.7,126.92Zm0-7.88c-3.21,0-5.81,1.68-5.81,3.74s2.6,3.74,5.81,3.74,5.8-1.67,5.8-3.74S336.9,119,333.7,119Z"/><path class="cls-1" d="M257.45,139.47l-2-.09a8.77,8.77,0,0,1,1,2c.88,2.84,0,5.81-2.3,8.27a10.54,10.54,0,0,0,1.4,0l-.27.89a4,4,0,0,0,.6-.92l.29,0c-.13.44-.22.72-.22.72a3.64,3.64,0,0,0,.53-.78l.16,0,.16,0c-.22.86-.4,1.49-.4,1.49a5.78,5.78,0,0,0,.81-1.53l.14,0-.06.19a1,1,0,0,0,.16-.19l-.21.71a4,4,0,0,0,.53-.78h.05l-.29,1a3.49,3.49,0,0,0,.47-.68l-.31,1.16a6.25,6.25,0,0,0,.82-1.55h.12c-.15.53-.26.88-.26.88a3.75,3.75,0,0,0,.6-.92l.13,0-.29,1,.24-.3v0a3.5,3.5,0,0,0,.53-.78l.32-.07c-.22.87-.4,1.51-.4,1.51a6.09,6.09,0,0,0,.86-1.67l.14-.05-.11.37a3.46,3.46,0,0,0,.36-.49l.28-.16c-.23.77-.41,1.34-.41,1.34a6.46,6.46,0,0,0,1.07-2C263.63,145.18,257.45,139.47,257.45,139.47Z"/><path class="cls-2" d="M256.68,134.87l-1,.13.05-.26h-1.22l-.08.42-.24,0a.76.76,0,0,0-.65,1l1.52,4.89,4.36-.56-1.52-4.89A1.14,1.14,0,0,0,256.68,134.87Z"/><path class="cls-3" d="M244.51,109.74v2.38c0,.47,4.83.84,10.79.84s10.8-.37,10.8-.84v-2.38Z"/><path class="cls-4" d="M266.1,109.74c0,.47-4.84.85-10.8.85s-10.79-.38-10.79-.85,4.83-.85,10.79-.85S266.1,109.27,266.1,109.74Z"/><path class="cls-5" d="M248.31,110.25h14c8.42-1.87,14.48-7,14.48-13.08,0-7.64-9.62-13.84-21.48-13.84s-21.47,6.2-21.47,13.84C233.83,103.23,239.88,108.38,248.31,110.25Z"/><path class="cls-6" d="M253.53,110.25h3.54c8.43-1.87,14.48-7,14.48-13.08,0-6.48-6.91-11.92-16.25-13.42-9.33,1.5-16.25,6.94-16.25,13.42C239.05,103.23,245.11,108.38,253.53,110.25Z"/><path class="cls-7" d="M258.93,110.25h1.64c8.43-1.87,14.48-7,14.48-13.08,0-6.48-6.91-11.92-16.25-13.42h-.08a23.86,23.86,0,0,1,.21,26.49Z"/><path class="cls-7" d="M249.9,110.25h1.64a23.86,23.86,0,0,1,.21-26.49h-.08c-9.34,1.5-16.25,6.94-16.25,13.42C235.42,103.23,241.47,108.38,249.9,110.25Z"/><path class="cls-3" d="M242.16,83.33v2.9c0,.57,5.88,1,13.14,1s13.15-.46,13.15-1v-2.9Z"/><path class="cls-4" d="M268.45,83.33c0,.57-5.89,1-13.15,1s-13.14-.47-13.14-1,5.88-1,13.14-1S268.45,82.76,268.45,83.33Z"/><rect class="cls-5" x="255.07" y="58.67" width="0.46" height="24.21"/><rect class="cls-3" x="255.07" y="111.04" width="0.46" height="9.14"/><path class="cls-8" d="M257.76,115.61c0,.88-1.1,1.59-2.46,1.59s-2.46-.71-2.46-1.59,1.1-1.58,2.46-1.58S257.76,114.74,257.76,115.61Z"/><path class="cls-9" d="M257.76,133.76c0,.88-1.1,1.59-2.46,1.59s-2.46-.71-2.46-1.59,1.1-1.58,2.46-1.58S257.76,132.89,257.76,133.76Z"/><path class="cls-9" d="M255.3,126.43c-2.67,0-4.85-1.4-4.85-3.12s2.18-3.13,4.85-3.13,4.86,1.4,4.86,3.13S258,126.43,255.3,126.43Zm0-5.85c-2.33,0-4.23,1.22-4.23,2.73S253,126,255.3,126s4.24-1.23,4.24-2.73S257.64,120.58,255.3,120.58Z"/><path class="cls-9" d="M255.3,132.29c-2.67,0-4.85-1.4-4.85-3.13s2.18-3.12,4.85-3.12,4.86,1.4,4.86,3.12S258,132.29,255.3,132.29Zm0-5.86c-2.33,0-4.23,1.23-4.23,2.73s1.9,2.73,4.23,2.73,4.24-1.22,4.24-2.73S257.64,126.43,255.3,126.43Z"/><path class="cls-9" d="M249,130.6c-3.54,0-6.42-1.86-6.42-4.14s2.88-4.14,6.42-4.14,6.43,1.86,6.43,4.14S252.53,130.6,249,130.6Zm0-7.88c-3.2,0-5.8,1.68-5.8,3.74s2.6,3.74,5.8,3.74,5.81-1.68,5.81-3.74S252.19,122.72,249,122.72Z"/><path class="cls-9" d="M261.62,130.6c-3.54,0-6.43-1.86-6.43-4.14s2.89-4.14,6.43-4.14,6.42,1.86,6.42,4.14S265.16,130.6,261.62,130.6Zm0-7.88c-3.2,0-5.81,1.68-5.81,3.74s2.61,3.74,5.81,3.74,5.81-1.68,5.81-3.74S264.82,122.72,261.62,122.72Z"/><path class="cls-1" d="M185.37,134.5l-2-.09a8.77,8.77,0,0,1,.95,2,8.23,8.23,0,0,1-2.3,8.27,10.54,10.54,0,0,0,1.4,0l-.27.89a3.66,3.66,0,0,0,.6-.92l.29,0c-.13.44-.22.72-.22.72a3.64,3.64,0,0,0,.53-.78l.16,0,.16,0c-.22.86-.39,1.49-.39,1.49a5.93,5.93,0,0,0,.8-1.53l.14,0-.05.19a1.57,1.57,0,0,0,.15-.19c-.12.43-.21.71-.21.71a3.64,3.64,0,0,0,.53-.78h.05l-.29,1a3.21,3.21,0,0,0,.47-.68c-.17.68-.3,1.16-.3,1.16a6.27,6.27,0,0,0,.81-1.55h.13l-.27.88a3.75,3.75,0,0,0,.6-.92l.13,0c-.16.57-.28,1-.28,1s.15-.19.23-.3a.06.06,0,0,1,0,0,3.19,3.19,0,0,0,.53-.78l.33-.07c-.23.87-.41,1.51-.41,1.51a6.16,6.16,0,0,0,.86-1.66l.15-.06c-.07.23-.12.37-.12.37a3.47,3.47,0,0,0,.37-.49l.27-.16-.4,1.34a6.92,6.92,0,0,0,1.07-2C191.55,140.21,185.37,134.5,185.37,134.5Z"/><path class="cls-2" d="M184.6,129.9l-1,.13,0-.25h-1.22l-.08.41-.24,0a.76.76,0,0,0-.65,1l1.52,4.89,4.36-.56-1.52-4.89A1.14,1.14,0,0,0,184.6,129.9Z"/><path class="cls-3" d="M172.43,104.77v2.38c0,.47,4.83.84,10.79.84s10.8-.37,10.8-.84v-2.38Z"/><path class="cls-4" d="M194,104.77c0,.47-4.84.85-10.8.85s-10.79-.38-10.79-.85,4.83-.85,10.79-.85S194,104.3,194,104.77Z"/><path class="cls-5" d="M176.23,105.28h14c8.43-1.87,14.48-7,14.48-13.08,0-7.64-9.61-13.84-21.48-13.84s-21.47,6.2-21.47,13.84C161.75,98.26,167.8,103.41,176.23,105.28Z"/><path class="cls-6" d="M181.45,105.28H185c8.43-1.87,14.49-7,14.49-13.08,0-6.48-6.92-11.92-16.26-13.42C173.89,80.28,167,85.72,167,92.2,167,98.26,173,103.41,181.45,105.28Z"/><path class="cls-7" d="M186.86,105.28h1.63c8.43-1.87,14.49-7,14.49-13.08,0-6.48-6.92-11.92-16.26-13.42h-.08a23.88,23.88,0,0,1,.22,26.49Z"/><path class="cls-7" d="M177.82,105.28h1.64a23.91,23.91,0,0,1,.21-26.49h-.08c-9.33,1.5-16.25,6.94-16.25,13.42C163.34,98.26,169.39,103.41,177.82,105.28Z"/><path class="cls-3" d="M170.08,78.36v2.9c0,.57,5.89,1,13.14,1s13.15-.46,13.15-1v-2.9Z"/><path class="cls-4" d="M196.37,78.36c0,.57-5.89,1-13.15,1s-13.14-.47-13.14-1,5.89-1,13.14-1S196.37,77.79,196.37,78.36Z"/><rect class="cls-5" x="182.99" y="53.7" width="0.46" height="24.21"/><rect class="cls-3" x="182.99" y="106.07" width="0.46" height="9.14"/><path class="cls-8" d="M185.69,110.64c0,.88-1.11,1.59-2.47,1.59s-2.46-.71-2.46-1.59,1.11-1.58,2.46-1.58S185.69,109.77,185.69,110.64Z"/><path class="cls-9" d="M185.69,128.79c0,.88-1.11,1.59-2.47,1.59s-2.46-.71-2.46-1.59,1.11-1.58,2.46-1.58S185.69,127.92,185.69,128.79Z"/><path class="cls-9" d="M183.22,121.46c-2.67,0-4.85-1.4-4.85-3.12s2.18-3.13,4.85-3.13,4.86,1.4,4.86,3.13S185.9,121.46,183.22,121.46Zm0-5.85c-2.33,0-4.23,1.22-4.23,2.73s1.9,2.73,4.23,2.73,4.24-1.23,4.24-2.73S185.56,115.61,183.22,115.61Z"/><path class="cls-9" d="M183.22,127.32c-2.67,0-4.85-1.4-4.85-3.13s2.18-3.12,4.85-3.12,4.86,1.4,4.86,3.12S185.9,127.32,183.22,127.32Zm0-5.86c-2.33,0-4.23,1.23-4.23,2.73s1.9,2.73,4.23,2.73,4.24-1.22,4.24-2.73S185.56,121.46,183.22,121.46Z"/><path class="cls-9" d="M176.91,125.63c-3.55,0-6.43-1.86-6.43-4.14s2.88-4.14,6.43-4.14,6.43,1.86,6.43,4.14S180.45,125.63,176.91,125.63Zm0-7.88c-3.2,0-5.81,1.68-5.81,3.74s2.61,3.74,5.81,3.74,5.81-1.68,5.81-3.74S180.11,117.75,176.91,117.75Z"/><path class="cls-9" d="M189.54,125.63c-3.54,0-6.43-1.86-6.43-4.14s2.89-4.14,6.43-4.14,6.43,1.86,6.43,4.14S193.08,125.63,189.54,125.63Zm0-7.88c-3.2,0-5.81,1.68-5.81,3.74s2.61,3.74,5.81,3.74,5.81-1.68,5.81-3.74S192.74,117.75,189.54,117.75Z"/><path class="cls-1" d="M113.29,120.88l-2-.09a9,9,0,0,1,1,2,8.23,8.23,0,0,1-2.3,8.27,12.68,12.68,0,0,0,1.4,0l-.27.89a4,4,0,0,0,.61-.93l.28,0c-.13.44-.22.72-.22.72a3.19,3.19,0,0,0,.53-.78l.16,0h.16c-.22.85-.39,1.48-.39,1.48a6.06,6.06,0,0,0,.81-1.53l.13,0,0,.2.16-.19-.22.7a3.64,3.64,0,0,0,.53-.78h0c-.17.58-.29,1-.29,1a3.63,3.63,0,0,0,.48-.68l-.31,1.16a6.09,6.09,0,0,0,.81-1.55h.13l-.27.89a3.85,3.85,0,0,0,.6-.92l.14,0-.29.95a2.47,2.47,0,0,0,.24-.29l0,0a3.32,3.32,0,0,0,.53-.77l.33-.08-.4,1.51a6.46,6.46,0,0,0,.86-1.66l.14-.06c-.07.23-.12.37-.12.37a2.51,2.51,0,0,0,.37-.49,1.75,1.75,0,0,0,.27-.16c-.22.77-.4,1.34-.4,1.34a6.68,6.68,0,0,0,1.07-2C119.47,126.6,113.29,120.88,113.29,120.88Z"/><path class="cls-2" d="M112.52,116.28l-1,.14,0-.26h-1.22l-.08.42-.24,0a.76.76,0,0,0-.65,1l1.52,4.88,4.36-.56-1.52-4.89A1.15,1.15,0,0,0,112.52,116.28Z"/><path class="cls-3" d="M100.35,91.15v2.38c0,.47,4.84.85,10.8.85s10.79-.38,10.79-.85V91.15Z"/><path class="cls-4" d="M121.94,91.15c0,.47-4.83.85-10.79.85s-10.8-.38-10.8-.85,4.84-.84,10.8-.84S121.94,90.69,121.94,91.15Z"/><path class="cls-5" d="M104.15,91.67h14c8.43-1.87,14.48-7,14.48-13.09,0-7.64-9.61-13.83-21.47-13.83S89.67,70.94,89.67,78.58C89.67,84.64,95.72,89.8,104.15,91.67Z"/><path class="cls-6" d="M109.38,91.67h3.54c8.42-1.87,14.48-7,14.48-13.09,0-6.48-6.92-11.92-16.25-13.42-9.34,1.5-16.26,6.94-16.26,13.42C94.89,84.64,101,89.8,109.38,91.67Z"/><path class="cls-7" d="M114.78,91.67h1.64c8.42-1.87,14.48-7,14.48-13.09,0-6.48-6.92-11.92-16.25-13.42h-.08a23.92,23.92,0,0,1,.21,26.5Z"/><path class="cls-7" d="M105.74,91.67h1.64a23.9,23.9,0,0,1,.22-26.5h-.09c-9.33,1.5-16.25,6.94-16.25,13.42C91.26,84.64,97.32,89.8,105.74,91.67Z"/><path class="cls-3" d="M98,64.75v2.89c0,.57,5.89,1,13.15,1s13.14-.46,13.14-1V64.75Z"/><path class="cls-4" d="M124.29,64.75c0,.57-5.88,1-13.14,1S98,65.32,98,64.75s5.89-1,13.15-1S124.29,64.18,124.29,64.75Z"/><rect class="cls-5" x="110.92" y="40.09" width="0.46" height="24.21"/><rect class="cls-3" x="110.92" y="92.45" width="0.46" height="9.14"/><path class="cls-8" d="M113.61,97c0,.87-1.1,1.58-2.46,1.58s-2.46-.71-2.46-1.58,1.1-1.59,2.46-1.59S113.61,96.15,113.61,97Z"/><path class="cls-9" d="M113.61,115.18c0,.87-1.1,1.58-2.46,1.58s-2.46-.71-2.46-1.58,1.1-1.59,2.46-1.59S113.61,114.3,113.61,115.18Z"/><path class="cls-9" d="M111.15,107.85c-2.68,0-4.86-1.41-4.86-3.13s2.18-3.13,4.86-3.13S116,103,116,104.72,113.82,107.85,111.15,107.85Zm0-5.86c-2.34,0-4.24,1.23-4.24,2.73s1.9,2.73,4.24,2.73,4.23-1.23,4.23-2.73S113.48,102,111.15,102Z"/><path class="cls-9" d="M111.15,113.7c-2.68,0-4.86-1.4-4.86-3.12s2.18-3.13,4.86-3.13,4.85,1.4,4.85,3.13S113.82,113.7,111.15,113.7Zm0-5.85c-2.34,0-4.24,1.22-4.24,2.73s1.9,2.72,4.24,2.72,4.23-1.22,4.23-2.72S113.48,107.85,111.15,107.85Z"/><path class="cls-9" d="M104.83,112c-3.54,0-6.43-1.85-6.43-4.14s2.89-4.14,6.43-4.14,6.43,1.86,6.43,4.14S108.37,112,104.83,112Zm0-7.88c-3.2,0-5.81,1.68-5.81,3.74s2.61,3.74,5.81,3.74,5.81-1.67,5.81-3.74S108,104.13,104.83,104.13Z"/><path class="cls-9" d="M117.46,112c-3.54,0-6.42-1.85-6.42-4.14s2.88-4.14,6.42-4.14,6.43,1.86,6.43,4.14S121,112,117.46,112Zm0-7.88c-3.2,0-5.8,1.68-5.8,3.74s2.6,3.74,5.8,3.74,5.81-1.67,5.81-3.74S120.67,104.13,117.46,104.13Z"/><path class="cls-1" d="M41.22,98.62l-2-.1a8.18,8.18,0,0,1,.95,2c.89,2.84.05,5.82-2.29,8.28a12.39,12.39,0,0,0,1.39,0c-.15.53-.27.89-.27.89a4,4,0,0,0,.61-.92l.28,0c-.13.43-.21.72-.21.72a4.55,4.55,0,0,0,.53-.78l.15,0h.16l-.39,1.49a6.09,6.09,0,0,0,.81-1.53l.14,0-.06.19c.05-.06.11-.12.16-.19l-.21.7a3.31,3.31,0,0,0,.52-.77l.06,0-.3,1a3.74,3.74,0,0,0,.48-.69c-.18.69-.31,1.16-.31,1.16a5.91,5.91,0,0,0,.82-1.55h.12c-.15.53-.27.89-.27.89a4,4,0,0,0,.61-.92l.13,0-.29,1a2.47,2.47,0,0,0,.24-.29l0,0a3.64,3.64,0,0,0,.53-.78l.33-.08-.4,1.52A6.24,6.24,0,0,0,44.1,108l.14-.05-.11.36a2.85,2.85,0,0,0,.36-.48l.27-.17c-.22.78-.4,1.35-.4,1.35a6.52,6.52,0,0,0,1.07-2C47.4,104.33,41.22,98.62,41.22,98.62Z"/><path class="cls-2" d="M40.44,94l-1,.13,0-.26H38.26l-.09.42-.23,0a.76.76,0,0,0-.66,1l1.52,4.89,4.37-.56-1.52-4.89A1.15,1.15,0,0,0,40.44,94Z"/><path class="cls-3" d="M28.28,68.89v2.37c0,.47,4.83.85,10.79.85s10.79-.38,10.79-.85V68.89Z"/><path class="cls-4" d="M49.86,68.89c0,.47-4.83.85-10.79.85s-10.79-.38-10.79-.85S33.11,68,39.07,68,49.86,68.42,49.86,68.89Z"/><path class="cls-5" d="M32.07,69.4h14c8.42-1.87,14.48-7,14.48-13.08,0-7.65-9.62-13.84-21.48-13.84S17.59,48.67,17.59,56.32C17.59,62.38,23.65,67.53,32.07,69.4Z"/><path class="cls-6" d="M37.3,69.4h3.54c8.43-1.87,14.48-7,14.48-13.08,0-6.48-6.92-11.92-16.25-13.43-9.34,1.51-16.25,7-16.25,13.43C22.82,62.38,28.87,67.53,37.3,69.4Z"/><path class="cls-7" d="M42.7,69.4h1.64c8.42-1.87,14.48-7,14.48-13.08,0-6.48-6.92-11.92-16.25-13.43l-.08,0A25,25,0,0,1,46.6,56.33,24.79,24.79,0,0,1,42.7,69.4Z"/><path class="cls-7" d="M33.67,69.4H35.3a24.88,24.88,0,0,1-3.9-13.07,24.92,24.92,0,0,1,4.12-13.42l-.08,0c-9.34,1.51-16.26,7-16.26,13.43C19.18,62.38,25.24,67.53,33.67,69.4Z"/><path class="cls-3" d="M25.93,42.48v2.89c0,.57,5.88,1,13.14,1s13.14-.47,13.14-1V42.48Z"/><path class="cls-4" d="M52.21,42.48c0,.57-5.88,1-13.14,1s-13.14-.46-13.14-1,5.88-1,13.14-1S52.21,41.91,52.21,42.48Z"/><rect class="cls-5" x="38.84" y="17.82" width="0.46" height="24.21"/><rect class="cls-3" x="38.84" y="70.19" width="0.46" height="9.14"/><path class="cls-8" d="M41.53,74.76c0,.88-1.1,1.59-2.46,1.59s-2.46-.71-2.46-1.59,1.1-1.59,2.46-1.59S41.53,73.89,41.53,74.76Z"/><path class="cls-9" d="M41.53,92.91c0,.88-1.1,1.59-2.46,1.59s-2.46-.71-2.46-1.59,1.1-1.59,2.46-1.59S41.53,92,41.53,92.91Z"/><path class="cls-9" d="M39.07,85.58c-2.68,0-4.85-1.4-4.85-3.13s2.17-3.12,4.85-3.12,4.85,1.4,4.85,3.12S41.75,85.58,39.07,85.58Zm0-5.85c-2.34,0-4.24,1.22-4.24,2.72s1.9,2.73,4.24,2.73,4.24-1.22,4.24-2.73S41.4,79.73,39.07,79.73Z"/><path class="cls-9" d="M39.07,91.44c-2.68,0-4.85-1.41-4.85-3.13s2.17-3.13,4.85-3.13,4.85,1.41,4.85,3.13S41.75,91.44,39.07,91.44Zm0-5.86c-2.34,0-4.24,1.23-4.24,2.73S36.73,91,39.07,91s4.24-1.23,4.24-2.73S41.4,85.58,39.07,85.58Z"/><path class="cls-9" d="M32.75,89.75c-3.54,0-6.43-1.86-6.43-4.14s2.89-4.14,6.43-4.14,6.43,1.85,6.43,4.14S36.3,89.75,32.75,89.75Zm0-7.88c-3.2,0-5.81,1.68-5.81,3.74s2.61,3.74,5.81,3.74,5.81-1.68,5.81-3.74S36,81.87,32.75,81.87Z"/><path class="cls-9" d="M45.39,89.75c-3.55,0-6.43-1.86-6.43-4.14s2.88-4.14,6.43-4.14,6.42,1.85,6.42,4.14S48.93,89.75,45.39,89.75Zm0-7.88c-3.21,0-5.81,1.68-5.81,3.74s2.6,3.74,5.81,3.74,5.8-1.68,5.8-3.74S48.59,81.87,45.39,81.87Z"/><path class="cls-4" d="M518.69,0C443.27,38.3,350.55,58.6,253.37,57.6,160.62,56.66,72.89,36.44,1.19,0H0A502.43,502.43,0,0,0,96,36.68c50,13.66,102.92,20.86,157.4,21.41q3.39,0,6.76,0A625.89,625.89,0,0,0,411.74,39.88C450.87,30.11,487.11,16.74,519.93,0Z"/></g></g></svg>