<svg xmlns="http://www.w3.org/2000/svg" xmlns:xlink="http://www.w3.org/1999/xlink" viewBox="0 0 287 76"><defs><style>.cls-1{fill:#dc0000;}.cls-2{fill:#eada8e;}.cls-3{fill:#fdfaf7;}.cls-4{fill:url(#未命名漸層_341);}.cls-5{fill:url(#未命名漸層_338);}.cls-6{fill:#040000;}.cls-7{fill:url(#未命名漸層_341-2);}.cls-8{fill:#fff;}.cls-9{fill:url(#未命名漸層_341-3);}.cls-10{fill:url(#未命名漸層_347);}.cls-11{fill:url(#未命名漸層_347-2);}.cls-12,.cls-13{fill:none;}.cls-12{stroke:#040000;stroke-linecap:round;stroke-linejoin:round;stroke-width:0.5px;}</style><linearGradient id="未命名漸層_341" x1="80.79" y1="22.05" x2="89.06" y2="42.84" gradientUnits="userSpaceOnUse"><stop offset="0" stop-color="#ff8a00"/><stop offset="1" stop-color="#ce5800"/></linearGradient><linearGradient id="未命名漸層_338" x1="54.82" y1="20.83" x2="55.24" y2="79.56" gradientUnits="userSpaceOnUse"><stop offset="0" stop-color="#ffeec2"/><stop offset="1" stop-color="#ffbd00"/></linearGradient><linearGradient id="未命名漸層_341-2" x1="70.24" y1="22.91" x2="78.99" y2="44.9" xlink:href="#未命名漸層_341"/><linearGradient id="未命名漸層_341-3" x1="45.61" y1="32.71" x2="54.36" y2="54.7" xlink:href="#未命名漸層_341"/><linearGradient id="未命名漸層_347" x1="63.6" y1="30.96" x2="60.43" y2="54.86" gradientUnits="userSpaceOnUse"><stop offset="0" stop-color="#fafbff"/><stop offset="1" stop-color="#9c9fc4"/></linearGradient><linearGradient id="未命名漸層_347-2" x1="37.45" y1="27.49" x2="34.28" y2="51.4" xlink:href="#未命名漸層_347"/></defs><g id="圖層_2" data-name="圖層 2"><g id="圖層_1-2" data-name="圖層 1"><rect class="cls-1" x="107.09" y="-103.53" width="72.81" height="283.52" rx="15.85" transform="translate(105.27 181.73) rotate(-90)"/><path class="cls-2" d="M287,16.11V59.89A16.18,16.18,0,0,1,270.8,76H16.2A16.18,16.18,0,0,1,0,59.89V16.11A16.18,16.18,0,0,1,16.2,0H270.8A16.18,16.18,0,0,1,287,16.11ZM3.56,60.25A12.58,12.58,0,0,0,16.13,72.81H270.87a12.58,12.58,0,0,0,12.57-12.56v-44A12.59,12.59,0,0,0,270.87,3.64H16.13A12.59,12.59,0,0,0,3.56,16.21Z"/><path class="cls-3" d="M112.66,36.26h24.91L136,43.19h-7.44l-.21.93h7.14l-1.05,4.58h-7.14l-.25,1h7.77l-1.89,8.11H116.19l-2-2.14L112,57.9h-5.51l2.65-11.51-1.13.25-2.57,11.13H93.72l1-4.45,2.06-1.18L97.5,49H95.44L97.88,38.4l2.18-.5,1.3-5.67H99.64L102,22.15h1.76l.72-3.11h9.91l-.71,3.11h1.59l-2.31,10.08h-1.63l-.76,3.4h1.3l-2,8.57h7.22l-1.3,5.5h1l1.47-6.51h-7.18Zm.51-.92,3.73-16.26h24l-3.74,16.26Zm15.24-4.75.26-1.09H124l-.25,1.09ZM125,25l-.25,1.05h4.7l.26-1.05Z"/><path class="cls-3" d="M149.54,42.06,146.09,57H135.55l2.52-10.92,4.16-4Zm-7.77-11.43H181l-2.23,9.75H166.38L162.31,58H147.94L152,40.38H139.54Zm38.43-1.8H143.4l2.23-9.58h36.8Zm-5.42,13.23,2.9,3.61L175.08,57h-10.5L168,42.06Z"/><path class="cls-3" d="M225.27,20.17l-1.89,8.24H195.23l-5.92,25.71-3.74,3.52h-8.19L186,20.17h13.28l.42-1.76h14l-.38,1.76ZM191.2,50.33H218l-1.68,7.4H189.48Zm5-20.91h26.13l-1.14,5-3.69.76-.34,1.6h3.7L219.6,42h-3.7l0,.25,2.73,4.54L218,49.24h-9.7l-1.22-2.69L204.6,49.2h-13ZM206.07,42h-3.36l-.29,1.22h3.4Zm-1.85-6.56-.29,1.31h3.36l.29-1.31Z"/><path class="cls-3" d="M249.37,20.93l-8.48,36.76H230.34l1.73-7.44L233.58,49l4.2-18.15h-1l-8.1,26.93H219l1.39-6L228,30.84h-1.76l2.31-9.91h1.89l.5-2.18H242l-.5,2.18Zm18-.71L258.87,57.1H242.4l8.53-36.88ZM256.81,31.1h-1.39l-3.69,16h1.38Z"/><path class="cls-4" d="M88.51,28.91a31.15,31.15,0,0,1-6.89,6.19,28.93,28.93,0,0,1,2.5,9.22,12.36,12.36,0,0,1-3,1.68c.38-3.57-.14-7-1.33-9-2.78-4.66-1.52-3.31,4.44-7.33a9,9,0,0,0,3.44-4.15,9.69,9.69,0,0,0,.17-6.28C91.62,22.48,90.67,26,88.51,28.91Z"/><path class="cls-5" d="M87.84,19.25a0,0,0,0,0,0,0,12.4,12.4,0,0,0-1.56-1.16,11.71,11.71,0,0,0-4.2-1.75c-8.19-1.53-12.5,9.22-12.5,9.22a28.26,28.26,0,0,0-29.2-2.45A8.49,8.49,0,0,0,38.89,18c-2.94-4.43-9.69-6.23-14-1.2-5.74,6.71,2.59,16.9,2.59,16.9a23.39,23.39,0,0,0-5.41,8.9c.11-.27,1.05-2.55,1.46-3.4a4.8,4.8,0,0,0,1.33,1.64,15,15,0,0,0,5.81,2.83,12.92,12.92,0,0,1-7.24-.36,10.26,10.26,0,0,1-1.37-.68A12.2,12.2,0,0,0,21.55,46v.3a18.34,18.34,0,0,0,8.62,3.19,18,18,0,0,1-7.52,1.09C23.82,52.8,26,55,29.79,56.88h0c9,2.64,36.57,4.32,44.23.87a9.33,9.33,0,0,0,2.93-2,25.21,25.21,0,0,1-5.67-2.17,27.46,27.46,0,0,0,7.46-.15A15.77,15.77,0,0,0,80.56,49a25.73,25.73,0,0,1-8.18-1.24A24.23,24.23,0,0,0,81.12,46c.38-3.57-.14-7-1.33-9-2.78-4.66-1.52-3.31,4.44-7.33a9,9,0,0,0,3.44-4.15A9.69,9.69,0,0,0,87.84,19.25ZM44.43,39.48A1.26,1.26,0,0,1,44.88,37s4.45-.29,4.31,1.42S46,40.06,44.43,39.48Zm22.5,1a10.79,10.79,0,0,1-11.55-3.74c5.36-2.39,11.55-5.22,11.55-5.22a15.09,15.09,0,0,1,1.94,2.27C70.37,35.94,71.52,39.11,66.93,40.45Z"/><path class="cls-6" d="M84.11,44.32a21.9,21.9,0,0,1,0,4.27h-.06A20.49,20.49,0,0,0,84.11,44.32Z"/><path class="cls-6" d="M84.11,44.32a20.49,20.49,0,0,1-.06,4.28,14.93,14.93,0,0,1-3.49.42,19.57,19.57,0,0,0,.56-3A12.55,12.55,0,0,0,84.11,44.32Z"/><path class="cls-7" d="M84.05,48.6a15.17,15.17,0,0,1-1,3.79h0a24.4,24.4,0,0,1-4.27,1A15.77,15.77,0,0,0,80.56,49,14.93,14.93,0,0,0,84.05,48.6Z"/><path class="cls-6" d="M83,52.39h0A7.67,7.67,0,0,1,82.22,54,10.46,10.46,0,0,0,83,52.39Z"/><path class="cls-6" d="M83,52.39A10.46,10.46,0,0,1,82.22,54c-.08.14-.16.28-.25.41-.44.65-.9,1.22-1.2,1.58a1.83,1.83,0,0,0-.13.16,1.34,1.34,0,0,1-.2.21A27.84,27.84,0,0,1,77,55.7a10.79,10.79,0,0,0,1.79-2.32A24.4,24.4,0,0,0,83,52.39Z"/><path class="cls-8" d="M80.77,56c.3-.36.76-.93,1.2-1.58A9.28,9.28,0,0,1,80.77,56Z"/><path class="cls-6" d="M80.44,56.39a1.34,1.34,0,0,0,.2-.21l-.18.21Z"/><path class="cls-6" d="M81.12,46a19.57,19.57,0,0,1-.56,3,25.64,25.64,0,0,1-8.17-1.24A24.38,24.38,0,0,0,81.12,46Z"/><path class="cls-9" d="M77,55.7a27.84,27.84,0,0,0,3.46.69c-4.29,4.53-13,7.49-29.76,5.66C41,61,34.3,59.15,29.82,56.88c9,2.64,36.58,4.32,44.24.88A9.6,9.6,0,0,0,77,55.7Z"/><path class="cls-6" d="M78.77,53.38A10.79,10.79,0,0,1,77,55.7a25.21,25.21,0,0,1-5.67-2.17A27.87,27.87,0,0,0,78.77,53.38Z"/><path class="cls-10" d="M68.87,33.76c1.5,2.18,2.65,5.35-1.94,6.69a10.78,10.78,0,0,1-11.55-3.74c5.36-2.38,11.55-5.22,11.55-5.22A15.09,15.09,0,0,1,68.87,33.76Z"/><path class="cls-6" d="M44.87,37s4.46-.29,4.32,1.42-3.24,1.61-4.77,1A1.27,1.27,0,0,1,44.87,37Z"/><path class="cls-11" d="M36.18,28.77s3.47,5.29,5.39,6.29c0,0-6.79,3.26-9.42,0a2.46,2.46,0,0,1-.1-3.11,8.17,8.17,0,0,1,2.5-2.26A14.17,14.17,0,0,1,36.18,28.77Z"/><path class="cls-6" d="M30.67,43.66a13,13,0,0,1-7.24-.37l.44-.72c.33-.56.66-1.14,1-1.75A15.11,15.11,0,0,0,30.67,43.66Z"/><path class="cls-6" d="M23.53,39.18a4.8,4.8,0,0,0,1.33,1.64c-.33.61-.66,1.19-1,1.75l-.44.72a12.57,12.57,0,0,1-1.38-.68l0,0C22.19,42.3,23.11,40,23.53,39.18Z"/><path class="cls-6" d="M21.55,46.27a18.22,18.22,0,0,0,8.61,3.19,17.88,17.88,0,0,1-7.51,1.09l-.21-.41s0,0,0,0A17.07,17.07,0,0,1,21.75,48l0-.2A10.72,10.72,0,0,1,21.55,46.27Z"/><path class="cls-6" d="M22.65,50.55h0l-.17-.41Z"/><path class="cls-8" d="M21.75,48a17.07,17.07,0,0,0,.68,2.06A9.93,9.93,0,0,1,21.75,48Z"/><path class="cls-6" d="M21.55,46.27a10.72,10.72,0,0,0,.16,1.57,8,8,0,0,1-.25-1.64A.28.28,0,0,0,21.55,46.27Z"/><path class="cls-12" d="M40.29,23.22a28.26,28.26,0,0,1,29.2,2.45s5.81-14.44,16.7-7.48-3,15.8-4.64,17c0,0,15.8,32.05-30.94,26.95S27.4,33.8,27.4,33.8s-8.32-10.19-2.58-16.9S40.61,15.62,40.29,23.22Z"/><path class="cls-12" d="M66.85,31.6s-6.19,2.84-11.54,5.23a10.75,10.75,0,0,0,11.54,3.73C74.2,38.44,66.85,31.6,66.85,31.6Z"/><path class="cls-12" d="M68.79,33.88s3-1.86,4.83-1.12"/><path class="cls-12" d="M70.12,37.53s2.76,0,3.5,1"/><path class="cls-12" d="M36.1,28.9s3.48,5.28,5.39,6.27c0,0-6.79,3.27-9.41,0S36.1,28.9,36.1,28.9Z"/><path class="cls-12" d="M34.48,29.8A15.93,15.93,0,0,0,32.73,28"/><path class="cls-12" d="M32,32.08a8.86,8.86,0,0,0-2.25-.48"/><path class="cls-13" d="M84,44.44s-3.73,3.2-11.73,3.45c0,0,6.17,2.17,11.73.82A21.9,21.9,0,0,0,84,44.44Z"/><path class="cls-13" d="M83,52.5a28.66,28.66,0,0,1-11.73,1.15,27,27,0,0,0,9.14,2.85A14.9,14.9,0,0,0,83,52.5Z"/><path class="cls-13" d="M23.45,39.29s1.1,2.78,7.15,4.48c0,0-4.69,1.29-8.62-1C22,42.73,23,40.2,23.45,39.29Z"/><path class="cls-13" d="M21.38,46.32a18.15,18.15,0,0,0,8.71,3.25,18.09,18.09,0,0,1-7.56,1.1A14.56,14.56,0,0,1,21.38,46.32Z"/><path class="cls-13" d="M44.8,37.15a1.27,1.27,0,0,0-.45,2.45c1.52.58,4.64.67,4.77-1S44.8,37.15,44.8,37.15Z"/></g></g></svg>