<svg id="圖層_1" data-name="圖層 1" xmlns="http://www.w3.org/2000/svg" viewBox="0 0 45.99 45.37"><defs><style>.cls-1{fill:#6668aa;}.cls-2{fill:#bfd9f1;stroke:#989cc8;stroke-width:4.16px;}.cls-3{fill:#fff;}.cls-4{fill:#aec9e9;}.cls-5{fill:#9db9db;}.cls-6{fill:#231815;}.cls-7{fill:#ffe100;}.cls-8{fill:#e50012;}.cls-9{fill:#44af35;}.cls-10{fill:#004da0;}</style></defs><title>00</title><path class="cls-1" d="M46,22.68A22.85,22.85,0,0,1,23,45.37,22.84,22.84,0,0,1,0,22.68,22.84,22.84,0,0,1,23,0,22.85,22.85,0,0,1,46,22.68Z"/><path class="cls-2" d="M39.66,22.68a17,17,0,1,1-17-17A17,17,0,0,1,39.66,22.68Z"/><path class="cls-3" d="M7.93,6.85l1-.74L8.82,6,9,5.83s.07,0,.08,0a.11.11,0,0,1,0,.08l0,0,1-.74.12.17-1,.74.08.11.9-.67.11.16L8.43,7.14,8.32,7l.81-.6L9,6.27,8.05,7Zm.7,1,2.24-1.66.28.39-.22.16-.16-.21L9,7.81,9.14,8l-.23.17Zm0-.7L10.2,6l.27.36L8.92,7.48Zm1.49-.76-.06-.08L9,7.08,9,7.17Zm-1,1.48,1.63-1.2.11.15-.19.15a2.58,2.58,0,0,1,.46.05l-.08.23-.21,0-.48.41.09.13.77-.57.11.16-.77.57.08.1,1-.72.13.17L9.57,9l-.13-.18,1-.72L10.34,8l-.75.56-.11-.16.75-.55-.09-.11-.56.48a.13.13,0,0,1,0,.08s0,0-.06,0l-.16-.19.3-.22,0-.24L9.23,8Zm1.47-.69h-.15v0l-.54.39,0,.24Z"/><path class="cls-3" d="M14.7,2.81,15,2.75s.08,0,.08,0,0,0,0,.08l.88,2.64-.28.09-.22-.66c-.14.14-.34.32-.59.54,0,0,0,.07-.05.08s0,0,0,0l-.18-.28a4.82,4.82,0,0,0,.78-.56l-.24-.74-.86.29-.09-.27L15,3.66Zm.69-.22.34-.06s.07,0,.07,0,0,.06,0,.11a.12.12,0,0,0,0,.12L16,3.5l.19-.19a2.23,2.23,0,0,0,.37-.5l.26.14a.08.08,0,0,1,0,0s0,0,0,0h-.07a.23.23,0,0,0-.05.05,3.13,3.13,0,0,1-.63.71l.3.92a.5.5,0,0,0,.11.18.25.25,0,0,0,.19,0l.16,0A.3.3,0,0,0,17,4.69c0-.06,0-.2,0-.43l.31,0a1.21,1.21,0,0,1,0,.56.28.28,0,0,1-.18.17l-.47.16a.42.42,0,0,1-.33,0,.59.59,0,0,1-.19-.29Z"/><path class="cls-3" d="M22.05,1.45l.29,0c.06,0,.08,0,.08.05s0,0-.06.07v.32h1.31v.28l-2.91,0V1.92h1.29Zm-.86,1.17h.87V2.27l.29,0s.08,0,.08,0,0,0-.07.07v.21h1.07V3.82a.31.31,0,0,1-.26.3,2.09,2.09,0,0,1-.42,0l-.12-.31H23c.1,0,.15,0,.15-.13V2.88h-.76V4.4h-.31V2.89h-.71V4.23h-.31V2.62Z"/><path class="cls-3" d="M27.8,2.4l1.25.4L29,3.05l-.44-.14-.19.6.41.13-.08.25-.41-.13L28,4.53h.55l-.08.24q-.42,0-1.32,0s-.06.05-.08,0,0,0,0,0l0-.32h.11l.44-1.34.23.09s.06,0,.05,0,0,0-.07.06l-.38,1.18.26,0,.54-1.68-.54-.18Zm1.69.26.27.14s0,0,0,.06,0,0-.11,0a2,2,0,0,1-.17.26l1,.31-.09.26-.17-.06a4.07,4.07,0,0,1-.38.71,2.56,2.56,0,0,1-.36.43l-.11.08a3.06,3.06,0,0,0,.45.71l-.29.16a3.18,3.18,0,0,1-.4-.7L29,5.15a4.93,4.93,0,0,1-.69.2L28.11,5a2.84,2.84,0,0,0,.6-.12A1.64,1.64,0,0,0,29,4.78v0a2.59,2.59,0,0,1,0-1.07l.25.06a2.17,2.17,0,0,0,0,.87,2.12,2.12,0,0,0,.33-.39A4.56,4.56,0,0,0,30,3.59l-.63-.2a2.21,2.21,0,0,1-.45.36l-.16-.25a2.09,2.09,0,0,0,.45-.36A2.05,2.05,0,0,0,29.49,2.66Z"/><path class="cls-3" d="M35.51,5.71l.22.19s.05.06,0,.08a.16.16,0,0,1-.1,0l-.1.14,1,.73-.17.23-2-1.45L34,6.23l-.14.19a3.59,3.59,0,0,0,.52-.13A4.33,4.33,0,0,0,34.94,6l.14.23a.18.18,0,0,1,0,.06s-.06,0-.11,0l-.36.15-1,1.43-.22-.16.82-1.13-.37.07,0-.21a5.5,5.5,0,0,1-.37.42,4.62,4.62,0,0,1-.58.51l-.15-.28a4.27,4.27,0,0,0,.53-.46,5.3,5.3,0,0,0,.54-.63l.58-.81,1,.72Zm-.81,1,.81.58.33-.47.25.22s0,0,0,.07a.17.17,0,0,1-.12,0l-.23.33.26.19-.17.24-.27-.2L35,8.47a.35.35,0,0,1-.28.17.92.92,0,0,1-.5-.24l.07-.32.26.19a.16.16,0,0,0,.24,0l.55-.75-.81-.59Zm-.14.45a3.17,3.17,0,0,1,.11.81l-.3,0a3.34,3.34,0,0,0-.06-.78Z"/><path class="cls-3" d="M42.25,14.35a3.33,3.33,0,0,1,.22.46,1.06,1.06,0,0,1,.06.79.88.88,0,0,1-.53.5,1.06,1.06,0,0,1-.78,0,1.2,1.2,0,0,1-.56-.67c-.06-.17-.11-.3-.14-.42Zm-1.47.84.08.23a.72.72,0,0,0,1,.44.67.67,0,0,0,.4-1,1.1,1.1,0,0,0-.13-.25Z"/><path class="cls-3" d="M41.85,16.8a.43.43,0,0,0-.32.57,1,1,0,0,0,.17.34l-.15.09a1,1,0,0,1-.22-.4.63.63,0,0,1,.47-.83.65.65,0,0,1,.88.39.57.57,0,0,1-.45.72l-.11,0Zm.37.63a.35.35,0,0,0,.29-.43.41.41,0,0,0-.49-.25Z"/><path class="cls-3" d="M42.5,18.09l.43-.1,0,.21-.23.06h0a.54.54,0,0,1,.35.42.61.61,0,0,1-.56.7.63.63,0,0,1-.83-.45.46.46,0,0,1,.12-.45h0l-.72.15,0-.24Zm-.3.31-.1,0a.38.38,0,0,0-.2.42c.05.25.29.35.59.29s.46-.24.41-.49a.37.37,0,0,0-.37-.3.17.17,0,0,0-.1,0Z"/><path class="cls-3" d="M42.38,20.82l-.32.06,0-.21.16,0h0a.54.54,0,0,1-.25-.38.38.38,0,0,1,.33-.46c.33,0,.54.22.61.74h0a.27.27,0,0,0,.26-.34.58.58,0,0,0-.14-.34l.16-.07a.85.85,0,0,1,.17.42c0,.41-.22.54-.48.58Zm.33-.28c0-.26-.12-.56-.38-.52a.21.21,0,0,0-.2.25.33.33,0,0,0,.27.3h.08Z"/><path class="cls-3" d="M43,21.31l.43,0v.22l-.27,0h0a.4.4,0,0,1,.32.36v.06l-.23,0v-.08a.34.34,0,0,0-.33-.31.24.24,0,0,0-.12,0l-.72,0,0-.24Z"/><path class="cls-3" d="M43.83,22.73H43.5v.35h-.19v-.35h-.74c-.16,0-.26.05-.26.19a.52.52,0,0,0,0,.14h-.19a1,1,0,0,1,0-.22.36.36,0,0,1,.1-.26.5.5,0,0,1,.35-.1h.74v-.21h.19v.21h.25Z"/><path class="cls-3" d="M43.15,23.55l.36,0v.21h-.23a.46.46,0,0,1,.22.45.4.4,0,0,1-.3.35h0a.66.66,0,0,1,.17.16.51.51,0,0,1,.07.31c0,.18-.15.43-.62.39l-.8-.06,0-.24.77.06c.26,0,.42-.06.44-.26a.32.32,0,0,0-.2-.3.27.27,0,0,0-.12,0l-.84-.07,0-.24.81.07c.22,0,.38-.07.39-.25a.34.34,0,0,0-.22-.33l-.12,0-.81-.07,0-.24Z"/><path class="cls-3" d="M42.52,26.11a.43.43,0,0,0-.55.36.94.94,0,0,0,0,.38h-.18a1.09,1.09,0,0,1,0-.45.63.63,0,0,1,.79-.53.66.66,0,0,1,.6.75.56.56,0,0,1-.72.43l-.12,0Zm0,.73a.35.35,0,0,0,.45-.26.4.4,0,0,0-.32-.44Z"/><path class="cls-3" d="M42.58,27.58l.36.09-.06.2-.22,0h0a.49.49,0,0,1,.13.5c0,.18-.23.43-.68.31l-.78-.21.06-.24.76.2c.21.06.41,0,.47-.19a.36.36,0,0,0-.16-.38l-.11-.05-.78-.21.06-.24Z"/><path class="cls-3" d="M42.66,29.72l-.3-.1-.12.33-.17-.06.11-.34-.69-.24c-.16,0-.26,0-.31.09a.44.44,0,0,0,0,.14L41,29.49a.73.73,0,0,1,0-.22.35.35,0,0,1,.18-.21.49.49,0,0,1,.37,0l.7.24.07-.2.17.06-.06.2.23.08Z"/><path class="cls-3" d="M40.31,32.56a.66.66,0,1,1,.91-.25A.63.63,0,0,1,40.31,32.56Zm.48-1a.46.46,0,0,0-.65.12c-.11.21,0,.46.28.6a.45.45,0,0,0,.64-.11A.46.46,0,0,0,40.79,31.61Z"/><path class="cls-3" d="M39.47,32.62l1,.6.1-.16.16.1-.1.16.06,0a.65.65,0,0,1,.32.38.47.47,0,0,1-.06.35.58.58,0,0,1-.14.16l-.15-.13a.33.33,0,0,0,.11-.12c.11-.18,0-.32-.2-.42l-.06,0-.17.28-.16-.1.17-.28-1-.61Z"/><path class="cls-3" d="M37.32,35.68a1.87,1.87,0,0,1,.29-.51,1,1,0,1,1,1.45,1.28,1,1,0,0,1-.37.3l-.12-.17a.85.85,0,0,0,.33-.27.7.7,0,0,0-.1-1.06.68.68,0,0,0-1,.07.63.63,0,0,0-.17.28L38,36l.24-.29.15.12-.39.48Z"/><path class="cls-3" d="M36.55,37.32a.66.66,0,0,1,0-1,.64.64,0,0,1,.95,0,.66.66,0,0,1,0,1A.64.64,0,0,1,36.55,37.32Zm.75-.76a.42.42,0,1,0,.08.66A.46.46,0,0,0,37.3,36.56Z"/><path class="cls-3" d="M36.59,38.18l-.7-.41-.31-.19h0c.05.11.09.22.14.34l.29.75-.19.16-.48-1.37.18-.15,1.27.7Z"/><path class="cls-3" d="M35,38.58a.44.44,0,0,0-.65-.11.72.72,0,0,0-.26.28l-.14-.12a1,1,0,0,1,.31-.33.63.63,0,0,1,.94.16.66.66,0,0,1-.08,1,.57.57,0,0,1-.83-.19l-.06-.09Zm-.48.57a.36.36,0,0,0,.51.12.41.41,0,0,0,.07-.54Z"/><path class="cls-3" d="M34,39.63l.24.36L34,40.1l-.15-.22h0a.42.42,0,0,1-.16.45l-.06,0-.13-.2.08,0a.35.35,0,0,0,.11-.44l-.06-.1L33.27,39l.2-.13Z"/><path class="cls-3" d="M33.07,40.26l.18.32-.19.1L33,40.49h0a.5.5,0,0,1-.27.43c-.17.09-.47.13-.69-.28l-.38-.71.21-.12.37.69c.1.19.26.31.46.21a.36.36,0,0,0,.17-.38.3.3,0,0,0,0-.11l-.38-.72.21-.11Z"/><path class="cls-3" d="M31.53,41.07c.06.13.11.23.15.33l-.2.09-.09-.21h0a.46.46,0,0,1-.3.39.4.4,0,0,1-.45-.11h0a.48.48,0,0,1-.08.22.44.44,0,0,1-.24.2c-.16.07-.45.06-.63-.38l-.3-.73.22-.09.29.71c.1.24.25.35.43.27a.3.3,0,0,0,.18-.31.5.5,0,0,0,0-.12l-.32-.78.22-.09.31.75c.08.2.23.31.4.24a.34.34,0,0,0,.19-.34.53.53,0,0,0,0-.12l-.31-.76.22-.09Z"/><path class="cls-3" d="M29,41.66a.44.44,0,0,0-.57-.33.76.76,0,0,0-.34.18L28,41.35a1.1,1.1,0,0,1,.4-.21.63.63,0,0,1,.83.47.67.67,0,0,1-.4.88.57.57,0,0,1-.71-.46.61.61,0,0,1,0-.11Zm-.64.37a.35.35,0,0,0,.44.28.39.39,0,0,0,.25-.48Z"/><path class="cls-3" d="M27.68,42.38c0,.14.05.25.08.36l-.21,0-.06-.22h0a.49.49,0,0,1-.39.34c-.18,0-.48,0-.58-.47l-.16-.79.24,0,.16.77c0,.21.16.37.38.33a.35.35,0,0,0,.27-.32.4.4,0,0,0,0-.11l-.17-.8.24-.05Z"/><path class="cls-3" d="M25.8,43.42l0-.33-.35,0,0-.18.34-.05-.09-.73c0-.16-.09-.25-.22-.23l-.14,0,0-.18a.59.59,0,0,1,.21-.06.33.33,0,0,1,.27.06.54.54,0,0,1,.14.34l.1.74.21,0,0,.18-.21,0,0,.25Z"/><path class="cls-3" d="M22.45,42.8h.73v-.68h-.81v-.21h1.06V43.8h-1v-.21h.77V43h-.73Z"/><path class="cls-3" d="M21.56,43.54l0-.32-.35,0,0-.18.34,0,.05-.73c0-.16,0-.26-.16-.27h-.14v-.18a.47.47,0,0,1,.22,0,.33.33,0,0,1,.25.12.49.49,0,0,1,.07.36l-.05.74H22v.19h-.21l0,.25Z"/><path class="cls-3" d="M20.67,43.78l-.24,0,.11-.85h0a.53.53,0,0,1-.2.16.55.55,0,0,1-.26,0c-.17,0-.44-.18-.38-.64l.11-.8.24,0-.1.77c0,.21,0,.41.25.44a.37.37,0,0,0,.36-.2l0-.11.11-.81.24,0Z"/><path class="cls-3" d="M18.7,43.2a.15.15,0,0,1,.18-.12.16.16,0,0,1,.12.18.15.15,0,0,1-.18.12A.14.14,0,0,1,18.7,43.2Zm.61-1.65L19,42.88l-.24-.05.27-1.33Z"/><path class="cls-3" d="M17.63,41.2a1.1,1.1,0,0,1,.39,0,.64.64,0,0,1,.48.84.7.7,0,0,1-.88.52.8.8,0,0,1-.31-.16l.1-.17a.63.63,0,0,0,.25.14.47.47,0,0,0,.59-.38.46.46,0,0,0-.32-.61.83.83,0,0,0-.31,0Z"/><path class="cls-3" d="M17.21,41.28a.72.72,0,0,0-.27-.19c-.17-.06-.28,0-.31.11s0,.19.15.31.27.32.22.48a.42.42,0,0,1-.56.23.73.73,0,0,1-.29-.19l.11-.15a.53.53,0,0,0,.24.17c.14,0,.24,0,.27-.11s0-.18-.17-.3-.27-.3-.2-.5.3-.32.6-.23a.82.82,0,0,1,.33.21Z"/><path class="cls-3" d="M15.74,40.11a5,5,0,0,0-.42.55l-.26-.08a3.62,3.62,0,0,1,.52-.52Z"/><path class="cls-3" d="M13.18,41.14l.5.27-.1.18-1.22-.66.1-.18L13,41l.8-1.48.21.12Z"/><path class="cls-3" d="M12.17,39a1.71,1.71,0,0,0,.16-.29l.18.12-.07.15h0a.47.47,0,0,1,.45,0,.38.38,0,0,1,.14.55c-.17.27-.51.27-.95,0v0a.27.27,0,0,0,.09.42.59.59,0,0,0,.35.1l0,.17a.85.85,0,0,1-.44-.13.48.48,0,0,1-.14-.74Zm0,.43c.22.15.5.27.64.05a.21.21,0,0,0-.07-.32.34.34,0,0,0-.4,0l0,.07Z"/><path class="cls-3" d="M10.71,39.66a.14.14,0,0,1,.21,0,.15.15,0,0,1-.18.25A.16.16,0,0,1,10.71,39.66Zm1.23-1.25-.79,1.1-.2-.14.79-1.11Z"/><path class="cls-3" d="M10.75,38.68a3.34,3.34,0,0,0-.27.35l-.17-.14.13-.19h0a.52.52,0,0,1-.54-.1.62.62,0,0,1,0-.89.65.65,0,0,1,.94-.18A.44.44,0,0,1,11,38h0l.46-.58.19.16Zm0-.44a.22.22,0,0,0,.05-.08.4.4,0,0,0-.1-.46c-.2-.16-.45-.09-.65.15a.44.44,0,0,0,0,.64.36.36,0,0,0,.47,0l.08-.06Z"/><path class="cls-3" d="M9.49,37.26a.43.43,0,0,0,0-.66.9.9,0,0,0-.32-.21l.09-.16a1,1,0,0,1,.38.25.63.63,0,0,1,0,1,.65.65,0,0,1-1,.1.57.57,0,0,1,0-.85l.08-.08Zm-.64-.37a.35.35,0,0,0,0,.52.4.4,0,0,0,.54,0Z"/><path class="cls-3" d="M7.5,36.82a.15.15,0,0,1,.22,0,.14.14,0,0,1,0,.21.15.15,0,1,1-.21-.22Zm1.46-1-1,.93-.17-.18,1-.92Z"/><path class="cls-3" d="M7.14,33.73a1.3,1.3,0,0,1,.37.34.88.88,0,0,1-.2,1.31,1,1,0,0,1-1.39-.17,1,1,0,0,1-.2-.41l.2-.07a.82.82,0,0,0,.16.35.69.69,0,0,0,1.06.1.68.68,0,0,0,.17-1,.79.79,0,0,0-.3-.26Z"/><path class="cls-3" d="M5.37,34.1a.14.14,0,0,1,.21,0,.15.15,0,0,1,0,.21.14.14,0,0,1-.21,0A.15.15,0,0,1,5.37,34.1ZM7,33.36l-1.13.75-.14-.2,1.13-.75Z"/><path class="cls-3" d="M5,33.33l.27-.17-.18-.3.16-.09.19.3L6,32.69c.15-.09.2-.18.13-.29a.41.41,0,0,0-.09-.12l.16-.1a.66.66,0,0,1,.14.17.36.36,0,0,1,0,.28.54.54,0,0,1-.26.26l-.63.38.11.18-.16.1-.11-.18-.22.13Z"/><path class="cls-3" d="M4.77,32.36l.58-.63.2-.21h0l-.29.05-.83.13-.12-.23,1-.12a2.08,2.08,0,0,1,1,0,.71.71,0,0,1,.27.2l-.15.14a1,1,0,0,0-.21-.13.93.93,0,0,0-.33-.06H5.82l0,0-.88,1Z"/><path class="cls-3" d="M4.52,28.59a1.77,1.77,0,0,1,.29.5.93.93,0,0,1,0,.75,1,1,0,0,1-.56.48A.94.94,0,0,1,3,29.71a1.22,1.22,0,0,1-.08-.47h.21a1,1,0,0,0,.06.42.72.72,0,0,0,1,.44.69.69,0,0,0,.46-.94.72.72,0,0,0-.16-.28l-.53.19.13.35-.18.07-.21-.58Z"/><path class="cls-3" d="M3.48,27.12a.66.66,0,0,1,.87.45.65.65,0,0,1-.51.81A.65.65,0,0,1,3,27.92.63.63,0,0,1,3.48,27.12Zm.29,1c.29-.08.46-.3.4-.53s-.32-.33-.62-.25-.47.24-.39.52S3.52,28.21,3.77,28.14Z"/><path class="cls-3" d="M2.71,26.71l.7-.4.33-.17h0l-.36-.05L2.57,26l0-.25L4,26l0,.22L2.76,27Z"/><path class="cls-3" d="M3.18,25.11a.43.43,0,0,0,.41-.51.9.9,0,0,0-.11-.37l.17-.06a1.18,1.18,0,0,1,.14.44.63.63,0,0,1-.61.73.64.64,0,0,1-.79-.54A.57.57,0,0,1,3,24.17h.11Zm-.26-.69a.35.35,0,0,0-.36.38.41.41,0,0,0,.44.32Z"/><path class="cls-3" d="M2.74,23.72l-.42,0v-.21l.27,0h0a.41.41,0,0,1-.32-.36s0,0,0-.07H2.5v.08a.35.35,0,0,0,.33.32h.11l.72,0,0,.24Z"/><path class="cls-3" d="M2.65,22.63H2.28v-.22h.23A.48.48,0,0,1,2.27,22c0-.19.12-.48.58-.47l.81,0v.24H2.87c-.22,0-.4.07-.4.3a.33.33,0,0,0,.24.33.22.22,0,0,0,.12,0l.81,0v.24Z"/><path class="cls-3" d="M2.7,20.89l-.37,0,0-.21h.22a.47.47,0,0,1-.19-.46.39.39,0,0,1,.31-.34h0a.5.5,0,0,1-.15-.18.42.42,0,0,1-.06-.3c0-.18.17-.43.64-.37l.79.1,0,.24-.76-.1c-.26,0-.43.05-.45.24a.32.32,0,0,0,.18.32.53.53,0,0,0,.12,0l.83.11,0,.24L3,20.08c-.22,0-.38.05-.41.23a.37.37,0,0,0,.21.34l.12,0,.81.1,0,.24Z"/><path class="cls-3" d="M3.44,18.37A.44.44,0,0,0,4,18a1,1,0,0,0,0-.38H4.2a1.2,1.2,0,0,1,0,.46.64.64,0,0,1-.82.49.65.65,0,0,1-.57-.78.58.58,0,0,1,.75-.4l.11,0Zm0-.74a.34.34,0,0,0-.46.24.41.41,0,0,0,.3.46Z"/><path class="cls-3" d="M3.44,16.89a1.89,1.89,0,0,0-.35-.1l.07-.21.21.05h0a.49.49,0,0,1-.11-.5c.06-.18.25-.42.7-.28l.76.25-.07.23-.75-.24c-.2-.06-.4,0-.47.18a.35.35,0,0,0,.14.39l.1.05.78.25-.08.23Z"/><path class="cls-3" d="M3.46,14.74l.31.12.13-.32.17.06-.13.33.68.27c.15.06.26.06.31-.07S5,15,5,15l.18.06a1.56,1.56,0,0,1-.05.22.39.39,0,0,1-.2.2.48.48,0,0,1-.36,0l-.69-.28-.08.2-.17-.08.08-.19L3.44,15Z"/><path class="cls-4" d="M7.14,11.09a1,1,0,0,1-2,0,1,1,0,1,1,2,0Z"/><path class="cls-4" d="M40,11.09a1,1,0,1,1-1-1A1,1,0,0,1,40,11.09Z"/><path class="cls-5" d="M16.19,21.68s-.77-5.11.54-5.89,5.55.21,6.74,1.08L18.36,17S16.2,20.82,16.19,21.68Z"/><path class="cls-5" d="M9.53,21.86s3.71-1.63,5.08-.06c0,0-2.73.31-2.83.76a4.17,4.17,0,0,0,1.38,3.21C14.27,26.51,9.88,25.27,9.53,21.86Z"/><path class="cls-5" d="M22.23,15.11a6.67,6.67,0,0,1,2.43-4.33s2,1.92,1.93,3.89c0,0-1.53-1.66-1.94-1.57S22.65,14.93,22.23,15.11Z"/><path class="cls-5" d="M23.09,25.65S20.22,24.46,20.44,20c0,0,4.24,1.28,4.17,4.57l-2.29-1.84A11.59,11.59,0,0,0,23.09,25.65Z"/><path class="cls-5" d="M25.55,24.14s-2.77-6.18,2-9.25c0,0-.67,4-.67,4.63S26.64,23.36,25.55,24.14Z"/><path class="cls-5" d="M13.79,24.84s3.35-1.72,5.22-1.19,2,2.15,4,2.7c0,0-3.63.81-4.7.34S14.28,24.49,13.79,24.84Z"/><path class="cls-5" d="M10.23,29.11s2.43-2.2,4.7-2.35,4.28,1.4,4.65,1.4,3.24-.58,3.24-.58-4.85,2.69-7.66,2A17.92,17.92,0,0,0,10.23,29.11Z"/><path class="cls-5" d="M31,11s-.42,2.84-2,3.89-.73,6.39-1.19,7.3C27.77,22.18,32.75,15.89,31,11Z"/><path class="cls-5" d="M35,16.59s-1.64,4-1.91,4.21-3.9,3.23-4.85,3a51.33,51.33,0,0,0,3.27-4,6.22,6.22,0,0,1,3.61-3.4"/><path class="cls-5" d="M12.06,32.87a9.93,9.93,0,0,0,9.27-3,12.26,12.26,0,0,1-3.4.94,11.25,11.25,0,0,0-2.71.34A32.92,32.92,0,0,1,12.06,32.87Z"/><path class="cls-5" d="M24.19,26.93A3,3,0,0,1,24.38,30c-.91,1.5-.19.81-.94.14S24.37,27.48,24.19,26.93Z"/><path class="cls-5" d="M26.66,24.67s2.73.11,3.44.6a1.52,1.52,0,0,1,.61,1.37A6.48,6.48,0,0,1,27.87,26,3.41,3.41,0,0,1,26.66,24.67Z"/><path class="cls-5" d="M28.79,37.3l.11.19.88-.4a16.79,16.79,0,0,1-1.9-6.51,8.63,8.63,0,0,0-2.06-4.85l-1,.36a8.52,8.52,0,0,1,2.23,5.3,12.19,12.19,0,0,0,1.74,5.91"/><path class="cls-3" d="M20.46,12.49l0,0h0l0,0v0a.18.18,0,0,0,0-.1.13.13,0,0,0-.07-.05h0s0-.05,0-.07h0s0,0,0-.06l0,0a.11.11,0,0,0-.08-.07l0,0h0v0a.15.15,0,0,0,0-.08h0s0,0,0,0h0a.08.08,0,0,0,0-.07h0v0a.08.08,0,0,0,0-.08v0s0,0,0-.06h0v0a.08.08,0,0,0-.07-.08h0v0a.08.08,0,0,0-.07,0h0s0,0,0,0a.08.08,0,0,0,0,0h-.05s0-.05-.06-.06h0a.09.09,0,0,0-.08,0s0,0,0,0h-.06l0,0s0,0,0,0h0A.09.09,0,0,0,19,11h-.08l-.08,0h0a.08.08,0,0,0-.05.05.12.12,0,0,0,0,0h0l0,0a.14.14,0,0,0-.05.08.15.15,0,0,0-.05.06.17.17,0,0,0-.1.1h0l0,0s0,0,0,0a.14.14,0,0,0-.11.14v0h0a.14.14,0,0,0,.12.14h.08a.1.1,0,0,0,.09,0h0a.16.16,0,0,0-.09,0h0a.11.11,0,0,0-.07.08l-.06,0h-.08l-.05,0h0c-.05,0-.07,0-.09.08l0,.06v0a.14.14,0,0,0,0,.06.11.11,0,0,0,0,.06s0,0,0,.08v-.05h0v.12s0,0,.06.06a.08.08,0,0,0,0,0v0l.06.05,0,0,0,0a.05.05,0,0,0,0,0v0a.05.05,0,0,0,0,0,.07.07,0,0,0,0,.05l0,.07a.14.14,0,0,0,.12.14h0l.06,0h.08s0,0,0,0l.11,0h0s0,0,.06.05h0a.07.07,0,0,0,.07,0h0a.06.06,0,0,0,.06,0h0a.14.14,0,0,0,.08,0l0,0h0a.17.17,0,0,0,.13,0h0a.07.07,0,0,0,.05,0h0l.07,0h0l0,0h.09s.06,0,.14,0l.05,0,0,0,0,0a.18.18,0,0,0,.14,0h0c.05,0,.12,0,.13-.09v0l0-.05v0h0a.09.09,0,0,0,.06-.06l0,0h0s0,0,0-.05V13a.08.08,0,0,0,0,0l0,0h0a.3.3,0,0,0,0-.09l0-.06a.15.15,0,0,0,0-.1v0A.11.11,0,0,0,20.46,12.49Z"/><path class="cls-3" d="M22.06,10.06a.43.43,0,0,1,0-.05V9.92h0v0a.11.11,0,0,0,0-.08v0s0,0,0-.06a.13.13,0,0,0,0-.06s0,0,0,0V9.56l0,0a.06.06,0,0,0,0,0V9.4a.07.07,0,0,0,0-.06V9.23a.08.08,0,0,0,0-.05v0a.08.08,0,0,0,0-.05.06.06,0,0,0,0-.06V9h0l-.08-.08h0l0,0a.06.06,0,0,0-.07,0,.18.18,0,0,0-.1-.08l0,0,0,0h0a.12.12,0,0,0-.13,0h-.05a.13.13,0,0,0-.09.07h0a.13.13,0,0,0-.07.06h0v0l-.06,0a.05.05,0,0,0,0,0l0,0,0,0h0l0,0a.1.1,0,0,0,0,.05l0,0a.29.29,0,0,0-.08.16h0v0a.16.16,0,0,0,0,.09l.05,0v0l0,0a.17.17,0,0,0-.06.06h0s0,0-.05,0l0,.09a.12.12,0,0,0-.05.07h0a.08.08,0,0,0,0,.07v0s0,0,0,.07V10h0a.08.08,0,0,0,0,.07v0s0,0,0,.06v.08a.14.14,0,0,0,0,.06v.1h0l0,0,0,.06a.14.14,0,0,0,0,.06s0,0,0,0a.11.11,0,0,0,0,.07v0a.14.14,0,0,0,0,.07v0s0,0,0,0a.06.06,0,0,0,0,0,.05.05,0,0,0,0,0s0,0,0,.08a.06.06,0,0,0,0,0,.08.08,0,0,0,0,.05v.18s0,.06,0,.09v0a.14.14,0,0,0,0,.07v.05s0,0,0,.06a.12.12,0,0,0,0,.13v0a.17.17,0,0,0,0,.07.18.18,0,0,0,0,.1.14.14,0,0,0,0,.06v.08a.18.18,0,0,0,0,.09h0l0,0a.17.17,0,0,0,0,.14h0s0,.05,0,.07a.31.31,0,0,0,0,.09h0v0s0,.05,0,.07h0v0s0,0,0,.06a0,0,0,0,1,0,0v0l0,0,0,0v0h0s0,0,0,0,0,0,0,0v0h0s0,0,0,0a.13.13,0,0,0,0,.1v0s0,0,0,0a.16.16,0,0,0,0,.08v.07s0,0,0,0a.09.09,0,0,0,0,.07v.08h0v0a0,0,0,0,0,0,0h0v0a.09.09,0,0,0,0,.07v.17a.12.12,0,0,0,.05.11l0,0a.28.28,0,0,0,0,.09.22.22,0,0,0,0,.13v0h0a.13.13,0,0,0,0,.06s0,0,0,0h0a.19.19,0,0,0,0,.07.43.43,0,0,0,0,0v0h0a.14.14,0,0,0,0,.06.29.29,0,0,0,0,.09v0s0,0,0,0v.06h0a.19.19,0,0,0,0,.1l.06,0,0,0s0,0,0,0h0v0s0,0,0,0h0a.15.15,0,0,0,0,.09.16.16,0,0,0,.08.06v0h0a.13.13,0,0,0,.07.12.09.09,0,0,0,.06,0h.08a.11.11,0,0,0,.13-.13h0v0h0l0,0a.14.14,0,0,0,.05-.11h0v0h0s0-.08,0-.08v0a.12.12,0,0,0,.07-.07h0l0,.06.07,0v0a.1.1,0,0,0,.09,0s0,0,0,0h0a.1.1,0,0,0,.12-.08v0l0,0a.13.13,0,0,0,0-.06h0a.08.08,0,0,0,0-.05h0v-.06h0s.05,0,.05-.07v-.08a.06.06,0,0,1,0,0l.05,0a.16.16,0,0,0,.06-.13h0a.16.16,0,0,0,.08-.06.28.28,0,0,0,0-.09v0a.11.11,0,0,0,0-.05h0l0-.06a.11.11,0,0,0,0-.06.06.06,0,0,0,0,0v0h0a.56.56,0,0,1,0-.07.07.07,0,0,0,0-.06v0a.13.13,0,0,0,0-.06.11.11,0,0,0,0-.06v-.16a.07.07,0,0,0,0-.06v-.12s0-.34,0-.41a.14.14,0,0,0,0-.07V12.4a.14.14,0,0,0,0-.07v0h0v-.17a.14.14,0,0,0,0-.06v-.24a.14.14,0,0,0,0-.06v-.11h0a.14.14,0,0,0,0-.06v-.09a.28.28,0,0,1,0-.09h0a.11.11,0,0,0,0-.06v-.09h0l0-.05A1.93,1.93,0,0,0,22,11v-.11a.09.09,0,0,0,0-.06v-.09a.13.13,0,0,0,0-.06v-.14a.15.15,0,0,0,0-.07v-.23A.62.62,0,0,0,22.06,10.06Z"/><path class="cls-3" d="M25.09,8.56v0s0,0,0,0V8.41l0-.05h0a.09.09,0,0,0,0-.06v0L25,8.18a.17.17,0,0,0,0-.11h0a.14.14,0,0,0,0-.06V8a0,0,0,0,0,0,0,.08.08,0,0,0,0,0h0a.08.08,0,0,0,0,0v0a.08.08,0,0,0-.05-.08.09.09,0,0,0,0-.06h0l0-.09a.05.05,0,0,0-.05,0h0a.1.1,0,0,0-.05-.06v0a.13.13,0,0,0-.08-.12h0a.13.13,0,0,0-.1-.06h-.08l-.05,0h-.1a.16.16,0,0,0-.06.08s0,0,0,0a.22.22,0,0,0-.09.07l-.05,0v0l0,0a.19.19,0,0,0-.05.13.1.1,0,0,0,0,.07.16.16,0,0,0,.18.09l.05,0h0a.18.18,0,0,0-.05.07s0,0,0,0H24l-.05,0h-.05l0,0a.11.11,0,0,0-.09.06h-.05s0,0,0,0h0a.09.09,0,0,0-.08,0,.05.05,0,0,0,0,.05s0,0,0,0-.07,0-.07.06v.06a.08.08,0,0,0,0,0v.05a.08.08,0,0,0,0,.07v0s0,0,0,.05a.08.08,0,0,0,0,0v.07a.11.11,0,0,0,0,.06v0s0,0,0,.05V9a.06.06,0,0,0,0,.06v.1h0a.11.11,0,0,0,0,.06l0,.13v0a4395788502146.31,4395788502146.31,0,0,0,0,.1v.06a.08.08,0,0,0,0,0v.07a.09.09,0,0,0,0,.06V9.8a.15.15,0,0,0-.05.06v.07h0v.16a.09.09,0,0,0,0,.06v.05a.16.16,0,0,0,0,.07v0a.13.13,0,0,0,0,.06.11.11,0,0,0,0,0v0s0,0,0,0a.08.08,0,0,0,0,.06.78.78,0,0,0,0,.09.07.07,0,0,0,0,0s0,.13,0,.15a.08.08,0,0,0,0,.06V11l0,0a.14.14,0,0,0,0,.06v.14a.08.08,0,0,0,0,0h0v0l0,.1a.11.11,0,0,0,0,.08h0a.08.08,0,0,0,0,0v.2a.05.05,0,0,0,0,0,.15.15,0,0,0,0,.1v0a.14.14,0,0,0,0,.06h0l0,.11a.07.07,0,0,0,0,0h0a.14.14,0,0,0,0,.06.39.39,0,0,0,0,.09s0,0,0,.06h0a.16.16,0,0,0,0,.08,0,0,0,0,0,0,0h0a0,0,0,0,0,0,0,.08.08,0,0,0,0,0s0,0,0,0v.06h0v0h0a.08.08,0,0,0,0,.05v.12a0,0,0,0,0,0,0h0a.43.43,0,0,1,0,0h0a.11.11,0,0,0-.06.07.07.07,0,0,0,0,.05.12.12,0,0,0,0,.08h0v.11a.11.11,0,0,0,0,.07h0a.19.19,0,0,0,0,.07.43.43,0,0,1,0,0h0a.08.08,0,0,0,0,0h0v.09a.13.13,0,0,0,0,.09v0a.43.43,0,0,1,0,0v0h0a.07.07,0,0,0,0,.06h0s-.05,0-.05.07h0V14h0s0,0,0,0v0a.08.08,0,0,0,0,0v-.05a.15.15,0,0,0,0,.07v.13a.15.15,0,0,0-.05.06s0,0,0,.05a.13.13,0,0,0,0,.08h0a.14.14,0,0,0,0,.07h0v.06a.14.14,0,0,0,0,.06v.06a.11.11,0,0,0,0,.12v0a.15.15,0,0,0,0,.09h0l0,.12h0a.12.12,0,0,0,0,.09v.1h0a.14.14,0,0,0,0,.06h0a.08.08,0,0,0,0,.05v.07a.06.06,0,0,0,0,0,.1.1,0,0,0-.05,0,.11.11,0,0,0,0,.11v0a.2.2,0,0,0,0,.07.13.13,0,0,0,0,.09v0a.1.1,0,0,1,0,.12.15.15,0,0,0,0,.13v.11h0v0s0,0,0,0v.12a0,0,0,0,0,0,.05v.05l0,.05a.27.27,0,0,0,0,.12.13.13,0,0,0,.05.12h0v0a.14.14,0,0,0,0,.06s0,0,0,0V17s0,.07,0,.11v.09h0a.12.12,0,0,0,0,.08s0,0,0,0a.41.41,0,0,0,0,.08v.07a.14.14,0,0,0,0,.06.08.08,0,0,0,0,.06h0v0s0,0,0,0h0s0,0,0,.06h0v0a.08.08,0,0,0,0,.05.13.13,0,0,0,0,.06V18s0,0,0,0v0a.1.1,0,0,0,0,.09.07.07,0,0,0,0,0v0a.13.13,0,0,0,.05.13l.06,0v0h0s0,0,0,0a.21.21,0,0,0,0,.15v.05s0,0,0,0h0a.56.56,0,0,0,0,.1l.05.06s-.05,0-.06.05a.1.1,0,0,0,0,.12v0a.15.15,0,0,0,.12.07h.07a.13.13,0,0,0,.11-.09v0h0a0,0,0,0,0,0,0h0a.13.13,0,0,0,.08-.12v0a.07.07,0,0,0,0,0h0a.14.14,0,0,0,0-.06v0a.14.14,0,0,0,0-.06v-.13a.14.14,0,0,0,0-.06v0s0,0,0-.05a.08.08,0,0,0,0-.05v-.07s0,0,0,0h0s0,0,0,0h0v0h0v-.21a.14.14,0,0,0,0-.06v0a.05.05,0,0,0,0,0,.14.14,0,0,0,0-.06v0l0-.05a.08.08,0,0,0,0,0V17.4a.14.14,0,0,0,0-.07v0c.05,0,.14,0,.15-.13v0h0l0,0a0,0,0,0,0,0,0v0l0,.05,0,.06s0,0,0,0a.12.12,0,0,0,.05.1s.06.06.15,0h.06l.07,0a.14.14,0,0,0,.06-.11V17.3a.21.21,0,0,0,0-.1l0,0v0a.14.14,0,0,0,.1-.13v0a.16.16,0,0,0,0-.08.14.14,0,0,0,0-.07h0a.18.18,0,0,0,.15-.15l0,.1a.14.14,0,0,0,0-.15.12.12,0,0,0-.08-.06h0v-.08a.08.08,0,0,0,0,0h0a.14.14,0,0,0,0-.06v0h0s0,0,0,0l0-.07h0l0-.05v0a.09.09,0,0,0,0-.05.1.1,0,0,0,0-.07.13.13,0,0,0,0-.06.29.29,0,0,0,0-.09l0-.06a.05.05,0,0,0,0,0,.43.43,0,0,0,0,0h0a.1.1,0,0,0,0-.09h0l0,0v-.06l0,0v0h0a.14.14,0,0,0,0-.06v-.11h0v0a.13.13,0,0,0,0-.06h0l0,0,0,0,.05-.05h0l0,0v0l0,0a.17.17,0,0,0,.1-.12v-.07s0,0,0,0a.11.11,0,0,0,0-.08v-.06h0v-.1a.06.06,0,0,0,0-.06h0a.08.08,0,0,0,0-.05v-.1s0,0,0,0v0h0v-.06s0,0,0,0a.16.16,0,0,0,0-.07V14l0,0a.11.11,0,0,0,0-.06l0-.12h0s0,0,0,0a.14.14,0,0,0,0-.06v0a.11.11,0,0,0,0-.08h0v-.08h0a.05.05,0,0,0,0,0h0a.14.14,0,0,0,0-.07v0h0v0a.11.11,0,0,0,0-.06v0l0-.06v0h0v0a.17.17,0,0,0,0-.07h0l0,0v0a.45.45,0,0,0,0-.16.09.09,0,0,0,0-.06h0l0,0,0,0h0a.1.1,0,0,0,.07-.07.11.11,0,0,0,0-.08v0a.07.07,0,0,0,0-.05l0-.1a.14.14,0,0,0,0-.07v-.06a.11.11,0,0,0,0-.06v0a.08.08,0,0,0,0-.05v0a.14.14,0,0,0,0-.06h0a.14.14,0,0,0,0-.06h0v0l0,0v0h0a.08.08,0,0,0,.06,0,.13.13,0,0,0,0-.07.14.14,0,0,0-.05-.1v-.09a.15.15,0,0,0,0-.07.07.07,0,0,0,0-.05l0-.16v0a.08.08,0,0,0,0-.05h0s0,0,0,0v-.06a.05.05,0,0,0,0,0,.16.16,0,0,0,0-.07v0a.12.12,0,0,0,0-.08v0s0,0,0,0v0a.1.1,0,0,0,0-.07v-.08a.08.08,0,0,0,0-.05v-.09a.09.09,0,0,0,0-.07v-.09s0,0,0,0v0a.14.14,0,0,0,0-.06h0s0,0,0,0V9.92s0,0,0,0l0-.05a.08.08,0,0,0,0,0s0,0,0,0V9.68a.08.08,0,0,0,0,0s0-.08,0-.09a.09.09,0,0,0,0-.07v0a.16.16,0,0,0,0-.07v0h0V9.19h0a.09.09,0,0,0,0-.06V9.06s0,0,0,0V9l0-.07V8.85a.11.11,0,0,0,0-.06v0s0,0,0,0h0v0h0a.11.11,0,0,0,0-.05S25.09,8.58,25.09,8.56Z"/><path class="cls-3" d="M27.78,13.18h0v-.08a.07.07,0,0,0,0-.06h0a.13.13,0,0,0,0-.06.14.14,0,0,0,0-.06h0v-.06a.14.14,0,0,0,0-.07v0h0a.11.11,0,0,0,0-.08.11.11,0,0,0-.06-.07v0h0v-.06h0s0,0,0,0h0v0h0v0a.12.12,0,0,0,0-.08h0a.18.18,0,0,0,0-.08h0l0,0s0,0,0,0l0,0a.08.08,0,0,0,0-.07V12s0,0,0-.07v0a.07.07,0,0,0,0-.06,0,0,0,0,0,0,0l0,0a.11.11,0,0,0,0-.07v0s0-.06-.06-.07l0,0,0,0h0a.07.07,0,0,0-.06-.07h-.06a.08.08,0,0,0-.07,0h-.05a.07.07,0,0,0-.05,0H27l-.05,0h0l-.05,0h-.16a.1.1,0,0,0-.09,0h0l0,0h-.11a.14.14,0,0,0-.09,0l-.06,0h-.17a.1.1,0,0,0-.07,0H26l-.08,0h0a.12.12,0,0,0-.06.06h-.14a.13.13,0,0,0-.1.06.12.12,0,0,0-.06.1h-.06a.13.13,0,0,0-.11.05h-.15a.09.09,0,0,0-.07,0H25l-.06,0h0l-.05,0a.11.11,0,0,0-.06,0h0l0,0h-.08l-.07,0h-.08a.22.22,0,0,0-.13.06v0a.12.12,0,0,0-.07.11v0a.13.13,0,0,0,0,.06h0a.1.1,0,0,0,.06.09l0,0a.08.08,0,0,0,0,.07v.09a.08.08,0,0,0,0,0,.19.19,0,0,0,0,.1l0,0-.06,0a.24.24,0,0,0,0,.07h-.05a.13.13,0,0,0-.09,0,.15.15,0,0,0-.05.06l-.05.05h0l0,0a.13.13,0,0,0-.05.07s0,.05,0,.09a.31.31,0,0,0,0,.1.1.1,0,0,0,.05.06h0v0a.08.08,0,0,1,0,0V13a.36.36,0,0,0,0,.11.15.15,0,0,0,.14.11h.14a.08.08,0,0,0,.07,0,.05.05,0,0,0,0,0h0l0,0h0s0,0,0,0l0,0a.12.12,0,0,0,.08.09v0s0,0,.06,0l.05,0,0,0s0,0,.06,0l0,0,0,0,0,0,.07,0h0s0,.05.07.05h.13l.05,0,.11,0h0s.05,0,.09,0h.17a.14.14,0,0,0,.1,0,.24.24,0,0,0,.17-.06h0a.09.09,0,0,0,.07.05l.11,0h0a.09.09,0,0,0,.05,0l.06,0s0,0,.07,0l.12,0h0l0,0h.05l0,0h0a.11.11,0,0,0,.11,0l0,0s0,0,0-.05l.11,0,0,0h.05l.08,0,.06-.05h.07l.06,0h.12a.13.13,0,0,0,.1,0,.16.16,0,0,0,0-.07l0,0h.06a.18.18,0,0,0,.07,0s.05,0,.05-.07a.41.41,0,0,1,0-.07v0l0,0a.07.07,0,0,0,0-.08Z"/><path class="cls-3" d="M28.25,15.24H25.37v.49a.86.86,0,0,0-.23-.3,1.21,1.21,0,0,0-.8-.19H23.11V18H24v-.9h.25A1.62,1.62,0,0,0,25,17a.75.75,0,0,0,.34-.38V18h3V15.24Zm-4.16,1.12H24V16h.13c.31,0,.31.09.31.19S24.47,16.36,24.09,16.36Zm2.19.86V17h1.09v-.75H26.28V16h1.16v1.21Z"/><path class="cls-3" d="M22.06,15.24v2.15l-1-2.15h-1l-.26.59v-.59H17.35V16h.8v2H19.9l.19-.48h1c0,.11.2.48.2.48H23V15.24h-.94Zm-3,.77h.73l-.73,1.65Zm1.3.75c.06-.15.11-.3.2-.52l.21.52Z"/><path class="cls-6" d="M26.24,18.43h-.52v0h.53v-.1l.1,0s0,0,0,0l0,.05h.35l.08-.08.11.08,0,0h-.52v.09h.24l.08-.08.1.08v0h-.88v0h.39Zm-.23.38s0,0,0,0h-.06a0,0,0,0,1,0,0v-.22l.07,0h.56l.05,0,.06,0a0,0,0,0,1,0,0,0,0,0,0,1,0,0,0,0,0,0,0,0,0v.13h-.05s0,0,0,0v0H26Zm.56,0v-.09H26v.09h.56Zm-.81.3-.05,0,0,0s0,0,0-.07a.19.19,0,0,0,.08-.15h0v0h.94l0-.05.08.06s0,0,0,0,0,0,0,0h0l-.08.12,0,0a.78.78,0,0,0,.05-.14h-1A.37.37,0,0,1,25.76,19.06Zm.47.3h-.36v0h.37v-.09l-.33,0v0s0,0,0,0,0,0,0,0a.3.3,0,0,1,0-.1l.21,0A.69.69,0,0,0,26.1,19h-.21v0h.62l.08-.07.09.07,0,0h-.46l-.11.15a2.37,2.37,0,0,0,.43-.05l-.08,0v0l.13,0a.29.29,0,0,1,.1.06l0,0s0,0,0,0h-.06a.17.17,0,0,0-.06-.06l-.25,0v.1h.23l.07-.07.1.07,0,0h-.38v.12h.38l.08-.08.1.08,0,0H25.71v0h.53Z"/><path class="cls-6" d="M27.42,18.72h-.35v0h.36V18.3h.09s0,0,0,0,0,0,0,0a0,0,0,0,0,0,0v1.14h-.07s0,0,0,0v-.32a1,1,0,0,1-.26.13l-.07,0s0,0,0,0a.05.05,0,0,1,0,0l0-.1a1.26,1.26,0,0,0,.42-.13h0Zm.72-.22.07.05s0,0,0,0,0,0,0,0h0a.74.74,0,0,1-.35.23v.55s0,0,0,0,0,0,0,0h.26s0-.06.06-.15h0c0,.09,0,.13,0,.14s0,0,0,0,0,0-.06.05a.88.88,0,0,1-.22,0h-.17a.1.1,0,0,1,0,0,.19.19,0,0,1,0-.07V18.29l.1,0s0,0,0,0,0,0,0,0,0,0,0,0v.4h0A.73.73,0,0,0,28.14,18.5Z"/><path class="cls-7" d="M20.34,14.44s0,.05,0,.07h0C20.34,14.45,20.36,14.44,20.34,14.44Z"/><path class="cls-7" d="M20.34,14.32v0s-.05.06,0,.08h0v0l0,0s0,0,0-.06S20.34,14.36,20.34,14.32Z"/><path class="cls-7" d="M20.28,14.15s0,.07,0,.07.05-.05,0,0v-.06s0,0,0,0Z"/><path class="cls-7" d="M20.28,13.32h0v0h0s0-.07,0-.08,0,0,0,0Z"/><path class="cls-7" d="M20.32,12.35v0s0,0,0,0Z"/><path class="cls-7" d="M20.32,12.14s0,0,0,.06h0C20.32,12.14,20.34,12.15,20.32,12.14Z"/><path class="cls-7" d="M20.32,11.66h0s0,0,0,0,0,0,0-.06l0,0S20.33,11.61,20.32,11.66Z"/><path class="cls-7" d="M20.36,11.56Z"/><path class="cls-7" d="M21.94,10.42c0-.11,0-.23,0-.34h0V9.94h0v0h0s0,0,0,0,0-.11,0-.16h0s0-.06,0-.1l0,0v0h0s0-.1,0-.14h0c0-.08,0-.1,0-.17h0a.22.22,0,0,0,0-.08h0V9.11h0s0,0,0-.08l-.08,0s0,0,0,0h0V9l-.06,0s0-.09,0-.12l-.05,0v0l-.06,0s0,0-.08,0l0,.06h0v0h0s0,0,0,0h0l0,0h0V9h0l0,0s-.1,0-.12,0a.31.31,0,0,0,0-.08h0v0l0,0V9h-.06V9h0c-.05,0-.05.06-.1.08v0h0v0h0v0l0,0v0s0,0,0,0l0,0v.05c.06,0,.07,0,.11,0s0,.08,0,.15h0a.21.21,0,0,1,0,.08h0s0,0,0,.05-.05,0-.05,0v0s-.05,0-.08,0v0h0s0,.06,0,.08l0,0v0h0v0h0s0,0,0,.05h0v0h0s0,.07,0,.1h0v0h0s0,0,0,.05l0,0s0,.07,0,.1h0v0h0a.68.68,0,0,1,0,.15l0,0s0,0,0,0h0a0,0,0,0,0,0,0s0,.07,0,.09h0v0s0,0,0,.06h0a.17.17,0,0,1,0,.1h0s0,0,0,.06h0v.15h0a.13.13,0,0,0,0,.08h0a2.43,2.43,0,0,1,0,.27h0v.06s.05,0,.05,0,0,0,0,0v0h0s0,0,0,0l0,0s0,0,0,0h0s0,.11,0,.15,0,0-.07,0v0h0a.48.48,0,0,0,0,.12s0,0,.05,0v0h0v0l0,0s0,0,0,0a.18.18,0,0,1,0,.05h0s0,0,0,0a.66.66,0,0,0,0,.14c-.1,0,0,.06,0,.06s0,0,0,0v0h0s0,0,0,.06-.08,0,0,0h0v0s0,0,0,0h0v0s0,0,0,0H20.3v0h0v0h0s0,0,0,0v0h0s0,0,0,.08,0,0,0,0h-.06v0h.09s0,.05,0,.09h0s0,0,0,.06h0s0-.06,0-.06-.08.05,0,.06v0l0,0s0,.07,0,.09h0v0h0v0s0-.05-.06,0v0h0v0l0,0v.06l0,0v0l0,0h0s0,.07,0,.09h0v0l0,0a.68.68,0,0,1,0,.14s0,0,.06,0l0,.06h0s0,0,0,0,0,0,0,.06h0s0,.07,0,.08a0,0,0,0,1,0,0s0,.11,0,.1,0-.07,0,0h0s0,.05,0,.08h0s0,0,0,.06h0v0h0v.12h0v0c.05,0,0,.11,0,.13v0s0,0,0,0h0s0,0,0,0,0,.08,0,.12h0v0h0s0,0,0,0,0,0,0,0h0c0,.06,0,.09,0,.14h0v0h0s0,0,0,0,0,0,0,0v0h0s0,.05,0,.07,0,0,.06,0,0,0,0,.06l0,0s0,.08,0,.09,0,0,0,0h.05v0h0s0,0,0,0,0-.05,0-.08h0v0h0a.22.22,0,0,1,0-.08s.05,0,.07,0,0,0,0,.06l0,0s0,0,0-.06h0v0h0v0s0,0,0,0l-.06,0v0l0,0v0s.08,0,.11,0,0,0,.08,0v0l0,0v0H21a0,0,0,0,0,0,0s0,0,0,0v0h0s0,0,0,0h0v0h.06a.08.08,0,0,0,0,0h0s0,0,0-.08h0s0,0,0-.06l0,0a.56.56,0,0,1,0-.13l.06,0a.34.34,0,0,0,0-.1h0v0s0,0,0,0h0l0,0s0,0,0,0v0l.08,0v0s0-.09,0-.12h0l0,0h0a.27.27,0,0,0,0-.09h0v0h0l0-.12h0s0,0,0-.06v0h0a.41.41,0,0,1,0-.11h0v0h0v-.12h0V13.2h0c0-.06,0-.07,0-.11h0c0-.19,0-.31,0-.49h0a2.43,2.43,0,0,1,0-.27h0v0s0,0,0,0h0V12h0s0,0,0,0h0a2.11,2.11,0,0,0,0-.25h0a.66.66,0,0,0,0-.14h0s0,0,0,0a2.09,2.09,0,0,1,0-.25h0a.77.77,0,0,0,0-.15h0c0-.14,0-.24,0-.39h0v-.15h0a1.34,1.34,0,0,1,0-.2Z"/><path class="cls-7" d="M20.63,10s0,0,0,0Z"/><path class="cls-7" d="M20.34,12.35s0,0,0,0Z"/><path class="cls-7" d="M20.32,13.85s0,0,0,0Z"/><path class="cls-7" d="M20.38,11.52s0,0,0,0Z"/><path class="cls-7" d="M21.38,14.3Z"/><path class="cls-7" d="M20.28,13s0,.05,0,0Z"/><path class="cls-7" d="M21.59,13.93Z"/><path class="cls-7" d="M20.3,11.79s0,0,0,0Z"/><path class="cls-8" d="M18.57,11.45h0s0-.05,0-.05S18.55,11.46,18.57,11.45Z"/><path class="cls-8" d="M18.53,11.51v0s0,0,0,0S18.5,11.51,18.53,11.51Z"/><path class="cls-8" d="M18.5,11.65v0s.05,0,0,0l0,0h-.08s0,0,0,.05Z"/><path class="cls-8" d="M18.49,12.88s0,0,0,0h0S18.51,12.88,18.49,12.88Z"/><path class="cls-8" d="M18.75,11.27v0s0,0,0,0Z"/><path class="cls-8" d="M20.3,12.57s0-.05,0-.06l0,0a.48.48,0,0,0,0-.12h0v0l-.06,0v0s0,0-.05,0,0,0,0-.06L20,12.14v0h0v0h0v0l-.06,0s0,0,0-.07h0c0-.05,0,0,0-.08h0s0,0,0-.06h0v0h0s0,0,0,0h0c0-.05,0-.06,0-.1l-.06,0s0,0,0-.06h0v0l-.06,0,0,0h0v0h0s0,0,0,0h0l0,0-.08,0,0,0h-.06v0l-.05,0v0h-.06l0-.05H19.1L19,11.12H19v0h-.1l0,0v0s0,.06,0,.06,0,0,0,0h0a.27.27,0,0,0,0,.09l0,0v0l-.09,0,0,.08h.05v0s0,0,.08,0v-.06s0,0,0,0,.07,0,.1,0v0h0v0s0,.05.07.06v0h-.11l0-.1h0s0,.1,0,.14h0v0h-.06a.65.65,0,0,1,0,.14s.05,0,0,0l-.06,0v.06H18.7s0,.05,0,.06h0v0h0s0,.06,0,.08l-.12,0v0h0v0s.07,0,0,0v0h-.05v0h-.16v0h-.06a.12.12,0,0,1,0,.06h0l0,0s0,0,0,0l0,0s0,0-.06,0,0,.05,0,.07l.06,0v0l0,0s0,.05,0,.06l.06,0v0h0v0l0,0s0,0,0,0h0s0,.05,0,.06h0s0,.11,0,.06v0h.06v0h0v0l0,0s0,0,0,.05v0s.06,0,.08,0v0h0v0s.07,0,.11,0l0,.06s0,0,.06,0l0,0s.09,0,.13,0v0s0,0,.06,0h0v0h0s0,0,0,0,0,0,.05,0,0,.05,0,0,0-.05,0,0v0s.05,0,.08,0l0,0h.06v0h0v0h0s0,0,0,0,0,0,.06,0v0l.08,0,.06-.06v0h0v0s0,0,0,0h0v0c.06,0,.05,0,.1,0s0-.05,0-.09h0v0h0v0s0,0,.05,0v0l0,0v0l.06,0s0,0,0-.06h0v0l0,0a.45.45,0,0,0,0-.14h0v-.06h0v0Z"/><path class="cls-9" d="M22.81,12.08h0s0,0,0,0S22.82,12.06,22.81,12.08Z"/><path class="cls-9" d="M22.84,13.31l0,0h0s0-.08,0-.06h0v.06S22.81,13.33,22.84,13.31Z"/><path class="cls-9" d="M22.8,13.41s0,0,0,0,.07-.13,0-.09h0s0,0,0,.05h0S22.79,13.43,22.8,13.41Z"/><path class="cls-9" d="M23,13.38h0s0,0,0,0h0S23,13.38,23,13.38Z"/><path class="cls-9" d="M23.13,13.34s0,0,0,0h0S23.18,13.34,23.13,13.34Z"/><path class="cls-9" d="M22.81,13.49v0s0,0,0,0S22.79,13.49,22.81,13.49Z"/><path class="cls-9" d="M23,13.7v0s-.05,0,0,0,0,0,0,0S22.92,13.71,23,13.7Z"/><path class="cls-9" d="M23,13.69h0v0S23,13.71,23,13.69Z"/><path class="cls-9" d="M22.68,14.23h0s0-.07,0-.07,0,0,0,0S22.67,14.23,22.68,14.23Z"/><path class="cls-9" d="M22.69,14.3v0h0v0h.05v-.14s0,0,0,0h0s0,0,0,.06Z"/><path class="cls-9" d="M22.38,14.88s0,0,0,0S22.38,14.87,22.38,14.88Z"/><path class="cls-9" d="M22.6,14.92Z"/><path class="cls-9" d="M22.6,14.92s0,0,0,0Z"/><path class="cls-9" d="M22.92,15h0S22.81,15,22.92,15Z"/><path class="cls-9" d="M22.88,15h0s0,0,0,0a.07.07,0,0,0,0,0h0S22.84,15,22.88,15Z"/><path class="cls-9" d="M22.38,15.08s0-.05,0-.05,0,0,0,.05Z"/><path class="cls-9" d="M22.6,15.15s0,0,0,0h0s0,0,0,0h0s0,.08,0,0h0Z"/><path class="cls-9" d="M22.54,15.21v0c.06,0,.05,0,0,0S22.52,15.21,22.54,15.21Z"/><path class="cls-9" d="M22.8,15.53s0,0,0,0Z"/><path class="cls-9" d="M22.75,15.56l.05,0h0v0h0v0s0,0,0,0l0-.13s0,0,0,0h0v0l-.05,0v0s0,0,0,0,0,0,0,0,0,0,0,0h0a.75.75,0,0,0,0,.15h0v0h0a.13.13,0,0,0,0,.06h.06a.15.15,0,0,1,0,0h0v0S22.74,15.58,22.75,15.56Z"/><path class="cls-9" d="M22.31,15.87h.05s0,.1,0,.14h0v0l0,0v0h0s0,0,0,0h0v.06h0a0,0,0,0,0,0,0v0h0s0,0,0,0h0v0l.06,0s0,0,0,0h0V16.3s0,0,0,0,0,0,0,0h0v-.05h0s0,.05,0,.06h0v0h0v0h0a.21.21,0,0,1,0-.06h0v-.07h0a.28.28,0,0,0,0-.09s0,0,0,0h0s0,.1,0,.11l0,0a.28.28,0,0,0,0,.08s0,0,0,0h0s0,0,0-.05,0,0,0,0,0,0,0,0h0v0h0v0s0,0,0,0h0v0c.06,0,0,0,0,0h0s0,0,0,0l0,0h0v0h-.05v0h-.06s0,0,0,0,0,0,0,0h0s0,0,0,0h0a.34.34,0,0,0,0-.1h0v-.07h0v-.07h0s0,0,0,0v0h0a.4.4,0,0,1,0-.11h0s0,0,0,0h0s0,0,0,0H22.4a.27.27,0,0,0,0,.09h0v0s0,0,0,0h0v0h0v.06h0v0s0,0,0,0v0l-.05,0v.16h0v0h0v0h0v0h0A.13.13,0,0,1,22.31,15.87Z"/><path class="cls-9" d="M22.46,15.34Z"/><path class="cls-9" d="M22.6,15.53s0,0,0,0S22.71,15.53,22.6,15.53Z"/><path class="cls-9" d="M22.77,15.58s0,.05,0,0S22.81,15.57,22.77,15.58Z"/><path class="cls-9" d="M22.3,15.64s.11,0,0,0S22.31,15.62,22.3,15.64Z"/><path class="cls-9" d="M22.52,15.71h0s0,0,0,0S22.49,15.71,22.52,15.71Z"/><path class="cls-9" d="M22.59,15.68s0,0,0,0h0S22.61,15.68,22.59,15.68Z"/><path class="cls-9" d="M22.56,15.8h0s0,0,0-.07h0s0,0,0,.11,0,0,.07,0,0,0,0,0v0h.06a.41.41,0,0,1,0-.11C22.55,15.78,22.57,15.79,22.56,15.8Z"/><path class="cls-9" d="M22.65,15.92s0-.05,0-.05,0,0,0,.05Z"/><path class="cls-9" d="M22.3,16h0s0,0,0,0S22.26,16,22.3,16Z"/><path class="cls-9" d="M22.69,15.9s0,0,0,0S22.81,15.9,22.69,15.9Z"/><path class="cls-9" d="M22.81,15.91s0,0,0,0S22.9,15.91,22.81,15.91Z"/><path class="cls-9" d="M22.68,16s0,0-.05.08,0,0,0,0h0S22.71,15.94,22.68,16Z"/><path class="cls-9" d="M22.65,16.07a0,0,0,0,0,0,.05v0S22.69,16.08,22.65,16.07Z"/><path class="cls-9" d="M22.49,16.14s0,0,0,0S22.51,16.15,22.49,16.14Z"/><path class="cls-9" d="M22.57,16.33l0,0h0s0,0,0,0v-.06h0v0h0v.07Z"/><path class="cls-9" d="M22.49,16.31s0,0,0,0,0,0,0,0h0Z"/><path class="cls-9" d="M22.68,16.4v0h-.05l0,0s0,0,0,0,0,0,0,0h0v0h0s0,.09,0,.07,0,.05,0,0l0,0h0s0-.06,0-.08Z"/><path class="cls-9" d="M22.53,16.34s0,0,0,0S22.55,16.35,22.53,16.34Z"/><path class="cls-9" d="M22.56,16.45s0,0,0,0v0S22.57,16.45,22.56,16.45Z"/><path class="cls-9" d="M22.53,16.49v0S22.49,16.5,22.53,16.49Z"/><path class="cls-9" d="M22.69,16.6s0,0,0,0v0s0,0,0,0,0,0,0,0h0v0h0a.12.12,0,0,0,0,0s0,0,0,0,0,0,.08,0S22.7,16.6,22.69,16.6Z"/><path class="cls-9" d="M22.56,16.6l-.06,0h0v0h0l0,0S22.55,16.62,22.56,16.6Z"/><path class="cls-9" d="M23.3,16.68s0,0,0,0,0,0,0,0S23.36,16.68,23.3,16.68Z"/><path class="cls-9" d="M22.49,16.72a.09.09,0,0,1,0,.07h0s0,0,0,0v-.06s0,0,0,0Z"/><path class="cls-9" d="M22.61,16.69h0v0h0v0h0v0h0l0,0,0,0s0,0,0-.08h0v0Z"/><path class="cls-9" d="M22.52,16.87v0s0,0,0,0v0C22.56,16.88,22.53,16.86,22.52,16.87Z"/><path class="cls-9" d="M22.52,16.91s0,0,0,0h0v0h0S22.56,16.9,22.52,16.91Z"/><path class="cls-9" d="M22.6,17s0,0,0,0h0S22.62,17,22.6,17Z"/><path class="cls-9" d="M22.6,17.13c-.06,0,0,0,0,0h0s0,0,.05,0S22.62,17.12,22.6,17.13Z"/><path class="cls-9" d="M22.64,17.15s0,0,0,0S22.74,17.15,22.64,17.15Z"/><path class="cls-9" d="M22.31,18.5h0s0,0,0,.05h0V18.5h0s0,0,0,0h0S22.31,18.5,22.31,18.5Z"/><path class="cls-9" d="M22.36,18.56s0,0,0,0,0,.06,0,.06h0S22.38,18.54,22.36,18.56Z"/><path class="cls-9" d="M22.48,18.68v-.05S22.41,18.71,22.48,18.68Z"/><path class="cls-9" d="M22.38,18.84h-.07l0,0h0C22.42,18.86,22.35,18.86,22.38,18.84Z"/><path class="cls-9" d="M22.29,18.11s0,0,0,0S22.32,18.13,22.29,18.11Z"/><path class="cls-9" d="M22.27,18s0,0,0,0S22.3,18,22.27,18Z"/><path class="cls-9" d="M23,17.38s-.05.06,0,0S23,17.37,23,17.38Z"/><path class="cls-9" d="M23.06,17.28v.06h0s0,.13,0,.06,0,0,0,0a.65.65,0,0,1,0-.14Z"/><path class="cls-9" d="M23,17.21s0,0,0,0v0C23,17.32,23,17.21,23,17.21Z"/><path class="cls-9" d="M22.6,17s-.08.05,0,0v0C22.66,17.05,22.64,17,22.6,17Z"/><path class="cls-9" d="M22.23,16.65s0-.07,0-.08S22.19,16.68,22.23,16.65Z"/><path class="cls-9" d="M22.33,16.6s0,0,0,0Z"/><path class="cls-9" d="M22.54,17.25h0v0h0l0,0h0v-.36h0v-.12h0a1,1,0,0,0,0-.17h0a1.11,1.11,0,0,0,0-.19h0v0h0s0,.06,0,.08h0l-.06,0v0s0,0,0,0,0,0,0,0a.49.49,0,0,1,0,.17h0v0h0a.48.48,0,0,1,0,.12h0a1.61,1.61,0,0,1,0,.31.07.07,0,0,0,0,0h0c0,.05,0,.08,0,.15h0v.12h0s0,0,0,0,0,0,0,0h0a.48.48,0,0,1,0,.12h0v0c.06,0,0,0,0,0s0,0,0,0,0,0,.06,0v0h0v0h0v0h0v-.05h0s0,0,0,0a.65.65,0,0,1,0,.14h0c0,.06.05,0,0,0s.08,0,.06,0l0,0v0h0s0,.05,0,0v.06h0s0,.05,0,.07l0,0a.34.34,0,0,1,0,.1h0v0h0a.27.27,0,0,1,0,.09h0v0s0,.09,0,.14h0s0,0,0,.06h.08s0-.06,0-.08v0h0v-.25h0v0s0-.12,0-.12-.05-.07,0-.09V18h0v0l0,0v-.25h0v0s0-.12,0-.12,0-.07,0-.09l0-.12h0v0h0S22.53,17.27,22.54,17.25Z"/><path class="cls-9" d="M22.35,16.46s0,.06,0,.05S22.4,16.44,22.35,16.46Z"/><path class="cls-9" d="M22.29,16.49h0s0,0,0,0l0,0s0,.05,0,.07h0Z"/><path class="cls-9" d="M22.85,15.36s0,0,0,0S22.88,15.37,22.85,15.36Z"/><path class="cls-9" d="M22.52,15.41h0v0h.08s0-.08,0-.06v0l0,0v0h0Z"/><path class="cls-9" d="M22.74,15.28h0s0,0,0,0,0,0,0,0,0,0,0,0h0s0,0,0,0Z"/><path class="cls-9" d="M22.62,15.2s0,.08,0,.1l0,0S22.6,15.21,22.62,15.2Z"/><path class="cls-9" d="M22.71,15.14v0h0l0-.06h0v0h-.06l-.05,0v.07s.05.05,0,0Z"/><path class="cls-9" d="M22.56,15.07h.06s0-.05,0,0S22.57,15,22.56,15.07Z"/><path class="cls-9" d="M22.73,15h0s0-.06,0-.08v0s0,0,0,0S22.73,15,22.73,15Z"/><path class="cls-9" d="M23.06,14.66v0l-.08,0s0,0,0,0v0Z"/><path class="cls-9" d="M22.39,15v0h0s0,0,0,0,0,0,0,0l0,0a1.08,1.08,0,0,0,0,.18h0v0s.07,0,.09,0v-.16h0a.41.41,0,0,0,0-.11h0V15h0a.22.22,0,0,0,0-.08h0s0-.15,0-.17v0s0,0,0,0h0v0h0v0h0l0-.09h-.1s0,0,0,0a.22.22,0,0,1,0,.08h0s0,0,0,.06h0v.06h0a.21.21,0,0,1,0,.11h0s0,0,0,.06h0S22.43,15,22.39,15Z"/><path class="cls-9" d="M22.79,14.84h0S22.8,14.85,22.79,14.84Z"/><path class="cls-9" d="M22.83,14.53s0,0,0,0h0c0-.07.05-.12,0-.16h0s0,.06,0,.1h0s0,0,0,0,0,0,0,.06l0,0v0c-.05,0-.06,0-.09,0h0v.06h0c0,.05,0,0,0,.06h0v0h0s0,0,0,0,0,0,0,0h0v.09c.06,0,0,0,.06,0v0h0v0h.12v-.06h0v0l-.08,0s0-.08,0-.06v-.06h0l0-.06S22.86,14.54,22.83,14.53Z"/><polygon class="cls-9" points="22.79 14.85 22.79 14.85 22.78 14.86 22.79 14.85"/><path class="cls-9" d="M22.66,14.56s0,0,0,0Z"/><path class="cls-9" d="M22.78,14.85c-.05,0,0,0,0,0Z"/><path class="cls-9" d="M23,14.35v0s0,0,0,0h0v0C22.9,14.37,22.94,14.35,23,14.35Z"/><path class="cls-9" d="M23,14.31Z"/><path class="cls-9" d="M22.83,14.28s0,0,0,0S22.86,14.29,22.83,14.28Z"/><path class="cls-9" d="M22.85,14.22s0,0,0,0v0h0S22.89,14.21,22.85,14.22Z"/><path class="cls-9" d="M23.12,14.16s0,.05,0,0v0h0S23.16,14.15,23.12,14.16Z"/><path class="cls-9" d="M23.14,14s0,.1,0,.1a.3.3,0,0,1,0-.1Z"/><path class="cls-9" d="M23.16,13.87s0,.07,0,.06S23.21,13.86,23.16,13.87Z"/><path class="cls-9" d="M22.73,14h0v0h.06v0h0a.86.86,0,0,1,0,.16.11.11,0,0,0,0,0l0,0s0,0,0-.06h0v0c.05,0,0,0,0,0s0,.06.06,0l0-.09c-.05,0-.1,0,0,0h.06s0,0,.07,0,0,0,0,0h0v0h0s0,0,0-.08,0,0,0-.06h0l0,0H23v0h0s0,0,0,.06h0l0,.06h-.08s0-.05,0-.06l.06,0v0s0,0,.06,0l0,0h-.06v0h0s0,.08,0,.1h0S22.73,14,22.73,14Z"/><path class="cls-9" d="M22.85,14h0C22.92,14,23,14,22.85,14Z"/><path class="cls-9" d="M23.08,13.7v0h.06v-.06h0v0s0,0,0,0S23,13.7,23.08,13.7Z"/><path class="cls-9" d="M23.16,13.52s0,0,0,0S23.18,13.54,23.16,13.52Z"/><path class="cls-9" d="M22.46,14.45s0,0,0,0h0l0,0h0c0-.07,0-.18,0-.2s0,0,0,0h0s0,0,0,0v0h0v0h0a.34.34,0,0,1,0-.1h0v0s0,0,0,0h0s0-.05,0,0,0,0,0-.05l0,0v0h0l0-.16s-.06,0,0,0l.05,0a1.22,1.22,0,0,1,0-.27l-.07,0c0,.05,0,.06,0,.1h0s0,0,0,0h0v0h0a.68.68,0,0,0,0,.15h0s0,0,0,0h0v0c-.07,0-.05,0-.06,0V14h0s0,0,0,0h0v0H22.5s0,0,0,0h0a.63.63,0,0,0,0,.16s0,0,0,0h0s0,.07,0,.1h0S22.47,14.42,22.46,14.45Z"/><path class="cls-9" d="M23.1,13.5h0v0s0,0,0,0h0C23.05,13.44,23.1,13.5,23.1,13.5Z"/><path class="cls-9" d="M22.75,13.56v.06h0v0h0a.48.48,0,0,0,0,.12l0,0v0h.06c0,.06,0,.1,0,0s0-.06,0-.1,0,0,0,0h-.06l-.06,0s0,.05,0,.06Z"/><path class="cls-9" d="M22.7,13.47h0s0,0,0,0,0,0,0,0h0v-.08h0v0h0s0,0,0,0,0-.08,0,0h0v0h0s0,.08,0,.1,0,0,0,.06h0s0,0,0,0v0h.05s0,0,0,0h0s0,0,0,0S22.71,13.48,22.7,13.47Z"/><path class="cls-9" d="M23.2,13.41s0,0,0,0S23.22,13.42,23.2,13.41Z"/><path class="cls-9" d="M23,12.64s0,.08,0,0l0-.07Z"/><path class="cls-9" d="M23,12.52s0,0,0,0v0S23,12.52,23,12.52Z"/><path class="cls-9" d="M24.24,7.43Z"/><path class="cls-9" d="M23.16,14.24l-.07,0h.07Z"/><path class="cls-9" d="M22.9,16.49Z"/><path class="cls-9" d="M25,8.68s0,0,0,0a.06.06,0,0,0,0-.07s0,0,0,0h0s0,0,0-.1h0V8.37h0a.21.21,0,0,0,0-.08h-.06s0-.11,0-.14l0,0s0,0,0,0v0s0,0,0-.07h0a.22.22,0,0,1,0-.08s0,0,0,0,0,0,0-.06h0v0h0s0,0,0,0h0v0s.05,0,.06,0v0l-.06,0a.31.31,0,0,1,0-.08h0l0,0-.05,0s0,0,0,0h0v0h0s0,0,0,0,0,0,0-.07-.06,0-.08,0l0-.08h-.08v0h-.09v0h0v0h0v0h.08V7.6l0,0s0,0,0,0v0s0,0,.06,0v0l0,0v0l0,0v0s-.05,0-.07,0v0h0l0,0h0v0h0V8h0V8h0l0,.05s-.05,0-.09,0v0h-.08s0,0,0,0h0v0s-.07,0-.1,0l0,.06h-.06v0c-.05,0,0,.07,0,.09h0v0h0s0,0,0,.08h0a.36.36,0,0,1,0,.11h0a.22.22,0,0,1,0,.08h0s0,0,0,.06h0a.48.48,0,0,0,0,.12h0a.27.27,0,0,0,0,.09h0a.88.88,0,0,0,0,.16h0s0,.09,0,.13h0v0h0c0,.07,0,.12,0,.19h0v.06h0s0,.07,0,.1h0c0,.05,0,.08,0,.13h0a.88.88,0,0,1,0,.16h0s0,0,0,0h0a2.12,2.12,0,0,0,0,.24h0s0,.06,0,.09l0,0s0,0,0,.06v0s0,.09,0,.13h0v.06h0a.65.65,0,0,0,0,.14h0c0,.09,0,.12,0,.21h0A.41.41,0,0,1,23,11h0v.06h0v.1h0s0,0,0,.06.05,0,0,0h0v0s0,0,0,0l0,0s0,.08,0,.14h0v.08h0c0,.08,0,.16,0,.25h0v0h0v.05h0a.65.65,0,0,1,0,.14h0s0,.06,0,.09h0s0,0,0,0,0,.12,0,.22h0s0,0,0,.05h0v0h0s0,0,0,0v0h0s0,0,0,.06h0v0h0s0,0,0,0,0,0,0,.06h0s.05,0,0,0h0v0s0,0,0,0h0c0,.05,0,.08,0,.12h0a0,0,0,0,0,0,0l0,0h-.06s0,0,0,0v0l0,0v0h0v0h0s0,0,0,.08,0,0,.07,0v0l0,0c0-.05,0-.18,0-.2a.12.12,0,0,1,0,0h0v-.08h0s0,0,0,0v0h0a.57.57,0,0,1,0-.13h0l0-.12h0s0-.05,0,0v0l0,0s0,0,0-.05h0v0h0s0,0,0,0v0l.08,0s0-.06,0-.06.05,0,.09,0,0,.07,0,.1h0v0h0s0,0,0,.06l.1,0,0,0v0h0v0h0s0,.06,0,.11h0s0,0,0,.06l0,0a.34.34,0,0,1,0,.1h-.05s0,0,0,.05h0v0h.06v0l0,0s0,0,0,0,0,0,0,.06-.05,0-.07,0,0,0,0,0v0h0v0H23v0h0s0,0,0,.05-.06.1,0,.06v0h-.08s0,0,0,0a.44.44,0,0,0,0,.1h0a.22.22,0,0,1,0-.08h0s0,0,0-.08.06,0,.06,0,0-.17,0-.23h0V13h0s0,0,0,0v-.06h.1c0,.05,0,.11,0,.16h0s0,0,0,.08h0s.06,0,0,0,0,0,0,0h0v0l0,0h0v0s0-.09,0-.11a0,0,0,0,1,0,0h0v0h0a.68.68,0,0,0,0-.14h.14a1.5,1.5,0,0,1,0,.22h0v0h0v0h0l0,.08h0s0,0,0,.06h0v0s0,.11,0,.11h0v.06h0s0,0,0,.06h0a.33.33,0,0,1,0,.1h0v.15h0s0,.1,0,.14h0s0,0,0,.07h0v0h0s0,0,0,.06h0v.06s.07,0,0,0l0,0h0l0,0v0s0,0,.08,0h0a.34.34,0,0,0,0,.1h0v.19h0v0h0s0,0,0,0,0,0,0,.06h0v0h0a1,1,0,0,0,0,.17h0s0,.06,0,0,0,0,0,0v0c0,.06,0,.07,0,.13h0v.08h0a.42.42,0,0,0,0,.1h0c0,.05,0,.08,0,.13h0v.1s0,0,0,0h0s0,0,0,.05h0a.33.33,0,0,1,0,.1h0v.19s0,0,0,0,0,0,0,0A.22.22,0,0,0,23,16h0s0,0,0,.08h0v.11h0a.48.48,0,0,0,0,.12h0c0,.05,0,0,0,.08l0,0s0,0,0,0,0,0,0,0h0s0,0,0,0,0,0,0,0h0a.66.66,0,0,1,0,.14h0v.09h0v0s0,0,0,0h0v0h0v0h0V17h0s0,0,0,.05v0l0,0v0c-.06,0,0,0,0,0s0,0,0,0v0H23v0h0s0-.08,0-.12h0v0h.08v0h-.06l0-.06s.06,0,.08,0,0,0,0-.06h0v0h0s0,0,0-.06h0v0h0s0,0,0-.06h0s0,0,0,0a.34.34,0,0,1,0-.1h0a.57.57,0,0,0,0-.13h0s0,0,0-.06h0c0-.06,0-.06,0-.1h0s0-.07,0-.09,0-.08,0-.08l0,0V16h0c0-.05,0-.08,0-.09v0h0s0-.05,0-.08h0v0h0s0,0,0,0v0s0,0,0-.07h0v-.06h0s0,0,0-.06h0l0-.06s0,0,0,0h0v-.05h0a.22.22,0,0,0,0-.08h0v0h0s0-.11,0-.13h.05a.07.07,0,0,1,0,0,.34.34,0,0,0,0-.1h0s0,0,0,0,0,0,0,0,0,0,0-.06v0s0,0,0,0,0,0,0,0l.06,0s-.05-.06,0,0v0h0v0h0v0s-.05,0,0,0h0s0-.06,0-.11h0s0,0,0-.06h0v-.1h0v0s0,0,0,0h0s0-.09,0-.12h0v0h0s0-.08,0-.11h0s0-.06,0-.1h0v0h0c0-.07,0-.11,0-.17h0v0h0s0,0,0,0a1.76,1.76,0,0,1,0-.23h0s0,0,0,0,0,0,0-.06h0v-.08h0a.41.41,0,0,1,0-.11h0s0,0,0-.06l0,0a.34.34,0,0,0,0-.1h0a.25.25,0,0,0,0-.15h0s0,0,0,0a.21.21,0,0,1,0-.11h0v0c.05,0,.07-.08.12-.1v0h0s0-.1,0-.13h0c0-.08,0-.1,0-.18h0a.4.4,0,0,1,0-.11h0V12h0a.34.34,0,0,1,0-.1h0v-.05h0s0,0,0-.06h0v0h0s0,0,0,0v0h0v-.1l.06,0h0s.05,0,0,0h0v0h0c0-.07,0-.13,0-.2h0v-.05h0a2.29,2.29,0,0,0,0-.25h0c0-.05,0-.05,0-.06s0,0,0-.06h0v0h0s0,0,0-.06h0s0,0,0,0v0h0a.48.48,0,0,1,0-.12h0a.31.31,0,0,1,0-.08h0a.41.41,0,0,0,0-.11h0a.88.88,0,0,0,0-.16h0s0-.1,0-.15h0a.22.22,0,0,0,0-.08h0V10h0c0-.06,0-.08,0-.13h0v0h0s0,0,0-.08h0a.41.41,0,0,1,0-.11h0c0-.07,0-.09,0-.16h0s0,0,0-.07l0,0s0,0,0,0h0a2,2,0,0,0,0-.23h0c0-.05,0,0,0-.08h0a.5.5,0,0,0,0-.12h0a.41.41,0,0,0,0-.11h0a.22.22,0,0,0,0-.08h0S25,8.69,25,8.68Zm-1.62,4.09s0,.07,0,.08h-.06s0-.06,0-.08v0h.08Zm0-.23s0,0,0,0,0,0,0-.06h0v0c-.07,0,0,0,0,0s0,0,0,0,0,0,0-.06h0v-.06s0,0,0,0,0,0,.08,0,0,0,0,.06h0s0,.15,0,.08v0h0s0,.07,0,.1,0,0,0,0S23.31,12.55,23.29,12.54Zm.16.19h0s0,0,0,0,0,0,0,0h0v.08h0v0s-.09,0-.06,0,0-.08,0-.08h0s0,0,0-.08h0s0,0,0-.07h0S23.45,12.7,23.45,12.73Zm.05-1,0,.06c-.1,0,0-.06,0-.08v0h0v0c.06,0,0,0,0,.06Z"/><path class="cls-9" d="M23.08,14.26Z"/><path class="cls-9" d="M24,7.72s.05-.13,0-.08S24,7.73,24,7.72Z"/><path class="cls-9" d="M24.06,7.62h0s0-.06,0-.06S24.07,7.59,24.06,7.62Z"/><path class="cls-9" d="M24.16,7.56s0-.07,0-.06S24.1,7.58,24.16,7.56Z"/><path class="cls-10" d="M25.44,11.76v0s0,0,0,0Z"/><path class="cls-10" d="M26.73,11.47v0Z"/><path class="cls-10" d="M25.6,11.65Z"/><path class="cls-10" d="M27.66,13.13h0v-.08h0a.57.57,0,0,1,0-.13h0v-.06h0v0h0l0-.05s0,0,0,0h0v0h0a.31.31,0,0,0,0-.06h0v0h0s0,0,0-.06h0v0s0,0,0,0-.05,0,0,0,0-.06,0-.08h0v0c-.07,0,.06,0,0,0h0v0l0,0s0-.13,0-.11,0-.06,0-.06h0s0,0,0,0h0s0,0-.06,0,0,0,0-.07,0,0,0,0h0v0l0,0v0h0s0-.05,0-.08,0,0,0,0l0-.06s0,0-.06,0h0s-.05-.06-.1-.08v0H27.2v0h0v0s-.07,0-.1,0l0,0h-.1v0h-.05v0h-.31v0H26.4a.88.88,0,0,1-.23,0v0H26v0H25.9s0,0,0,.06,0,0-.05,0,0,0,0,.06-.1,0-.14,0v0h0v0l0,0v0h0v0s0,0,0,0h-.05s0,.05,0,.06l0,0s0,0,0,.06h-.08v0h0v0h-.06l0,0h-.13v0l-.12,0v0h-.13v0a.34.34,0,0,1-.1,0h-.06v0h-.05v0h-.12v0h-.1l0,.06h0v0h0s0,0,0,.06l.08.06a.83.83,0,0,1,0,.13h0v.1l0,0v0h0l0,0h-.05s0,.11,0,.13h0l0,0h0l0,.1s-.07,0-.1,0l0,0s0,0-.07,0v0s-.05.05-.08.07l-.06,0a.48.48,0,0,0,0,.12l.06,0v0h0a.48.48,0,0,1,0,.12h0a.34.34,0,0,1,0,.1l.1,0h-.06v0h.08v0h0v0h.06v0h.06v0h.06v0h.06v0h0v0h0s0,0,0,.06l.08.06v0h0s0,.05,0,.06h0l0,0h0s0,0,0,.06h0v0h0l0,0h0l0,.05h0l0,.06h.1v0l.15,0v0h.12s0,0,0,.06h.15v0h.08l0,.06c.05,0,.08,0,.12-.06v0a.36.36,0,0,1,.15,0l0,0c.05,0,.1,0,.15,0l0,0h.1v0l.1,0v0h.07l0,0v-.06h0v0s0,0,0,0h.1v0h0a.48.48,0,0,1,0-.12s0,0,0,0l.13,0,0-.06h.09v0s0,0,.06,0v-.05s.1,0,.14,0v0h.19v0h0s0-.07,0-.08h.08v0s0,0,.09,0l0,0a.43.43,0,0,0,0-.11h0v0l.08,0A.22.22,0,0,1,27.66,13.13Z"/><path d="M19,17.86h-.68v-2h-.8v-.51h2.27v.51H19Z"/><path d="M27.32,15.88H26.15v.46h1.09v.5H26.15v.5h1.18v.52H25.49V15.37h1.83Z"/><path d="M28.25,15.37v2.49h-.68V15.37Z"/><path d="M22.87,15.37v2.49h-.68V15.37Z"/><path d="M23.9,17.86h-.66V15.37h1.1a1.09,1.09,0,0,1,.72.16.76.76,0,0,1,.26.62.73.73,0,0,1-.35.69,1.49,1.49,0,0,1-.69.11H23.9Zm.19-1.37c.38,0,.51-.08.51-.32s-.13-.31-.44-.31H23.9v.63Z"/><path d="M20,17.37l-.19.49h-.67l1.08-2.49H21l1.11,2.49h-.75l-.21-.49Zm.58-1.47-.39,1H21Z"/><path class="cls-6" d="M11.93,24.16a.51.51,0,0,1,.25.09c.15.13.23.22.23.3s-.06.14-.18.15a2.77,2.77,0,0,1-.46.14,2.29,2.29,0,0,1-.39.11h-.06c0,.51,0,.93,0,1.28l.09,0a1.5,1.5,0,0,1,.41-.23.78.78,0,0,1,.41.12c.22.14.35.25.37.32a.31.31,0,0,1-.07.2,1.81,1.81,0,0,1-.53.11,8.29,8.29,0,0,0-1.19.36l-1.12.41a.92.92,0,0,1-.4.17.34.34,0,0,1-.3-.19,1.76,1.76,0,0,1-.24-.29c0-.06,0-.09.08-.09l.31,0a1.54,1.54,0,0,0,.52-.13c0-.28,0-.59,0-.92a6.12,6.12,0,0,0,0-.65A.93.93,0,0,0,9.48,25a1.68,1.68,0,0,0-.17-.26q0-.15.15-.15a1.25,1.25,0,0,1,.33.05l.25.09c.14.09.21.17.21.23a.39.39,0,0,1,0,.14.65.65,0,0,1,0,.13c0,.15,0,.43,0,.84v.65l.27-.11.33-.14c0-.42,0-.93,0-1.55a6.19,6.19,0,0,0-.08-1.05c0-.13-.08-.24-.25-.34,0-.09.06-.16.18-.18s.42.15.59.22a.32.32,0,0,1,.22.3,5.41,5.41,0,0,1,0,.56l0,0a2.67,2.67,0,0,0,.41-.21Zm-.14-2a.64.64,0,0,1,.32.12c.18.14.27.25.27.34s-.13.27-.39.31l-1.07.24a7.44,7.44,0,0,1-.88.2.64.64,0,0,1-.29-.09q-.27-.16-.27-.27c0-.06.12-.11.31-.13l.81-.24.9-.35A.69.69,0,0,1,11.79,22.13ZM14.44,24c.08,0,.18.09.31.23l.28.34a.21.21,0,0,1,.06.17,3.7,3.7,0,0,1-.33,1.06,2.52,2.52,0,0,1-.13.33l1.23,1a3.58,3.58,0,0,0,1.39.58c.35.09.52.19.52.29s-.09.11-.28.15a6.73,6.73,0,0,1-.83.21,4.54,4.54,0,0,1-.77.12c-.08,0-.28-.23-.59-.7s-.66-.82-1-1.16a4.07,4.07,0,0,1-.41.52,2.88,2.88,0,0,1-1.06.77,3.22,3.22,0,0,1-.81.32c-.12,0-.18-.05-.18-.14a5.78,5.78,0,0,0,1.38-1,2.94,2.94,0,0,0,.62-.95,1.81,1.81,0,0,0-1.2-.73c-.09,0-.14-.08-.17-.23s.09-.2.24-.23a2.11,2.11,0,0,1,1.31.65,4.4,4.4,0,0,0,.25-1.49C14.3,24,14.35,24,14.44,24Zm-1-3.26a.75.75,0,0,1,.31.23l.26.32a.32.32,0,0,1,.05.18,6.07,6.07,0,0,1-.13.9,4.7,4.7,0,0,1-.32,1.06l.41-.12a7.82,7.82,0,0,0,1.21-.46,1,1,0,0,1,.4-.16,1,1,0,0,1,.37.2c.13.09.2.16.2.23s0,.14-.09.15a2,2,0,0,1-.6.19l-1.31.32a1.71,1.71,0,0,1-.5.13.41.41,0,0,1-.26-.12,1.35,1.35,0,0,1-.33.41,1,1,0,0,1-.35.28.13.13,0,0,1-.14-.14,2.93,2.93,0,0,0,.39-.86,6.13,6.13,0,0,0,.21-1.17,10.93,10.93,0,0,0,.09-1.42C13.3,20.75,13.34,20.7,13.43,20.7Z"/><path class="cls-6" d="M24.43,20.59a2.93,2.93,0,0,1,.65.12c.28.08.42.18.44.29a.39.39,0,0,1-.17.37,1.2,1.2,0,0,0-.28.69,7.32,7.32,0,0,0-.09.82c0,.32,0,.6-.05.86a9.1,9.1,0,0,0,.13,1.35,7.91,7.91,0,0,0,.32,1.25,2.17,2.17,0,0,0,.61.92,1,1,0,0,0,.69.32c.14,0,.24-.13.3-.35s.11-.35.15-.47.22.27.4.8a3.36,3.36,0,0,1,.25,1.05.37.37,0,0,1-.38.21,2,2,0,0,1-.95-.37,4.43,4.43,0,0,1-1.11-.93,5,5,0,0,1-.77-1.74,10.8,10.8,0,0,1-.27-2q0-.91,0-1.53c0-.34,0-.67,0-1a7.05,7.05,0,0,0-1.18.3c-.62.16-1.2.34-1.75.53a2.82,2.82,0,0,1-.58.23h-.06c0,.09,0,.18,0,.28,0,.78.07,1.31.07,1.61a5.08,5.08,0,0,1-.13,1.16,4.44,4.44,0,0,1-.31,1.19,2.27,2.27,0,0,1-.62,1,1.18,1.18,0,0,1-.63.37.77.77,0,0,1-.22-.29,1.53,1.53,0,0,1-.19-.38c.07,0,.25-.1.53-.21a1.42,1.42,0,0,0,.67-.89,4.33,4.33,0,0,0,.38-1.94A11.5,11.5,0,0,0,20.28,23a1.51,1.51,0,0,0-.18-.73,1.09,1.09,0,0,0-.23-.41c-.11-.1-.16-.16-.16-.19s0-.1.12-.12a2,2,0,0,1,.45.1,1.13,1.13,0,0,1,.27.13,13.36,13.36,0,0,0,1.77-.4l2-.46C24.33,20.7,24.37,20.59,24.43,20.59Zm-2.36,2.7-.27,0a.64.64,0,0,1-.24-.07c-.15-.11-.23-.18-.23-.23s.1-.08.27-.1l.69-.19.78-.26a.64.64,0,0,1,.25-.1.54.54,0,0,1,.26.09c.15.11.22.21.22.29s-.11.2-.33.22-.58.13-.92.19h0a.5.5,0,0,1,.26.47c0,.1,0,.2,0,.3l.53-.11c0-.1.08-.14.1-.14a.72.72,0,0,1,.29.12,4.25,4.25,0,0,1,.44.29,2.08,2.08,0,0,0-.25.52c-.05.19-.09.34-.11.46s.14.14.14.19-.12.18-.35.21l-.92.15-.1,0a.08.08,0,0,0,0,0,4.65,4.65,0,0,1-.27,1l.56-.11.39-.1a2.29,2.29,0,0,1-.16-.51.09.09,0,0,1,.1-.08,1.78,1.78,0,0,1,.51.33c.32.3.49.49.49.55a.49.49,0,0,1-.11.31.31.31,0,0,1-.27.16q-.21,0-.39-.36l-.09-.19a2,2,0,0,1-.26.16,8.53,8.53,0,0,1-1,.54,1.44,1.44,0,0,1-.59.21.31.31,0,0,1-.27-.2,3.52,3.52,0,0,1-.15-.47c0-.11,0-.18.07-.19a.49.49,0,0,0,.25.08,4.57,4.57,0,0,0,.46-.05q.14-.33.27-.75c0-.09,0-.16,0-.23l-.22,0a.25.25,0,0,1-.12,0,.22.22,0,0,1-.22.15c-.06,0-.11-.07-.16-.2a3.49,3.49,0,0,0-.16-.49,2.76,2.76,0,0,0-.2-.47,1.38,1.38,0,0,1-.14-.25c0-.08,0-.13.16-.13a.86.86,0,0,1,.36.08.56.56,0,0,1,.19.25,5.15,5.15,0,0,1,.12.54c0,.08,0,.14,0,.19l.44-.1c0-.12,0-.22,0-.31s0-.33,0-.47l-.24.09a.5.5,0,0,1-.29-.11c-.13-.1-.2-.19-.2-.28a.43.43,0,0,1,.28-.07l.41-.09,0-.22A2.7,2.7,0,0,0,22.07,23.29Zm.61,1.91.49-.13c0-.07,0-.15,0-.24a4,4,0,0,0,.06-.56,1.78,1.78,0,0,0-.42.07l-.08,0c0,.05,0,.1,0,.15C22.74,24.75,22.71,25,22.68,25.2Z"/><path class="cls-6" d="M30,23.66a.75.75,0,0,1,.25.2l.21.26a.25.25,0,0,1,0,.15,6.62,6.62,0,0,1-.19,1.14,5,5,0,0,1-.49,1.47,2.3,2.3,0,0,1-.6.83,1.3,1.3,0,0,1-.48.35q-.15,0-.15-.12a4,4,0,0,0,.72-1.06,4.52,4.52,0,0,0,.41-1.4,9.24,9.24,0,0,0,.15-1.69C29.84,23.7,29.88,23.66,30,23.66Zm1.53-3.17a5.61,5.61,0,0,1,.67.25.35.35,0,0,1,.26.33,2,2,0,0,1-.09.43v0l.18,0a6.43,6.43,0,0,0,.76-.24,1,1,0,0,1,.26-.08.8.8,0,0,1,.31.18c.11.08.16.14.16.18s0,.12-.06.14a2.22,2.22,0,0,1-.38.09c-.28,0-.54.09-.78.14a1.27,1.27,0,0,1-.3.06.29.29,0,0,1-.17-.06q0,.36,0,.6c.84-.13,1.56-.25,2.17-.38,0,0,.2.11.43.33s.31.31.31.38-.2.15-.59.31a3.48,3.48,0,0,1-.76.19A.74.74,0,0,1,34,23a.63.63,0,0,0,.08-.28c-.5,0-1.12.13-1.85.26a.44.44,0,0,1,.15.27.69.69,0,0,0-.15.43,5.1,5.1,0,0,0,.7-.21,1.53,1.53,0,0,1,.43-.13.64.64,0,0,1,.28.17c.1.06.15.11.15.16s0,.11-.06.12a2.5,2.5,0,0,1-.62.16l-.91.19v0a.34.34,0,0,0,.12.26c0,.07.17.11.38.11a5.56,5.56,0,0,0,.94-.16,3.21,3.21,0,0,1,.52-.12c.05,0,.13.06.25.2s.19.24.19.29-.19.15-.58.18-1.11.08-1.72.09a.59.59,0,0,1-.46-.2.52.52,0,0,1-.18-.43v-.12a1.88,1.88,0,0,1-.41.08.49.49,0,0,1-.28-.14c-.14-.13-.21-.2-.21-.23a8.59,8.59,0,0,0,.89-.16h0c0-.25,0-.49,0-.72,0,0,0,0,0,0-.52.11-1,.22-1.31.33,0,0-.11-.05-.22-.14s-.22-.2-.23-.27.11-.1.33-.14c.4-.06.9-.14,1.5-.25,0-.27,0-.59,0-1a2.58,2.58,0,0,0-.11-.73c0-.09-.08-.17-.26-.23C31.3,20.59,31.36,20.52,31.49,20.49ZM33,25.4c.08,0,.15.13.22.3a.11.11,0,0,1,0,.06l.22-.08a2.27,2.27,0,0,0,.34-.11.78.78,0,0,1,.16-.26.63.63,0,0,1,.35.13c.22.13.33.27.33.44a.39.39,0,0,0-.23.16,1.36,1.36,0,0,0-.08.53c0,.2.09.3.26.3a2.5,2.5,0,0,1,.48-.17.54.54,0,0,1,.34.15.46.46,0,0,1,.11.3c0,.09-.1.13-.3.13a7.54,7.54,0,0,1-.89.08.57.57,0,0,1-.4-.15.79.79,0,0,1-.13-.5c0-.12,0-.28,0-.46s0-.26,0-.35c-.19.1-.38.21-.55.32l-.09.36a2.63,2.63,0,0,1-.17.54.57.57,0,0,1-.09.17l-.09.05a9,9,0,0,0,1.23.48,3,3,0,0,0,.81.23,8.67,8.67,0,0,0,1,.07c.46,0,.76,0,.9,0s.17.05.17.16-.29.19-.87.39a4.16,4.16,0,0,1-1,.36,1.85,1.85,0,0,1-.78-.36,20.43,20.43,0,0,0-1.92-1.05l-.79-.42-.06.08a2.51,2.51,0,0,1-.86.79,2.43,2.43,0,0,1-.78.3c-.06,0-.08,0-.08-.07a6.08,6.08,0,0,0,.58-.42,3.2,3.2,0,0,0,.76-.88,5.26,5.26,0,0,0-.57-.26.49.49,0,0,1-.16.13s-.08.06-.16.06-.07-.06-.11-.17a1,1,0,0,1,0-.26c0-.07.09-.17.28-.29a1.37,1.37,0,0,0,.27-.54,2.28,2.28,0,0,0,.21-.77.13.13,0,0,1,.11-.05c.07,0,.13.11.19.27a.65.65,0,0,1,.1.36.25.25,0,0,1,0,.07l.3-.1a1.3,1.3,0,0,1,.24-.23,1,1,0,0,1,.27.13c.23.12.34.19.34.23a3,3,0,0,1-.24.54,5.19,5.19,0,0,1-.34.74c.25.12.5.24.74.34a.2.2,0,0,1,0-.08,1.73,1.73,0,0,1-.05-.31.56.56,0,0,1,.11-.27,1.85,1.85,0,0,0,.1-.46,4.38,4.38,0,0,0,.08-.66A.16.16,0,0,1,33,25.4ZM31,26.46c.18.08.37.16.54.25a3.21,3.21,0,0,0,.31-.86.74.74,0,0,0-.26.08l-.26.06-.07,0-.05.11A2.42,2.42,0,0,1,31,26.46Z"/></svg>