<svg xmlns="http://www.w3.org/2000/svg" viewBox="0 0 810.46 184.44"><defs><style>.cls-1{fill:#ff0;}</style></defs><g id="圖層_2" data-name="圖層 2"><g id="圖層_1-2" data-name="圖層 1"><path class="cls-1" d="M223.05,25.87,210.7,75.46l-10.58,14.7h-38l7.65-30.58H139.55l-1.17,4.9h25.28l-6.47,25.68H131.91l-1.18,4.9h66.84l-6.47,25.09H80.56l4.9-19.8H74.28L63.7,143.08h6.47l4.51-17.64h51.15l-11.17,44.69L101.14,184H50.57l3.72-15.28L39,184.44H0L41.36,19h50L96,0h63.11l-1.76,6.66h62.52l-3.72,14.9H153.66l-1,4.31ZM95.65,59.58H84.48l-1.77,6.86H94.08Zm83.89,83.5h14.11l-10.39,41H131.71l-9.41-14.11,11-44.49H184Z"/><path class="cls-1" d="M419.05,25.87,406.7,75.46l-10.58,14.7h-38l7.65-30.58H335.55l-1.17,4.9h25.28l-6.47,25.68H327.91l-1.18,4.9h66.84l-6.47,25.09H276.56l4.9-19.8H270.28L259.7,143.08h6.47l4.51-17.64h51.15l-11.17,44.69L297.14,184H246.57l3.72-15.28L235,184.44H196L237.36,19h50L292,0h63.11l-1.76,6.66h62.52l-3.72,14.9H349.66l-1,4.31ZM291.65,59.58H280.48l-1.77,6.86h11.37Zm83.89,83.5h14.11l-10.39,41H327.71l-9.41-14.11,11-44.49H380Z"/><path class="cls-1" d="M549.58,64.88,546.64,78h49.79l-10,42.53H536.84L533.51,135h53.71L576,182.87H394l11-47.83h54.68l3.33-14.5H412L421.79,78H473l2.94-13.13H420.62l8.23-35.68L450.8,6.66h37l-2.35,10.78h10.78L500.19.59h64.29l-3.92,16.85h52.53l-11,47.44Z"/><path class="cls-1" d="M782.43,126h6.47l-13.33,58.21H735L726.18,166,753.62,46.84H671.1L643.47,166l-13.13,18.23h-44.1L599.76,126h6.08l28-121.72h176.6Zm-62.52,14.89,5.29,7.45-7.64,33.52H644.64l8.24-35.67h17.44l1.18-5.3H653.86l12.93-56h17.64l1.18-5.1H668.36l6.47-28.22h73.3l-5.88,25.28L722.85,79l-1.37,5.88H739.9l-12.94,56Zm-39.4-23.52h6.27l1.77-8h-6.27Zm24.7,23.52h-5.88l-1.18,5.3H704Zm1.57-31.55-2,8h6.27l1.76-8Z"/></g></g></svg>