<svg xmlns="http://www.w3.org/2000/svg" viewBox="0 0 45.96 45.96"><defs><style>.cls-1{fill:#fff;}</style></defs><g id="圖層_2" data-name="圖層 2"><g id="圖層_1-2" data-name="圖層 1"><rect class="cls-1" x="20.98" y="-7.52" width="4" height="61" transform="translate(-9.52 22.98) rotate(-45)"/><path class="cls-1" d="M31.45,29.28,29,26.85v4.08A10.51,10.51,0,0,0,31.45,29.28Z"/><path class="cls-1" d="M40,26.23a16.29,16.29,0,0,1-2.6,5.14l3.3,3.3A20.84,20.84,0,0,0,29,1.25V6A16.23,16.23,0,0,1,40,26.23Z"/><path class="cls-1" d="M33.21,27.18a10.32,10.32,0,0,0,1.63-5.58A10.43,10.43,0,0,0,29,12.25V23Z"/><polygon class="cls-1" points="24.36 18.33 24.36 3.03 16.7 10.67 24.36 18.33"/><path class="cls-1" d="M35.57,33.4A16.28,16.28,0,0,1,29,37.18V42a20.85,20.85,0,0,0,9.82-5.29Z"/><polygon class="cls-1" points="14.76 12.59 12.71 14.64 3.39 14.64 3.39 28.57 12.71 28.57 24.36 40.17 24.36 22.19 14.76 12.59"/></g></g></svg>