<svg xmlns="http://www.w3.org/2000/svg" xmlns:xlink="http://www.w3.org/1999/xlink" viewBox="0 0 559.69 131.37"><defs><style>.cls-1,.cls-8,.cls-9{fill:none;}.cls-2{fill:#ff8908;}.cls-3{fill:url(#未命名漸層_4);}.cls-4{fill:#040000;}.cls-5{fill:url(#未命名漸層_4-2);}.cls-6{fill:#fff;}.cls-7{fill:url(#未命名漸層_4-3);}.cls-8,.cls-9{stroke:#040000;stroke-linecap:round;stroke-linejoin:round;}.cls-8{stroke-width:0.5px;}.cls-10{fill:#070001;}.cls-11{fill:url(#未命名漸層_3);}.cls-12{fill:url(#未命名漸層_2);}.cls-13{fill:url(#未命名漸層_2-2);}.cls-14{fill:url(#未命名漸層_3-2);}.cls-15{fill:url(#未命名漸層_2-3);}.cls-16{fill:url(#未命名漸層_3-3);}.cls-17{fill:url(#未命名漸層_3-4);}.cls-18{fill:url(#未命名漸層_2-4);}.cls-19{fill:url(#未命名漸層_3-5);}.cls-20{fill:url(#未命名漸層_3-6);}.cls-21{fill:url(#未命名漸層_2-5);}.cls-22{fill:url(#未命名漸層_3-7);}.cls-23{fill:url(#未命名漸層_2-6);}.cls-24{clip-path:url(#clip-path);}.cls-25{clip-path:url(#clip-path-2);}.cls-26{clip-path:url(#clip-path-3);}.cls-27{clip-path:url(#clip-path-4);}</style><linearGradient id="未命名漸層_4" x1="85.74" y1="29.03" x2="97.66" y2="59" gradientUnits="userSpaceOnUse"><stop offset="0" stop-color="#ff8a00"/><stop offset="1" stop-color="#ff6d00"/></linearGradient><linearGradient id="未命名漸層_4-2" x1="70.54" y1="30.27" x2="83.14" y2="61.97" xlink:href="#未命名漸層_4"/><linearGradient id="未命名漸層_4-3" x1="35.04" y1="44.39" x2="47.65" y2="76.08" xlink:href="#未命名漸層_4"/><linearGradient id="未命名漸層_3" x1="14458.93" y1="-905.06" x2="14474.28" y2="-783.45" gradientTransform="matrix(-1.06, 0.3, 0.31, 1.08, 16054.01, -3422.33)" gradientUnits="userSpaceOnUse"><stop offset="0" stop-color="#ffb361"/><stop offset="1" stop-color="#ff8908"/></linearGradient><linearGradient id="未命名漸層_2" x1="14437.09" y1="-786.69" x2="14430.41" y2="-760.55" gradientTransform="matrix(-1.06, 0.3, 0.31, 1.08, 16054.01, -3422.33)" gradientUnits="userSpaceOnUse"><stop offset="0" stop-color="#ff6721"/><stop offset="1" stop-color="#ff4900"/></linearGradient><linearGradient id="未命名漸層_2-2" x1="14411.7" y1="-793.18" x2="14405.02" y2="-767.04" xlink:href="#未命名漸層_2"/><linearGradient id="未命名漸層_3-2" x1="14407.27" y1="-799.47" x2="14402.25" y2="-772.76" xlink:href="#未命名漸層_3"/><linearGradient id="未命名漸層_2-3" x1="14448.96" y1="-873.45" x2="14461.75" y2="-772.58" xlink:href="#未命名漸層_2"/><linearGradient id="未命名漸層_3-3" x1="14457.82" y1="-789.97" x2="14452.8" y2="-763.26" xlink:href="#未命名漸層_3"/><linearGradient id="未命名漸層_3-4" x1="14416.62" y1="-899.72" x2="14431.96" y2="-778.11" xlink:href="#未命名漸層_3"/><linearGradient id="未命名漸層_2-4" x1="14409.61" y1="-868.46" x2="14422.4" y2="-767.59" xlink:href="#未命名漸層_2"/><linearGradient id="未命名漸層_3-5" x1="14420.76" y1="-796.93" x2="14415.74" y2="-770.22" xlink:href="#未命名漸層_3"/><linearGradient id="未命名漸層_3-6" x1="14433.29" y1="-794.58" x2="14428.27" y2="-767.87" xlink:href="#未命名漸層_3"/><linearGradient id="未命名漸層_2-5" x1="14452.12" y1="-782.85" x2="14445.44" y2="-756.71" xlink:href="#未命名漸層_2"/><linearGradient id="未命名漸層_3-7" x1="14443.11" y1="-792.73" x2="14438.09" y2="-766.02" xlink:href="#未命名漸層_3"/><linearGradient id="未命名漸層_2-6" x1="14461.7" y1="-780.41" x2="14455.02" y2="-754.26" xlink:href="#未命名漸層_2"/><clipPath id="clip-path" transform="translate(0 38.75)"><path class="cls-1" d="M137,66.55l3.59,4.32L137,86.24H123.48l-5-5.8-6.9,5.8H95.41l3.13-13.62,5.8-5.25-1.93-2.67,7.91-34.14h-2.85l5.15-22.09h2.76l1.66-7H141l-1.65,7h14.17L140.88,63.05Zm-9.29-36-5.16,22.27,1,1.38L126.06,52l5-21.44Zm57.16,6.16-.19.92h8.19l-5.8,25.22H178.8l-5.43,23.29H140.79l2.76-11.5,7-4.42,1.66-7.37h-8.47l5.8-25.22H158l1.38-5.79,6.17-6.63.27-1.11H152.66L158,1.29h41.88L194.26,26Z"/></clipPath><clipPath id="clip-path-2" transform="translate(0 38.75)"><path class="cls-1" d="M270.94,19.6l-.46,2h16.29l-1.57,6.63h2.21L283.08,47h-2.2l-1.57,6.91h-16.2l-7.45,32.49H227.22l.46-2.12h-15l2.76-11.87,5.25-3.32h12.7l-2,8.93,2.21-1.2,5.24-22.91h-18.5l2.12-9h18.5l.46-2.12h-19l2.3-10.22h19l.46-2H225.74l2-8.93h18.5l.46-2h-20.8l-13.81,60-8.65,6.44H188.1L207.15,3.68h29L237,0h30.74l-.82,3.68H292.1L288.42,19.6ZM221.05,67.28l-3.22-3.13,1.93-8.37h16.66l-2.58,11.5Zm53,1.84,3.69,2.67-2.86,12.52H258.05l3.5-15.19Zm-8.37-24,.55-2.3h-4.51l-.55,2.3Zm-1.11,10.68h16.3l-1.75,7.73-4.6,3.77H262Zm-.46-23.2h4.42l.55-2.21h-4.51Z"/></clipPath><clipPath id="clip-path-3" transform="translate(0 38.75)"><path class="cls-1" d="M385.9,3.87l-4.15,18H320.09l-13,56.32L298.92,86H281l19-82.1H329L329.94,0h30.74l-.83,3.87ZM311.25,70H370l-3.68,16.2H307.48Zm10.86-45.84h57.25l-2.48,11-8.1,1.65-.74,3.5h8.1l-2.67,11.51h-8.1l-.09.55,6,9.94L370,67.56H348.71L346,61.67l-5.43,5.8H312.08Zm21.72,27.62h-7.36l-.64,2.67h7.45Zm-4.05-14.36-.64,2.85h7.36l.65-2.85Z"/></clipPath><clipPath id="clip-path-4" transform="translate(0 38.75)"><path class="cls-1" d="M439.65,5.52,421.06,86.06H398l3.77-16.29L405,67l9.21-39.77h-2.12l-17.76,59H373.1l3-13.16,16.57-45.84h-3.87l5.07-21.72h4.14l1.1-4.78h24.3l-1.1,4.78ZM479.14,4,460.45,84.77H424.37L443.06,4ZM455.94,27.8h-3L444.8,63h3Z"/></clipPath></defs><g id="圖層_2" data-name="圖層 2"><g id="圖層_1-2" data-name="圖層 1"><path class="cls-2" d="M137,66.55l3.59,4.32L137,86.24H123.48l-5-5.8-6.9,5.8H95.41l3.13-13.62,5.8-5.25-1.93-2.67,7.91-34.14h-2.85l5.15-22.09h2.76l1.66-7H141l-1.65,7h14.17L140.88,63.05Zm-9.29-36-5.16,22.27,1,1.38L126.06,52l5-21.44Zm57.16,6.16-.19.92h8.19l-5.8,25.22H178.8l-5.43,23.29H140.79l2.76-11.5,7-4.42,1.66-7.37h-8.47l5.8-25.22H158l1.38-5.79,6.17-6.63.27-1.11H152.66L158,1.29h41.88L194.26,26Z" transform="translate(0 38.75)"/><path class="cls-2" d="M270.94,19.6l-.46,2h16.29l-1.57,6.63h2.21L283.08,47h-2.2l-1.57,6.91h-16.2l-7.45,32.49H227.22l.46-2.12h-15l2.76-11.87,5.25-3.32h12.7l-2,8.93,2.21-1.2,5.24-22.91h-18.5l2.12-9h18.5l.46-2.12h-19l2.3-10.22h19l.46-2H225.74l2-8.93h18.5l.46-2h-20.8l-13.81,60-8.65,6.44H188.1L207.15,3.68h29L237,0h30.74l-.82,3.68H292.1L288.42,19.6ZM221.05,67.28l-3.22-3.13,1.93-8.37h16.66l-2.58,11.5Zm53,1.84,3.69,2.67-2.86,12.52H258.05l3.5-15.19Zm-8.37-24,.55-2.3h-4.51l-.55,2.3Zm-1.11,10.68h16.3l-1.75,7.73-4.6,3.77H262Zm-.46-23.2h4.42l.55-2.21h-4.51Z" transform="translate(0 38.75)"/><path class="cls-2" d="M385.9,3.87l-4.15,18H320.09l-13,56.32L298.92,86H281l19-82.1H329L329.94,0h30.74l-.83,3.87ZM311.25,70H370l-3.68,16.2H307.48Zm10.86-45.84h57.25l-2.48,11-8.1,1.65-.74,3.5h8.1l-2.67,11.51h-8.1l-.09.55,6,9.94L370,67.56H348.71L346,61.67l-5.43,5.8H312.08Zm21.72,27.62h-7.36l-.64,2.67h7.45Zm-4.05-14.36-.64,2.85h7.36l.65-2.85Z" transform="translate(0 38.75)"/><path class="cls-2" d="M439.65,5.52,421.06,86.06H398l3.77-16.29L405,67l9.21-39.77h-2.12l-17.76,59H373.1l3-13.16,16.57-45.84h-3.87l5.07-21.72h4.14l1.1-4.78h24.3l-1.1,4.78ZM479.14,4,460.45,84.77H424.37L443.06,4ZM455.94,27.8h-3L444.8,63h3Z" transform="translate(0 38.75)"/><path class="cls-3" d="M96.87,38.91c-3.36,4.54-8.78,8.06-9.93,8.92a42.07,42.07,0,0,1,3.59,13.29,17.58,17.58,0,0,1-4.32,2.43c.55-5.14-.2-10.08-1.91-12.95-4-6.72-2.19-4.78,6.4-10.58a12.89,12.89,0,0,0,5-6,14,14,0,0,0,.25-9C101.34,29.65,100,34.73,96.87,38.91Z" transform="translate(0 38.75)"/><path class="cls-2" d="M95.9,25a0,0,0,0,0,0,0,18.61,18.61,0,0,0-2.24-1.66,16.94,16.94,0,0,0-6-2.52c-11.81-2.2-18,13.29-18,13.29-21.83-15.15-42.08-3.54-42.08-3.54a12.23,12.23,0,0,0-2.13-7.38c-4.24-6.39-14-9-20.18-1.72C-3.09,31.1,8.9,45.78,8.9,45.78S3.17,51.44,1.11,58.62c.17-.4,1.51-3.68,2.1-4.9a7.11,7.11,0,0,0,1.92,2.36,21.75,21.75,0,0,0,8.37,4.09,18.6,18.6,0,0,1-10.43-.53,14,14,0,0,1-2-1,17.9,17.9,0,0,0-.73,4.85v.42a26.18,26.18,0,0,0,12.42,4.6A25.92,25.92,0,0,1,2,70.1c1.68,3.24,4.87,6.4,10.29,9.13,0,0,0,0,0,0C25.19,83,65,85.46,76,80.49a13.52,13.52,0,0,0,4.22-3,36.59,36.59,0,0,1-8.17-3.13,40.05,40.05,0,0,0,10.75-.21,23,23,0,0,0,2.58-6.29,37,37,0,0,1-11.79-1.79,35,35,0,0,0,12.59-2.56c.55-5.14-.2-10.08-1.91-12.95-4-6.72-2.19-4.78,6.4-10.58a12.89,12.89,0,0,0,5-6A14,14,0,0,0,95.9,25ZM33.33,54.15c-2.18-.84-1.07-3.57.65-3.53,0,0,6.41-.42,6.22,2S35.52,55,33.33,54.15Zm32.43,1.4c-10.58,3.05-16.64-5.39-16.64-5.39,7.72-3.44,16.64-7.52,16.64-7.52a21.83,21.83,0,0,1,2.8,3.26C70.73,49.05,72.38,53.61,65.76,55.55Z" transform="translate(0 38.75)"/><path class="cls-4" d="M90.53,61.12c.38,1.42,0,6.15,0,6.15l-.1,0A29,29,0,0,0,90.53,61.12Z" transform="translate(0 38.75)"/><path class="cls-5" d="M90.43,67.29A21.69,21.69,0,0,1,89,72.75h0a35.64,35.64,0,0,1-6.15,1.44,23,23,0,0,0,2.58-6.29A21.67,21.67,0,0,0,90.43,67.29Z" transform="translate(0 38.75)"/><path class="cls-4" d="M89,72.75h0a11.25,11.25,0,0,1-1.2,2.37A15,15,0,0,0,89,72.75Z" transform="translate(0 38.75)"/><path class="cls-4" d="M89,72.75a15,15,0,0,1-1.18,2.37c-.12.19-.23.4-.36.6-.64.93-1.3,1.75-1.72,2.27a1,1,0,0,0-.19.23l-.29.3a41.55,41.55,0,0,1-5-1,15.43,15.43,0,0,0,2.58-3.34A35.64,35.64,0,0,0,89,72.75Z" transform="translate(0 38.75)"/><path class="cls-6" d="M85.72,78c.42-.52,1.08-1.34,1.72-2.27A15.6,15.6,0,0,1,85.72,78Z" transform="translate(0 38.75)"/><path class="cls-4" d="M85.24,78.52l.29-.3c-.18.19-.27.3-.27.3Z" transform="translate(0 38.75)"/><path class="cls-7" d="M80.25,77.53a41.55,41.55,0,0,0,5,1c-6.19,6.53-18.76,10.79-42.9,8.16-14-1.53-23.6-4.18-30.06-7.45C25.19,83,65,85.46,76,80.49A13.69,13.69,0,0,0,80.25,77.53Z" transform="translate(0 38.75)"/><path class="cls-4" d="M82.83,74.19a15.43,15.43,0,0,1-2.58,3.34,36.59,36.59,0,0,1-8.17-3.13A40.47,40.47,0,0,0,82.83,74.19Z" transform="translate(0 38.75)"/><path class="cls-4" d="M34,50.62s6.41-.42,6.22,2S35.52,55,33.33,54.15,32.26,50.58,34,50.62Z" transform="translate(0 38.75)"/><path class="cls-4" d="M17.66,61.43A25.44,25.44,0,0,1,3.37,60.7l.86-1.41c.66-1.1,1.31-2.25,2-3.46C8.24,57.59,11.77,59.78,17.66,61.43Z" transform="translate(0 38.75)"/><path class="cls-4" d="M3.55,52.59A9.62,9.62,0,0,0,6.2,55.83c-.66,1.21-1.31,2.36-2,3.46L3.37,60.7A20.68,20.68,0,0,1,.65,59.37a.12.12,0,0,1,0-.06C.91,58.76,2.74,54.26,3.55,52.59Z" transform="translate(0 38.75)"/><path class="cls-4" d="M.36,63.93a26.18,26.18,0,0,0,12.42,4.6A25.92,25.92,0,0,1,2,70.1c-.12-.21-.21-.4-.31-.59,0,0,0,0,0-.06a24.49,24.49,0,0,1-1-3L.59,66.2A16,16,0,0,1,.36,63.93Z" transform="translate(0 38.75)"/><path class="cls-4" d="M2,70.1H1.89l-.25-.59C1.74,69.7,1.83,69.89,2,70.1Z" transform="translate(0 38.75)"/><path class="cls-6" d="M.65,66.49a24.49,24.49,0,0,0,1,3A14,14,0,0,1,.65,66.49Z" transform="translate(0 38.75)"/><path class="cls-4" d="M.36,63.93A16,16,0,0,0,.59,66.2a11.75,11.75,0,0,1-.36-2.36Z" transform="translate(0 38.75)"/><path class="cls-8" d="M27.37,30.72S47.62,19.1,69.46,34.25c0,0,8.36-20.81,24.07-10.78S89.16,46.24,86.84,48c0,0,22.76,46.18-44.6,38.84S8.79,46,8.79,46s-12-14.68-3.72-24.35S27.83,19.76,27.37,30.72Z" transform="translate(0 38.75)"/><path class="cls-9" d="M68.44,46.07s4.37-2.67,7-1.6" transform="translate(0 38.75)"/><path class="cls-9" d="M70.36,51.35s4-.05,5,1.48" transform="translate(0 38.75)"/><path class="cls-9" d="M19,40.2a22.36,22.36,0,0,0-2.52-2.54" transform="translate(0 38.75)"/><path class="cls-9" d="M15.38,43.48a12.54,12.54,0,0,0-3.25-.68" transform="translate(0 38.75)"/><path class="cls-1" d="M90.42,61.29s-5.38,4.61-16.9,5c0,0,8.89,3.13,16.9,1.18C90.42,67.45,90.81,62.7,90.42,61.29Z" transform="translate(0 38.75)"/><path class="cls-1" d="M88.88,72.92A41.29,41.29,0,0,1,72,74.57a39.16,39.16,0,0,0,13.17,4.12S88,75.5,88.88,72.92Z" transform="translate(0 38.75)"/><path class="cls-1" d="M3.1,53.88s1.58,4,10.3,6.46c0,0-6.76,1.84-12.42-1.51C1,58.83,2.47,55.18,3.1,53.88Z" transform="translate(0 38.75)"/><path class="cls-1" d="M.12,64a26.06,26.06,0,0,0,12.55,4.68A25.87,25.87,0,0,1,1.78,70.28,20.86,20.86,0,0,1,.12,64Z" transform="translate(0 38.75)"/><path class="cls-1" d="M33.87,50.79c-1.71,0-2.83,2.69-.65,3.53s6.69,1,6.88-1.49S33.87,50.79,33.87,50.79Z" transform="translate(0 38.75)"/><path class="cls-10" d="M68.57,45.9c2.15,3.15,3.81,7.72-2.81,9.65-10.58,3.05-16.64-5.39-16.64-5.39,7.72-3.44,16.64-7.52,16.64-7.52A22.22,22.22,0,0,1,68.57,45.9Z" transform="translate(0 38.75)"/><path class="cls-10" d="M21.45,38.72s5,7.62,7.77,9.05c0,0-9.8,4.7-13.58,0a3.52,3.52,0,0,1-.15-4.47A12.07,12.07,0,0,1,19.1,40,18.83,18.83,0,0,1,21.45,38.72Z" transform="translate(0 38.75)"/><path class="cls-4" d="M90.42,59.45A45.51,45.51,0,0,1,90.27,69a33.4,33.4,0,0,1-7.76.94,43.37,43.37,0,0,0,1.24-6.72A27.52,27.52,0,0,0,90.42,59.45Z" transform="translate(0 38.75)"/><path class="cls-4" d="M83.75,63.2a43.37,43.37,0,0,1-1.24,6.72,57.14,57.14,0,0,1-18.2-2.77A54.69,54.69,0,0,0,83.75,63.2Z" transform="translate(0 38.75)"/><path class="cls-11" d="M473.11,75c-8.86-3.68-20.18,10.58,2.33,16,.22-.79,2.39-8.55,1.08-14.74A24.18,24.18,0,0,1,473.11,75Z" transform="translate(0 38.75)"/><path class="cls-4" d="M520.11,65.64a18.87,18.87,0,0,1,2.54,6.09l.08-.15h0A15.92,15.92,0,0,0,520.11,65.64Z" transform="translate(0 38.75)"/><path class="cls-4" d="M483.23,92.27A65.69,65.69,0,0,1,475.44,91l0,.06c.67.16,1.38.3,2.11.44,1.94.37,3.8.65,5.62.82Z" transform="translate(0 38.75)"/><path class="cls-4" d="M525.87,65.81c-.72,1.28-1.57,2.85-2.22,4C524.43,68.34,525.16,67,525.87,65.81Zm-1.75,3.68c.9-1.73.74-1.69,1.54-3,.16-.28,1-1.6,1.14-1.84s.16-.28.23-.38.08-.12.11-.18,0-.11,0-.29c0,.06-.09.12-.13.19a14.43,14.43,0,0,0-1.42-5.14,10.74,10.74,0,0,0-.55-1,18.58,18.58,0,0,0-3.63,4.41c-.48.86-1,1.83-1.66,2.86.14.17.27.35.4.54a15.92,15.92,0,0,1,2.62,5.93h0l-.08.15c0,.1.05.19.07.29,0-.06.31-.56.46-.85.06-.12.14-.25.21-.39S524,69.76,524.12,69.49Z" transform="translate(0 38.75)"/><path class="cls-4" d="M521.89,42.56a7.77,7.77,0,0,0-1,.83C521.24,43.11,521.55,42.84,521.89,42.56Z" transform="translate(0 38.75)"/><path class="cls-12" d="M520.11,65.64c-.13-.19-.26-.37-.4-.54a55.49,55.49,0,0,1-6.27,8.6,13.67,13.67,0,0,1-.34,4.94,7.62,7.62,0,0,0-1.57-3A35.42,35.42,0,0,1,506.11,80a48.48,48.48,0,0,1,2.27,6.93,41,41,0,0,0,14.27-15.21A18.87,18.87,0,0,0,520.11,65.64Z" transform="translate(0 38.75)"/><path class="cls-4" d="M475.44,91a65.69,65.69,0,0,0,7.79,1.32h.06a25,25,0,0,0,.52-14.76,0,0,0,0,0,0,0c-2,.41-6-.89-7-1.22l-.22-.08C477.83,82.4,475.66,90.16,475.44,91Z" transform="translate(0 38.75)"/><path class="cls-4" d="M501.43,82.61a30.36,30.36,0,0,1,3.2,6.33c.08,0,.16-.07.24-.12l2.64-1.38.13-.07.59-.34.15-.09A48.48,48.48,0,0,0,506.11,80,33.28,33.28,0,0,1,501.43,82.61Z" transform="translate(0 38.75)"/><path class="cls-4" d="M525.87,65.81c-.71,1.2-1.44,2.53-2.22,4C524.3,68.66,525.15,67.09,525.87,65.81Z" transform="translate(0 38.75)"/><path class="cls-4" d="M559.26,40.4c-.06.36-.92,3.36-10.56,6.32-1.31.4-2.65.82-4,1.26a36,36,0,0,1,.87,4.42l4.63-1.1C557.6,49.51,560.2,44.65,559.26,40.4Z" transform="translate(0 38.75)"/><path class="cls-13" d="M533.53,52.33a35,35,0,0,0-8.53,5.5,10.74,10.74,0,0,1,.55,1,16.78,16.78,0,0,1,1.55,5c4.8-7.51,8.79-9,18.47-11.37A36,36,0,0,0,544.7,48,88.79,88.79,0,0,0,533.53,52.33Z" transform="translate(0 38.75)"/><path class="cls-4" d="M520.91,43.41c.26.05,8.49,1.54,12.09,7.76,0,0,.35-7.62-2.61-13.51h0a.47.47,0,0,0-.16.07c-.75.37-3.61,1.82-6.06,3.32l-.27.17c-1.13.76-2.13,1.51-2.94,2.16Z" transform="translate(0 38.75)"/><path class="cls-4" d="M494.33,92a43.58,43.58,0,0,1-4.66.43A27.3,27.3,0,0,0,494.33,92Z" transform="translate(0 38.75)"/><path class="cls-14" d="M530.39,37.66c3,5.89,2.61,13.51,2.61,13.51l.53,1.16A88.79,88.79,0,0,1,544.7,48c-3-11.67-9.75-12-9.75-12A47.86,47.86,0,0,0,530.39,37.66Z" transform="translate(0 38.75)"/><path class="cls-15" d="M489.62,92.44l.13-.14c-2.22.09-4.36.09-5.75,0A44.44,44.44,0,0,0,489.62,92.44Z" transform="translate(0 38.75)"/><path class="cls-4" d="M530.36,37.67h0Z" transform="translate(0 38.75)"/><path class="cls-4" d="M483.14,92.27c-1.82-.17-3.68-.45-5.62-.82-.73-.14-1.44-.28-2.11-.44C477.2,91.93,482.21,92.22,483.14,92.27Z" transform="translate(0 38.75)"/><path class="cls-4" d="M495.52,80.87a9.08,9.08,0,0,1-.79,4,30.26,30.26,0,0,0,3-.83A16,16,0,0,0,495.52,80.87Z" transform="translate(0 38.75)"/><path class="cls-16" d="M501.43,82.61a24.76,24.76,0,0,0-6.31-6.7h0a27.23,27.23,0,0,1-11.31,1.61,23.84,23.84,0,0,1,.8,8.4,41.7,41.7,0,0,0,10.11-1h0a9.08,9.08,0,0,0,.79-4A16,16,0,0,1,497.71,84,36.88,36.88,0,0,0,501.43,82.61Z" transform="translate(0 38.75)"/><path class="cls-4" d="M520.93,43.39c.81-.65,1.81-1.4,2.94-2.16-.71.44-1.39.89-2,1.31l0,0C521.55,42.84,521.24,43.11,520.93,43.39Z" transform="translate(0 38.75)"/><path class="cls-4" d="M497.71,84a30.26,30.26,0,0,1-3,.83h0a28.73,28.73,0,0,1-5,7.44c1.85-.07,3.75-.21,5.33-.42h0l.8-.16c1.17-.23,2.16-.48,2.82-.65l.73-.2.09,0A14.35,14.35,0,0,0,497.71,84Z" transform="translate(0 38.75)"/><path class="cls-4" d="M498.14,74.54a24.37,24.37,0,0,0,3-1.89C500.7,73,499.5,73.77,498.14,74.54Z" transform="translate(0 38.75)"/><path class="cls-4" d="M519.71,65.1c.62-1,1.18-2,1.66-2.86A18.58,18.58,0,0,1,525,57.83c-1.71-2.79-4.91-5.34-10.88-4.67v0c-.09.21-.84,2-1.64,3.73a.55.55,0,0,1-.05.13c-.09.22-.19.43-.28.65l-.38.85-.27.6a4.74,4.74,0,0,0-.24.51c-.1.24-.2.46-.29.63l-.14.3A12,12,0,0,1,519.71,65.1Z" transform="translate(0 38.75)"/><path class="cls-17" d="M512.47,56.91c.8-1.78,1.55-3.52,1.64-3.73C513.54,54.41,513,55.65,512.47,56.91Z" transform="translate(0 38.75)"/><path class="cls-4" d="M483.77,77.51a0,0,0,0,1,0,0h0Z" transform="translate(0 38.75)"/><path class="cls-18" d="M525.55,58.82A14.43,14.43,0,0,1,527,64c0-.07.09-.13.13-.19A16.78,16.78,0,0,0,525.55,58.82Z" transform="translate(0 38.75)"/><path class="cls-19" d="M533,51.17c-3.6-6.22-11.83-7.71-12.09-7.76a28.39,28.39,0,0,0-6.8,9.77v0c6-.67,9.17,1.88,10.88,4.67a35,35,0,0,1,8.53-5.5Z" transform="translate(0 38.75)"/><path class="cls-20" d="M513.44,73.7a55.49,55.49,0,0,0,6.27-8.6,12,12,0,0,0-8.89-4.52,39.38,39.38,0,0,1-2.24,4.09l0,0A13.39,13.39,0,0,1,513.44,73.7Z" transform="translate(0 38.75)"/><path class="cls-4" d="M535,36s6.71.3,9.75,12c1.35-.44,2.69-.86,4-1.26,9.64-3,10.5-6,10.56-6.32v0c-1.08-4.86-6.77-8.9-15.15-6.62A84.56,84.56,0,0,0,535,36Z" transform="translate(0 38.75)"/><path class="cls-21" d="M501.43,82.61A36.88,36.88,0,0,1,497.71,84a14.35,14.35,0,0,1,1.84,6.82,35.74,35.74,0,0,0,5.08-1.91A30.36,30.36,0,0,0,501.43,82.61Z" transform="translate(0 38.75)"/><path class="cls-4" d="M501.13,72.65a24.37,24.37,0,0,1-3,1.89l-.1,0a15.63,15.63,0,0,1-2.92,1.32,24.76,24.76,0,0,1,6.31,6.7,33.28,33.28,0,0,0,4.68-2.6c-1.17-2.84-2.79-5.82-4.81-7.47Z" transform="translate(0 38.75)"/><path class="cls-4" d="M511.53,75.67a7.62,7.62,0,0,1,1.57,3,13.67,13.67,0,0,0,.34-4.94C512.84,74.36,512.2,75,511.53,75.67Z" transform="translate(0 38.75)"/><path class="cls-4" d="M508.61,64.62l0,0a.83.83,0,0,1-.08.12l0,0a.94.94,0,0,1-.12.18l-.17.27s0,0,0,0l-.19.27s0,0,0,.06a.35.35,0,0,1-.07.09,2.71,2.71,0,0,0-.17.25c-.06.08-.12.18-.19.26a28,28,0,0,1-3.13,3.65l-.36.36c-.4.39-.81.76-1.24,1.12h0s5.71.67,8.75,4.32c.67-.65,1.31-1.31,1.91-2A13.39,13.39,0,0,0,508.61,64.62Z" transform="translate(0 38.75)"/><path class="cls-4" d="M489.67,92.44a43.58,43.58,0,0,0,4.66-.43h0l.75-.13c-1.58.21-3.48.35-5.33.42l-.13.14S489.66,92.45,489.67,92.44Z" transform="translate(0 38.75)"/><path class="cls-22" d="M506.11,80a35.42,35.42,0,0,0,5.42-4.34c-3-3.65-8.75-4.32-8.75-4.32-.49.43-1,.82-1.48,1.19C503.32,74.19,504.94,77.17,506.11,80Z" transform="translate(0 38.75)"/><path class="cls-4" d="M507.64,87.37l.38-.21.21-.13Z" transform="translate(0 38.75)"/><path class="cls-4" d="M504.39,69.86a28,28,0,0,0,3.13-3.65A37.29,37.29,0,0,1,504.39,69.86Z" transform="translate(0 38.75)"/><path class="cls-23" d="M484.61,85.91a24.08,24.08,0,0,1-1.32,6.36l.71,0c1.39.07,3.53.07,5.75,0a28.73,28.73,0,0,0,5-7.44A41.7,41.7,0,0,1,484.61,85.91Z" transform="translate(0 38.75)"/><path class="cls-8" d="M495.11,91.88h0c-1.58.21-3.48.35-5.33.42-2.22.09-4.36.09-5.75,0l-.71,0h-.06" transform="translate(0 38.75)"/><path class="cls-8" d="M499.46,90.87l-.73.2a28.89,28.89,0,0,1-2.82.65l-.8.16" transform="translate(0 38.75)"/><path class="cls-8" d="M504.63,88.94a35.74,35.74,0,0,1-5.08,1.91" transform="translate(0 38.75)"/><path class="cls-8" d="M508.38,86.94l-.15.09-.59.34-.13.07c-.85.48-1.83,1-2.64,1.38-.08.05-.16.08-.24.12" transform="translate(0 38.75)"/><path class="cls-8" d="M526.86,64.14c-.08.13-.15.26-.24.39" transform="translate(0 38.75)"/><path class="cls-8" d="M559.26,40.4c.94,4.25-1.66,9.11-9.06,10.9l-4.63,1.1c-9.68,2.36-13.67,3.86-18.47,11.37,0,.06-.09.12-.13.19" transform="translate(0 38.75)"/><path class="cls-8" d="M530.39,37.66A47.86,47.86,0,0,1,535,36a84.56,84.56,0,0,1,9.16-2.27c8.38-2.28,14.07,1.76,15.15,6.62" transform="translate(0 38.75)"/><path class="cls-8" d="M520.91,43.41l0,0c.81-.65,1.81-1.4,2.94-2.16l.27-.17a38.28,38.28,0,0,1,6.06-3.32" transform="translate(0 38.75)"/><path class="cls-8" d="M512.47,56.91c.54-1.26,1.07-2.5,1.64-3.73a28.39,28.39,0,0,1,6.8-9.77" transform="translate(0 38.75)"/><path class="cls-8" d="M510.82,60.58l.14-.3.29-.63a4.74,4.74,0,0,1,.24-.51q.13-.31.27-.6l.38-.85c.09-.22.18-.43.28-.65" transform="translate(0 38.75)"/><path class="cls-8" d="M508.5,64.79a.83.83,0,0,0,.08-.12,39.38,39.38,0,0,0,2.24-4.09" transform="translate(0 38.75)"/><path class="cls-8" d="M502.78,71.35h0a79.09,79.09,0,0,0,5.69-6.53l0,0" transform="translate(0 38.75)"/><path class="cls-8" d="M483.81,77.51a27.23,27.23,0,0,0,11.31-1.61A25,25,0,0,0,498,74.59l.1,0a24.37,24.37,0,0,0,3-1.89l.17-.11c.49-.37,1-.76,1.48-1.19" transform="translate(0 38.75)"/><path class="cls-8" d="M476.74,76.29a35.31,35.31,0,0,0,7,1.22" transform="translate(0 38.75)"/><path class="cls-8" d="M483.23,92.27A65.69,65.69,0,0,1,475.44,91c-22.51-5.38-11.19-19.64-2.33-16a24.18,24.18,0,0,0,3.41,1.22" transform="translate(0 38.75)"/><path class="cls-8" d="M522.73,71.57h0l-.08.15a41,41,0,0,1-14.27,15.21" transform="translate(0 38.75)"/><path class="cls-8" d="M535,36s6.71.3,9.75,12a36,36,0,0,1,.87,4.42" transform="translate(0 38.75)"/><g class="cls-24"><path class="cls-10" d="M111.54,87.1a30.37,30.37,0,0,0,7.09-7.36C129.84,64,133,36.92,133.1,35.92c-5.5,22.77-20.94,37.77-30.78,45.31-5,3.87-5.21,5.79-5.21,5.79C101.61,87,111.54,87.1,111.54,87.1Z" transform="translate(0 38.75)"/><path class="cls-10" d="M230.83.12a38.27,38.27,0,0,1-8.07,7.33C206.56,18.66,183,19.67,182.11,19.71c20.58-4.09,37.31-20.15,46.28-30.58a102.57,102.57,0,0,0,7.18-9.23,1,1,0,0,0,0,.21C235-17.3,230.83.12,230.83.12Z" transform="translate(0 38.75)"/></g><g class="cls-25"><path class="cls-10" d="M250,86.66a30.6,30.6,0,0,0,7.1-7.36c11.21-15.71,14.35-42.82,14.47-43.82-5.5,22.77-20.94,37.77-30.79,45.31-5.05,3.87-5.2,5.79-5.2,5.79C240.06,86.58,250,86.66,250,86.66Z" transform="translate(0 38.75)"/><path class="cls-10" d="M230.83.12a38.27,38.27,0,0,1-8.07,7.33C206.56,18.66,183,19.67,182.11,19.71c20.58-4.09,37.31-20.15,46.28-30.58a102.57,102.57,0,0,0,7.18-9.23,1,1,0,0,0,0,.21C235-17.3,230.83.12,230.83.12Z" transform="translate(0 38.75)"/></g><g class="cls-26"><path class="cls-10" d="M350.11-3.56A38.07,38.07,0,0,1,342,3.77C325.84,15,302.26,16,301.39,16c20.58-4.09,37.3-20.15,46.28-30.58a105,105,0,0,0,7.18-9.23.87.87,0,0,0,0,.21C354.3-21,350.11-3.56,350.11-3.56Z" transform="translate(0 38.75)"/><path class="cls-10" d="M392.29,24.73a32.87,32.87,0,0,1-7,6.39c-14.12,9.77-34.67,10.66-35.43,10.69,17.94-3.56,32.52-17.56,40.34-26.66a90,90,0,0,0,6.25-8,.9.9,0,0,0,0,.18C396,9.56,392.29,24.73,392.29,24.73Z" transform="translate(0 38.75)"/><path class="cls-10" d="M392.29,24.73a32.87,32.87,0,0,1-7,6.39c-14.12,9.77-34.67,10.66-35.43,10.69,17.94-3.56,32.52-17.56,40.34-26.66a90,90,0,0,0,6.25-8,.9.9,0,0,0,0,.18C396,9.56,392.29,24.73,392.29,24.73Z" transform="translate(0 38.75)"/></g><g class="cls-27"><path class="cls-10" d="M435.9,87.31A49,49,0,0,0,446.39,77c16.37-21.24,19.85-54.55,20-55.78C459.07,49.79,436.19,71,421.5,82.14a129.87,129.87,0,0,1-12.92,8.75l.28,0C412.36,90.55,435.9,87.31,435.9,87.31Z" transform="translate(0 38.75)"/><path class="cls-10" d="M438.45-18.51a38.24,38.24,0,0,1-4,10.14c-9.59,17.21-30.3,28.52-31.07,28.94C420,7.82,428-14,431.41-27.3a104,104,0,0,0,2.37-11.45.89.89,0,0,0,.06.2C434.53-36,438.45-18.51,438.45-18.51Z" transform="translate(0 38.75)"/></g></g></g></svg>