<svg xmlns="http://www.w3.org/2000/svg" viewBox="0 0 996.53 511.71"><defs><style>.cls-1{fill:#fffffb;}</style></defs><g id="圖層_2" data-name="圖層 2"><g id="圖層_1-2" data-name="圖層 1"><path class="cls-1" d="M471.4,60.65a2.58,2.58,0,1,1-2.58-2.6A2.59,2.59,0,0,1,471.4,60.65Z"/><path class="cls-1" d="M592.31,7.33a2.58,2.58,0,1,1-2.58-2.6A2.6,2.6,0,0,1,592.31,7.33Z"/><path class="cls-1" d="M900.92,157.59a4,4,0,1,1-4-4.06A4,4,0,0,1,900.92,157.59Z"/><ellipse class="cls-1" cx="888.13" cy="1.85" rx="1.83" ry="1.85"/><path class="cls-1" d="M120.5,74.77a2.19,2.19,0,1,1-2.19-2.21A2.2,2.2,0,0,1,120.5,74.77Z"/><path class="cls-1" d="M996.53,507.28a4.39,4.39,0,1,1-4.39-4.43A4.42,4.42,0,0,1,996.53,507.28Z"/><path class="cls-1" d="M5.16,193.35A2.6,2.6,0,0,1,2.58,196a2.61,2.61,0,0,1,0-5.21A2.6,2.6,0,0,1,5.16,193.35Z"/><path class="cls-1" d="M135.12,150.53a2.58,2.58,0,1,1-2.58-2.6A2.58,2.58,0,0,1,135.12,150.53Z"/><path class="cls-1" d="M297.47,31.9a1.83,1.83,0,1,1-1.82-1.85A1.82,1.82,0,0,1,297.47,31.9Z"/><path class="cls-1" d="M20.29,125.81a1.15,1.15,0,1,1-1.14-1.11A1.12,1.12,0,0,1,20.29,125.81Z"/><path class="cls-1" d="M270.23,164.9a3.9,3.9,0,1,1-3.9-3.93A3.91,3.91,0,0,1,270.23,164.9Z"/><path class="cls-1" d="M659.65,77.48a2.58,2.58,0,1,1-2.58-2.6A2.59,2.59,0,0,1,659.65,77.48Z"/><path class="cls-1" d="M822.63,176.94a1.15,1.15,0,1,1-1.14-1.11A1.13,1.13,0,0,1,822.63,176.94Z"/><path class="cls-1" d="M745.44,37.5a2.92,2.92,0,1,1-2.92-3A2.93,2.93,0,0,1,745.44,37.5Z"/><ellipse class="cls-1" cx="973.78" cy="236.64" rx="2.19" ry="2.21"/></g></g></svg>