<svg xmlns="http://www.w3.org/2000/svg" viewBox="0 0 897.7 409.28"><defs><style>.cls-1{fill:#fffffb;}</style></defs><g id="圖層_2" data-name="圖層 2"><g id="圖層_1-2" data-name="圖層 1"><path class="cls-1" d="M450.85,1.11a1.14,1.14,0,0,1-2.28,0,1.14,1.14,0,0,1,2.28,0Z"/><path class="cls-1" d="M884.27,406.33a2.93,2.93,0,1,1-2.93-3A2.94,2.94,0,0,1,884.27,406.33Z"/><path class="cls-1" d="M897.7,53.28a2.2,2.2,0,1,1-2.2-2.21A2.2,2.2,0,0,1,897.7,53.28Z"/><ellipse class="cls-1" cx="250.02" cy="127.55" rx="4.02" ry="4.06"/><path class="cls-1" d="M4.39,100.84a2.21,2.21,0,0,1-2.2,2.22,2.22,2.22,0,1,1,2.2-2.22Z"/><path class="cls-1" d="M150.81,82.26a2.92,2.92,0,1,1-2.92-3A2.94,2.94,0,0,1,150.81,82.26Z"/><path class="cls-1" d="M730.81,191.8a2.58,2.58,0,1,1-2.58-2.6A2.6,2.6,0,0,1,730.81,191.8Z"/><path class="cls-1" d="M724.66,63.57a3.9,3.9,0,1,1-3.9-3.94A3.91,3.91,0,0,1,724.66,63.57Z"/></g></g></svg>