<svg xmlns="http://www.w3.org/2000/svg" viewBox="0 0 389.16 31.89"><defs><style>.cls-1{fill:#fff;}</style></defs><g id="圖層_2" data-name="圖層 2"><g id="圖層_1-2" data-name="圖層 1"><path class="cls-1" d="M.27,26C5.54,20.13,9,15.77,9,11.52c0-2.34-.89-3.73-2.55-3.73C5,7.79,3.81,8.87,2.82,10.17L0,7.38C2.07,5.1,4.08,3.81,7.07,3.81c4,0,6.73,3,6.73,7.44,0,4.32-3.13,8.91-6.86,13.74a33.64,33.64,0,0,1,3.63-.24h4.18V28.9H.27Z"/><path class="cls-1" d="M19.89,16.42c0-8.67,2.89-12.54,7.17-12.54s7.18,3.87,7.18,12.54-2.86,12.89-7.18,12.89S19.89,25.12,19.89,16.42Zm9.59,0c0-7.1-1.09-8.7-2.42-8.7s-2.41,1.6-2.41,8.7,1.09,9,2.41,9S29.48,23.53,29.48,16.42Z"/><path class="cls-1" d="M39.37,26c5.27-5.91,8.71-10.27,8.71-14.52,0-2.34-.89-3.73-2.55-3.73-1.43,0-2.62,1.08-3.61,2.38L39.1,7.38c2.07-2.28,4.08-3.57,7.07-3.57,4,0,6.73,3,6.73,7.44,0,4.32-3.13,8.91-6.86,13.74a33.64,33.64,0,0,1,3.63-.24h4.18V28.9H39.37Z"/><path class="cls-1" d="M58.92,26c5.27-5.91,8.7-10.27,8.7-14.52,0-2.34-.88-3.73-2.54-3.73-1.43,0-2.62,1.08-3.61,2.38L58.65,7.38c2.07-2.28,4.08-3.57,7.07-3.57,4,0,6.73,3,6.73,7.44,0,4.32-3.13,8.91-6.86,13.74a33.64,33.64,0,0,1,3.63-.24H73.4V28.9H58.92Z"/><path class="cls-1" d="M109.78,24.61H98.16v7.28H94V24.61H78.68V20.74h5.37V11.83H94V7.75H86.7a30.6,30.6,0,0,1-4.62,6.19,32,32,0,0,0-3.51-2.62C81.63,8.74,84.25,4.39,85.71,0l4.12,1.05a22.25,22.25,0,0,1-1.12,2.79h19.2V7.75H98.16v4.08h9v3.74h-9v5.17h11.62ZM94,20.74V15.57H88.09v5.17Z"/><path class="cls-1" d="M115.4,24.85h4.89V9.52h-4.11V6.39a13.47,13.47,0,0,0,5.44-2.11h3.67V24.85h4.21v4H115.4Z"/><path class="cls-1" d="M161.84,26.69c0,2.45-.58,3.6-2.14,4.28s-4,.78-7.52.78a17.4,17.4,0,0,0-1.7-4.25c2.38.14,5.24.11,6,.11s1.08-.28,1.08-1V21.69H143a18.24,18.24,0,0,1-5.74,10.16,16.08,16.08,0,0,0-3.13-2.92c5.13-4.38,5.61-10.88,5.61-16V1.7h22.1Zm-4.29-8.91V13.63H143.92c0,1.29-.1,2.72-.24,4.15ZM143.92,5.64V9.79h13.63V5.64Z"/><path class="cls-1" d="M171.12,26c5.27-5.91,8.71-10.27,8.71-14.52,0-2.34-.89-3.73-2.55-3.73-1.43,0-2.62,1.08-3.61,2.38l-2.82-2.79c2.07-2.28,4.08-3.57,7.07-3.57,4,0,6.73,3,6.73,7.44,0,4.32-3.13,8.91-6.86,13.74a33.64,33.64,0,0,1,3.63-.24h4.18V28.9H171.12Z"/><path class="cls-1" d="M190.67,22.85c0-3.27,1.53-4.93,3.44-6.43v-.14a8.17,8.17,0,0,1-2.89-6.05c0-3.84,2.78-6.35,6.8-6.35a6,6,0,0,1,6.32,6.32,7.66,7.66,0,0,1-2.82,5.88v.14a7.8,7.8,0,0,1,3.63,6.56c0,3.67-2.61,6.53-7.24,6.53C193.49,29.31,190.67,26.59,190.67,22.85Zm9.62.2c0-2.24-1.25-3.43-3.46-4.86a6.42,6.42,0,0,0-1.7,4.42c0,2,1.15,3.23,2.82,3.23S200.29,24.78,200.29,23.05Zm-.13-12.58c0-1.77-.85-3.09-2.25-3.09-1.25,0-2.14,1-2.14,2.82a5,5,0,0,0,2.89,4.35A6.27,6.27,0,0,0,200.16,10.47Z"/><path class="cls-1" d="M237.86,2.14V31.38h-4.35V29.24H218.42v2.21h-4.19V2.14ZM218.42,6.22v7.31h15.09V6.22Zm15.09,18.94V17.54H218.42v7.62Z"/><path class="cls-1" d="M248.81,17.2h10.4V21h-10.4Z"/><path class="cls-1" d="M266.32,26c5.27-5.91,8.7-10.27,8.7-14.52,0-2.34-.88-3.73-2.54-3.73-1.43,0-2.62,1.08-3.61,2.38l-2.82-2.79c2.07-2.28,4.08-3.57,7.07-3.57,4,0,6.73,3,6.73,7.44,0,4.32-3.13,8.91-6.86,13.74a33.64,33.64,0,0,1,3.63-.24h4.18V28.9H266.32Z"/><path class="cls-1" d="M313.14,26.69c0,2.45-.58,3.6-2.14,4.28s-4,.78-7.52.78a17.4,17.4,0,0,0-1.7-4.25c2.38.14,5.24.11,6,.11s1.08-.28,1.08-1V21.69H294.3a18.24,18.24,0,0,1-5.74,10.16,16.08,16.08,0,0,0-3.13-2.92c5.13-4.38,5.61-10.88,5.61-16V1.7h22.1Zm-4.29-8.91V13.63H295.22c0,1.29-.1,2.72-.24,4.15ZM295.22,5.64V9.79h13.63V5.64Z"/><path class="cls-1" d="M322.42,26c5.27-5.91,8.7-10.27,8.7-14.52,0-2.34-.88-3.73-2.54-3.73-1.43,0-2.62,1.08-3.61,2.38l-2.82-2.79c2.07-2.28,4.08-3.57,7.07-3.57,4,0,6.73,3,6.73,7.44,0,4.32-3.13,8.91-6.86,13.74a33.64,33.64,0,0,1,3.63-.24h4.18V28.9H322.42Z"/><path class="cls-1" d="M342,22.85c0-3.27,1.53-4.93,3.44-6.43v-.14a8.17,8.17,0,0,1-2.89-6.05c0-3.84,2.78-6.35,6.8-6.35a6,6,0,0,1,6.32,6.32,7.66,7.66,0,0,1-2.82,5.88v.14a7.8,7.8,0,0,1,3.63,6.56c0,3.67-2.61,6.53-7.24,6.53C344.79,29.31,342,26.59,342,22.85Zm9.62.2c0-2.24-1.25-3.43-3.46-4.86a6.42,6.42,0,0,0-1.7,4.42c0,2,1.15,3.23,2.82,3.23S351.59,24.78,351.59,23.05Zm-.13-12.58c0-1.77-.85-3.09-2.25-3.09-1.25,0-2.14,1-2.14,2.82A5,5,0,0,0,350,14.55,6.27,6.27,0,0,0,351.46,10.47Z"/><path class="cls-1" d="M389.16,2.14V31.38h-4.35V29.24H369.72v2.21h-4.19V2.14ZM369.72,6.22v7.31h15.09V6.22Zm15.09,18.94V17.54H369.72v7.62Z"/></g></g></svg>